<?xml version="1.0" encoding="utf-8"?>
<!-- Generator: Adobe Illustrator 23.1.0, SVG Export Plug-In . SVG Version: 6.00 Build 0)  -->
<svg version="1.1" id="Слой_1" xmlns="http://www.w3.org/2000/svg" xmlns:xlink="http://www.w3.org/1999/xlink" x="0px" y="0px"
	 viewBox="0 0 1366 1168.2" style="enable-background:new 0 0 1366 1168.2;" xml:space="preserve">
<style type="text/css">
	.st0{fill:#1C1C1C;}
</style>
<g>
	<path class="st0" d="M999,854.5c10.5-13.2,27.2-31.7,26.5-49.8c-0.9-20.6-19.9-42.2-34.1-55.7c-32.8-31.3-89-14.7-118.9,13.1
		c-14.2,14.4-26.2,28.9-23.7,50.3c2.1,18.8,16.8,57.9,33.1,69.2c14,9.8,47.7,8.3,63.8,7.5C970.4,888,984,873.3,999,854.5z
		 M961.2,752.5c-6.2,7.7-12.3,15.5-18.6,23.2c-6.4,7.8-14.5,14.4-21,22c-5.2-0.7-10.8,0-17.1,0.5c-11.6,0.8-23.2,1.2-34.8,2.3
		c2.2-9.2,7-18.2,14.9-26.2C903.4,756.8,935.1,745.5,961.2,752.5z M917,870.2c-26.8-4.9-46.4-27.5-48.7-52.4
		c15-1.9,46.3-8.8,56.5,2.2c12,12.9,16.9,33.5,27.1,48C941.7,871.6,930.2,872.6,917,870.2z M967.4,860.3c-0.1-0.1-0.1-0.3-0.2-0.4
		c-11.7-16.2-17.4-38-30.7-53.1c5.9-6.4,12.6-12.1,18.2-18.9c7.5-9.1,14.7-18.6,22.3-27.7c0.1-0.1,0.1-0.2,0.2-0.3
		c0.6,0.4,1.3,0.8,1.9,1.3c8.9,6.7,27,28.5,28.4,41c1.3,11.5-9.4,24.6-15.5,33C984.6,845.5,976.5,854,967.4,860.3z"/>
	<path class="st0" d="M1095.6,932.9c-32.4-15.5-89.2-18.3-112.8,14.5c-11.7,16.3-24.8,46.7-21.4,67.2c3.3,20.2,24.5,33,40.4,43.9
		c19.5,13.3,37.6,23.9,61.3,17.4c16-4.4,47.8-12.2,58.8-26c12.7-15.9,14.9-58,10.9-77.1C1128.6,952.4,1113,942.1,1095.6,932.9z
		 M1086.9,947.8c9,4.7,16.1,12.2,21.2,21c-10.4,2.2-20.6,5-30.9,7.5c-6.5,1.6-12.8,2.5-18.2,5.1c-8.5-5.3-17.9-9.1-26.3-14.6
		c-8.5-5.6-16.9-11.4-25.4-17C1030.2,935.4,1064.8,937.2,1086.9,947.8z M978.3,1011.6c-2.5-12.8,7.6-39,15.7-50.2
		c0.2,0.2,0.3,0.4,0.5,0.5c9.9,6.5,19.5,13.3,29.4,19.7c7.5,4.9,15.8,8.5,23.5,12.9c-7.9,18.4-6.9,40.5-13.3,59.4
		c-0.1,0.3,0,0.5-0.1,0.8c-8.2-2.4-16.1-6.1-23.5-11.2C1001.4,1037.3,980.9,1024.9,978.3,1011.6z M1094.7,1045.5
		c-13.8,9.2-28.9,13.1-43.8,12.3c5.6-17.3,4.3-37.9,11.7-54.4c4-9,13.9-9.1,22.7-11.2c9.8-2.4,19.5-5.1,29.4-7.1
		C1120.5,1006.9,1115.1,1031.8,1094.7,1045.5z"/>
	<path class="st0" d="M1075.5,792.4c16.2,2.2,30.9-9.5,34-25.3c3.2-16.5-6.2-27.4-20.8-33.2c-1.6-0.6-3-0.6-4.3-0.4
		c-16.2-1-33.1,6.5-36.9,23.7C1043.8,774,1059.5,790.2,1075.5,792.4z M1064.7,759.3c2.7-8.2,12.2-9.2,19.6-8.6
		c6,2.4,9.6,6.2,8.2,13.1c-1.4,7-7.5,12.5-14.8,11.5C1070.9,774.3,1062.2,766.9,1064.7,759.3z"/>
	<path class="st0" d="M1135.5,827.8c-1.6-0.6-3-0.6-4.3-0.4c-16.2-1-33.1,6.5-36.9,23.7c-3.7,16.8,12.1,33,28.1,35.2
		c16.2,2.2,30.9-9.5,34-25.3C1159.5,844.6,1150,833.6,1135.5,827.8z M1139.4,857.7c-1.4,7-7.5,12.5-14.8,11.5
		c-6.9-0.9-15.6-8.4-13.1-15.9c2.7-8.2,12.2-9.2,19.6-8.6C1137.1,847.1,1140.8,850.9,1139.4,857.7z"/>
	<path class="st0" d="M912.5,953.4c-1.6-0.6-3-0.6-4.3-0.4c-16.2-1-33.1,6.5-36.9,23.7c-3.7,16.8,12.1,33,28.1,35.2
		c16.2,2.2,30.9-9.5,34-25.3C936.5,970.1,927.1,959.2,912.5,953.4z M916.5,983.3c-1.4,7-7.5,12.5-14.8,11.5
		c-6.9-0.9-15.6-8.4-13.1-15.9c2.7-8.2,12.2-9.2,19.6-8.6C914.2,972.7,917.8,976.4,916.5,983.3z"/>
	<path class="st0" d="M1233.2,522.2c3.1,3.1,9.2,3.5,12.2,0c10.3-12.1,20.7-24.1,30-37c2.3-3.3,1-7.7-1.4-10.5
		c-27.9-32.7-110.8-151.4-147.1-62.2c-12.3,30.3-17.6,65.5-25.9,97.1c-3.7,14.2-7.4,28.4-11.1,42.6c-102.3-0.2-204.7-2.8-307-2.9
		c-1.5,0-2.7,0.3-3.8,0.9c-3,1-5.2,3.6-4.8,7.8c11.9,128.9,26.8,257.5,47.3,385.3c5.4,33.4,11.1,66.8,17.4,100.1
		c3.3,17.5,2.9,47.3,15.5,61.1c9.6,10.5,26.2,8.4,38.9,8.8c34.2,1,68.3,2.1,102.5,1.9c30.2-0.1,60.3-0.7,90.5-0.9
		c17-0.1,45,3.8,60.8-4.5c33.6-17.5,29.6-83.7,34.7-115.8c22.9-144.3,45.7-288.5,68.6-432.8c0.8-5.3-2.2-11.1-8.3-10.9
		c-28.5,0.9-57.1,1.4-85.6,1.7c7.2-27.8,15-55.5,23.7-82.9C1198,486.7,1215.7,504.4,1233.2,522.2z M1075.7,684.5
		c8.5-38.5,17.9-76.7,27.7-114.9c10.3,0,20.7,0,31-0.1c-9.6,38.7-18.5,77.7-27.8,116.4C1096.3,685.8,1086,685.3,1075.7,684.5z
		 M1058.4,682.7c-22.7-2.6-45.4-6.5-68.1-10.7c-65.1-11.8-123-13.5-186.7,4.5c-4-36.6-7.7-73.2-11.2-109.9
		c97.7,0.3,195.5,2.6,293.2,2.8C1075.9,607.1,1066.7,644.8,1058.4,682.7z M1178.5,906.2c-4.4,27.7-8.8,55.5-13.2,83.2
		c-4.1,25.7-3.9,59-13.2,83.2c-11.5,30.1-38.7,24.2-65.7,24.4c-27.6,0.2-55.2,0.7-82.8,0.9c-26,0.2-52,0.1-78-0.7
		c-12.1-0.3-28.6,2-40.4-1.6c-24-7.4-21.6-15.2-25.3-34.2c-10.5-53.7-19.7-107.7-27.9-161.8c-10.4-68.4-19-137-26.7-205.8
		c85.4-24.8,158-5.5,243.1,6.2c55.7,7.6,112.7,4.6,165.1-15.8C1201.9,758.3,1190.2,832.3,1178.5,906.2z M1232.1,567.8
		c-5.1,32.3-10.2,64.6-15.4,96.9c-30.4,13.6-61.3,19.5-92.4,20.9c9.3-38.7,18.1-77.6,27.8-116.3
		C1178.8,569.1,1205.5,568.6,1232.1,567.8z M1138.7,552.2c-10.3,0.1-20.7,0.1-31,0.1c2.8-10.9,5.6-21.8,8.5-32.7
		c8.1-31.1,11.6-76,28.2-104.1c21.7-36.7,47.5-5.4,66.4,14.4c9.7,10.2,46,40.9,45,53.2c-0.5,6.3-14.2,14.7-17.4,20.7
		c-0.4-0.7-0.7-1.3-1.3-2.3c-12.4-20.1-37.7-38.1-54.6-54.7c-4.8-4.7-12.4-2.3-14.4,3.8C1157,484.1,1147.5,518,1138.7,552.2z"/>
	<path class="st0" d="M812.3,622.6c2.4,10.5,4.2,21.1,5.9,31.7c1.8,10.9,18.5,6.3,16.6-4.6c-2-11.9-4-23.9-6.9-35.6
		c-0.4-1.7-2.5-6.1-2.1-7.8c-0.3-0.4-0.7-0.7-1-1.1c1.6-0.1,3.2-0.3,4.8-0.4c6.7-0.3,13.4,0.2,20.1,1c11,1.4,10.9-15.9,0-17.3
		c-12.1-1.5-38.1-5.4-41.4,11.8C807,607.5,810.7,615.7,812.3,622.6z"/>
	<path class="st0" d="M876.6,608.1c11.1,0,11.1-17.3,0-17.3C865.5,590.8,865.4,608.1,876.6,608.1z"/>
</g>
<g id="snowflake_9_">
	<ellipse transform="matrix(0.9871 -0.1602 0.1602 0.9871 -24.3694 75.6505)" class="st0" cx="457" cy="189" rx="11.9" ry="11.9"/>
	<path class="st0" d="M540.5,226.2l-2.5-4.8l-10.4,5.3l-5.4-3.1l11.9-6.1l-2.5-4.8l-15,7.7l-6.4-3.7l16.5-8.5l-2.5-4.8l-19.6,10.1
		l-9.6-5.5l-9.7-16.8h10.3l12.3,12.3l3-3l-9.3-9.3h3.6l8.6,8.6l3-3l-5.6-5.6h8.6v-4.2h-8.6l5.6-5.6l-3-3l-8.6,8.6h-3.6l9.3-9.3l-3-3
		l-12.3,12.3h-10.9l9.4-16.3l10.5-6l19.6,10.1l2.5-4.8l-16.5-8.5l6.4-3.7l15,7.7l2.5-4.8l-11.9-6.1l5.4-3.1l10.4,5.3l2.5-4.8
		l-7.3-3.7l10.6-6.1l-2.7-4.7l-10.6,6.1l0.4-8.1l-5.4-0.3l-0.6,11.6l-5.4,3.1l0.7-13.3l-5.4-0.3L514,153l-6.4,3.7l0.9-18.5l-5.4-0.3
		l-1.1,22l-10.5,6h-18.8l5.5-9.5l16.8-4.5l-1.1-4.1l-12.8,3.4l1.8-3.1l11.8-3.2l-1.1-4.1L486,143l4.3-7.5l-3.6-2.1l-4.3,7.5
		l-2.1-7.7l-4.1,1.1l3.2,11.8l-1.8,3.1l-3.4-12.8l-4.1,1.1l4.5,16.8l-5.2,9l-9.7-16.8v-11.1l18.5-12l-2.9-4.5L459.7,129v-7.4
		l14.2-9.1L471,108l-11.2,7.3V109l9.8-6.3l-2.9-4.5l-6.8,4.4V90.3h-5.4v12.2l-6.8-4.4l-2.9,4.5l9.8,6.3v6.3l-11.2-7.3l-2.9,4.5
		l14.2,9.1v7.4l-15.6-10.1l-2.9,4.5l18.5,12v12.1l-9.4,16.3l-5.5-9.5l4.4-16.5l0.1-0.3l-4.1-1.1l-3.4,12.8l-1.8-3.1l3.2-11.8
		l-4.1-1.1l-2.1,7.7l-4.3-7.5l-3.6,2.1l4.3,7.5l-7.7-2.1l-1.1,4.1l11.8,3.2l1.8,3.1l-12.8-3.4l-1.1,4.1l16.8,4.5l5.5,9.5h-18.8
		l-10.5-6l-1.1-22l-5.4,0.3l0.9,18.5l-6.4-3.7l-0.8-16.8l-5.4,0.3l0.7,13.3l-5.4-3.1l-0.6-11.6l-5.4,0.3l0.4,8.1l-10.6-6.1l-2.7,4.7
		l10.6,6.1l-7.3,3.7l2.5,4.8l10.4-5.3l5.4,3.1l-11.9,6.1l2.5,4.8l15-7.7l6.4,3.7l-16.5,8.5l2.5,4.8l19.6-10.1l9.6,5.5l9.7,16.8
		h-10.3L406,174.6l-3,3l9.3,9.3h-3.6l-8.6-8.6l-3,3l5.6,5.6h-8.6v4.2h8.6l-5.6,5.6l3,3l8.6-8.6h3.6l-9.3,9.3l3,3l12.3-12.3h10.9
		l-9.4,16.3l-10.5,6l-19.6-10.1l-2.5,4.8l16.5,8.5l-6.4,3.7l-15-7.7l-2.5,4.8l11.9,6.1l-5.4,3.1l-10.4-5.3l-2.5,4.8l7.3,3.7
		l-10.6,6.1l2.7,4.7l10.6-6.1l-0.4,8.1l5.4,0.3l0.6-11.6l5.4-3.1l-0.7,13.3l5.4,0.3l0.8-16.8l6.4-3.7l-0.9,18.5l5.4,0.3l1.1-22
		l10.5-6h18.8l-5.5,9.5L419,226l1.1,4.1l12.8-3.4l-1.8,3.1l-11.8,3.2l1.1,4.1l7.7-2.1l-4.3,7.5l3.6,2.1l4.3-7.5l2.1,7.7l4.1-1.1
		l-3.2-11.8l1.8-3.1l3.4,12.8l4.1-1.1l-4.5-16.8l5.2-9l9.7,16.8v11.1l-18.5,12l2.9,4.5l15.6-10.1v7.4l-14.2,9.1l2.9,4.5l11.2-7.3
		v6.3l-9.8,6.3l2.9,4.5l6.8-4.4v12.2h5.4v-12.2l6.8,4.4l2.9-4.5l-9.8-6.3v-6.3L471,270l2.9-4.5l-14.2-9.1v-7.4l15.6,10.1l2.9-4.5
		l-18.5-12v-12.1l9.4-16.3l5.5,9.5l-4.4,16.5l-0.1,0.3l4.1,1.1l3.4-12.8l1.8,3.1l-3.2,11.8l4.1,1.1l2.1-7.7l4.3,7.5l3.6-2.1
		l-4.3-7.5l7.7,2.1l1.1-4.1l-11.8-3.2l-1.8-3.1l12.8,3.4l1.1-4.1l-16.8-4.5l-5.5-9.5h18.8l10.5,6l1.1,22l5.4-0.3l-0.9-18.5l6.4,3.7
		l0.8,16.8l5.4-0.3l-0.7-13.3l5.4,3.1l0.6,11.6l5.4-0.3l-0.4-8.1l10.6,6.1l2.7-4.7l-10.6-6.1L540.5,226.2z M488.2,206.6h-21
		l-10.5,18.2l-10.5-18.2h-19.8l9.9-17.1l-10.5-18.2h21l10.5-18.2l10.5,18.2h19.8l-9.9,17.1L488.2,206.6z"/>
</g>
<path id="snowflake_34_" class="st0" d="M614.5,1052.3l-1.8-6.7l-16.8,4.5l-8.2-4.7l16.8-4.5l-1.8-6.7l-23.5,6.3l-8-4.6l23-6.2
	l-1.8-6.7l-29.6,7.9l-7.8-4.5l27.3-7.3l-1.8-6.7l-34,9.1l-28.1-16.2l28.2-16.3l34,9.1l1.8-6.7l-27.3-7.3l7.8-4.5l29.6,7.9l1.8-6.7
	l-23-6.2l8-4.6l23.5,6.3l1.8-6.7l-16.8-4.5l8.2-4.7l16.8,4.5l1.8-6.7l-10.1-2.7l15.3-8.8l0.3-0.2l-3.5-6l-15.6,9l2.7-10.1l-6.7-1.8
	l-4.5,16.8l-8.2,4.7l4.4-16.5l0.1-0.4l-6.7-1.8l-6.3,23.5l-8,4.6l6-22.6l0.1-0.4l-6.7-1.8l-7.9,29.6l-7.8,4.5l7.2-27l0.1-0.4
	l-6.7-1.8l-9.1,34l-28.1,16.2v-32.5l24.9-24.9l-4.9-4.9l-20,20v-9l21.7-21.7l-4.9-4.9l-16.8,16.8v-9.3l17.2-17.2l-4.9-4.9
	l-12.3,12.3v-9.4l12.3-12.3l-4.9-4.9l-7.4,7.4v-18h-6.9v18l-7.4-7.4l-4.9,4.9l12.3,12.3v9.4l-12.3-12.3l-4.9,4.9l17.2,17.2v9.3
	l-16.8-16.8l-4.9,4.9l21.7,21.7v9l-20-20l-4.9,4.9l24.9,24.9v32.4l-28.2-16.3l-9.1-34l-6.7,1.8l7.3,27.3l-7.8-4.5l-7.9-29.6
	l-6.7,1.8l6.2,23l-8-4.6l-6.3-23.5l-6.7,1.8l4.5,16.8l-8.2-4.7l-4.5-16.8l-6.7,1.8l2.7,10.1l-15.3-8.8l-0.3-0.2l-3.5,6l15.6,9
	l-10.1,2.7l1.8,6.7l16.8-4.5l8.2,4.7l-16.8,4.5l1.8,6.7l23.5-6.3l8,4.6l-23,6.2l1.8,6.7l29.6-7.9l7.8,4.5l-27.3,7.3l1.8,6.7l34-9.1
	l28.1,16.2l-28.2,16.3l-34-9.1l-1.8,6.7l27.3,7.3l-7.8,4.5l-29.6-7.9l-1.8,6.7l23,6.2l-8,4.6l-23.5-6.3l-1.8,6.7l16.8,4.5l-8.2,4.7
	l-16.8-4.5l-1.8,6.7l10.1,2.7l-15.3,8.8l-0.3,0.2l3.5,6l15.6-9l-2.7,10.1l6.7,1.8l4.5-16.8l8.2-4.7l-4.4,16.5l-0.1,0.4l6.7,1.8
	l6.3-23.5l8-4.6l-6,22.6l-0.1,0.4l6.7,1.8l7.9-29.6l7.8-4.5l-7.2,27l-0.1,0.4l6.7,1.8l9.1-34l28.1-16.2v32.5l-24.9,24.9l4.9,4.9
	l20-20v9l-21.7,21.7l4.9,4.9l16.8-16.8v9.3l-17.2,17.2l4.9,4.9l12.3-12.3v9.4l-12.3,12.3l4.9,4.9l7.4-7.4v18h6.9v-18l7.4,7.4
	l4.9-4.9l-12.3-12.3v-9.4l12.3,12.3l4.9-4.9l-17.2-17.2v-9.3l16.8,16.8l4.9-4.9l-21.7-21.7v-9l20,20l4.9-4.9l-24.9-24.9v-32.4
	l28.2,16.3l9.1,34l6.7-1.8l-7.3-27.3l7.8,4.5l7.9,29.6l6.7-1.8l-6.2-23l8,4.6l6.3,23.5l6.7-1.8l-4.5-16.8l8.2,4.7l4.5,16.8l6.7-1.8
	l-2.7-10.1l15.3,8.8l0.3,0.2l3.5-6l-15.6-9L614.5,1052.3z M508.5,1010.6l-3.1-5.4l3.1-5.4h6.2l3.1,5.4l-3.1,5.4H508.5z"/>
<g>
	<g>
		<g>
			
				<ellipse transform="matrix(0.9962 -8.664020e-02 8.664020e-02 0.9962 -41.4799 49.8477)" class="st0" cx="553.5" cy="502.8" rx="3.4" ry="3.4"/>
			<path class="st0" d="M555.7,750c1.4,1.2,1.6,3.3,0.4,4.8c-1.2,1.4-3.3,1.6-4.8,0.4c-1.4-1.2-1.6-3.3-0.4-4.8
				C552.1,749,554.3,748.8,555.7,750z"/>
			<path class="st0" d="M430.8,621.7c1.4,1.2,1.6,3.3,0.4,4.8c-1.2,1.4-3.3,1.6-4.8,0.4c-1.4-1.2-1.6-3.3-0.4-4.8
				C427.2,620.7,429.3,620.5,430.8,621.7z"/>
			
				<ellipse transform="matrix(0.9963 -8.650660e-02 8.650660e-02 0.9963 -50.4139 39.6237)" class="st0" cx="432" cy="601.5" rx="3.4" ry="3.4"/>
			<path class="st0" d="M435.3,651.8c0.4,1.8-0.8,3.6-2.6,4c-1.8,0.4-3.6-0.8-4-2.6c-0.4-1.8,0.8-3.6,2.6-4
				C433.1,648.8,434.9,650,435.3,651.8z"/>
			<path class="st0" d="M445.8,680.6c0.4,1.8-0.8,3.6-2.6,4c-1.8,0.4-3.6-0.8-4-2.6c-0.4-1.8,0.8-3.6,2.6-4
				C443.6,677.6,445.4,678.7,445.8,680.6z"/>
			<path class="st0" d="M463.7,709.5c0.4,1.8-0.8,3.6-2.6,4c-1.8,0.4-3.6-0.8-4-2.6c-0.4-1.8,0.8-3.6,2.6-4
				C461.5,706.5,463.3,707.7,463.7,709.5z"/>
			<path class="st0" d="M489.5,730.9c0.4,1.8-0.8,3.6-2.6,4c-1.8,0.4-3.6-0.8-4-2.6c-0.4-1.8,0.8-3.6,2.6-4
				C487.3,727.9,489.1,729.1,489.5,730.9z"/>
			<path class="st0" d="M520.7,745.6c0.4,1.8-0.8,3.6-2.6,4c-1.8,0.4-3.6-0.8-4-2.6c-0.4-1.8,0.8-3.6,2.6-4
				C518.5,742.6,520.3,743.8,520.7,745.6z"/>
			<path class="st0" d="M441.2,574.8c1.4,1.2,1.6,3.3,0.4,4.8c-1.2,1.4-3.3,1.6-4.8,0.4s-1.6-3.3-0.4-4.8
				C437.7,573.7,439.8,573.6,441.2,574.8z"/>
			<path class="st0" d="M453.6,552.9c1.4,1.2,1.6,3.3,0.4,4.8c-1.2,1.4-3.3,1.6-4.8,0.4c-1.4-1.2-1.6-3.3-0.4-4.8
				C450,551.9,452.2,551.7,453.6,552.9z"/>
			<ellipse class="st0" cx="466.3" cy="537.7" rx="3.4" ry="3.4"/>
			<path class="st0" d="M488.4,518.6c1.4,1.2,1.6,3.3,0.4,4.8c-1.2,1.4-3.3,1.6-4.8,0.4c-1.4-1.2-1.6-3.3-0.4-4.8
				C484.8,517.6,487,517.4,488.4,518.6z"/>
			
				<ellipse transform="matrix(0.9962 -8.663970e-02 8.663970e-02 0.9962 -42.3417 45.9509)" class="st0" cx="508.2" cy="510.8" rx="3.4" ry="3.4"/>
			
				<ellipse transform="matrix(0.9962 -8.663990e-02 8.663990e-02 0.9962 -41.7339 47.8916)" class="st0" cx="530.9" cy="504.7" rx="3.4" ry="3.4"/>
		</g>
		<g>
			
				<ellipse transform="matrix(8.662510e-02 -0.9962 0.9962 8.662510e-02 -1.7079 1246.7902)" class="st0" cx="679.1" cy="624.3" rx="3.4" ry="3.4"/>
			<path class="st0" d="M673.5,598.9c-1.4,1.2-1.6,3.3-0.4,4.8c1.2,1.4,3.3,1.6,4.8,0.4c1.4-1.2,1.6-3.3,0.4-4.8
				C677.1,597.9,675,597.7,673.5,598.9z"/>
			<path class="st0" d="M672.4,651.8c-0.4,1.8,0.8,3.6,2.6,4c1.8,0.4,3.6-0.8,4-2.6c0.4-1.8-0.8-3.6-2.6-4
				C674.6,648.8,672.8,650,672.4,651.8z"/>
			<path class="st0" d="M661.9,680.6c-0.4,1.8,0.8,3.6,2.6,4c1.8,0.4,3.6-0.8,4-2.6c0.4-1.8-0.8-3.6-2.6-4
				C664.1,677.6,662.3,678.7,661.9,680.6z"/>
			<path class="st0" d="M644,709.5c-0.4,1.8,0.8,3.6,2.6,4c1.8,0.4,3.6-0.8,4-2.6c0.4-1.8-0.8-3.6-2.6-4
				C646.2,706.5,644.4,707.7,644,709.5z"/>
			<path class="st0" d="M618.2,730.9c-0.4,1.8,0.8,3.6,2.6,4c1.8,0.4,3.6-0.8,4-2.6c0.4-1.8-0.8-3.6-2.6-4
				C620.4,727.9,618.6,729.1,618.2,730.9z"/>
			<path class="st0" d="M587,745.6c-0.4,1.8,0.8,3.6,2.6,4c1.8,0.4,3.6-0.8,4-2.6c0.4-1.8-0.8-3.6-2.6-4
				C589.2,742.6,587.4,743.8,587,745.6z"/>
			
				<ellipse transform="matrix(8.662510e-02 -0.9962 0.9962 8.662510e-02 35.527 1193.4478)" class="st0" cx="668.6" cy="577.3" rx="3.4" ry="3.4"/>
			<path class="st0" d="M654.1,552.9c-1.4,1.2-1.6,3.3-0.4,4.8c1.2,1.4,3.3,1.6,4.8,0.4c1.4-1.2,1.6-3.3,0.4-4.8
				C657.7,551.9,655.5,551.7,654.1,552.9z"/>
			<path class="st0" d="M639.2,535.2c-1.4,1.2-1.6,3.3-0.4,4.8c1.2,1.4,3.3,1.6,4.8,0.4c1.4-1.2,1.6-3.3,0.4-4.8
				C642.7,534.1,640.6,534,639.2,535.2z"/>
			
				<ellipse transform="matrix(8.662510e-02 -0.9962 0.9962 8.662510e-02 48.372 1095.2242)" class="st0" cx="621.5" cy="521.2" rx="3.4" ry="3.4"/>
			<path class="st0" d="M597.3,508.2c-1.4,1.2-1.6,3.3-0.4,4.8c1.2,1.4,3.3,1.6,4.8,0.4c1.4-1.2,1.6-3.3,0.4-4.8
				C600.9,507.2,598.8,507,597.3,508.2z"/>
			<path class="st0" d="M574.7,502.1c-1.4,1.2-1.6,3.3-0.4,4.8c1.2,1.4,3.3,1.6,4.8,0.4c1.4-1.2,1.6-3.3,0.4-4.8
				C578.2,501.1,576.1,500.9,574.7,502.1z"/>
		</g>
	</g>
	<g>
		<path class="st0" d="M553.8,780.8c-20.7,0-40.7-4-59.6-12c-18.2-7.7-34.6-18.7-48.7-32.8c-14.1-14.1-25.1-30.4-32.8-48.7
			c-8-18.9-12-38.9-12-59.6c0-20.7,4-40.7,12-59.6c7.7-18.2,18.7-34.6,32.8-48.6c14.1-14.1,30.4-25.1,48.6-32.8
			c18.9-8,38.9-12,59.6-12c20.7,0,40.7,4,59.6,12c18.2,7.7,34.6,18.7,48.6,32.8c14.1,14.1,25.1,30.4,32.8,48.6
			c8,18.9,12,38.9,12,59.6c0,20.7-4,40.7-12,59.6c-7.7,18.2-18.7,34.6-32.8,48.7C648,750,631.7,761,613.4,768.7
			C594.6,776.7,574.5,780.8,553.8,780.8z M553.8,484.5c-38.2,0-74.2,14.9-101.2,41.9c-27,27-41.9,63-41.9,101.2
			c0,38.2,14.9,74.2,41.9,101.2c27,27,63,41.9,101.2,41.9c38.2,0,74.2-14.9,101.2-41.9c27-27,41.9-63,41.9-101.2
			c0-38.2-14.9-74.2-41.9-101.2C628,499.4,592.1,484.5,553.8,484.5z"/>
	</g>
</g>
<g>
	<g>
		<path class="st0" d="M561.2,620.5c0,1.2-1,2.2-2.2,2.2s-2.2-1-2.2-2.2s1-2.2,2.2-2.2S561.2,619.3,561.2,620.5z"/>
		<path class="st0" d="M536.2,620.5c0,1.2-1,2.2-2.2,2.2c-1.2,0-2.2-1-2.2-2.2s1-2.2,2.2-2.2C535.2,618.3,536.2,619.3,536.2,620.5z"
			/>
		<path class="st0" d="M569.2,634.4c-3.9-2-7.9-3.4-11.7-5.3c-4.3-2.2-9.4-2.5-14.2-2c-11,1.1-21.6,6-29.5,13.6
			c-6.6,6.4-4.1,19.2,0,26.8c2.2,4.1,5.8,6.5,8.8,9.3c2.7,2.5,4.9,5.4,5.3,10.1c0.3,3.2-0.3,6.4,0.8,9.4c1.2,3.4,4.1,5.8,7.1,7.8
			c6.4,4.4,13.4,7.9,20.7,10.4c-1.3-6.3-2.4-13.6,1.6-18.6c2.6-3.2,6.7-4.6,10.4-6.4c3.7-1.8,7.5-4.7,8-8.7c0.4-3.4-1.3-7.4,1-9.8
			c1-1,2.5-1.5,3.4-2.6c1-1.2,1.1-3,1.1-4.5c0-2.9,0-5.9,0-8.8C582,646.2,577.2,638.5,569.2,634.4z M537.4,645.9
			c-1.5,0.2-2.6,1.5-3.8,2.5c-4.1,3.3-10,2.7-13.6-1.2c-1.3-1.4-2.4-3.6-1.8-5.6c1.2-0.9,2.5,0.8,3.7,1.8c2.3,1.9,5.4,0.9,7.7-0.8
			c2.3-1.8,4.3-4.3,6.8-5.5c4-2.1,12.8,5.1,8.2,9.7C542.6,648.5,539.8,645.6,537.4,645.9z M549.7,651.9c-2.1,3.6-7,3.1-8.5-0.7
			c-0.3-0.7,0.9-1,1.2-0.3c1.1,2.8,4.8,3,6.3,0.4C549.1,650.7,550.1,651.3,549.7,651.9z M571.7,647.1c-3.7,4-9.5,4.5-13.6,1.2
			c-1.2-1-2.4-2.3-3.8-2.5c-2.5-0.3-5.2,2.6-7.1,0.7c-4.6-4.5,4.1-11.7,8.2-9.7c2.5,1.3,4.5,3.8,6.8,5.5c2.3,1.8,5.5,2.7,7.7,0.8
			c1.2-1,2.5-2.7,3.7-1.8C574.1,643.6,573,645.7,571.7,647.1z"/>
	</g>
	<g>
		<path class="st0" d="M582.4,543.6c-4.8-2.5-10.8-3.2-16.1-2.6c-11.2,1.1-20.9,9.1-28.7,16.6c-5.8,5.6-10.9,11.9-15.2,18.7
			c-1.1,1.7-9.8,20.6-9.7,20.6l1.4,0.1c22.6,0.5,45.3,0.9,67.9,1.4c2-7.1-1.8-14.4-5.1-21.1c-3.6-7.2-10.6-20.6,4.3-18.7
			c3.9,0.5,7.6,2.9,9.7,6.2c0.9-4.6,0.7-9.5-1.3-13.8C588.1,547.7,585.5,545.2,582.4,543.6z"/>
		<path class="st0" d="M514.9,592.4c-2.8,1.1-4.7,3.9-5.3,6.9c-0.7,3-0.3,6,0,9c0.1,0.9,0.2,1.8,0.8,2.5c0.5,0.5,1.3,0.7,2,0.9
			c3.1,0.6,6.2,0.7,9.4,0.7c16.8,0.2,33.7,0.4,50.5,0.6c3.8,0,8,0,11.1-2.2c2.9-2.1,4.3-6,3.4-9.4c-0.9-3.4-4-6.2-7.5-6.7
			L514.9,592.4z"/>
		<path class="st0" d="M602.4,565.4c-1.6-2-3.9-3.3-6.6-3.3c-1.6,0-3.2,0.6-4.6,1.5c-0.8,0-1.6,0.5-2.2,1.1
			c-2.8,2.7-3.6,7.3-1.9,10.8c1.1,2.4,3.3,4.2,5.8,4.9c3,1,5.4,0,8-1.7c1.4-0.9,2.6-2.2,3.2-3.7c0.4-1,0.6-2.2,0.6-3.3
			C604.7,569.5,603.8,567.2,602.4,565.4z"/>
	</g>
</g>
<g>
	<g>
		<g>
			<g>
				<path class="st0" d="M909.2,161.4c-1.6-0.5-3.3,1.4-3.7,2.5c-0.9,2.6-0.5,4.7-0.8,7.2c-1.8-0.7-3.4-0.9-5.2,0.2
					c-1.8,1-2.6,2.7-3.5,4.4c-1.2-3.3-6.1-3.2-8.9-3c-0.8,0.1-0.5,0.2-0.9,0.1c-0.8-0.2-0.7-0.9-0.4-1.4c0.2-0.5,0.9-0.7,1.3-0.9
					c2.4-1.3,4.3-2.4,5.2-5c3.6,1.2,2.7-2.9,2.4-5.2c0.5,1.1,2.9,0,3.2-0.3c1.2-1.9,0.7-3.3,0.6-5.2c3.3,0.8,7.5-2.9,10.3-4.5
					C907.1,154.5,906.6,157.5,909.2,161.4z"/>
			</g>
		</g>
		<g>
			<g>
				<path class="st0" d="M890.9,169.2c-5.2,2.6-10.4,4.1-16.3,3.6c-0.7-0.1-0.8,1-0.1,1c6.1,0.5,11.4-0.9,16.8-3.6
					C891.9,169.9,891.5,168.9,890.9,169.2L890.9,169.2z"/>
			</g>
		</g>
	</g>
	<g>
		<g>
			<g>
				<path class="st0" d="M991.7,234c-1.5-1.6-4.5-0.3-5.5,0.8c-2.4,2.5-3.1,5.2-4.9,7.9c-1.7-1.9-3.4-3.1-6-3
					c-2.6,0.1-4.4,1.6-6.4,3.1c0.5-4.6-5.1-7.4-8.4-8.8c-1-0.4-0.7-0.1-1-0.4c-0.8-0.7-0.3-1.4,0.3-1.9c0.6-0.5,1.4-0.3,2-0.3
					c3.4-0.1,6.1-0.2,8.6-2.7c3.4,3.5,4.6-1.8,5.5-4.6c0,1.6,3.3,1.8,3.8,1.5c2.4-1.5,2.5-3.5,3.5-5.7c3.3,2.9,10.1,1.2,14,0.9
					C993,224.8,990.8,228,991.7,234z"/>
			</g>
		</g>
		<g>
			<g>
				<path class="st0" d="M966.8,232.2c-7.4-0.1-14.1-1.5-20.3-5.6c-0.7-0.5-1.5,0.6-0.8,1.1c6.4,4.2,13.3,5.8,20.9,5.8
					C967.5,233.5,967.7,232.2,966.8,232.2L966.8,232.2z"/>
			</g>
		</g>
	</g>
	<g>
		<g>
			<path class="st0" d="M997.7,247.4c-0.2-0.3-0.4-0.6-0.6-1c-1.2,1.3-3,1.9-4.7,1.5c-1.7-0.3-3.1-1.6-3.7-3.2
				c-1.1,1.3-2.3,2.6-3.9,3.2c-1.6,0.7-3.6,0.5-4.7-0.8c-0.4-0.5-0.9-1.2-1.4-0.9c-0.2,0.1-0.3,0.3-0.4,0.5c-1,1.9-9.9,8.5-11.9,7.2
				c0.5,0.4,9,6.9,7.3,7.7c3.4-1.7,8-2.4,10.5,0.5c2.2-4.5,8.5-6.3,12.8-3.8c-0.2-0.1,4.4-3,4.9-3.2c1.9-0.8,4.3-0.6,6-1.8
				C1004.7,250.9,1000.2,251.1,997.7,247.4z"/>
		</g>
		<g>
			<path class="st0" d="M971.9,199.4c-0.3-0.4-0.7-0.9-1-1.4c-1.5,1.9-4.1,2.9-6.6,2.6c-2.5-0.4-4.8-2.1-5.9-4.5c-1.5,2-3,4-5.2,5.1
				c-2.2,1.1-5.2,1-6.9-0.9c-0.6-0.7-1.4-1.7-2.2-1.2c-0.3,0.2-0.4,0.5-0.5,0.8c-1.2,2.9-13.1,13.2-16.2,11.4
				c0.8,0.5,14.1,9.6,11.7,11c4.7-2.7,11.3-4,15.3,0.1c2.6-6.8,11.4-9.9,18-6.4c-0.3-0.2,5.9-4.8,6.6-5.1c2.7-1.3,6.2-1.1,8.5-3
				C982.6,204,976.1,204.6,971.9,199.4z"/>
		</g>
		<g>
			<path class="st0" d="M938.8,264.1c0.8,0.1,2.2-2.1,2.3-2.7c0.2-1.2-0.9-2.8-1.6-3.7c1.5-0.3,2.8-1.5,3.1-2.8
				c0.4-1.3-0.1-2.6-0.9-3.6c1.3,1.4,4.5-4,4.7-4.5c0-0.1,0.1-0.3,0.2-0.4c0.3-0.3,0.8-0.1,1,0.1c0.2,0.3,0.1,0.6,0.1,1
				c-0.2,1.9,0.3,3.7,1.4,5.2c-2.2,0.4-0.2,4.8,0.7,5.5c-0.5-0.4-2.4,2.2-2.5,2.4c-0.6,1.2-0.5,2.5,0,3.6c-0.6-1.2-5.2,5-5.5,5.3
				C941.6,267.9,941.4,264.5,938.8,264.1z"/>
		</g>
		<g>
			<g>
				<path class="st0" d="M959.7,244.3c-12.4-19.2-29.4-34.9-48-48.1c-0.7-0.5-1.6,0.6-0.8,1.1c18.4,13.2,35.4,28.7,47.7,47.8
					C959.1,245.9,960.2,245.1,959.7,244.3L959.7,244.3z"/>
			</g>
		</g>
		<g>
			<g>
				<g>
					<path class="st0" d="M931,257.8c-2.6-1.7-1.7-6.4-0.5-8.1c2.8-4.2,6.3-6,9.5-9.4c-3.1-1.9-5.1-4-5.7-7.8
						c-0.6-3.7,1-6.8,2.5-10.1c-6.1,2-11.5-5.1-14.3-9.4c-0.8-1.3-0.3-1-0.9-1.4c-1.2-0.9-2,0.1-2.5,1c-0.5,0.9,0,2.1,0.1,3
						c0.8,5,1.4,8.8-1.3,13.1c5.8,3.8-1.2,7.2-4.8,9.3c2.2-0.4,3.4,4.2,3.1,5c-1.3,3.9-4.1,4.7-6.8,6.7c4.8,3.8,4.3,14.2,5.1,20
						C918.8,262.6,922.6,258.4,931,257.8z"/>
				</g>
			</g>
			<g>
				<g>
					<path class="st0" d="M923.6,222.1c-2.2-10.8-6-20.3-13.6-28.5c-0.8-0.9-2.4,0.3-1.5,1.2c7.4,8,11.1,17,13.2,27.5
						C921.9,223.5,923.8,223.3,923.6,222.1L923.6,222.1z"/>
				</g>
			</g>
		</g>
		<g>
			<g>
				<g>
					<path class="st0" d="M850.3,131.7c-2.7-0.7-5.3,2.7-5.8,4.5c-1.2,4.4-0.4,7.8-0.7,12c-3.1-1-5.7-1.1-8.6,0.8
						c-2.9,1.8-4,4.7-5.3,7.7c-2.2-5.3-10.3-4.7-14.8-4c-1.3,0.2-0.8,0.4-1.4,0.2c-1.3-0.3-1.2-1.4-0.8-2.3c0.3-0.9,1.4-1.3,2.1-1.7
						c3.9-2.4,6.8-4.3,8.1-8.7c6,1.6,4.1-5.1,3.5-8.7c1,1.7,4.8-0.2,5.2-0.9c1.8-3.2,0.8-5.5,0.6-8.6c5.5,1,12.1-5.5,16.5-8.4
						C846.3,120.7,845.7,125.7,850.3,131.7z"/>
				</g>
			</g>
			<g>
				<g>
					<path class="st0" d="M820.9,146.4c-8.3,4.8-16.7,7.7-26.4,7.5c-1.1,0-1.3,1.7-0.2,1.7c10.1,0.3,18.7-2.6,27.3-7.6
						C822.5,147.4,821.9,145.8,820.9,146.4L820.9,146.4z"/>
				</g>
			</g>
		</g>
		<g>
			<g>
				<g>
					<path class="st0" d="M957.6,291.8c-1.3-2,1.3-5.4,2.6-6.5c3.1-2.7,5.9-3.9,9.2-6c-2.1-2.4-2.7-4.8-2.3-8
						c0.3-3.2,1.6-5.9,3.4-8.4c-4.9,0.5-7.8-6.6-9.2-10.1c-0.4-1-0.1-0.7-0.4-1.1c-0.8-0.8-1.5-0.2-1.9,0.4
						c-0.5,0.6-0.3,1.5-0.4,2.2c-0.2,3.9-0.1,7.5-2.5,10.8c3.4,4.2-1.8,6.6-5.5,7.9c1.9,0.2,1.4,4.2,1,4.8c-1.9,2.9-4.1,2.5-7,3
						c1.8,3.8-2.8,10-4.3,13.5C945.8,291.4,951.4,290.6,957.6,291.8z"/>
				</g>
			</g>
			<g>
				<g>
					<path class="st0" d="M960.7,260c-0.1-8.3-1.4-15.6-5.8-22.7c-0.5-0.8-1.6,0.1-1.1,0.9c4.3,6.8,5.4,14.1,5.5,22
						C959.3,261,960.7,260.8,960.7,260L960.7,260z"/>
				</g>
			</g>
		</g>
		<g>
			<g>
				<g>
					<path class="st0" d="M899.3,218.3c-1.3-1.2-0.1-4.1,0.7-5.1c1.7-2.5,3.5-3.9,5.5-6c-2-1.3-2.8-2.9-3.1-5.3
						c-0.3-2.3,0.1-4.5,0.9-6.7c-3.4,1.2-6.8-3.3-8.4-5.5c-0.5-0.6-0.2-0.5-0.5-0.7c-0.7-0.4-1.1,0.1-1.3,0.6
						c-0.2,0.5,0,1.1,0.1,1.6c0.6,2.9,1.3,5.4,0.2,8.2c3.2,2.4-0.1,5.1-2.5,6.7c1.4-0.2,1.7,2.8,1.6,3.3c-0.8,2.4-2.5,2.6-4.5,3.4
						c2,2.4-0.2,7.6-0.6,10.5C890.8,220.1,894.6,218.5,899.3,218.3z"/>
				</g>
			</g>
			<g>
				<g>
					<path class="st0" d="M895.7,194.9c-1.6-5.9-3.9-10.9-8.3-15.2c-0.5-0.5-1.1,0.4-0.6,0.8c4.3,4.1,6.4,9.1,8,14.8
						C894.9,195.9,895.8,195.5,895.7,194.9L895.7,194.9z"/>
				</g>
			</g>
		</g>
		<g>
			<path class="st0" d="M1002.4,345.2c0.3-0.3,0.7-0.6,1-0.9c-1.8-1.1-2.9-3.1-2.9-5.2c0-2.1,1.2-4.1,2.9-5.2
				c-1.8-1.1-3.6-2.2-4.8-3.9c-1.2-1.7-1.4-4.2-0.1-5.8c0.5-0.6,1.2-1.3,0.7-1.9c-0.2-0.2-0.5-0.3-0.7-0.4
				c-2.5-0.8-12.4-9.9-11.3-12.5c-0.3,0.7-6.1,12.3-7.6,10.5c2.8,3.6,4.7,9,1.8,12.7c5.8,1.6,9.5,8.7,7.5,14.4
				c0.1-0.3,4.7,4.5,5,5.1c1.4,2.1,1.7,5,3.5,6.8C999.9,354.4,998.6,349.1,1002.4,345.2z"/>
		</g>
		<g>
			<path class="st0" d="M1021.3,281.3c-0.2-0.5-0.3-1.1-0.4-1.7c-2.1,1.2-4.9,1.2-7-0.1c-2.2-1.3-3.7-3.8-3.8-6.4
				c-2.1,1.3-4.3,2.6-6.7,2.8c-2.4,0.2-5.2-1-6.1-3.4c-0.3-0.9-0.7-2.1-1.6-1.9c-0.3,0.1-0.5,0.3-0.8,0.5
				c-2.2,2.2-17.1,7.4-19.2,4.6c0.6,0.8,9.5,14.1,6.8,14.6c5.3-0.8,12,0.5,14.2,5.8c4.9-5.3,14.2-5,19.1,0.7c-0.3-0.3,7.3-2.3,8-2.3
				c3-0.2,6.1,1.3,9,0.3C1029.5,289.6,1023.3,287.7,1021.3,281.3z"/>
		</g>
		<g>
			<g>
				<path class="st0" d="M988.4,320.3c0.1-13.3-4.3-26.7-9.1-38.9c-5.1-12.9-11.2-25.8-19.5-37c-0.5-0.7-1.6,0.1-1.1,0.9
					c7.9,10.7,13.8,22.9,18.8,35.2c5,12.4,9.7,26.1,9.6,39.6C987,321,988.4,321.1,988.4,320.3L988.4,320.3z"/>
			</g>
		</g>
		<g>
			<g>
				<g>
					<path class="st0" d="M962.2,326.8c-1.4-1.7,0.9-5.3,2.2-6.2c3-2.1,6.4-2.4,9.7-3.4c-1.6-2.5-1.7-4.9-0.1-7.5
						c1.5-2.6,4-4.1,6.7-5.2c-4.4-0.4-3.2-9.6-2.8-12.4c0.1-0.8,0.3-0.6,0.2-1.1c-0.2-1-1.2-1-1.9-0.6c-0.7,0.4-1,1.1-1.4,1.8
						c-2.1,3.7-4.6,6.4-8.7,7.9c2.3,4.6-6,6.1-9.2,6.5c1.8,0.5,0.1,4.9-0.3,5.5c-2,2.6-4.4,3.1-7.2,4c2.3,1.2-1.4,11.9-2.1,14.6
						C952,327.3,956.4,324.5,962.2,326.8z"/>
				</g>
			</g>
			<g>
				<g>
					<path class="st0" d="M972,301.9c5-6.7,7.3-14.7,6.5-23.1c-0.1-0.9-1.5-0.7-1.4,0.2c0.8,8-1.4,15.7-6.3,22.1
						C970.4,301.8,971.5,302.7,972,301.9L972,301.9z"/>
				</g>
			</g>
		</g>
		<g>
			<path class="st0" d="M937.8,165.5c-0.4-0.3-0.7-0.7-1.1-1.1c-1.1,2-3.3,3.4-5.7,3.5c-2.3,0.1-4.7-1.1-6-3c-1.1,2-2.2,4.2-4.1,5.6
				c-1.8,1.4-4.6,1.9-6.4,0.4c-0.6-0.5-1.5-1.2-2.1-0.7c-0.2,0.2-0.3,0.5-0.4,0.8c-0.8,2.8-10.3,14.4-13.3,13.4
				c0.8,0.3,14.1,6.1,12.1,7.8c3.9-3.4,9.8-5.8,14-2.8c1.4-6.6,9.1-11.1,15.6-9.2c-0.3-0.1,4.8-5.5,5.4-5.9c2.3-1.6,5.5-2.2,7.3-4.3
				C948.2,167.7,942.3,169.5,937.8,165.5z"/>
		</g>
		<g>
			<path class="st0" d="M883.6,136.1c-0.5-0.3-1-0.6-1.4-1c-0.7,2.3-2.7,4.2-5.2,4.7c-2.5,0.5-5.3-0.3-7.1-2.1
				c-0.7,2.3-1.4,4.8-3,6.6c-1.6,1.8-4.5,2.8-6.8,1.6c-0.8-0.4-1.9-1-2.4-0.3c-0.2,0.3-0.2,0.6-0.2,0.9c-0.1,3.1-7.5,17-11,16.4
				c0.9,0.2,16.6,3.9,14.9,6.1c3.4-4.2,9.1-7.8,14.3-5.4c0-7.2,7.1-13.3,14.5-12.4c-0.4,0,3.8-6.6,4.3-7.2c2.1-2.1,5.4-3.3,6.8-5.9
				C895.3,136.6,889.4,139.5,883.6,136.1z"/>
		</g>
		<g>
			<g>
				<path class="st0" d="M880,206.5c-2.2,0.1-3.6-3.9-3.6-5.5c0.1-3.7,2-6.5,3.1-9.8c-2.9-0.2-4.9-1.6-6.1-4.4
					c-1.1-2.8-0.8-5.7-0.1-8.5c-3,3.3-9.6-3.2-11.6-5.3c-0.6-0.6-0.3-0.6-0.7-0.8c-0.9-0.4-1.5,0.4-1.6,1.1
					c-0.1,0.8,0.3,1.5,0.6,2.2c1.7,3.9,2.3,7.5,1.1,11.7c5,1,1.2,8.5-0.3,11.3c1.5-1.1,4,2.9,4.2,3.5c0.9,3.2-0.2,5.4-1.2,8.1
					c2.3-1.1,8.7,8.3,10.4,10.5C874.3,215,874.7,209.7,880,206.5z"/>
			</g>
		</g>
		<g>
			<g>
				<path class="st0" d="M909.6,193.6c-15.8-14.3-37.9-22.5-57.8-29c-21.3-6.9-45.1-12.8-67.7-9.9c-0.9,0.1-0.7,1.5,0.2,1.4
					c22.8-2.9,46.9,3.2,68.4,10.3c19.4,6.4,40.7,14.4,56.1,28.3C909.4,195.4,910.3,194.2,909.6,193.6L909.6,193.6z"/>
			</g>
		</g>
		<g>
			<g>
				<path class="st0" d="M865.5,181.7c-2.3-8-7.3-14.6-14.4-19c-0.8-0.5-1.6,0.6-0.8,1.1c6.9,4.3,11.7,10.6,13.9,18.4
					C864.5,183.1,865.8,182.5,865.5,181.7L865.5,181.7z"/>
			</g>
		</g>
		<g>
			<g>
				<path class="st0" d="M847.6,193.7c-2.4-1.8-3.7-4.5-4.2-7.4c-0.5-3,0.2-4.8,1.2-7.2c-1.8-1.7-3.2-3.8-3.4-6.4
					c-0.3-2.6,1.1-4.4,1.1-6.8c-5.6-3-11.4-3.5-16.7-7.9c-0.2-0.1-0.4-0.3-0.6-0.4c-0.3-0.1-0.5,0.1-0.7,0.2c-0.6,0.3-1.2,0.7-1.8,1
					c-0.3,0.1-0.7,3.1-0.9,3.6c-0.4,1-1,2-1.4,3c-1.2,2.7-2.7,5.2-4.3,7.5c4.1,1.6,6.9,5,6.3,9.7c2.9,0.4,4.5,0.8,6,4.2
					c1,2.1,0.4,4.7-0.1,6.8c-0.2,0.8-0.6,1.7-1.3,2.1c5.2,2.3,8.1,6.1,12.1,10.5c0.7-2.9,1.3-4.3,3.2-6.7
					C842.8,198.4,845.4,193.4,847.6,193.7z"/>
			</g>
		</g>
		<g>
			<g>
				<path class="st0" d="M946.5,248.6c1.8-6.5-3.6-13.9,0.4-19.9c0.5-0.7-0.6-1.5-1-0.8c-4.3,6.4,1.3,13.4-0.6,20.2
					C945.1,248.9,946.3,249.4,946.5,248.6L946.5,248.6z"/>
			</g>
		</g>
	</g>
</g>
<g>
	<path class="st0" d="M240.1,766.8c-3.1-5.1-7.9-9.2-13.5-11.2c-2.7-1-5.3-0.8-8-1.4c-2.6-0.6-5-2-7.7-2.5
		c-10.7-2-22.7,1.9-30.6,9.1c-9.1,8.3-14.1,21.5-13,34.5c0.4,4.8,1.5,8.8,3.4,12.2c2.6,4.6,7,8.6,13,11.8c6.4,3.4,13.9,5.2,21.5,5.2
		c12.9,0,25.9-5.2,33-16.5c2.2-3.5,3.9-7.7,5.1-12.4C246,784.9,244.8,774.7,240.1,766.8z"/>
	<path class="st0" d="M259.7,834c-10.5-10-26.7-15.2-39.3-12.5c-2.9,0.6-6,1-10,1.2h0c-2.1,0.1-4.2,0.2-6.3,0.3
		c-8.2,0.3-16.6,0.6-25,3.9c-12.4,4.9-22.9,12.8-30.5,23c-11.4,15.2-15.9,34.6-12.6,53.3c3.2,17.8,13.1,32.8,27.8,42.3
		c6.7,4.3,14.8,7.3,24.6,8.9c5.2,0.9,10.4,1.3,15.5,1.3c18,0,35.1-5.4,48.4-15.6c15.1-11.6,24.8-31.7,26-53.9
		C279.4,865.4,272.7,846.3,259.7,834z"/>
	<path class="st0" d="M241.1,772.9c-20.9-4.2-42.1-6.8-63.3-8.8c-4-0.4-13.1-0.7-14.3-5.3c-1-3.8,2.3-8.1,5.6-9.5
		c4.7-2,10.1-1,15.2-0.7c2.2,0.1,4.8-0.1,6.2-1.8c0.9-1.1,1.1-2.6,1.2-3.9c1.5-13,3.1-26,4.6-39c0.1-1.2,0.3-2.5,1.2-3.3
		c0.8-0.7,1.9-0.8,3-0.9c18.7-1.5,37.6-0.7,56.2,2.5c1.6,0.3,3.4,0.7,4.1,2.2c0.5,1,0.3,2.2,0,3.4c-3.4,15.8-8.4,31.2-15.1,45.9
		c-0.8,1.8-1.5,4.2,0.1,5.3c1,0.7,2.4,0.4,3.6,0.4c5.6,0,9,8.2,5,12.2C251,774.6,245.6,773.9,241.1,772.9z"/>
	<g>
		<path class="st0" d="M221.5,835.9c8.6,0.3,17.9,0,24.9-5c3.6-2.6,6.5-7.3,4.6-11.4c-0.6-1.2-1.6-2.2-2.4-3.3
			c-1.1-1.5-2-3.2-3.3-4.5c-4.5-4.3-11.8-2.3-17.8-0.3c-9.3,3-19,4.9-28.8,5.7c-4.7,0.4-15.7-1.6-19.2,2.5c-1.8,2.1-1.7,7.5-0.3,9.7
			c2.6,4.1,8.5,3.7,13.3,4.3C202.1,834.7,211.8,835.5,221.5,835.9z"/>
		<path class="st0" d="M228.1,897.5c0.6,1.5,1.6,3.3,3.3,3.4c2.1,0.1,3.2-2.3,4.9-3.6c2-1.5,4.9-1.1,7.3-0.2
			c2.4,0.9,4.7,2.1,7.2,2.3c2.5,0.1,5.4-1.5,5.5-4c0.1-3.2-3.7-4.7-6.3-6.4c-4.5-3-6.5-8.4-8-13.6c-4.3-14.6-7-30.2-15.7-42.7
			c-0.6-0.9-1.3-1.8-2.4-2.2c-1.2-0.4-2.5-0.1-3.7,0.3c-2.7,0.9-5.5,1.6-8,2.8c3.2,10.6,7.2,20.2,9,31.5
			C222.8,875.8,223.7,887.4,228.1,897.5z"/>
		<path class="st0" d="M249.6,870.2c0.4,1.5,1.1,3.4,2.7,3.5c0.6,0,1.2-0.2,1.7-0.5c3.7-1.9,6.8-4.7,9.2-8.1c0.5-0.7,1-1.5,0.9-2.3
			c-0.1-1-0.9-1.8-1.7-2.4c-7.8-6.6-15-14.1-21.2-22.2c-3.3-4.3-6.9-11.4-12.1-7.6c-6,4.3-0.6,8.2,2.8,11.9
			C239.3,850.6,246.8,859.3,249.6,870.2z"/>
	</g>
	<path class="st0" d="M144.1,803.8c-0.9,0.6-1.9,1.5-1.8,2.5c0.1,0.7,0.7,1.3,1.3,1.7c2.8,1.8,6.4,1.2,9.6,0.5
		c9.7-2.1,19.4-4.2,29.1-6.3c1.6-0.3,3.2-0.7,4.3-1.9c1-1.1,1.2-2.8,1.4-4.3c0.3-2.5,0.5-5.1-0.1-7.5
		C184.3,776.1,150.5,799.4,144.1,803.8z"/>
</g>
</svg>
