<?xml version="1.0" encoding="utf-8"?>
<!-- Generator: Adobe Illustrator 23.1.0, SVG Export Plug-In . SVG Version: 6.00 Build 0)  -->
<svg version="1.1" id="Слой_1" xmlns="http://www.w3.org/2000/svg" xmlns:xlink="http://www.w3.org/1999/xlink" x="0px" y="0px"
	 viewBox="0 0 1456.2 2437.9" style="enable-background:new 0 0 1456.2 2437.9;" xml:space="preserve">
<style type="text/css">
	.st0{fill:#1C1C1A;}
</style>
<g id="Углы">
	<g>
		<path class="st0" d="M567.1,1972.6c0-6.2-5.1-11.3-11.3-11.3c-6.2,0-11.3,5.1-11.3,11.3c0,3.4,1.1,13.1,3.8,19.1v214.1
			c0,0.4,0.2,0.8,0.5,1.1l3.9,2.9c0,0,0,0,0,0c0.1,0.1,0.2,0.1,0.3,0.2c0,0,0,0,0.1,0c0.1,0,0.2,0.1,0.4,0.1h7.9
			c0.8,0,1.4-0.6,1.4-1.4V1993C566.3,1987.5,567.1,1976.5,567.1,1972.6z M554.3,1966.2c1.6,0.8,2,3.4,0.8,5.8
			c-1.2,2.4-3.5,3.6-5.1,2.8c-1.6-0.8-2-3.4-0.8-5.8C550.4,1966.6,552.7,1965.3,554.3,1966.2z M554.9,2207.4v-211.3
			c0.3,0,0.5,0,0.8,0c1.5,0,3,0,4.3-0.6v211.9H554.9z"/>
	</g>
	<g>
		<path class="st0" d="M761.1,2163.2c2.2,0.2,6.4,4.5,6.8,6.7c2,10.1-3.8,16.6-4.8,17.9c-1,1.2-5,3.1-6.4,3.7
			c-1,0.5-2.2,0.6-3.3,0.9c-5,1.5-7.8,6.6-11.4,10.3c-4.4,4.6-10.5,7.6-16.9,8.2c-3.1,0.3-6.3,0-9.3,0.9c-1.5,0.4-2.9,1.1-4.4,1.4
			c-1.9,0.4-3.8,0.4-5.7,0.4c-5.1-0.1-10.2-0.2-15.3-0.3c-2.6,0-5.2-0.1-7.7,0.3c-3.7,0.5-7.2,1.8-10.9,1.9
			c-2.5,0.1-5.1-0.5-7.5-1.1c0,0-0.1,0-0.1,0l-111.1-5.4c-0.4,0-0.9-0.3-1.1-0.6l-2.9-4.3c0,0,0,0,0,0c-0.1-0.1-0.1-0.2-0.2-0.4
			c0,0,0-0.1,0-0.1c0-0.1-0.1-0.3,0-0.4l0.4-8.2c0-0.8,0.7-1.4,1.5-1.4l113.6,5.6c4.1-0.2,8.2,1,11.5,3.3c0.9,0.6,1.7,1.3,2.8,1.4
			c0.7,0.1,1.5-0.2,2.2-0.4c4.3-1.4,8.9-1.7,13.3-1c1.5,0.2,3,0.6,4.5,0.8c1.5,0.2,3,0.2,4.5,0.2c1.2,0,2.4,0,3.6,0
			c2,0,3.9,0,5.9-0.4c3.7-0.8,4.2-1.9,7.7-3.1c1.4-0.5,8.6-0.4,8.9-0.4c7.9-1.5,14.6-8.3,15.8-16.3c0.4-2.6,0.3-5.3,0.8-7.9
			c0.6-2.6,1.4-4.3,3.1-6.4C751.4,2165.4,755.6,2162.6,761.1,2163.2z M551.6,2201.9l102.1,5c0.8-0.7,1.9-1.1,2.9-1.2
			c0.7-0.1,1.6-0.1,1.9-0.8c0.1-0.3,0.2-0.6,0.2-0.9c0-0.8,0.1-1.5,0.1-2.3l-107-5.2L551.6,2201.9z M764.4,2180.8
			c-0.8,1.9-2,3.6-3.6,5c-1.8,1.6-3.9,2.1-6.2,2.6c-2.2,0.5-4.1,1.2-5.9,2.5c-1.8,1.3-3.3,2.8-4.7,4.5c-2.7,3-5.1,6.4-8.4,8.7
			c-3.4,2.3-7.3,3-11.3,3.2c-2.2,0.1-4.5,0.2-6.7,0.7c-2.2,0.4-4.3,1.2-6.5,1.7c-4.3,1-8.7,0.4-13,0.2c-4.5-0.2-9-0.3-13.4,0.4
			c-2.1,0.4-4.1,0.9-6.2,1.5c-2.1,0.5-4.1,1.2-6.3,1.3c-3.5,0-7-1.2-10.1-2.6c3.5,1.8,7.5,3.4,11.5,3.1c2.5-0.2,4.9-1,7.3-1.5
			c2.4-0.5,4.8-1,7.3-1.1c4.5-0.2,9,0.2,13.5,0.5c2.3,0.2,4.6,0.4,6.9,0.1c2.2-0.3,4.4-0.9,6.6-1.5c2.2-0.6,4.3-1,6.6-1.1
			c2.3-0.1,4.6-0.2,6.8-0.6c4.2-0.7,7.8-2.7,10.8-5.7c2.8-2.8,5.1-6.2,7.9-9c1.4-1.4,2.9-2.7,4.7-3.4c2-0.8,4.3-1.1,6.3-1.9
			c3.7-1.5,6.1-5.3,7.1-9c1-3.6,0.7-7.2-0.8-10.6C766.1,2172.5,766.1,2176.9,764.4,2180.8z"/>
	</g>
</g>
<g id="Кальян">
	<g>
		<path class="st0" d="M992,1925.1c-1.8-2.8-3.7-5.6-5.7-8.2c-8.6-11.3-19-20.5-30.2-28.9c-1.2-0.1-2.5-0.2-3.7-0.3
			c8,12.3,14.6,25.5,18.8,39.5C978.1,1926.6,985.1,1925.9,992,1925.1z"/>
		<path class="st0" d="M855.5,2078.3c119.6,0,214.4-53.6,214.4-122.3c0-16.5-15.6-38.2-28.7-48.9c-0.2-0.2-0.3-0.5-0.5-0.7
			c-3.7-4.3-15.3-8.2-32.6-11.6c4.9,8.2,9,16.8,12.1,25.8c5.7-1.3,11.3-2.9,16.7-5.2c-5.2,2.8-10.6,4.8-16.2,6.5
			c2.6,7.9,4.5,16.1,5.3,24.6c1.5,15.2-0.2,31-6.4,45c-6.1,13.9-15.4,25.5-27.2,35.1c-13.7,11.1-29.5,18.4-45.9,24.7
			c21-12.4,41.1-27.1,52.6-49.3c7-13.6,9.1-29.2,6.4-44.2c-1.9-10.6-6.1-20.6-11.6-29.8c-6,1.1-12,2-18.1,2.8
			c-1.1,0.2-2.3,0.3-3.4,0.4c1,3.7,1.8,7.5,2.5,11.4c1.3,7.9,1.3,15.6,0.6,23.6c-1.2-6.8-2.7-13.4-5.6-19.8c-2.2-4.9-4.8-9.5-7.6-14
			c-19.8,2.3-39.8,3.8-59.7,4.6c-49.7,2-99.8,1.2-149.3-4.4c-24.1-2.7-49-6-71.7-14.9c20.5,6,42,8,63.3,9.7c24.5,2,49,3,73.5,3.5
			c47,1,94.1,0.5,141-3c-0.7-1-1.3-2-2.1-3c-7.9-11.1-18-21-28.5-29.6c-4.4-3.6-9.1-6.9-13.9-10.1c-18.4-0.8-38-1.3-58.4-1.3
			c-52,0-99.1,3.3-132.8,8.2c1.2-3,2.4-6.1,3.5-9.2c2.8-8.2,5-16.6,5.6-25.3c0,0.4-0.9,1.1-1.1,1.5c-0.6,0.8-1.1,1.6-1.6,2.4
			c-1.3,2-2.5,4.1-3.5,6.2c-2.2,4.4-4.1,8.9-5.6,13.6c-1.3,3.8-2.3,7.8-3.1,11.8c-5.6,0.9-10.7,1.8-15.4,2.8c0-0.1,0.1-0.2,0.1-0.2
			c1.9-6.3,3.8-13.1,3.8-19.7c0,0.4-1.3,1.8-1.5,2.1c-4.1,6-7.2,12.7-9.6,19.5c-12.4,3-20.6,6.2-23.3,9.5h0
			c-15.1,11.4-30.9,32.4-30.9,49C641,2024.7,735.8,2078.3,855.5,2078.3z M736.2,1941.8c6.8,0,12.3,5.5,12.3,12.3
			c0,6.8-5.5,12.3-12.3,12.3c-6.8,0-12.3-5.5-12.3-12.3C723.9,1947.3,729.4,1941.8,736.2,1941.8z M690.1,1934.8
			c10.6,0,19.2,13.5,19.2,30c0,16.6-8.6,30-19.2,30s-19.2-13.5-19.2-30C670.9,1948.3,679.5,1934.8,690.1,1934.8z"/>
		<path class="st0" d="M704.9,1878C705.8,1876.7,704,1879.3,704.9,1878L704.9,1878z"/>
		<path class="st0" d="M741.2,1883.1c1.2-1.9,2.3-3.8,3.3-5.8c2.4-4.5,4.5-9,6.4-13.7c2-4.7,3.7-9.5,5.2-14.5
			c1-3.6,1.5-7.2,2.3-10.8c-0.3,1.2-2.3,2.8-3,3.8c-1.3,1.8-2.6,3.7-3.7,5.6c-2.6,4.3-4.8,8.8-6.8,13.5c-2,4.8-3.7,9.8-4.8,14.9
			c-0.5,2.1-0.9,4.3-1.2,6.4c-0.1,0.8-0.2,1.7-0.3,2.5c0,0.2,0.1,2-0.1,2.2C739.5,1886.8,740.7,1884,741.2,1883.1z"/>
		<path class="st0" d="M765.2,1864.5c1.3-1.9,2.6-3.9,3.9-5.9c2.7-4.3,5.1-8.8,7.3-13.3c2.3-4.6,4.4-9.3,6.1-14.1
			c0.8-2.1,1.5-4.2,2-6.3c0.2-0.6,0.7-4.5,1.1-4.7c-0.6-0.1-2.8,3.1-3.3,3.7c-1.5,1.9-3,3.8-4.3,5.8c-2.9,4.2-5.5,8.7-7.7,13.3
			c-4,8.2-6.6,16.6-8.1,25.5C763,1868.3,764.7,1865.2,765.2,1864.5z"/>
		<path class="st0" d="M790.5,1847.4c1.5-1.8,2.9-3.7,4.3-5.6c3-4.2,5.7-8.5,8.3-12.9c2.6-4.5,5.1-9.1,7.2-13.9
			c0.4-0.8,4.4-11.2,4-11.3c-1.3,0.6-2.6,2.4-3.6,3.5c-1.6,1.7-3.2,3.6-4.7,5.4c-3.2,4-6,8.3-8.6,12.7c-2.6,4.5-4.9,9.2-6.8,14
			c-0.8,2.2-1.6,4.4-2.2,6.6c-0.3,1.2-1.5,3.9-1.1,5C788.5,1850.4,789.7,1848.4,790.5,1847.4z"/>
		<path class="st0" d="M831.3,1813.6c3-4.5,5.8-9.1,8.3-13.9c1.1-2.1,2.1-4.3,3.1-6.5c0.4-0.9,0.8-1.9,1.1-2.8
			c0.1-0.3,0.2-1.4,0.5-1.6c-0.4-0.2-3.6,3.1-4.1,3.5c-1.8,1.7-3.5,3.4-5.1,5.2c-3.5,3.9-6.6,8-9.5,12.4c-2.9,4.3-5.4,8.8-7.6,13.5
			c-0.4,0.9-4.3,11.4-4.1,11.4C814.9,1835.8,830.2,1815.2,831.3,1813.6z"/>
		<path class="st0" d="M875.6,1776c-0.1,0-0.2,0.2-0.3,0.3C875.5,1776.1,875.6,1776,875.6,1776z"/>
		<path class="st0" d="M842,1820.5c-0.1-0.3,3.4-3,3.9-3.5c1.7-1.6,3.4-3.3,5-5.1c3.6-3.9,7-8,10.3-12.2c3.3-4.3,6.4-8.7,9.1-13.3
			c1.2-2,2.4-4.1,3.4-6.2c0.3-0.6,1-3.1,1.6-4c-0.5,0.4-1.5,1-1.6,1.1c-0.8,0.6-1.6,1.3-2.4,1.9c-1.9,1.5-3.7,3.2-5.4,4.9
			c-3.7,3.6-7.1,7.5-10.3,11.6c-3.3,4.3-6.2,8.8-8.8,13.5c-1.1,2.1-2.1,4.2-3,6.3C843.4,1816.4,841.6,1819.7,842,1820.5z"/>
		<path class="st0" d="M871.2,1807.8c0.1-0.4,1.5-1.1,1.8-1.3c0.8-0.6,1.6-1.2,2.3-1.9c1.8-1.5,3.6-3.1,5.4-4.8
			c3.9-3.7,7.6-7.6,11.2-11.6c3.6-4.1,7-8.3,10.1-12.8c2.2-3.2,4.7-6.6,6-10.3c-1.4,1.1-3.1,2-4.6,3c-2.1,1.5-4.1,3.1-6,4.8
			c-4,3.4-7.7,7.2-11.1,11.1c-3.5,4.1-6.8,8.4-9.7,13C876.2,1797.8,870.9,1807.7,871.2,1807.8z"/>
		<path class="st0" d="M1345.5,2179.1c-2-8.8-7.9-14.9-13.2-13.7c-2.1,0.5-3.8,2-4.9,4.3c-1.7,3.3-5,5.4-8.6,5.1
			c-11.5-0.7-26,0-36.9,1.1c-4.9-4.2-11.2-6.9-18.2-7.3c-11-0.5-20.9,5-26.6,13.6l-144.9,23.4c-4.8-3.8-10.7-6.1-17.2-6.4
			c-10.6-0.5-20.2,4.6-26,12.7c-4.6-3.4-10.3-5.5-16.4-5.8c-12.7-0.6-23.9,6.8-28.9,17.7c-68,6.7-132.8,10-192.8,10
			c-174,0-308.3-27.5-366.9-79.1c-19.3-17-29.1-36-29.1-56.4c0-74.4,76.1-123.3,205.6-181.7c-8.6,15.1-13,30.9-13,47.1
			c0,40,26.5,77.2,74.5,104.8c11.8,6.8,24.5,12.8,38.1,17.9l-34.1,25.3c-6.2,4.6-9.2,11.8-8.1,19.2c1.2,7.8,6.6,14.4,14.3,17.2
			c36.4,13.1,92.9,20,163.4,20c68.4,0,122.4-3.4,163.7-20.1c7.6-3.1,13-9.8,14-17.6c0.9-7.2-2.1-14.2-8.1-18.6l-34.2-25.3
			c13.5-5.2,26.3-11.2,38-17.9c48-27.6,74.5-64.8,74.5-104.8c0-19.8-6.5-39-19.3-57.1l-0.2-0.3c-0.4-0.5-0.7-1.1-1.1-1.5
			c-13.9-19.3-32.3-32.6-51.7-46.6c-31-22.4-62.8-45.4-80.1-96c24.3-13.5,48.5-28.2,74.1-43.8c17-10.4,34.5-21.1,52.5-31.7
			c208.8-122.5,235-234.6,236.6-277.1c1.3-34.9-11.3-64.1-34.5-80.3c-52.4-36.3-119.1-19.1-171.6,13.2c-1.5-0.3-3-0.5-4.6-0.5
			c-11.5,0-20.9,9.3-20.9,20.9c0,0,0,0.1,0,0.1c-4.1-0.5-12.8-2.9-16.2,0l-71.3,59.1c-7.1-1.3-14-0.1-19.2,4.3
			c-13,10.8-27.7,35-46.9,60.8c-10.4-9-23.2-16.1-37.6-20.6c4.6-4.8,7.4-11.2,7.4-18.4v-217c0-7.2-2.8-13.7-7.4-18.4
			c28-6,47.4-18.9,47.4-33.8c0-7.6-5-14.7-13.7-20.6h43.3c23.8,0,45.3-8.3,54.2-21l16.1-22.8c3.7-5.2-0.1-12.5-6.5-12.5H884.9
			l-5.5-18.8c15.8-6.3,26.6-18.7,26.6-33c0-11.6-7.1-22-18.3-28.9c18.6-6.9,34-21.2,42-40.1l9.1-21.5H772.1l9.1,21.5
			c8.1,18.9,23.4,33.2,42,40.1c-11.2,6.9-18.3,17.3-18.3,28.9c0,14.2,10.6,26.5,26.2,32.8l-5.3,19H678.4c-6.4,0-10.1,7.1-6.5,12.4
			l15.5,22.6c8.8,12.8,30.4,21.2,54.4,21.2h44c-8.6,5.9-13.7,13-13.7,20.6c0,14.9,19.4,27.8,47.4,33.8c-4.6,4.8-7.4,11.3-7.4,18.4
			v217c0,7.1,2.8,13.6,7.4,18.4c-14.4,4.5-27.2,11.6-37.7,20.6c-20.2-26.8-33.9-50.1-46.8-60.8c-10.9-9-29.3-4.9-41.1,9.3
			c-11.8,14.2-12.6,33.1-1.7,42.1c13.2,11,40.7,21,69.3,35.2c-4.8,9.7-7.5,20.3-7.5,31.4c0,14,4.3,27.3,11.7,38.9
			c-13.8,8.4-25.6,17.4-34.7,25.1c-12,10.1-12,28.5,0,38.7c9.5,8.1,21.9,17.5,36.6,26.3h-5.9c-7.7,0-13.9,6.2-13.9,13.9v17.5
			c0,7.7,6.2,13.9,13.9,13.9h8.1c-11.1,79.9-48.6,109.5-86.1,136.6c-186.8,79.4-299.9,136.3-299.9,243c0,29.7,13.3,56.5,39.6,79.6
			c64.5,56.8,204.2,87,386.8,87c61.2,0,127.2-3.4,196.9-10.3c5.2,6.8,13.3,11.4,22.5,11.8c10.6,0.5,20.2-4.6,26-12.7
			c4.6,3.4,10.3,5.5,16.4,5.8c9.3,0.4,17.7-3.4,23.5-9.7l152.2-24.5c3.9,2.1,8.3,3.4,13,3.7c13.6,0.6,25.5-7.8,29.8-20
			c10.1-3.7,22.9-9,32.6-14.4c3.2-1.8,7.1-1.3,10,0.9c2,1.5,4.2,2.2,6.3,1.8C1344.8,2196,1347.5,2187.9,1345.5,2179.1z
			 M1014.6,2125.8c0.9,0.7,1.2,1.3,1.1,2.2c-0.1,1.1-1,2.7-3.1,3.5c-41,16.6-99.7,18.8-157.1,18.8c-68.5,0-122.9-6.6-157.4-19
			c-1.8-0.7-2.7-2-2.8-3.1c-0.1-1,0.2-1.8,1.1-2.5l43.9-32.5c3,0.9,6,1.8,9,2.6c-17.7,13-39.8,27.4-28.5,33.5
			c6.8,3.7,34.4,8.5,63.4,10.9c5.9,0.6,11.9,1.1,17.8,1.6c22.5,1.7,45.1,2.6,67.7,2.5c16.4-0.1,32.8-0.4,49.2-1.8
			c-7.1,0.1-14.2-0.1-21.3-0.4c-37.9-1.4-75.6-5.8-113-12.1c-10.8-1.8-14.6-15.6-6.1-22.6c1.7-1.4,3.7-2.7,5.9-3.8
			c9.9,1.7,20,3,30.3,4c-4.4,2-7,4.4-7,6.9c0,7.6,22.9,13.7,51.1,13.7c28.2,0,51.1-6.1,51.1-13.7c0-2.7-3-5.3-8.2-7.4
			c24.2-2.6,47.4-7.4,69-14l3.1,2.3c-6.2,2.5-14,5.4-21.8,8.2c-18.2,6.5-36.7,12.3-36.7,12.3s19.3-1.5,38.6-3.7
			c9.7-1.1,19.4-2.4,26.7-3.6c3.7-0.6,6.8-1.2,8.9-1.6L1014.6,2125.8z M1233.5,1319.5c18.7,3.3,38,11.5,51.1,25.6
			c13.4,14.5,19.1,34.9,20.1,54.2c1,20-2.9,39.9-9.7,58.7c-6.8,18.8-16.9,35.9-28.6,52.1c17.1-30.5,31.2-63.6,32.1-99.1
			c0.5-19.1-2.9-39.1-13.5-55.2c-10.4-15.8-28.4-25.5-46.2-30.7c-17.6-5.2-36.1-5.9-54.3-3.8
			C1200.6,1317.5,1217.2,1316.6,1233.5,1319.5z M1099.7,1350.3c-0.4,1.4-0.6,2.9-0.6,4.4c0,8.3,6.6,15.4,14.9,16
			c-5.4,2.6-12.1,0.9-15.7-4C1094.7,1361.7,1095.3,1354.6,1099.7,1350.3z M1026.4,1459.8l72.1-59.8c3.6-3,2-12.3,2-16.6
			c0.7,0.1,1.4,0.2,2,0.2l0.1,0.1c0,0,0.1-0.1,0.1-0.1c0.3,0,0.5,0,0.8,0c9.1,0,16.9-5.9,19.7-14c32.3-20,92.1-47.4,139-15
			c14.4,10,22.2,29.6,21.3,53.7c-1.1,29.2-20.3,133.6-221.4,251.6c-18.2,10.7-35.9,21.5-53,31.9c-22.8,13.9-44.5,27.1-66,39.3
			c-0.8-4.1-1.5-8.3-2.1-12.7h8.1c7.7,0,13.9-6.2,13.9-13.9v-17.5c0-7.7-6.2-13.9-13.9-13.9h-5.9c14.6-8.7,27.1-18.2,36.6-26.3
			c12-10.1,12-28.5,0-38.7c-9.1-7.7-20.9-16.7-34.7-25.1c7.5-11.6,11.7-24.8,11.7-38.9c0-11.1-2.7-21.7-7.5-31.4
			c28.6-14.2,56.1-24.2,69.3-35.2C1023.9,1473.5,1026.4,1467,1026.4,1459.8z M825.3,1281.1c0.3,8.9,0.5,17.8,0.7,26.7
			c0.9,35.6,1,71.3,0.4,106.9c-0.1,4.6-0.2,9.2-0.3,13.7c-0.1,4.4,0.9,8.4,2.4,12.5c2.7,7.1,6.4,14.4,11.6,20.1
			c-5.2-4.4-9.3-10.2-12.5-16.2c-1.9-3.4-3.6-7.2-4.6-11c-0.7-2.8-0.6-5.7-0.7-8.6c-0.8-18-1.4-35.9-1.8-53.9
			c-0.4-18.4-0.6-36.9-0.7-55.3c-0.1-18.3-0.5-36.8,0.5-55c0.5-9.3,1.8-18.8,5.5-27.5c3.1-7.3,8-13,14.3-17.7
			c-4.9,4.7-8.8,9.9-11.2,16.3c-2.8,7.4-3.8,15.4-4.1,23.2C824.5,1263.8,825,1272.5,825.3,1281.1z M845.4,1487.9
			c7.8,0,14.2,6.3,14.2,14.2c0,7.8-6.3,14.2-14.2,14.2c-7.8,0-14.2-6.3-14.2-14.2C831.3,1494.2,837.6,1487.9,845.4,1487.9z
			 M901.6,1615.2c32.9-3.1,38.8-18.1,38.8-18.1c11.1,6.3,32.1,20.5,27.5,27.9c-10.9,17.7-95.2,7.5-106.3,1.9
			C850.4,1621.5,879.4,1617.4,901.6,1615.2z M859.8,1218.3c13.7,5.4,23.5,20.1,23.5,37.4v167.8c0,17.3-9.8,32-23.5,37.4
			c5.1-6.9,8.1-15.7,8.1-25.4v-191.8C867.9,1234.1,864.9,1225.2,859.8,1218.3z M904.5,1682.5c21.1,0,38.2,2.9,38.2,6.5
			c0,3.6-17.1,6.5-38.2,6.5c-21.1,0-38.2-2.9-38.2-6.5C866.2,1685.5,883.4,1682.5,904.5,1682.5z M989.5,1431.2
			c-4,7.1,0.5,15.6,5.2,21.3c5.6,6.8,12.7,10,21,12.1c-9.2,3.9-19.7-0.3-25.8-7.6C984.6,1450.8,979.4,1435.7,989.5,1431.2z
			 M955.4,1465.1c6.2-8.6,13.1-17.3,21.3-24.1c0,0.3-0.1,0.7-0.1,1c-3.9,9.6-9.8,18.6-15.8,26.9c-6.3,8.8-13.4,17.7-21.8,24.5
			C942.8,1483.4,949.1,1473.9,955.4,1465.1z M920.8,1499.8c15.8,15.9,21.3,36.1,12.3,45c-9,8.9-29.1,3.2-44.9-12.7
			c-15.8-15.9-21.3-36.1-12.3-45C884.9,1478.2,905,1483.9,920.8,1499.8z M881.6,1180.3c-19.9,0-36-4.4-36-9.9c0-5.5,16.1-9.9,36-9.9
			c19.9,0,36,4.4,36,9.9C917.7,1175.9,901.5,1180.3,881.6,1180.3z M870.2,1030.3c5.4-4.4,14.2-2.5,19.6,4.3c5.4,6.7,5.4,15.7,0,20.1
			c-5.4,4.4-14.2,2.5-19.6-4.3C864.8,1043.6,864.8,1034.6,870.2,1030.3z M790.1,968.2c7.4,9.1,13.5,19.1,21.9,27.4
			c4.7,4.6,9.9,8.6,15.4,12c4.8,3,9.9,5.3,14.8,8.1C815.9,1014.6,795.5,993.2,790.1,968.2z M815.2,1055.3
			c-3.3-13.1,6-26.3,18.7-29.4c-3.8,3.5-7.5,6.9-9.8,11.7c-2.5,5.2-3.6,11.3-2.2,17c1.1,4.5,3.4,8.6,6.5,12.1
			c3.5,3.8,7.7,6.5,11.8,9.6C828.2,1074.6,818.2,1067.2,815.2,1055.3z M841.1,1102.3l-6.6-0.6l4.9-16.6L841.1,1102.3z M761.4,1149.8
			c-10.9-0.1-22,0.6-32.8-1.3c-11-1.8-21.3-6.4-29.5-14.1c-7.4-7-12.2-15.7-17.2-24.5c6.3,6,11.3,13.1,18,18.7
			c7.6,6.4,16.7,10.6,26.5,12.7c10.3,2.1,20.9,1.7,31.4,1.8c11.2,0.2,22.5,0.3,33.7,0.4c44.7,0.5,89.4,1,134.1,2.2
			c18.4,0.5,36.9,1,55.3,1.6c-38.3,1.1-76.5,1.7-114.8,2.1c-23.4,0.2-46.9,0.3-70.3,0.3C784.2,1150,772.8,1149.9,761.4,1149.8z
			 M791.6,1193.8c-5.6-4.1-11.1-10.8-9-18.3c1.8-6.4,8.1-10.2,14.1-12.2c-3.6,3.4-8.2,7.3-9.1,12.4c-1.2,6.8,6.1,11.8,11.2,14.8
			c10.2,6.1,21.7,9.2,32.5,13.9C817.9,1205.2,802.6,1201.9,791.6,1193.8z M735.1,1442.2c6.5,7.8,39.2,47.8,39.2,47.8l-3.1,3.5
			c0,0-27.6-21.7-46-37.9C706.9,1439.5,723.2,1427.9,735.1,1442.2z M729.6,1490.8c-11.5-5.8-23.2-12.2-33.1-20.5
			c12.5,3.1,24.6,8.8,36.1,14.6c11.5,5.8,23.2,12.2,33.1,20.5C753.2,1502.3,741,1496.6,729.6,1490.8z M767,1528.5
			c4-18.3,18-33.5,34.2-42.2c7.8-4.2,16-6.9,24.6-8.8c-6,3.3-12.1,6.2-17.8,9.9c-7.3,4.8-14,10.1-20,16.4
			c-11.9,12.5-18,29.7-18,46.8c0,7.7,1.1,15.1,2.1,22.8c-3.1-7.1-5.2-14.2-6.3-21.8C764.6,1543.9,765.4,1536.2,767,1528.5z
			 M744.8,1643.5c-6.5-6-11.6-14.2-7.4-23c3.9-8.1,12.4-13.5,19.8-17.9c8-4.7,16.5-8.5,25.1-11.7c-5.3,3.9-10.8,7.5-16.1,11.3
			c-7,5-14.6,10-20.1,16.7c-2.6,3.2-4.7,7-3.4,11.3c1.2,3.9,4.3,7,7.2,9.7c6.3,6.1,13.7,11,20.9,16c6.2,4.4,12.5,8.6,18.5,13.1
			c-6.9-2.8-13.7-6-20.3-9.5C760.5,1655,751.9,1650,744.8,1643.5z M768.9,1709.3c-0.9-0.6-2.1-1.2-3-2.2c-0.5-0.5-1-1-1.5-1.4
			c-0.5-0.5-0.9-1.2-1.3-1.8c-0.5-0.6-0.8-1.3-1.1-2c-0.3-0.7-0.7-1.4-0.9-2.2c-0.2-0.8-0.5-1.6-0.6-2.4c-0.1-0.8-0.1-1.7-0.2-2.5
			l0.3-2.5c0.1-0.8,0.5-1.6,0.7-2.4c0.2-0.8,0.7-1.5,1.1-2.2l0.6-1c0.2-0.3,0.5-0.6,0.7-0.9c0.5-0.6,1-1.2,1.5-1.6
			c0.6-0.4,1.1-0.9,1.7-1.3c1.1-0.8,2.3-1.3,3.3-1.8c1.1-0.4,2.1-0.7,3-0.9c0.9-0.3,1.6-0.2,2.2-0.3c1.3-0.1,2-0.1,2-0.1
			s-0.5,0.5-1.5,1.3c-0.5,0.4-1.2,0.8-1.7,1.4c-0.6,0.5-1.2,1.1-1.9,1.8c-0.6,0.7-1.4,1.4-2,2.2c-0.3,0.4-0.6,0.8-0.9,1.2
			c-0.3,0.4-0.5,0.9-0.8,1.4c-0.3,0.4-0.5,0.9-0.7,1.4c-0.2,0.5-0.4,0.9-0.5,1.5c-0.1,0.5-0.3,1-0.3,1.5c0,0.5-0.1,1-0.1,1.5
			l0.1,1.6c0,0.5,0.2,1,0.3,1.6c0,0.5,0.3,1,0.4,1.5c0.2,0.5,0.3,1,0.6,1.5c0.2,0.5,0.4,1,0.7,1.5c0.3,0.5,0.5,0.9,0.8,1.4
			c0.5,1,1.2,1.7,1.7,2.5c0.6,0.8,1.2,1.4,1.7,2.1c0.5,0.7,1,1.2,1.4,1.6c0.8,0.9,1.3,1.5,1.3,1.5s-0.7-0.1-2-0.4
			c-0.6-0.2-1.4-0.3-2.2-0.7C770.9,1710.2,769.9,1709.9,768.9,1709.3z M641.1,1916.9l0.5-0.7c0.2-0.3,0.5-0.7,0.8-1.1
			c12.3-17,29.5-29.4,47.7-42.6c40.5-29.2,85.5-61.8,97.7-153.9h13.5c-0.6,4.2-1.2,8.4-2.1,12.5c-3.9,19.6-9.8,38.8-17.9,57.1
			c-3.9,8.7-8.3,17.4-13.7,25.3c-4.4,6.4-9.1,12.1-14.5,17.6c7.8-5.4,15-11.3,21.5-18.3c24.5-26.7,42.2-59.8,53.4-94.2h95.2
			c2.1,16.3,5.3,30.7,9.3,43.5c-0.7,0.5-1.5,1-2.3,1.6c-4.3,3.3-8.4,6.9-12.2,10.8c-3.7,3.8-7.1,7.8-10.2,12c-1.4,2-2.8,4-4,6.2
			c-0.7,1.3-1.3,3.4-2.3,4.5c0.9-1.2,3.2-2.1,4.4-3c2-1.5,4-3,5.9-4.6c4-3.3,7.9-6.9,11.6-10.5c3.8-3.8,7.4-7.7,10.7-11.8
			c19.1,56.4,54.3,82,86.7,105.3c18.2,13.1,35.4,25.6,47.7,42.7c0.3,0.4,0.6,0.8,0.9,1.3l0.2,0.3c10.7,15,16.1,30.8,16.1,46.8
			c0,33.4-23.3,65.2-65.6,89.5c-43.9,25.2-102.4,39.1-164.7,39.1c-62.4,0-120.9-13.9-164.7-39.1c-42.3-24.3-65.6-56.1-65.6-89.5
			C625.1,1947.5,630.5,1931.8,641.1,1916.9z M614,2232.1c-35.4-5-70.6-12.8-104.3-24.7c-16.9-6-33.4-13.2-49-22
			c-14.4-8.1-28.2-17.9-39.3-30.2c-11.6-12.8-18.8-28.5-20.7-45.7c-1.9-17.5,1.5-35,8.2-51.2c12.1-29.4,35.3-53.8,62.3-70.1
			c2-1.2,4.1-2.4,6.1-3.6c-24.5,16.6-45.8,37.4-59.1,64.1c-14.6,29.6-18.5,66.8,1.9,94.8c9.5,13,22.7,23.1,36.3,31.6
			c14.5,9.1,30,16.4,46,22.7c32.8,12.9,67.1,21.7,101.7,28.2c31.6,6,63.4,9.8,95.4,12.7c2.3,0.2,4.6,0.4,6.8,0.6
			C675.5,2238.7,644.6,2236.4,614,2232.1z M1044.1,2239.7c-4.5,3.3-11.7,1.2-16.2-4.7c-4.5-6-4.5-13.5,0-16.9
			c4.5-3.3,11.7-1.2,16.2,4.7C1048.5,2228.8,1048.5,2236.4,1044.1,2239.7z M1085.6,2231.6c-4.5,3.3-11.7,1.2-16.2-4.7
			c-4.5-6-4.5-13.5,0-16.9c4.5-3.3,11.7-1.2,16.2,4.7S1090.1,2228.3,1085.6,2231.6z M1189.5,2205.8c-20.7,3.9-41.6,6.9-62.5,8.8
			c-7.2,0.7-14.4,1.3-21.6,1.5c15.5-4.6,31.5-7.7,47.3-10.7c20.7-3.9,41.6-6.9,62.5-8.8c7.2-0.7,14.3-1.3,21.5-1.5
			C1221.4,2199.8,1205.4,2202.8,1189.5,2205.8z M1277.5,2202c-4.5,3.3-11.7,1.2-16.2-4.7c-4.5-6-4.5-13.5,0-16.9s11.7-1.2,16.2,4.7
			C1282,2191.1,1282,2198.6,1277.5,2202z M1307.1,2185.8c-5.3,0.3-11.3-0.1-16.1-2.4c4.6-2.8,10.4-3.9,15.7-4.2
			c5.3-0.3,11.3,0.1,16.1,2.4C1318.2,2184.4,1312.4,2185.5,1307.1,2185.8z M1336.4,2182.4c-2,0.5-4.3-1.6-5-4.6
			c-0.7-3.1,0.3-5.9,2.3-6.4c2-0.5,4.3,1.6,5,4.6C1339.4,2179.1,1338.4,2182,1336.4,2182.4z"/>
	</g>
	<g>
		<path class="st0" d="M723,871c-1.1-1.1-1.8-2.4-2.2-4c-0.3-1.5-0.2-3.1,0.4-4.6c0.8-2,2.2-3.4,4.2-4.3c2-0.9,4-0.9,6-0.1
			c0.8,0.3,1.5,0.7,2.1,1.3l-9.2,22.9c-0.2,0-0.3,0-0.5,0c-0.7,0-1.4-0.1-2-0.4c-1.4-0.5-2.3-1.5-2.9-2.8s-0.6-2.7,0-4
			c0.4-0.9,0.9-1.7,1.7-2.3c0.8-0.6,1.7-0.9,2.6-1c0.2,0,0.4,0,0.6,0C723.6,871.5,723.3,871.3,723,871z M723.3,881.6l3.4-8.5
			l-1.1-0.5c-1-0.4-2.1-0.3-3.1,0.2c-1.1,0.6-1.9,1.4-2.3,2.6c-0.5,1.2-0.5,2.4-0.1,3.5c0.4,1.1,1.1,1.9,2.1,2.3
			C722.5,881.5,722.9,881.6,723.3,881.6z M731.2,858.7c-1.7-0.7-3.4-0.6-5.1,0.2s-3,2.2-3.7,4c-0.7,1.9-0.8,3.7-0.1,5.5
			c0.7,1.8,1.9,3,3.5,3.7l1.1,0.5l5.4-13.3C732,859.1,731.6,858.9,731.2,858.7z"/>
		<path class="st0" d="M721.6,855.1l-5.1-2.4l-0.2-0.8l6.6,3.1l-10.5,22.6l-6.6-3.1l0.7-0.3l5.1,2.4l3.6-7.8l-4.4-2l0.6-0.4l4,1.9
			L721.6,855.1z"/>
		<path class="st0" d="M709,848.8l-0.2-0.8l6.5,3.4l-11.7,22l-1.1-0.6l11.4-21.4L709,848.8z"/>
		<path class="st0" d="M698.6,859.5l0.6-17.4l1.2,0.7l-0.5,15.2l7-11.2l1,0.7l-13.2,21.1l-1-0.7l4.9-7.8l-11,4l-0.6-0.4L698.6,859.5
			z"/>
		<path class="st0" d="M676.8,856.7l10.7-23.9l0.9,0.8l-4,8.8l5.7,4.6l7.8-5.7l0.5,0.4l-20.3,14.6L676.8,856.7z M689.7,847.5
			l-5.4-4.4l-5.6,12.3L689.7,847.5z"/>
		<path class="st0" d="M677.3,821l0.2-0.8l4.2,6l-20.3,14.3l-0.7-1l19.8-14L677.3,821z"/>
		<path class="st0" d="M654.3,827.4c-1.8-1.4-3.2-3.2-4-5.3c-0.9-2.1-1.1-4.3-0.8-6.6s1.2-4.3,2.6-6.1c1.4-1.8,3.2-3.1,5.3-4
			c2.1-0.9,4.3-1.1,6.6-0.8c2.3,0.3,4.3,1.2,6.1,2.6c1.8,1.4,3.1,3.2,4,5.3c0.9,2.1,1.1,4.4,0.8,6.6c-0.3,2.3-1.2,4.3-2.6,6.1
			c-1.4,1.8-3.2,3.1-5.3,4s-4.3,1.2-6.6,0.8C658.2,829.6,656.2,828.8,654.3,827.4z M671.7,809.7c-1.2-1.7-2.8-3-4.7-3.8
			c-1.9-0.8-3.9-1.1-6-0.8c-2.1,0.3-4,1.1-5.6,2.4s-3,3-3.8,5c-0.9,2-1.2,4.1-1,6.3c0.2,2.1,1,4,2.2,5.7c1.2,1.7,2.8,3,4.7,3.8
			c1.9,0.8,3.9,1.1,6,0.7c2.1-0.3,3.9-1.1,5.6-2.5s3-3,3.8-5c0.9-2,1.2-4.1,1-6.3C673.6,813.3,672.9,811.4,671.7,809.7z"/>
		<path class="st0" d="M645.9,790.4l0-0.6l20.1,1c1.4,0.1,2.6,0.6,3.5,1.7c0.9,1.1,1.4,2.3,1.3,3.7c0,0.9-0.3,1.8-0.8,2.5
			c-0.5,0.8-1.1,1.4-2,1.8c-0.8,0.4-1.7,0.6-2.6,0.6l-20.1-1l0.1-1.2l20.1,1c1.2,0.1,2.3-0.3,3.3-1.1c0.9-0.8,1.4-1.8,1.5-2.9
			c0.1-1.2-0.3-2.2-1.2-3c-0.8-0.9-1.9-1.3-3.1-1.4L645.9,790.4z"/>
		<path class="st0" d="M651.3,773.1l0.2-0.5l23,9.4l-0.1,0.4l-0.5,0l-22.8,0.5l19.8,8.1l-0.2,0.6l-23-9.4l0.1-0.4l0.5,0l22.8-0.5
			L651.3,773.1z"/>
		<path class="st0" d="M679.4,765.7l-0.8,0l4.1-4.2l3.8,3.8l0,0.6c-0.1,1.1-0.4,2.1-0.7,3c-0.6,1.7-1.6,3.1-2.9,4.4
			c-1.6,1.6-3.5,2.8-5.7,3.4c-2.2,0.6-4.4,0.6-6.6,0c-2.2-0.6-4.1-1.7-5.8-3.3c-1.2-1.2-2.2-2.6-2.8-4.2c-0.7-1.6-1-3.2-1-4.8
			s0.3-3.2,0.9-4.8s1.6-3,2.8-4.3c2.2-2.2,4.9-3.5,8-3.8l0.1,1.2c-3.1,0.2-5.8,1.5-7.9,3.7c-2.2,2.2-3.2,4.9-3.2,7.9
			c0,2.1,0.6,4,1.7,5.8c1.1,1.8,2.6,3.2,4.5,4.2c1.9,1,3.9,1.5,6.1,1.5c2.7,0,5.1-0.8,7.3-2.3c2.1-1.5,3.6-3.5,4.3-5.8
			c0.2-0.4,0.3-0.9,0.4-1.5l-3.5-3.5L679.4,765.7z"/>
		<path class="st0" d="M689.8,766.4l4.6-3.1l0.8,0.2l-6.1,4.1l-13.8-20.7l6.1-4.1l-0.1,0.8l-4.6,3.1l4.8,7.1l4-2.7l0,0.7l-3.7,2.5
			L689.8,766.4z"/>
		<path class="st0" d="M701.9,743c1.6-0.1,3,0.2,4.4,1c1.4,0.8,2.4,1.9,3.2,3.3c1,1.9,1.1,3.9,0.5,6c-0.7,2.1-2,3.6-3.9,4.6
			c-0.7,0.4-1.5,0.6-2.4,0.8l-11.2-22c0.1-0.2,0.2-0.3,0.3-0.4c0.5-0.5,1-0.9,1.6-1.3c1.3-0.7,2.6-0.8,4-0.3
			c1.4,0.5,2.4,1.3,3.1,2.6c0.4,0.9,0.6,1.8,0.6,2.8c-0.1,1-0.4,1.9-1,2.6c-0.1,0.2-0.2,0.3-0.3,0.5
			C701.1,743.1,701.5,743.1,701.9,743z M693.7,736.3l4.1,8.1l1.1-0.6c1-0.5,1.6-1.3,1.9-2.5c0.3-1.2,0.1-2.3-0.4-3.5
			c-0.6-1.1-1.4-1.9-2.6-2.4c-1.1-0.5-2.2-0.4-3.2,0.1C694.3,735.7,694,736,693.7,736.3z M705.8,757.3c1.6-0.8,2.7-2.2,3.2-4
			c0.5-1.8,0.3-3.7-0.6-5.5c-0.9-1.8-2.3-3-4.1-3.7c-1.8-0.7-3.5-0.6-5.1,0.2l-1.1,0.6l6.5,12.8C705,757.7,705.4,757.5,705.8,757.3z
			"/>
		<path class="st0" d="M714.9,752.4l5.1-2.4l0.7,0.3l-6.6,3.1l-10.6-22.5l6.6-3.1l-0.2,0.8l-5,2.4l3.6,7.8l4.4-2.1l-0.1,0.7l-4,1.9
			L714.9,752.4z"/>
		<path class="st0" d="M727.9,746.4l0.7,0.4l-6.7,3l-10.3-22.7l1.1-0.5l10,22.1L727.9,746.4z"/>
		<path class="st0" d="M725.2,731.7l14.1,10.2l-1.3,0.6l-12.3-8.9l5.4,12l-1.1,0.5l-10.1-22.7l1.1-0.5l3.8,8.4l2.8-11.3l0.7-0.3
			L725.2,731.7z"/>
		<path class="st0" d="M736.8,715.4l16.7,20.2l-1.1,0.5l-6.1-7.4l-6.7,3.1l1.6,9.5l-0.6,0.3l-4.2-24.7L736.8,715.4z M739.4,731
			l6.3-2.9l-8.6-10.4L739.4,731z"/>
	</g>
	<g>
		<path class="st0" d="M878.9,876.2c-0.5-1.5-0.6-3-0.2-4.5c0.4-1.5,1.2-2.9,2.4-4c1.6-1.5,3.5-2.1,5.6-2c2.2,0.1,4,0.9,5.4,2.5
			c0.6,0.6,1,1.3,1.4,2.1L875.2,887c-0.2,0-0.3-0.1-0.5-0.2c-0.6-0.3-1.2-0.7-1.6-1.2c-1-1.1-1.4-2.3-1.4-3.8
			c0.1-1.4,0.7-2.7,1.7-3.7c0.7-0.7,1.6-1.1,2.5-1.3s1.9-0.1,2.8,0.2c0.2,0.1,0.4,0.1,0.5,0.2C879.2,877,879,876.6,878.9,876.2z
			 M874.6,885.9l6.7-6.1l-0.8-0.9c-0.7-0.8-1.7-1.2-2.9-1.2c-1.2,0-2.3,0.5-3.2,1.3c-0.9,0.9-1.5,1.9-1.6,3.1
			c-0.1,1.2,0.2,2.2,0.9,3C873.9,885.5,874.2,885.8,874.6,885.9z M891.6,868.7c-1.2-1.3-2.8-2-4.7-2c-1.9,0-3.6,0.7-5.1,2
			c-1.5,1.4-2.3,3-2.5,4.9s0.4,3.5,1.6,4.9l0.8,0.9l10.6-9.7C892.1,869.3,891.9,869,891.6,868.7z"/>
		<path class="st0" d="M887.3,862.9l-0.9-5.5l0.5-0.6l1.2,7.2l-24.5,4.2l-1.2-7.2l0.7,0.4l0.9,5.5l8.4-1.4l-0.8-4.8l0.7,0.3l0.7,4.4
			L887.3,862.9z"/>
		<path class="st0" d="M887.9,850.9l0.7-0.4l-1.7,7.1l-24.2-5.7l0.3-1.2l23.6,5.6L887.9,850.9z"/>
		<path class="st0" d="M876,842.1l17.4-0.7l-0.7,1.2l-15.2,0.6l11.7,6.1l-0.6,1.1l-22-11.6l0.6-1.1l8.2,4.3l-4.8-10.7l0.4-0.7
			L876,842.1z"/>
		<path class="st0" d="M879.6,818.7l23.1,12.3l-0.8,0.9l-8.5-4.6l-5,5.4l5.1,8.2l-0.4,0.5l-13.3-21.3L879.6,818.7z M888,832.1
			l4.8-5.1l-11.9-6.4L888,832.1z"/>
		<path class="st0" d="M915.4,821.2l0.8,0.2l-6,4.2l-14.3-20.4l1-0.7l13.9,19.9L915.4,821.2z"/>
		<path class="st0" d="M906.1,799.8c1-2,2.5-3.7,4.5-5c1.9-1.3,4-2,6.3-2.1s4.4,0.3,6.5,1.4c2,1,3.7,2.5,5,4.4c1.3,1.9,2,4,2.1,6.3
			c0.1,2.3-0.3,4.4-1.4,6.5c-1,2-2.5,3.7-4.4,5c-1.9,1.3-4.1,2-6.3,2.1c-2.3,0.1-4.4-0.3-6.5-1.4c-2-1-3.7-2.5-4.9-4.4
			c-1.3-1.9-2-4-2.1-6.3C904.6,804,905.1,801.8,906.1,799.8z M926.7,813.5c1.4-1.5,2.4-3.3,2.8-5.4s0.3-4.1-0.4-6
			c-0.7-2-1.9-3.7-3.5-5.1c-1.6-1.4-3.5-2.3-5.7-2.8c-2.2-0.5-4.3-0.4-6.3,0.3c-2,0.6-3.8,1.7-5.2,3.2c-1.4,1.5-2.4,3.3-2.8,5.4
			s-0.3,4.1,0.4,6c0.7,2,1.9,3.7,3.5,5.1s3.5,2.3,5.7,2.8c2.2,0.5,4.3,0.4,6.3-0.3C923.5,816.1,925.3,815,926.7,813.5z"/>
		<path class="st0" d="M930.4,782l0.5-0.3l11.5,16.6c0.8,1.2,1.1,2.4,0.8,3.8s-1,2.5-2.1,3.3c-0.7,0.5-1.6,0.8-2.5,0.9
			c-0.9,0.1-1.8-0.1-2.6-0.5c-0.8-0.4-1.5-1-2.1-1.7l-11.5-16.5l1-0.7l11.5,16.5c0.7,1,1.7,1.7,2.8,1.9c1.2,0.3,2.3,0.1,3.2-0.6
			c1-0.7,1.5-1.6,1.7-2.8c0.2-1.2-0.1-2.3-0.8-3.3L930.4,782z"/>
		<path class="st0" d="M939.2,775.2l0.5-0.4l15.3,19.6l-0.3,0.2l-0.4-0.2l-20-10.9l13.2,16.8l-0.5,0.4l-15.3-19.6l0.3-0.2l0.4,0.2
			l20,10.9L939.2,775.2z"/>
		<path class="st0" d="M963.6,775.8l-0.8,0l4-4.2l3.9,3.7l0,0.6c-0.1,1.1-0.3,2.1-0.7,3c-0.6,1.7-1.5,3.2-2.8,4.5
			c-1.6,1.7-3.5,2.8-5.7,3.5c-2.2,0.6-4.4,0.7-6.6,0.2c-2.2-0.5-4.2-1.6-5.8-3.2c-1.3-1.2-2.2-2.6-2.9-4.2c-0.7-1.6-1-3.2-1.1-4.8
			c0-1.6,0.3-3.2,0.9-4.9c0.6-1.6,1.5-3.1,2.7-4.3c2.2-2.3,4.8-3.6,7.9-3.9l0.1,1.2c-3.1,0.3-5.8,1.6-7.9,3.9
			c-2.1,2.3-3.2,4.9-3.1,8c0.1,2.1,0.6,4,1.8,5.8c1.1,1.8,2.7,3.1,4.6,4.1c1.9,1,3.9,1.5,6.2,1.4c2.7-0.1,5.1-0.9,7.2-2.5
			c2.1-1.6,3.5-3.5,4.2-5.9c0.2-0.4,0.3-0.9,0.4-1.5l-3.6-3.4L963.6,775.8z"/>
		<path class="st0" d="M975.2,771.5l2.9-4.8l0.8-0.1l-3.8,6.2l-21.2-13l3.8-6.2l0.3,0.7l-2.9,4.8l7.3,4.5l2.5-4.1l0.3,0.7l-2.3,3.8
			L975.2,771.5z"/>
		<path class="st0" d="M958.3,711.6c-0.6-1.4-0.8-2.9-0.6-4.5c0.3-1.6,0.9-2.9,2.1-4.1c1.5-1.6,3.3-2.4,5.5-2.5
			c2.2-0.1,4,0.6,5.6,2.1c0.6,0.6,1.1,1.2,1.5,2l-16.9,17.9c-0.2,0-0.3-0.1-0.5-0.2c-0.7-0.3-1.2-0.6-1.7-1.1
			c-1.1-1-1.6-2.2-1.6-3.7c0-1.5,0.5-2.7,1.5-3.8c0.7-0.7,1.5-1.2,2.4-1.5c0.9-0.3,1.9-0.3,2.8,0c0.2,0,0.4,0.1,0.5,0.2
			C958.7,712.2,958.5,711.9,958.3,711.6z M954.7,721.5l6.2-6.6l-0.9-0.8c-0.8-0.8-1.8-1.1-3-1c-1.2,0.1-2.2,0.6-3.1,1.6
			c-0.9,0.9-1.3,2-1.4,3.2c0,1.2,0.3,2.2,1.1,2.9C954,721.2,954.4,721.4,954.7,721.5z M970.5,703.1c-1.3-1.3-2.9-1.8-4.9-1.7
			c-1.9,0.1-3.6,0.9-4.9,2.4c-1.4,1.5-2.1,3.1-2.1,5.1c0,1.9,0.6,3.5,1.9,4.8l0.9,0.8l9.9-10.5C971,703.7,970.8,703.4,970.5,703.1z"
			/>
		<path class="st0" d="M961.4,695.5L957,692l0-0.8l5.7,4.5l-15.5,19.5l-5.7-4.5l0.8-0.2l4.4,3.5l5.3-6.7l-3.8-3l0.7-0.2l3.5,2.8
			L961.4,695.5z"/>
		<path class="st0" d="M949.3,686.4l-0.1-0.8l5.9,4.3l-14.5,20.2l-1-0.7l14.1-19.7L949.3,686.4z"/>
		<path class="st0" d="M938,696.2l1-17.4l1.2,0.8l-0.9,15.2l7.3-11l1,0.7l-13.7,20.8l-1-0.7l5.1-7.7l-11.1,3.7l-0.6-0.4L938,696.2z"
			/>
		<path class="st0" d="M917.9,695.4l7.5-25.1l1,0.6l-2.8,9.2l6.3,3.9l7-6.6l0.6,0.3L919.2,695L917.9,695.4z M929.4,684.5l-5.9-3.7
			l-3.9,13L929.4,684.5z"/>
		<path class="st0" d="M910.3,662.1l-0.1-0.8l6.3,3.8l-12.8,21.3l-1.1-0.6l12.5-20.8L910.3,662.1z"/>
		<path class="st0" d="M894.9,679.6c-2.3-0.1-4.4-0.7-6.4-1.9c-2-1.2-3.5-2.8-4.6-4.8c-1.1-2-1.6-4.2-1.5-6.4c0-2.3,0.7-4.4,1.9-6.4
			c1.2-2,2.8-3.5,4.8-4.6c2-1.1,4.2-1.6,6.4-1.5c2.3,0,4.4,0.7,6.4,1.9c2,1.2,3.5,2.8,4.6,4.8c1.1,2,1.6,4.2,1.5,6.4
			c-0.1,2.3-0.7,4.4-1.9,6.4c-1.2,2-2.8,3.5-4.8,4.6C899.3,679.1,897.2,679.6,894.9,679.6z M898.4,655.1c-2-0.6-4-0.7-6-0.2
			c-2,0.5-3.8,1.5-5.3,2.9c-1.5,1.5-2.5,3.3-3.1,5.3c-0.6,2.1-0.6,4.2-0.1,6.3c0.5,2.2,1.5,4,2.9,5.6c1.4,1.6,3.2,2.7,5.2,3.3
			s4,0.7,6.1,0.2c2-0.5,3.8-1.5,5.3-3s2.5-3.3,3.1-5.3c0.6-2.1,0.6-4.2,0.1-6.3c-0.5-2.2-1.5-4-2.9-5.6
			C902.1,656.9,900.4,655.8,898.4,655.1z"/>
		<path class="st0" d="M867.9,663.9l-0.5-0.3l11.3-16.7c0.8-1.2,1.9-1.9,3.3-2.1c1.4-0.3,2.7,0,3.8,0.8c0.8,0.5,1.3,1.2,1.7,2
			s0.6,1.7,0.5,2.6s-0.3,1.8-0.9,2.5l-11.3,16.6l-1-0.7l11.3-16.6c0.7-1,1-2.1,0.8-3.3c-0.2-1.2-0.8-2.1-1.7-2.8
			c-1-0.7-2-0.9-3.2-0.6c-1.2,0.3-2.1,0.9-2.8,1.9L867.9,663.9z"/>
		<path class="st0" d="M857.6,656.2l-0.5-0.3l15.1-19.8l0.3,0.2l-0.1,0.5l-5.5,22.1l12.9-17l0.5,0.4l-15.1,19.8l-0.3-0.2l0.1-0.5
			l5.5-22.1L857.6,656.2z"/>
		<path class="st0" d="M855.1,630l-0.1,0.8l-4.1-4.2l3.9-3.8l0.6,0.1c1.1,0.1,2,0.4,3,0.8c1.7,0.7,3.1,1.6,4.4,2.9
			c1.6,1.6,2.7,3.6,3.3,5.8c0.6,2.2,0.5,4.4-0.1,6.6c-0.6,2.2-1.7,4.1-3.4,5.7c-1.2,1.2-2.7,2.1-4.3,2.8s-3.2,0.9-4.8,0.9
			c-1.6,0-3.2-0.4-4.8-1s-3-1.6-4.2-2.8c-2.2-2.2-3.4-4.9-3.6-8l1.2-0.1c0.2,3.1,1.4,5.8,3.6,8c2.2,2.2,4.8,3.3,7.9,3.4
			c2.1,0,4.1-0.5,5.8-1.6c1.8-1.1,3.2-2.6,4.3-4.4s1.6-3.9,1.6-6.1c0-2.7-0.7-5.1-2.2-7.3c-1.5-2.2-3.4-3.6-5.8-4.4
			c-0.4-0.2-0.9-0.3-1.5-0.4l-3.5,3.5L855.1,630z"/>
		<path class="st0" d="M856,619.9l-2.8-4.8l0.3-0.7l3.6,6.3l-21.6,12.3l-3.6-6.3l0.8,0.1l2.8,4.8l7.4-4.2l-2.4-4.2l0.7,0.1l2.2,3.8
			L856,619.9z"/>
	</g>
</g>
<g>
	<path class="st0" d="M823,559.7c1.3-0.8,2.8-1.2,4.4-1.1c1.6,0.1,3,0.6,4.3,1.5c1.7,1.3,2.8,3,3.1,5.1c0.3,2.1-0.1,4.1-1.4,5.8
		c-0.5,0.7-1.1,1.3-1.8,1.7l-19.9-14.5c0-0.2,0-0.3,0.1-0.5c0.2-0.7,0.5-1.3,0.8-1.8c0.9-1.2,2-1.9,3.4-2.1c1.4-0.2,2.7,0.1,3.9,1
		c0.8,0.6,1.4,1.3,1.8,2.2s0.5,1.8,0.3,2.8c0,0.2-0.1,0.4-0.1,0.6C822.3,560.2,822.6,560,823,559.7z M812.6,557.5l7.4,5.4l0.7-1
		c0.6-0.9,0.8-1.9,0.6-3.1c-0.3-1.2-0.9-2.1-2-2.9c-1-0.8-2.2-1.1-3.4-1c-1.2,0.1-2.1,0.6-2.8,1.5
		C812.9,556.7,812.7,557.1,812.6,557.5z M832.9,570.7c1.1-1.5,1.4-3.2,1-5c-0.4-1.9-1.4-3.4-3-4.6c-1.6-1.2-3.4-1.7-5.3-1.4
		c-1.9,0.2-3.4,1.1-4.5,2.5l-0.7,1l11.6,8.5C832.4,571.4,832.7,571.1,832.9,570.7z"/>
	<path class="st0" d="M839,561.6l3.2-4.6l0.8-0.1l-4.2,6l-20.5-14.1l4.2-6l0.2,0.8l-3.2,4.6l7.1,4.9l2.8-4l0.3,0.7l-2.5,3.6
		L839,561.6z"/>
	<path class="st0" d="M847.2,549.3l0.8-0.1l-4,6.1l-20.9-13.5l0.7-1l20.4,13.2L847.2,549.3z"/>
	<path class="st0" d="M836.9,538.5l17.4,0.1l-0.7,1.2l-15.2-0.1l11.4,6.7l-0.6,1.1l-21.4-12.6l0.6-1.1l7.9,4.7l-4.3-10.9l0.4-0.7
		L836.9,538.5z"/>
	<path class="st0" d="M836.2,518.6l25.7,4.9l-0.5,1.1l-9.5-1.8l-3.2,6.6l7.3,6.3l-0.3,0.6l-19-16.4L836.2,518.6z M848.2,529l3-6.3
		l-13.3-2.5L848.2,529z"/>
	<path class="st0" d="M867.2,503.3l0.7-0.4l-1.5,7.2l-24.3-5.1l0.3-1.2l23.7,5L867.2,503.3z"/>
	<path class="st0" d="M845.7,497.3c-1.4-1.8-2.3-3.8-2.7-6.1c-0.4-2.3-0.1-4.5,0.7-6.6c0.8-2.1,2.1-3.9,3.9-5.4
		c1.8-1.4,3.8-2.3,6.1-2.7c2.3-0.4,4.5-0.1,6.6,0.7s3.9,2.1,5.4,3.9c1.4,1.8,2.3,3.8,2.7,6.1c0.4,2.3,0.1,4.5-0.7,6.6
		c-0.8,2.1-2.1,3.9-3.9,5.4c-1.8,1.4-3.8,2.3-6.1,2.7c-2.3,0.4-4.5,0.1-6.6-0.7C849,500.4,847.2,499.1,845.7,497.3z M866.6,484.1
		c-0.8-1.9-2-3.5-3.7-4.8c-1.7-1.2-3.6-1.9-5.7-2.1c-2.1-0.2-4.1,0.2-6,1.1s-3.6,2.2-4.9,4c-1.3,1.8-2.1,3.8-2.4,5.9
		c-0.3,2.1,0,4.1,0.8,6.1c0.8,1.9,2,3.5,3.7,4.8c1.7,1.2,3.6,1.9,5.7,2.1c2.1,0.2,4.1-0.2,6-1.1c1.9-0.9,3.6-2.2,4.9-4
		c1.3-1.8,2.1-3.7,2.4-5.9S867.4,486,866.6,484.1z"/>
	<path class="st0" d="M833.2,476.7l-0.4-0.4l14.2-14.3c1-1,2.2-1.5,3.6-1.5c1.4,0,2.6,0.5,3.6,1.5c0.6,0.6,1.1,1.4,1.3,2.3
		s0.3,1.8,0,2.7c-0.2,0.9-0.7,1.7-1.3,2.3l-14.1,14.3l-0.9-0.9l14.1-14.3c0.9-0.9,1.3-1.9,1.4-3.2c0-1.2-0.4-2.2-1.2-3
		c-0.8-0.8-1.9-1.2-3-1.2c-1.2,0-2.2,0.5-3.1,1.4L833.2,476.7z"/>
	<path class="st0" d="M824.8,470.2l-0.5-0.4l15.2-19.7l0.3,0.2l-0.1,0.5l-5.6,22.1l13.1-16.9l0.5,0.4l-15.2,19.7l-0.3-0.2l0.1-0.5
		l5.6-22.1L824.8,470.2z"/>
	<path class="st0" d="M820.6,446l0.1,0.8l-4.8-3.3l3.1-4.4l0.6-0.1c1.1-0.1,2.1,0,3.1,0.2c1.8,0.3,3.4,1,4.9,2.1
		c1.9,1.3,3.3,3,4.3,5.1s1.4,4.2,1.2,6.5s-0.9,4.4-2.3,6.3c-1,1.4-2.2,2.6-3.7,3.5c-1.5,0.9-3,1.5-4.6,1.8c-1.6,0.3-3.2,0.3-4.9-0.1
		c-1.7-0.3-3.3-1-4.7-2c-2.6-1.8-4.3-4.2-5.1-7.2l1.2-0.3c0.8,3,2.5,5.4,5,7.2c2.6,1.7,5.4,2.3,8.4,1.8c2.1-0.4,3.9-1.3,5.4-2.7
		c1.6-1.4,2.7-3.1,3.4-5.1c0.7-2,0.8-4.1,0.4-6.3c-0.5-2.7-1.7-4.9-3.6-6.7c-1.9-1.8-4-2.9-6.5-3.2c-0.5-0.1-1-0.1-1.6-0.2l-2.8,4.1
		L820.6,446z"/>
	<path class="st0" d="M818,435.9l-4.5-3.2l-0.1-0.8l5.9,4.2l-14.5,20.2l-5.9-4.2l0.8-0.2l4.5,3.2l5-7l-4-2.8l0.7-0.2l3.6,2.6
		L818,435.9z"/>
	<path class="st0" d="M771.8,412.6c-0.4-1.5-0.3-3,0.2-4.5c0.5-1.5,1.4-2.7,2.7-3.7c1.7-1.3,3.7-1.8,5.8-1.5s3.9,1.3,5.2,3.1
		c0.5,0.7,0.9,1.4,1.1,2.2L767,422.9c-0.2-0.1-0.3-0.1-0.5-0.2c-0.6-0.4-1.1-0.8-1.5-1.4c-0.9-1.2-1.2-2.5-1-3.9
		c0.2-1.4,0.9-2.6,2.1-3.5c0.8-0.6,1.7-0.9,2.6-1c1-0.1,1.9,0.1,2.8,0.5c0.2,0.1,0.3,0.2,0.5,0.3C772,413.3,771.9,412.9,771.8,412.6
		z M766.5,421.8l7.3-5.4l-0.7-1c-0.7-0.9-1.6-1.4-2.8-1.5c-1.2-0.1-2.3,0.2-3.4,1s-1.7,1.7-1.9,2.9c-0.3,1.2-0.1,2.2,0.6,3.1
		C765.8,421.3,766.1,421.5,766.5,421.8z M785.2,406.3c-1.1-1.5-2.6-2.3-4.5-2.5c-1.9-0.2-3.7,0.3-5.3,1.5c-1.6,1.2-2.6,2.7-3,4.6
		s0,3.6,1.1,5l0.7,1l11.5-8.6C785.7,407,785.5,406.7,785.2,406.3z"/>
	<path class="st0" d="M779.2,398.4l-2.8-4.8l0.3-0.7l3.6,6.3l-21.6,12.4l-3.6-6.3l0.8,0.1l2.8,4.8l7.4-4.3l-2.4-4.2l0.7,0.1l2.2,3.8
		L779.2,398.4z"/>
	<path class="st0" d="M773,386.1l0.4-0.7l2.9,6.7l-22.8,10L753,401l22.2-9.7L773,386.1z"/>
	<path class="st0" d="M758.1,387.6l12-12.6l0.4,1.3l-10.5,11l12.6-3.7l0.3,1.2l-23.9,7l-0.3-1.2l8.8-2.6l-10.9-4.3l-0.2-0.7
		L758.1,387.6z"/>
	<path class="st0" d="M743.9,370.2l24.2-9.8l0.2,1.2l-8.9,3.6l0.9,7.3l9.6,1.3l0.1,0.6l-24.8-3.5L743.9,370.2z M759.7,372.4
		l-0.9-6.9l-12.5,5.1L759.7,372.4z"/>
	<path class="st0" d="M768.4,344.4l0.7-0.4l-0.6,7.3l-24.8-2.2l0.1-1.2l24.2,2.1L768.4,344.4z"/>
	<path class="st0" d="M746.3,336.3c-0.7-2.2-0.9-4.4-0.4-6.7c0.5-2.3,1.5-4.3,3-5.9c1.5-1.7,3.4-2.9,5.5-3.6
		c2.2-0.7,4.4-0.9,6.6-0.4c2.3,0.5,4.3,1.5,5.9,3s2.9,3.4,3.6,5.5c0.7,2.2,0.9,4.4,0.4,6.6c-0.5,2.3-1.5,4.3-3,6
		c-1.5,1.7-3.4,2.9-5.5,3.6c-2.2,0.7-4.4,0.8-6.6,0.4c-2.3-0.5-4.3-1.5-6-3C748.2,340.3,747,338.5,746.3,336.3z M770.5,331.3
		c-0.1-2.1-0.7-4-1.8-5.8c-1.1-1.8-2.7-3.1-4.6-4c-1.9-0.9-3.9-1.3-6-1.1c-2.1,0.2-4.1,0.9-6,2.1c-1.9,1.2-3.3,2.8-4.3,4.7
		c-1,1.9-1.4,3.9-1.4,6c0.1,2.1,0.7,4,1.8,5.8c1.1,1.8,2.7,3.1,4.6,4c1.9,0.9,3.9,1.2,6,1.1c2.1-0.2,4.1-0.9,6-2.1
		c1.9-1.2,3.3-2.8,4.3-4.7C770.1,335.4,770.6,333.4,770.5,331.3z"/>
	<path class="st0" d="M754.9,303.4l0.2-0.5l18.5,7.9c1.3,0.6,2.2,1.5,2.7,2.8s0.5,2.6,0,3.9c-0.4,0.8-0.9,1.5-1.6,2.1
		c-0.7,0.5-1.6,0.9-2.5,1c-0.9,0.1-1.8,0-2.7-0.4l-18.5-7.9l0.5-1.1l18.5,7.9c1.1,0.5,2.3,0.5,3.4,0.1c1.1-0.4,1.9-1.1,2.4-2.2
		c0.5-1.1,0.5-2.2,0-3.3c-0.5-1.1-1.3-1.9-2.4-2.4L754.9,303.4z"/>
	<path class="st0" d="M761.9,291l0.3-0.5l21.4,12.7l-0.2,0.3l-0.5-0.1l-22.6-2.9l18.4,10.9l-0.3,0.5L757,299.4l0.2-0.3l0.5,0
		l22.6,2.9L761.9,291z"/>
	<path class="st0" d="M788.3,285.9l-0.8,0l3.9-4.4l4.1,3.6l0,0.6c-0.1,1.1-0.3,2.1-0.6,3c-0.5,1.7-1.4,3.2-2.6,4.6
		c-1.5,1.7-3.4,3-5.5,3.7c-2.2,0.7-4.4,0.9-6.6,0.4c-2.2-0.4-4.2-1.4-6-3c-1.3-1.1-2.3-2.5-3.1-4c-0.7-1.6-1.2-3.1-1.3-4.8
		c-0.1-1.6,0.1-3.2,0.7-4.9s1.4-3.1,2.5-4.4c2.1-2.4,4.7-3.8,7.7-4.2l0.2,1.2c-3.1,0.4-5.7,1.8-7.7,4.2c-2,2.4-3,5-2.8,8.1
		c0.1,2.1,0.8,4,2,5.7c1.2,1.7,2.8,3,4.7,3.9c1.9,0.9,4,1.3,6.2,1.2c2.7-0.2,5.1-1.1,7.1-2.8c2-1.7,3.4-3.7,4-6.1
		c0.1-0.5,0.3-1,0.3-1.5l-3.7-3.3L788.3,285.9z"/>
	<path class="st0" d="M798.7,285.5l4.3-3.6l0.8,0.1l-5.6,4.7l-16-19.1l5.6-4.7l0,0.8l-4.3,3.6l5.5,6.6l3.7-3.1l0.1,0.7l-3.4,2.8
		L798.7,285.5z"/>
	<path class="st0" d="M816.6,256.2c1.6-0.2,3,0.1,4.4,0.8c1.4,0.7,2.5,1.8,3.3,3.2c1.1,1.9,1.3,3.9,0.7,6c-0.6,2.1-1.8,3.7-3.7,4.7
		c-0.7,0.4-1.5,0.7-2.3,0.8l-12-21.5c0.1-0.2,0.2-0.3,0.3-0.4c0.4-0.5,1-1,1.5-1.3c1.3-0.7,2.6-0.9,4-0.5c1.4,0.4,2.4,1.2,3.2,2.5
		c0.5,0.9,0.7,1.8,0.7,2.8c0,1-0.3,1.9-0.9,2.7c-0.1,0.2-0.2,0.3-0.3,0.5C815.8,256.4,816.2,256.3,816.6,256.2z M808.1,249.8l4.4,8
		l1.1-0.6c1-0.5,1.6-1.4,1.8-2.6c0.2-1.2,0.1-2.3-0.6-3.5s-1.5-1.9-2.6-2.3c-1.1-0.4-2.2-0.3-3.2,0.2
		C808.7,249.2,808.4,249.5,808.1,249.8z M821,270.4c1.6-0.9,2.6-2.3,3.1-4.1c0.4-1.9,0.2-3.7-0.8-5.4c-1-1.8-2.4-2.9-4.2-3.5
		c-1.8-0.6-3.5-0.5-5.1,0.4l-1.1,0.6l7,12.5C820.2,270.8,820.6,270.6,821,270.4z"/>
	<path class="st0" d="M829.9,265.1l5-2.5l0.7,0.3l-6.5,3.3L817.8,244l6.5-3.3l-0.2,0.8l-5,2.5l3.9,7.7l4.3-2.2l-0.1,0.7l-4,2
		L829.9,265.1z"/>
	<path class="st0" d="M842.7,258.9l0.7,0.3l-6.6,3.1l-10.7-22.5l1.1-0.5l10.4,21.9L842.7,258.9z"/>
	<path class="st0" d="M839.7,244.3l14.3,10l-1.3,0.6l-12.5-8.7l5.6,11.9l-1.1,0.5l-10.5-22.5l1.1-0.5l3.9,8.4l2.6-11.4l0.7-0.3
		L839.7,244.3z"/>
	<path class="st0" d="M850.9,227.7l17.4,19.5l-1.1,0.6l-6.4-7.2l-6.6,3.3l2,9.4l-0.6,0.3l-5.1-24.5L850.9,227.7z M854.2,243.2
		l6.2-3.1l-9-10.1L854.2,243.2z"/>
</g>
<g>
	<g>
		<path class="st0" d="M400.1,1275.5c6.3-11.6,14.6-21.1,24.3-28.6c6.3-4.8,13.3-8.6,20.6-11.6l13.9-5.9
			c26.1-10.9,40.1-40.4,30.4-67c-10.4-28.4-42.2-42-69.7-30.5l-15.2,6.4c-7.2,3-14.8,5.4-22.5,6.5c-12.2,1.7-24.9,1-37.7-2.7
			c-1.9-0.5-3.9-1.2-5.8-1.8l-13.2,5.5c-5.3,2.2,3.6,35.5,19.9,74.3c16.3,38.8,33.8,68.4,39.1,66.2l13.2-5.5
			C398.2,1279.1,399.1,1277.3,400.1,1275.5z"/>
	</g>
	<path class="st0" d="M553.4,1310.2c-1.2-10.7-0.1-21,2.9-30.6c1.9-6.2,4.9-12,8.4-17.4l6.6-10.4c12.4-19.5,8-45.9-11-59.1
		c-20.2-14.2-47.9-8.4-61,12.2l-7.2,11.4c-3.4,5.4-7.4,10.6-12.1,14.9c-7.4,6.8-16.3,12.3-26.5,15.9c-1.6,0.5-3.1,1-4.7,1.5
		l-6.2,9.9c-2.5,4,19,22.1,48.1,40.5c29.1,18.4,54.7,30.1,57.2,26.1l6.2-9.9C553.8,1313.5,553.6,1311.8,553.4,1310.2z"/>
	<path class="st0" d="M546.3,1153.8L546.3,1153.8c-7.4,6.5-4.5,18.7,5.1,21.1l0,0c16.8,4.4,34.5,4.5,51.4,0.5l2.9-0.7
		c9.2-2.2,14.9-11.5,12.7-20.7l-2.9-12c-2.2-9.2-11.5-14.9-20.7-12.7l-2.9,0.7C574.9,1134.2,559.3,1142.3,546.3,1153.8z"/>
	<path class="st0" d="M493.7,1142L493.7,1142c7.7,6.2,19.2,1.4,20-8.4l0,0c1.6-17.3-1.2-34.8-7.9-50.8l-1.2-2.7
		c-3.7-8.7-13.7-12.8-22.5-9.2l-11.3,4.8c-8.7,3.7-12.8,13.7-9.2,22.5l1.2,2.7C469.6,1116.9,480.2,1131.1,493.7,1142z"/>
	<path class="st0" d="M539.3,1146l-16.3-9.6c-1.2-0.7-2.8-0.3-3.5,0.9l-18.3,31c-0.7,1.2-0.3,2.8,0.9,3.5l16.3,9.6
		c1.2,0.7,2.8,0.3,3.5-0.9l18.3-31C540.9,1148.2,540.5,1146.7,539.3,1146z"/>
	<path class="st0" d="M463,1121.3c0,0-10.4-33.4-60.8-39.2c-2.4-0.3-4.3,2.2-3.1,4.4l9.7,19.3l-10,14.1c-1.6,2.3,0.5,5.4,3.2,4.7
		C414.7,1121.4,439.6,1116.6,463,1121.3z"/>
	<path class="st0" d="M571.9,1187.1c0,0,34.1-7.7,64.3,33.1c1.5,2,0.2,4.8-2.3,4.9l-21.5,1.2l-7.2,15.7c-1.2,2.6-5,2.3-5.7-0.4
		C596,1229.1,587.7,1205.1,571.9,1187.1z"/>
</g>
<g>
	<g>
		<path class="st0" d="M295.3,2252.2c-0.2-3.4,2.6-6.5,6.5-7.1l24.9-3.9c4.4-0.7,8.4,1.9,8.9,5.7l6.2,49.9l88.2-8.5
			c-2.2-19.5-5.7-38.9-11.2-58c-0.4-1.5-2.2-2.6-3.7-2.4c-66.9,6.7-133.7,13.4-200.6,20.1c-0.8,0.1-1.4,0.3-1.8,0.7
			c-0.1,0-0.1,0.1-0.2,0.1c0,0,0,0,0,0c-0.8,0.6-1.4,1.6-1.3,3c1.5,19.1,3.2,38.1,5.4,57l82.2-7.9L295.3,2252.2z"/>
		<path class="st0" d="M433.8,2383.3c0-20.7-0.1-41.4-1.1-62.1l-86.8,8l8.4,67.7l-48.4,3.4l-4.8-67l-80.4,7.4
			c2.9,21.3,6.4,42.5,10.5,63.7c0.4,2,1.7,3.3,3.9,3.4c66.1,0.3,131.8-6.8,196.3-20.9C433,2386.6,433.8,2384.7,433.8,2383.3z"/>
		<path class="st0" d="M436.6,2320.8l-2.3-33l-4.2,0.4c1.2,10.9,2.1,21.9,2.6,32.9L436.6,2320.8z"/>
		<path class="st0" d="M209.1,2309.6l2.3,32.1l9.3-0.9c-1.5-10.6-2.8-21.3-4-32L209.1,2309.6z"/>
		<polygon class="st0" points="298.8,2300.9 301.1,2333.4 345.9,2329.2 341.8,2296.8 		"/>
	</g>
	<path class="st0" d="M368.6,2169.1c-13.6-2.4-26.5,3.2-36.3,12.5c-5.6,5.3-10,11.6-13.8,18.2c-2.7,4.6-4.9,9.5-7.2,14.3
		c-0.6,1.4-1.5,4.1-2.5,6.4c-5-7.1-12.3-13.4-18.1-17.3c-14.5-9.7-32.6-15.5-50.1-13.2c-14,1.8-27.7,10.7-28.2,26.1
		c-0.6,20.7,21.9,23.9,37.8,26.2c10.9,1.6,22,2.3,33,2.2c8.7-0.1,19.8,0.5,28.2-2.9c20.6-4.4,43.2-9.4,62.5-17.4
		c12.5-5.2,22-16.1,20.4-30.3C392.9,2180.6,381.2,2171.4,368.6,2169.1z M275.4,2227.3c-11.3-0.2-23.9-0.8-34.8-4
		c-4.8-1.4-13.5-3-10.6-9.8c2.4-5.6,10-6.6,15.2-7.1c8.4-0.8,17.2,0.8,25.2,3.3c8.7,2.8,17.1,7.4,24.4,12.9c1.8,1.4,3.5,3,5.2,4.6
		C292.1,2228.7,280.5,2227.4,275.4,2227.3z M374.6,2209.7c-9.1,6.5-23.3,8.2-33.9,11.2c-5.4,1.5-10.7,3-16.1,4.5
		c4.1-9.8,8-20,14.7-28.5c6.4-8.2,15.5-15.2,26.5-13.8C379.5,2184.7,387.8,2200.3,374.6,2209.7z"/>
</g>
<g>
	<g>
		<path class="st0" d="M498.3,198.4c1.1-2.7,4-3.9,6.7-2.8l17.1,6.7c3,1.2,4.6,4.7,3.5,7.8L511,250.1l58.5,27.9
			c5.8-15.6,10.8-31.6,14.3-48.2c0.3-1.3-0.4-2.8-1.4-3.2c-44.4-20.9-88.9-41.8-133.3-62.8c-0.5-0.2-1-0.3-1.4-0.2
			c-0.1,0-0.1,0-0.2,0c0,0,0,0,0,0c-0.8,0.1-1.5,0.7-1.9,1.8c-6.1,15-12,30-17.6,45.2l54.5,26L498.3,198.4z"/>
		<path class="st0" d="M536.9,351.2c7.6-15.6,15.2-31.3,22.2-47.3l-57.4-27.7l-19.7,54.4l-31.7-16.2l21.7-52.5l-53.2-25.6
			c-6,17.2-11.7,34.6-16.9,52.2c-0.5,1.7-0.2,3.2,1.2,4c41.4,25.9,85.2,46.1,130.9,60.5C535.1,353.4,536.3,352.3,536.9,351.2z"/>
		<path class="st0" d="M561.6,305.2l10.7-25.8l-2.8-1.3c-3.3,8.7-6.8,17.4-10.5,25.9L561.6,305.2z"/>
		<path class="st0" d="M423,208.2l-10.4,25.1l6.1,3c3-8.6,6.1-17.2,9.2-25.7L423,208.2z"/>
		<polygon class="st0" points="482.5,236.5 472,261.9 501.6,276.2 511,250.1 		"/>
	</g>
	<path class="st0" d="M574.9,164.1c-7.6-7.1-17.8-7.9-27.4-4.7c-5.4,1.8-10.6,4.9-15.4,8.4c-3.4,2.4-6.6,5.2-9.8,8
		c-0.9,0.8-2.4,2.5-3.9,3.9c-0.5-7.3-2.8-14.9-5-20.1c-5.5-12.9-14.8-24.4-26.6-29.5c-9.4-4.1-21.3-2.7-27.3,8.7
		c-8,15.4,5,26.5,14.1,34.5c6.2,5.4,12.9,10.3,19.9,14.5c5.5,3.3,12.3,8,18.8,8.8c14.6,4.7,30.6,9.7,45.6,11.2
		c9.7,0.9,19.7-3.6,24-14.9C585.9,182.2,581.9,170.7,574.9,164.1z M494.9,171.8c-7-4.5-14.7-9.9-20.3-16.6c-2.5-3-7.4-7.5-3-11.5
		c3.6-3.3,8.7-1.1,12.2,0.5c5.6,2.7,10.5,7.3,14.6,12.3c4.4,5.5,8,12.2,10.5,19.2c0.6,1.8,1.1,3.6,1.6,5.5
		C504.9,179.3,498.1,173.9,494.9,171.8z M563.7,197.1c-8.1,1.4-17.6-2.9-25.4-4.7c-3.9-1-7.8-1.9-11.7-2.9
		c6.2-5.8,12.4-12,19.7-15.8c7-3.7,15.3-5.4,21.7-0.1C575.9,180.1,575.4,195.1,563.7,197.1z"/>
</g>
<g>
	<path class="st0" d="M1193.8,225.5c-29.1,7.6-60.2,17.1-92.7,29.2c-17.5,6.5-34.2,13.2-49.9,20.1c10.5,16,24.9,35.1,44.4,54.4
		c21.7,21.5,43.1,36.8,60.6,47.5c6.2-15,12.1-31.5,17.4-49.3C1184.8,290,1190.8,255.4,1193.8,225.5z"/>
	<path class="st0" d="M1155.1,261.8l38.8-36.2c0,0,24.9,83.7,22.9,115.2C1216.7,340.7,1169.3,287.6,1155.1,261.8z"/>
	<path class="st0" d="M1046.7,262.9c0,0-23,4-22.1,14.2c0.8,10.2,105.6,122.1,124.6,127.1c19,5,18.4-20.2,17.2-25.1
		C1165.2,374.1,1046.7,262.9,1046.7,262.9z"/>
	<path class="st0" d="M1213.1,335.9c-6.1,1.5-12.1,7.2-14.1,13.4c-1.9,6-0.1,11.7,2.7,16.1c2.3,3.6,5.2,6.8,9.4,8.2
		c15.9,5.6,35-12.8,22.4-27.1C1227.9,340.3,1222.6,333.6,1213.1,335.9z"/>
</g>
<g>
	<path class="st0" d="M1275.1,1731.5c-8.4,2.8-16.4,6.1-24.3,10.1c8.9,4.7,17.8,9.4,26.8,13.9
		C1276.8,1747.4,1276,1739.4,1275.1,1731.5z"/>
	<path class="st0" d="M1246.4,1712.9c0.5,8.2,1.1,16.5,1.6,24.7c8.8-4.5,17.8-8.2,27.1-11.2c-9.7-4.5-19.3-9.2-28.8-14
		C1246.3,1712.6,1246.3,1712.7,1246.4,1712.9z"/>
	<path class="st0" d="M1229.3,1837.7c-11.9,5.7-18.4,17.6-21.7,29.8c-0.1,0.3-0.2,0.6-0.4,0.8c17.3,2.6,34,0.2,47.5-11.7
		c5.9-5.2,10.3-12,14.3-19c-0.2,0-0.5-0.1-0.7-0.2C1257.5,1832.2,1240.2,1832.5,1229.3,1837.7z"/>
	<path class="st0" d="M1220,1724.8c7.7,4.3,15.4,8.5,23.2,12.7c-0.5-7-0.9-14.1-1.4-21.1C1234.5,1719,1227.2,1721.9,1220,1724.8z"/>
	<path class="st0" d="M1211.9,1735.1c-8.1,16.3-17.6,38.2-34.2,47.7c-15.1,8.7-26.8-2.6-42.1-2.8c-10.8-0.2-23.4,11.4-26.2,21.9
		c-4.4,16.7,13.1,28,25.1,35.3c18,11,43.5,25.5,68.5,30.4c-0.1-0.3-0.1-0.7,0-1.2c3.7-13.5,11.2-27,24.4-33.2
		c12.6-5.9,30.8-6,43.2,0.1c0.2,0.1,0.4,0.3,0.6,0.4c1.6-2.8,3.1-5.7,4.7-8.4c5.7-9.7,11.3-19.4,17-29.1c4.2-7.2,8.4-14.5,12.7-21.7
		c-30.4-14.7-60.4-30.4-90-46.8C1214.3,1730.2,1213.2,1732.7,1211.9,1735.1z"/>
	<path class="st0" d="M1235.2,1686.4c-0.3-0.2-0.5-0.4-0.7-0.6c-1.9,4.1-3.7,8.2-5.6,12.4c30.5,16.3,61.8,31,93.8,44.2
		c0.5,0.2,0.8,0.5,1,0.9c1.4-2.4,2.8-4.7,4.1-7.1c0.3-0.5,0.5-0.9,0.8-1.4C1296.1,1721.6,1264.9,1705.5,1235.2,1686.4z"/>
	<path class="st0" d="M1330.7,1714.6c-7.5-5.7-17.5-9.2-25.8-13.6c-20.7-10.9-41-22.6-61.6-33.8c-2.4,4.8-4.7,9.7-7,14.6
		c0.4,0,0.8,0.1,1.2,0.3c29.7,19.1,60.9,35.2,93.7,48.4C1334.4,1725,1336.7,1719.1,1330.7,1714.6z"/>
	<path class="st0" d="M1284.9,1759.1c7.2,3.6,14.4,7.2,21.6,10.7c1.5-7.4,1.4-14.4-0.2-21.7
		C1299.4,1752.1,1292.2,1755.8,1284.9,1759.1z"/>
	<path class="st0" d="M1219.1,1720c7.9-3.2,15.9-6.3,24-9.2c-5.4-2.7-10.7-5.5-16-8.3C1224.5,1708.3,1221.8,1714.2,1219.1,1720z"/>
	<path class="st0" d="M1279.6,1728.5c0.9,8.9,1.9,17.7,2.8,26.6c8.3-3.8,16.4-8,24.3-12.7c1.3-0.8,3.1-0.1,3.5,1.4
		c1.7,6.5,2.4,12.8,2,19.2c3.2-5.5,6.4-11,9.6-16.5c-0.4,0.1-0.8,0-1.3-0.1C1306.7,1740.8,1293.1,1734.8,1279.6,1728.5z"/>
</g>
<path class="st0" d="M243.3,338.2h-4.5l2.6-2.6c1-1,1-2.5,0-3.5c-1-1-2.5-1-3.5,0l-6.1,6.1h-14.3l3.1-3.1c1-1,1-2.5,0-3.5
	c-1-1-2.5-1-3.5,0l-6.6,6.6H199l14.2-14.2c1-1,1-2.5,0-3.5c-1-1-2.5-1-3.5,0L192,338.2h-3.8l-4.1-7.1l16.6-16.6h9.3
	c1.4,0,2.5-1.1,2.5-2.5c0-1.4-1.1-2.5-2.5-2.5h-4.4l10.1-10.1h8.6c1.4,0,2.5-1.1,2.5-2.5c0-1.4-1.1-2.5-2.5-2.5h-3.6l3.2-3.2
	c1-1,1-2.5,0-3.5c-1-1-2.5-1-3.5,0l-3.2,3.2v-3.6c0-1.4-1.1-2.5-2.5-2.5c-1.4,0-2.5,1.1-2.5,2.5v8.6l-10.1,10.1v-4.4
	c0-1.4-1.1-2.5-2.5-2.5c-1.4,0-2.5,1.1-2.5,2.5v9.3l-15.6,15.6l-1.2-2.1h-6.8v-4.9l17.7-17.7c1-1,1-2.5,0-3.5c-1-1-2.5-1-3.5,0
	l-14.2,14.2v-11.4l6.6-6.6c1-1,1-2.5,0-3.5c-1-1-2.5-1-3.5,0l-3.1,3.1v-14.3l6.1-6.1c1-1,1-2.5,0-3.5c-1-1-2.5-1-3.5,0l-2.6,2.6
	v-4.5c0-1.4-1.1-2.5-2.5-2.5c-1.4,0-2.5,1.1-2.5,2.5v4.5l-2.6-2.6c-1-1-2.5-1-3.5,0c-1,1-1,2.5,0,3.5l6.1,6.1v14.3l-3.1-3.1
	c-1-1-2.5-1-3.5,0c-1,1-1,2.5,0,3.5l6.6,6.6v11.4l-14.2-14.2c-1-1-2.5-1-3.5,0c-1,1-1,2.5,0,3.5l17.7,17.7v4.9h-6.8l-1.2,2.1
	l-15.6-15.6v-9.3c0-1.4-1.1-2.5-2.5-2.5c-1.4,0-2.5,1.1-2.5,2.5v4.4L129.8,296v-8.6c0-1.4-1.1-2.5-2.5-2.5c-1.4,0-2.5,1.1-2.5,2.5
	v3.6l-3.2-3.2c-1-1-2.5-1-3.5,0c-1,1-1,2.5,0,3.5l3.2,3.2h-3.6c-1.4,0-2.5,1.1-2.5,2.5c0,1.4,1.1,2.5,2.5,2.5h8.6l10.1,10.1h-4.4
	c-1.4,0-2.5,1.1-2.5,2.5c0,1.4,1.1,2.5,2.5,2.5h9.3l16.6,16.6l-4.1,7.1h-3.8l-17.7-17.7c-1-1-2.5-1-3.5,0c-1,1-1,2.5,0,3.5
	l14.2,14.2h-11.4l-6.6-6.6c-1-1-2.5-1-3.5,0c-1,1-1,2.5,0,3.5l3.1,3.1h-14.3l-6.1-6.1c-1-1-2.5-1-3.5,0c-1,1-1,2.5,0,3.5l2.6,2.6
	h-4.5c-1.4,0-2.5,1.1-2.5,2.5s1.1,2.5,2.5,2.5h4.5l-2.6,2.6c-1,1-1,2.5,0,3.5c0.5,0.5,1.1,0.7,1.8,0.7c0.6,0,1.3-0.2,1.8-0.7
	l6.1-6.1h14.3l-3.1,3.1c-1,1-1,2.5,0,3.5c0.5,0.5,1.1,0.7,1.8,0.7c0.6,0,1.3-0.2,1.8-0.7l6.6-6.6h11.4l-14.2,14.2c-1,1-1,2.5,0,3.5
	c0.5,0.5,1.1,0.7,1.8,0.7c0.6,0,1.3-0.2,1.8-0.7l17.7-17.7h3.8l4.1,7.1l-16.6,16.6h-9.3c-1.4,0-2.5,1.1-2.5,2.5
	c0,1.4,1.1,2.5,2.5,2.5h4.4l-10.1,10.1h-8.6c-1.4,0-2.5,1.1-2.5,2.5c0,1.4,1.1,2.5,2.5,2.5h3.6l-3.2,3.2c-1,1-1,2.5,0,3.5
	c0.5,0.5,1.1,0.7,1.8,0.7c0.6,0,1.3-0.2,1.8-0.7l3.2-3.2v3.6c0,1.4,1.1,2.5,2.5,2.5c1.4,0,2.5-1.1,2.5-2.5v-8.6l10.1-10.1v4.4
	c0,1.4,1.1,2.5,2.5,2.5c1.4,0,2.5-1.1,2.5-2.5v-9.3l15.6-15.6l1.2,2.1h6.8v4.9l-17.7,17.7c-1,1-1,2.5,0,3.5c1,1,2.5,1,3.5,0
	l14.2-14.2v11.4l-6.6,6.6c-1,1-1,2.5,0,3.5c1,1,2.5,1,3.5,0l3.1-3.1v14.3l-6.1,6.1c-1,1-1,2.5,0,3.5c1,1,2.5,1,3.5,0l2.6-2.6v4.5
	c0,1.4,1.1,2.5,2.5,2.5c1.4,0,2.5-1.1,2.5-2.5v-4.5l2.6,2.6c0.5,0.5,1.1,0.7,1.8,0.7c0.6,0,1.3-0.2,1.8-0.7c1-1,1-2.5,0-3.5
	l-6.1-6.1v-14.3l3.1,3.1c0.5,0.5,1.1,0.7,1.8,0.7s1.3-0.2,1.8-0.7c1-1,1-2.5,0-3.5l-6.6-6.6v-11.4l14.2,14.2
	c0.5,0.5,1.1,0.7,1.8,0.7c0.6,0,1.3-0.2,1.8-0.7c1-1,1-2.5,0-3.5l-17.7-17.7v-4.9h6.8l1.2-2.1l15.6,15.6v9.3c0,1.4,1.1,2.5,2.5,2.5
	c1.4,0,2.5-1.1,2.5-2.5v-4.4l10.1,10.1v8.6c0,1.4,1.1,2.5,2.5,2.5c1.4,0,2.5-1.1,2.5-2.5v-3.6l3.2,3.2c0.5,0.5,1.1,0.7,1.8,0.7
	c0.6,0,1.3-0.2,1.8-0.7c1-1,1-2.5,0-3.5l-3.2-3.2h3.6c1.4,0,2.5-1.1,2.5-2.5c0-1.4-1.1-2.5-2.5-2.5h-8.6l-10.1-10.1h4.4
	c1.4,0,2.5-1.1,2.5-2.5c0-1.4-1.1-2.5-2.5-2.5h-9.3l-16.6-16.6l4.1-7.1h3.8l17.7,17.7c0.5,0.5,1.1,0.7,1.8,0.7
	c0.6,0,1.3-0.2,1.8-0.7c1-1,1-2.5,0-3.5L199,343.2h11.4l6.6,6.6c0.5,0.5,1.1,0.7,1.8,0.7c0.6,0,1.3-0.2,1.8-0.7c1-1,1-2.5,0-3.5
	l-3.1-3.1h14.3l6.1,6.1c0.5,0.5,1.1,0.7,1.8,0.7c0.6,0,1.3-0.2,1.8-0.7c1-1,1-2.5,0-3.5l-2.6-2.6h4.5c1.4,0,2.5-1.1,2.5-2.5
	S244.7,338.2,243.3,338.2z M177.5,351.8h-12.9l-6.4-11.1l6.4-11.1h12.9l6.4,11.1L177.5,351.8z"/>
<path class="st0" d="M1256.7,658.8h-4.5l2.6-2.6c1-1,1-2.5,0-3.5c-1-1-2.5-1-3.5,0l-6.1,6.1h-14.3l3.1-3.1c1-1,1-2.5,0-3.5
	c-1-1-2.5-1-3.5,0l-6.6,6.6h-11.4l14.2-14.2c1-1,1-2.5,0-3.5c-1-1-2.5-1-3.5,0l-17.7,17.7h-3.8l-4.1-7.1l16.6-16.6h9.3
	c1.4,0,2.5-1.1,2.5-2.5s-1.1-2.5-2.5-2.5h-4.4l10.1-10.1h8.6c1.4,0,2.5-1.1,2.5-2.5c0-1.4-1.1-2.5-2.5-2.5h-3.6l3.2-3.2
	c1-1,1-2.5,0-3.5c-1-1-2.5-1-3.5,0l-3.2,3.2V608c0-1.4-1.1-2.5-2.5-2.5c-1.4,0-2.5,1.1-2.5,2.5v8.6l-10.1,10.1v-4.4
	c0-1.4-1.1-2.5-2.5-2.5c-1.4,0-2.5,1.1-2.5,2.5v9.3l-15.6,15.6l-1.2-2.1h-6.8v-4.9l17.7-17.7c1-1,1-2.5,0-3.5c-1-1-2.5-1-3.5,0
	l-14.2,14.2v-11.4l6.6-6.6c1-1,1-2.5,0-3.5c-1-1-2.5-1-3.5,0l-3.1,3.1v-14.3l6.1-6.1c1-1,1-2.5,0-3.5c-1-1-2.5-1-3.5,0l-2.6,2.6V589
	c0-1.4-1.1-2.5-2.5-2.5s-2.5,1.1-2.5,2.5v4.5l-2.6-2.6c-1-1-2.5-1-3.5,0c-1,1-1,2.5,0,3.5l6.1,6.1v14.3l-3.1-3.1c-1-1-2.5-1-3.5,0
	c-1,1-1,2.5,0,3.5l6.6,6.6v11.4l-14.2-14.2c-1-1-2.5-1-3.5,0c-1,1-1,2.5,0,3.5l17.7,17.7v4.9h-6.8l-1.2,2.1l-15.6-15.6v-9.3
	c0-1.4-1.1-2.5-2.5-2.5c-1.4,0-2.5,1.1-2.5,2.5v4.4l-10.1-10.1V608c0-1.4-1.1-2.5-2.5-2.5c-1.4,0-2.5,1.1-2.5,2.5v3.6l-3.2-3.2
	c-1-1-2.5-1-3.5,0c-1,1-1,2.5,0,3.5l3.2,3.2h-3.6c-1.4,0-2.5,1.1-2.5,2.5c0,1.4,1.1,2.5,2.5,2.5h8.6l10.1,10.1h-4.4
	c-1.4,0-2.5,1.1-2.5,2.5s1.1,2.5,2.5,2.5h9.3l16.6,16.6l-4.1,7.1h-3.8l-17.7-17.7c-1-1-2.5-1-3.5,0c-1,1-1,2.5,0,3.5l14.2,14.2
	h-11.4l-6.6-6.6c-1-1-2.5-1-3.5,0c-1,1-1,2.5,0,3.5l3.1,3.1h-14.3l-6.1-6.1c-1-1-2.5-1-3.5,0c-1,1-1,2.5,0,3.5l2.6,2.6h-4.5
	c-1.4,0-2.5,1.1-2.5,2.5s1.1,2.5,2.5,2.5h4.5l-2.6,2.6c-1,1-1,2.5,0,3.5c0.5,0.5,1.1,0.7,1.8,0.7c0.6,0,1.3-0.2,1.8-0.7l6.1-6.1
	h14.3l-3.1,3.1c-1,1-1,2.5,0,3.5c0.5,0.5,1.1,0.7,1.8,0.7c0.6,0,1.3-0.2,1.8-0.7l6.6-6.6h11.4l-14.2,14.2c-1,1-1,2.5,0,3.5
	c0.5,0.5,1.1,0.7,1.8,0.7c0.6,0,1.3-0.2,1.8-0.7l17.7-17.7h3.8l4.1,7.1l-16.6,16.6h-9.3c-1.4,0-2.5,1.1-2.5,2.5
	c0,1.4,1.1,2.5,2.5,2.5h4.4l-10.1,10.1h-8.6c-1.4,0-2.5,1.1-2.5,2.5c0,1.4,1.1,2.5,2.5,2.5h3.6l-3.2,3.2c-1,1-1,2.5,0,3.5
	c0.5,0.5,1.1,0.7,1.8,0.7c0.6,0,1.3-0.2,1.8-0.7l3.2-3.2v3.6c0,1.4,1.1,2.5,2.5,2.5c1.4,0,2.5-1.1,2.5-2.5V706l10.1-10.1v4.4
	c0,1.4,1.1,2.5,2.5,2.5c1.4,0,2.5-1.1,2.5-2.5v-9.3l15.6-15.6l1.2,2.1h6.8v4.9l-17.7,17.7c-1,1-1,2.5,0,3.5c1,1,2.5,1,3.5,0
	l14.2-14.2v11.4l-6.6,6.6c-1,1-1,2.5,0,3.5c1,1,2.5,1,3.5,0l3.1-3.1V722l-6.1,6.1c-1,1-1,2.5,0,3.5c1,1,2.5,1,3.5,0l2.6-2.6v4.5
	c0,1.4,1.1,2.5,2.5,2.5s2.5-1.1,2.5-2.5v-4.5l2.6,2.6c0.5,0.5,1.1,0.7,1.8,0.7c0.6,0,1.3-0.2,1.8-0.7c1-1,1-2.5,0-3.5l-6.1-6.1
	v-14.3l3.1,3.1c0.5,0.5,1.1,0.7,1.8,0.7s1.3-0.2,1.8-0.7c1-1,1-2.5,0-3.5l-6.6-6.6v-11.4l14.2,14.2c0.5,0.5,1.1,0.7,1.8,0.7
	c0.6,0,1.3-0.2,1.8-0.7c1-1,1-2.5,0-3.5l-17.7-17.7v-4.9h6.8l1.2-2.1l15.6,15.6v9.3c0,1.4,1.1,2.5,2.5,2.5c1.4,0,2.5-1.1,2.5-2.5
	v-4.4l10.1,10.1v8.6c0,1.4,1.1,2.5,2.5,2.5c1.4,0,2.5-1.1,2.5-2.5V711l3.2,3.2c0.5,0.5,1.1,0.7,1.8,0.7c0.6,0,1.3-0.2,1.8-0.7
	c1-1,1-2.5,0-3.5l-3.2-3.2h3.6c1.4,0,2.5-1.1,2.5-2.5c0-1.4-1.1-2.5-2.5-2.5h-8.6l-10.1-10.1h4.4c1.4,0,2.5-1.1,2.5-2.5
	c0-1.4-1.1-2.5-2.5-2.5h-9.3l-16.6-16.6l4.1-7.1h3.8l17.7,17.7c0.5,0.5,1.1,0.7,1.8,0.7c0.6,0,1.3-0.2,1.8-0.7c1-1,1-2.5,0-3.5
	l-14.2-14.2h11.4l6.6,6.6c0.5,0.5,1.1,0.7,1.8,0.7c0.6,0,1.3-0.2,1.8-0.7c1-1,1-2.5,0-3.5l-3.1-3.1h14.3l6.1,6.1
	c0.5,0.5,1.1,0.7,1.8,0.7c0.6,0,1.3-0.2,1.8-0.7c1-1,1-2.5,0-3.5l-2.6-2.6h4.5c1.4,0,2.5-1.1,2.5-2.5S1258.1,658.8,1256.7,658.8z
	 M1190.9,672.4H1178l-6.4-11.1l6.4-11.1h12.9l6.4,11.1L1190.9,672.4z"/>
<path class="st0" d="M961.7,326.9h-3.5l2-2c0.8-0.8,0.8-2,0-2.7c-0.8-0.8-2-0.8-2.7,0l-4.7,4.7h-11.1l2.4-2.4c0.8-0.8,0.8-2,0-2.7
	c-0.8-0.8-2-0.8-2.7,0l-5.1,5.1h-8.9l11-11c0.8-0.8,0.8-2,0-2.7c-0.8-0.8-2-0.8-2.7,0l-13.7,13.7h-3l-3.2-5.5l12.8-12.8h7.3
	c1.1,0,1.9-0.9,1.9-1.9c0-1.1-0.9-1.9-1.9-1.9h-3.4l7.9-7.9h6.7c1.1,0,1.9-0.9,1.9-1.9s-0.9-1.9-1.9-1.9h-2.8l2.5-2.5
	c0.8-0.8,0.8-2,0-2.7c-0.8-0.8-2-0.8-2.7,0l-2.5,2.5v-2.8c0-1.1-0.9-1.9-1.9-1.9c-1.1,0-1.9,0.9-1.9,1.9v6.7l-7.9,7.9v-3.4
	c0-1.1-0.9-1.9-1.9-1.9c-1.1,0-1.9,0.9-1.9,1.9v7.3l-12.1,12.1l-0.9-1.6h-5.3v-3.8l13.7-13.7c0.8-0.8,0.8-2,0-2.7s-2-0.8-2.7,0
	l-11,11v-8.9l5.1-5.1c0.8-0.8,0.8-2,0-2.7c-0.8-0.8-2-0.8-2.7,0l-2.4,2.4v-11.1l4.7-4.7c0.8-0.8,0.8-2,0-2.7c-0.8-0.8-2-0.8-2.7,0
	l-2,2v-3.5c0-1.1-0.9-1.9-1.9-1.9s-1.9,0.9-1.9,1.9v3.5l-2-2c-0.8-0.8-2-0.8-2.7,0c-0.8,0.8-0.8,2,0,2.7l4.7,4.7v11.1l-2.4-2.4
	c-0.8-0.8-2-0.8-2.7,0c-0.8,0.8-0.8,2,0,2.7l5.1,5.1v8.9l-11-11c-0.8-0.8-2-0.8-2.7,0c-0.8,0.8-0.8,2,0,2.7l13.7,13.7v3.8h-5.3
	l-0.9,1.6l-12.1-12.1v-7.3c0-1.1-0.9-1.9-1.9-1.9c-1.1,0-1.9,0.9-1.9,1.9v3.4l-7.9-7.9v-6.7c0-1.1-0.9-1.9-1.9-1.9
	c-1.1,0-1.9,0.9-1.9,1.9v2.8l-2.5-2.5c-0.8-0.8-2-0.8-2.7,0s-0.8,2,0,2.7l2.5,2.5h-2.8c-1.1,0-1.9,0.9-1.9,1.9s0.9,1.9,1.9,1.9h6.7
	l7.9,7.9h-3.4c-1.1,0-1.9,0.9-1.9,1.9c0,1.1,0.9,1.9,1.9,1.9h7.3l12.8,12.8l-3.2,5.5h-3l-13.7-13.7c-0.8-0.8-2-0.8-2.7,0
	c-0.8,0.8-0.8,2,0,2.7l11,11h-8.9l-5.1-5.1c-0.8-0.8-2-0.8-2.7,0c-0.8,0.8-0.8,2,0,2.7l2.4,2.4h-11.1l-4.7-4.7c-0.8-0.8-2-0.8-2.7,0
	c-0.8,0.8-0.8,2,0,2.7l2,2h-3.5c-1.1,0-1.9,0.9-1.9,1.9s0.9,1.9,1.9,1.9h3.5l-2,2c-0.8,0.8-0.8,2,0,2.7c0.4,0.4,0.9,0.6,1.4,0.6
	c0.5,0,1-0.2,1.4-0.6l4.7-4.7h11.1l-2.4,2.4c-0.8,0.8-0.8,2,0,2.7c0.4,0.4,0.9,0.6,1.4,0.6c0.5,0,1-0.2,1.4-0.6l5.1-5.1h8.9l-11,11
	c-0.8,0.8-0.8,2,0,2.7c0.4,0.4,0.9,0.6,1.4,0.6c0.5,0,1-0.2,1.4-0.6l13.7-13.7h3l3.2,5.5l-12.8,12.8h-7.3c-1.1,0-1.9,0.9-1.9,1.9
	s0.9,1.9,1.9,1.9h3.4l-7.9,7.9h-6.7c-1.1,0-1.9,0.9-1.9,1.9c0,1.1,0.9,1.9,1.9,1.9h2.8l-2.5,2.5c-0.8,0.8-0.8,2,0,2.7
	c0.4,0.4,0.9,0.6,1.4,0.6c0.5,0,1-0.2,1.4-0.6l2.5-2.5v2.8c0,1.1,0.9,1.9,1.9,1.9c1.1,0,1.9-0.9,1.9-1.9v-6.7l7.9-7.9v3.4
	c0,1.1,0.9,1.9,1.9,1.9c1.1,0,1.9-0.9,1.9-1.9v-7.3l12.1-12.1l0.9,1.6h5.3v3.8L890,358.8c-0.8,0.8-0.8,2,0,2.7c0.8,0.8,2,0.8,2.7,0
	l11-11v8.9l-5.1,5.1c-0.8,0.8-0.8,2,0,2.7c0.8,0.8,2,0.8,2.7,0l2.4-2.4v11.1l-4.7,4.7c-0.8,0.8-0.8,2,0,2.7c0.8,0.8,2,0.8,2.7,0l2-2
	v3.5c0,1.1,0.9,1.9,1.9,1.9s1.9-0.9,1.9-1.9v-3.5l2,2c0.4,0.4,0.9,0.6,1.4,0.6c0.5,0,1-0.2,1.4-0.6c0.8-0.8,0.8-2,0-2.7l-4.7-4.7
	v-11.1l2.4,2.4c0.4,0.4,0.9,0.6,1.4,0.6c0.5,0,1-0.2,1.4-0.6c0.8-0.8,0.8-2,0-2.7l-5.1-5.1v-8.9l11,11c0.4,0.4,0.9,0.6,1.4,0.6
	c0.5,0,1-0.2,1.4-0.6c0.8-0.8,0.8-2,0-2.7l-13.7-13.7v-3.8h5.3l0.9-1.6l12.1,12.1v7.3c0,1.1,0.9,1.9,1.9,1.9c1.1,0,1.9-0.9,1.9-1.9
	v-3.4l7.9,7.9v6.7c0,1.1,0.9,1.9,1.9,1.9c1.1,0,1.9-0.9,1.9-1.9v-2.8l2.5,2.5c0.4,0.4,0.9,0.6,1.4,0.6c0.5,0,1-0.2,1.4-0.6
	c0.8-0.8,0.8-2,0-2.7l-2.5-2.5h2.8c1.1,0,1.9-0.9,1.9-1.9c0-1.1-0.9-1.9-1.9-1.9h-6.7l-7.9-7.9h3.4c1.1,0,1.9-0.9,1.9-1.9
	s-0.9-1.9-1.9-1.9h-7.3l-12.8-12.8l3.2-5.5h3l13.7,13.7c0.4,0.4,0.9,0.6,1.4,0.6c0.5,0,1-0.2,1.4-0.6c0.8-0.8,0.8-2,0-2.7l-11-11
	h8.9l5.1,5.1c0.4,0.4,0.9,0.6,1.4,0.6c0.5,0,1-0.2,1.4-0.6c0.8-0.8,0.8-2,0-2.7l-2.4-2.4h11.1l4.7,4.7c0.4,0.4,0.9,0.6,1.4,0.6
	c0.5,0,1-0.2,1.4-0.6c0.8-0.8,0.8-2,0-2.7l-2-2h3.5c1.1,0,1.9-0.9,1.9-1.9S962.8,326.9,961.7,326.9z M910.6,337.5h-10l-5-8.6l5-8.6
	h10l5,8.6L910.6,337.5z"/>
<path class="st0" d="M526.2,1594.7h-4.5l2.6-2.6c1-1,1-2.5,0-3.5c-1-1-2.5-1-3.5,0l-6.1,6.1h-14.3l3.1-3.1c1-1,1-2.5,0-3.5
	c-1-1-2.5-1-3.5,0l-6.6,6.6h-11.4l14.2-14.2c1-1,1-2.5,0-3.5c-1-1-2.5-1-3.5,0l-17.7,17.7h-3.8l-4.1-7.1l16.6-16.6h9.3
	c1.4,0,2.5-1.1,2.5-2.5s-1.1-2.5-2.5-2.5h-4.4l10.1-10.1h8.6c1.4,0,2.5-1.1,2.5-2.5s-1.1-2.5-2.5-2.5h-3.6l3.2-3.2c1-1,1-2.5,0-3.5
	c-1-1-2.5-1-3.5,0l-3.2,3.2v-3.6c0-1.4-1.1-2.5-2.5-2.5c-1.4,0-2.5,1.1-2.5,2.5v8.6l-10.1,10.1v-4.4c0-1.4-1.1-2.5-2.5-2.5
	c-1.4,0-2.5,1.1-2.5,2.5v9.3l-15.6,15.6l-1.2-2.1h-6.8v-4.9l17.7-17.7c1-1,1-2.5,0-3.5c-1-1-2.5-1-3.5,0l-14.2,14.2v-11.4l6.6-6.6
	c1-1,1-2.5,0-3.5c-1-1-2.5-1-3.5,0l-3.1,3.1v-14.3l6.1-6.1c1-1,1-2.5,0-3.5c-1-1-2.5-1-3.5,0l-2.6,2.6v-4.5c0-1.4-1.1-2.5-2.5-2.5
	s-2.5,1.1-2.5,2.5v4.5l-2.6-2.6c-1-1-2.5-1-3.5,0c-1,1-1,2.5,0,3.5l6.1,6.1v14.3l-3.1-3.1c-1-1-2.5-1-3.5,0c-1,1-1,2.5,0,3.5
	l6.6,6.6v11.4l-14.2-14.2c-1-1-2.5-1-3.5,0c-1,1-1,2.5,0,3.5l17.7,17.7v4.9h-6.8l-1.2,2.1l-15.6-15.6v-9.3c0-1.4-1.1-2.5-2.5-2.5
	c-1.4,0-2.5,1.1-2.5,2.5v4.4l-10.1-10.1v-8.6c0-1.4-1.1-2.5-2.5-2.5c-1.4,0-2.5,1.1-2.5,2.5v3.6l-3.2-3.2c-1-1-2.5-1-3.5,0
	c-1,1-1,2.5,0,3.5l3.2,3.2h-3.6c-1.4,0-2.5,1.1-2.5,2.5s1.1,2.5,2.5,2.5h8.6l10.1,10.1H415c-1.4,0-2.5,1.1-2.5,2.5s1.1,2.5,2.5,2.5
	h9.3l16.6,16.6l-4.1,7.1H433l-17.7-17.7c-1-1-2.5-1-3.5,0c-1,1-1,2.5,0,3.5l14.2,14.2h-11.4l-6.6-6.6c-1-1-2.5-1-3.5,0
	c-1,1-1,2.5,0,3.5l3.1,3.1h-14.3l-6.1-6.1c-1-1-2.5-1-3.5,0c-1,1-1,2.5,0,3.5l2.6,2.6h-4.5c-1.4,0-2.5,1.1-2.5,2.5s1.1,2.5,2.5,2.5
	h4.5l-2.6,2.6c-1,1-1,2.5,0,3.5c0.5,0.5,1.1,0.7,1.8,0.7c0.6,0,1.3-0.2,1.8-0.7l6.1-6.1h14.3l-3.1,3.1c-1,1-1,2.5,0,3.5
	c0.5,0.5,1.1,0.7,1.8,0.7c0.6,0,1.3-0.2,1.8-0.7l6.6-6.6H426l-14.2,14.2c-1,1-1,2.5,0,3.5c0.5,0.5,1.1,0.7,1.8,0.7
	c0.6,0,1.3-0.2,1.8-0.7l17.7-17.7h3.8l4.1,7.1l-16.6,16.6H415c-1.4,0-2.5,1.1-2.5,2.5s1.1,2.5,2.5,2.5h4.4l-10.1,10.1h-8.6
	c-1.4,0-2.5,1.1-2.5,2.5c0,1.4,1.1,2.5,2.5,2.5h3.6l-3.2,3.2c-1,1-1,2.5,0,3.5c0.5,0.5,1.1,0.7,1.8,0.7c0.6,0,1.3-0.2,1.8-0.7
	l3.2-3.2v3.6c0,1.4,1.1,2.5,2.5,2.5c1.4,0,2.5-1.1,2.5-2.5v-8.6l10.1-10.1v4.4c0,1.4,1.1,2.5,2.5,2.5c1.4,0,2.5-1.1,2.5-2.5v-9.3
	l15.6-15.6l1.2,2.1h6.8v4.9l-17.7,17.7c-1,1-1,2.5,0,3.5c1,1,2.5,1,3.5,0l14.2-14.2v11.4l-6.6,6.6c-1,1-1,2.5,0,3.5c1,1,2.5,1,3.5,0
	l3.1-3.1v14.3l-6.1,6.1c-1,1-1,2.5,0,3.5c1,1,2.5,1,3.5,0l2.6-2.6v4.5c0,1.4,1.1,2.5,2.5,2.5s2.5-1.1,2.5-2.5v-4.5l2.6,2.6
	c0.5,0.5,1.1,0.7,1.8,0.7c0.6,0,1.3-0.2,1.8-0.7c1-1,1-2.5,0-3.5l-6.1-6.1v-14.3l3.1,3.1c0.5,0.5,1.1,0.7,1.8,0.7s1.3-0.2,1.8-0.7
	c1-1,1-2.5,0-3.5l-6.6-6.6v-11.4l14.2,14.2c0.5,0.5,1.1,0.7,1.8,0.7c0.6,0,1.3-0.2,1.8-0.7c1-1,1-2.5,0-3.5l-17.7-17.7v-4.9h6.8
	l1.2-2.1l15.6,15.6v9.3c0,1.4,1.1,2.5,2.5,2.5c1.4,0,2.5-1.1,2.5-2.5v-4.4l10.1,10.1v8.6c0,1.4,1.1,2.5,2.5,2.5
	c1.4,0,2.5-1.1,2.5-2.5v-3.6l3.2,3.2c0.5,0.5,1.1,0.7,1.8,0.7c0.6,0,1.3-0.2,1.8-0.7c1-1,1-2.5,0-3.5l-3.2-3.2h3.6
	c1.4,0,2.5-1.1,2.5-2.5c0-1.4-1.1-2.5-2.5-2.5h-8.6l-10.1-10.1h4.4c1.4,0,2.5-1.1,2.5-2.5s-1.1-2.5-2.5-2.5h-9.3l-16.6-16.6l4.1-7.1
	h3.8l17.7,17.7c0.5,0.5,1.1,0.7,1.8,0.7c0.6,0,1.3-0.2,1.8-0.7c1-1,1-2.5,0-3.5l-14.2-14.2h11.4l6.6,6.6c0.5,0.5,1.1,0.7,1.8,0.7
	c0.6,0,1.3-0.2,1.8-0.7c1-1,1-2.5,0-3.5l-3.1-3.1h14.3l6.1,6.1c0.5,0.5,1.1,0.7,1.8,0.7c0.6,0,1.3-0.2,1.8-0.7c1-1,1-2.5,0-3.5
	l-2.6-2.6h4.5c1.4,0,2.5-1.1,2.5-2.5S527.6,1594.7,526.2,1594.7z M460.4,1608.3h-12.9l-6.4-11.1l6.4-11.1h12.9l6.4,11.1
	L460.4,1608.3z"/>
<path class="st0" d="M628.5,846.7H626l1.4-1.4c0.5-0.5,0.5-1.4,0-2c-0.5-0.5-1.4-0.5-2,0l-3.4,3.4h-8l1.7-1.7c0.5-0.5,0.5-1.4,0-2
	c-0.5-0.5-1.4-0.5-2,0l-3.7,3.7h-6.4l8-8c0.5-0.5,0.5-1.4,0-2c-0.5-0.5-1.4-0.5-2,0l-9.9,9.9h-2.1l-2.3-4l9.3-9.3h5.2
	c0.8,0,1.4-0.6,1.4-1.4s-0.6-1.4-1.4-1.4h-2.5l5.7-5.7h4.8c0.8,0,1.4-0.6,1.4-1.4c0-0.8-0.6-1.4-1.4-1.4h-2l1.8-1.8
	c0.5-0.5,0.5-1.4,0-2c-0.5-0.5-1.4-0.5-2,0l-1.8,1.8v-2c0-0.8-0.6-1.4-1.4-1.4c-0.8,0-1.4,0.6-1.4,1.4v4.8l-5.7,5.7v-2.5
	c0-0.8-0.6-1.4-1.4-1.4c-0.8,0-1.4,0.6-1.4,1.4v5.2l-8.8,8.8l-0.7-1.2h-3.8v-2.7l9.9-9.9c0.5-0.5,0.5-1.4,0-2c-0.5-0.5-1.4-0.5-2,0
	l-8,8V826l3.7-3.7c0.5-0.5,0.5-1.4,0-2c-0.5-0.5-1.4-0.5-2,0l-1.7,1.7v-8l3.4-3.4c0.5-0.5,0.5-1.4,0-2c-0.5-0.5-1.4-0.5-2,0
	l-1.4,1.4v-2.5c0-0.8-0.6-1.4-1.4-1.4s-1.4,0.6-1.4,1.4v2.5l-1.4-1.4c-0.5-0.5-1.4-0.5-2,0c-0.5,0.5-0.5,1.4,0,2l3.4,3.4v8l-1.7-1.7
	c-0.5-0.5-1.4-0.5-2,0c-0.5,0.5-0.5,1.4,0,2l3.7,3.7v6.4l-8-8c-0.5-0.5-1.4-0.5-2,0c-0.5,0.5-0.5,1.4,0,2l9.9,9.9v2.7h-3.8l-0.7,1.2
	l-8.8-8.8v-5.2c0-0.8-0.6-1.4-1.4-1.4c-0.8,0-1.4,0.6-1.4,1.4v2.5l-5.7-5.7v-4.8c0-0.8-0.6-1.4-1.4-1.4c-0.8,0-1.4,0.6-1.4,1.4v2
	l-1.8-1.8c-0.5-0.5-1.4-0.5-2,0c-0.5,0.5-0.5,1.4,0,2l1.8,1.8h-2c-0.8,0-1.4,0.6-1.4,1.4c0,0.8,0.6,1.4,1.4,1.4h4.8l5.7,5.7h-2.5
	c-0.8,0-1.4,0.6-1.4,1.4s0.6,1.4,1.4,1.4h5.2l9.3,9.3l-2.3,4h-2.1l-9.9-9.9c-0.5-0.5-1.4-0.5-2,0c-0.5,0.5-0.5,1.4,0,2l8,8h-6.4
	l-3.7-3.7c-0.5-0.5-1.4-0.5-2,0c-0.5,0.5-0.5,1.4,0,2l1.7,1.7h-8l-3.4-3.4c-0.5-0.5-1.4-0.5-2,0c-0.5,0.5-0.5,1.4,0,2l1.4,1.4h-2.5
	c-0.8,0-1.4,0.6-1.4,1.4s0.6,1.4,1.4,1.4h2.5l-1.4,1.4c-0.5,0.5-0.5,1.4,0,2c0.3,0.3,0.6,0.4,1,0.4c0.4,0,0.7-0.1,1-0.4l3.4-3.4h8
	l-1.7,1.7c-0.5,0.5-0.5,1.4,0,2c0.3,0.3,0.6,0.4,1,0.4c0.4,0,0.7-0.1,1-0.4l3.7-3.7h6.4l-8,8c-0.5,0.5-0.5,1.4,0,2
	c0.3,0.3,0.6,0.4,1,0.4c0.4,0,0.7-0.1,1-0.4l9.9-9.9h2.1l2.3,4l-9.3,9.3h-5.2c-0.8,0-1.4,0.6-1.4,1.4s0.6,1.4,1.4,1.4h2.5l-5.7,5.7
	h-4.8c-0.8,0-1.4,0.6-1.4,1.4c0,0.8,0.6,1.4,1.4,1.4h2l-1.8,1.8c-0.5,0.5-0.5,1.4,0,2c0.3,0.3,0.6,0.4,1,0.4c0.4,0,0.7-0.1,1-0.4
	l1.8-1.8v2c0,0.8,0.6,1.4,1.4,1.4c0.8,0,1.4-0.6,1.4-1.4v-4.8l5.7-5.7v2.5c0,0.8,0.6,1.4,1.4,1.4c0.8,0,1.4-0.6,1.4-1.4v-5.2
	l8.8-8.8l0.7,1.2h3.8v2.7l-9.9,9.9c-0.5,0.5-0.5,1.4,0,2c0.5,0.5,1.4,0.5,2,0l8-8v6.4l-3.7,3.7c-0.5,0.5-0.5,1.4,0,2
	c0.5,0.5,1.4,0.5,2,0l1.7-1.7v8l-3.4,3.4c-0.5,0.5-0.5,1.4,0,2c0.5,0.5,1.4,0.5,2,0l1.4-1.4v2.5c0,0.8,0.6,1.4,1.4,1.4
	s1.4-0.6,1.4-1.4v-2.5l1.4,1.4c0.3,0.3,0.6,0.4,1,0.4c0.4,0,0.7-0.1,1-0.4c0.5-0.5,0.5-1.4,0-2l-3.4-3.4v-8l1.7,1.7
	c0.3,0.3,0.6,0.4,1,0.4c0.4,0,0.7-0.1,1-0.4c0.5-0.5,0.5-1.4,0-2l-3.7-3.7v-6.4l8,8c0.3,0.3,0.6,0.4,1,0.4c0.4,0,0.7-0.1,1-0.4
	c0.5-0.5,0.5-1.4,0-2l-9.9-9.9v-2.7h3.8l0.7-1.2l8.8,8.8v5.2c0,0.8,0.6,1.4,1.4,1.4c0.8,0,1.4-0.6,1.4-1.4v-2.5l5.7,5.7v4.8
	c0,0.8,0.6,1.4,1.4,1.4c0.8,0,1.4-0.6,1.4-1.4v-2l1.8,1.8c0.3,0.3,0.6,0.4,1,0.4c0.4,0,0.7-0.1,1-0.4c0.5-0.5,0.5-1.4,0-2l-1.8-1.8
	h2c0.8,0,1.4-0.6,1.4-1.4c0-0.8-0.6-1.4-1.4-1.4h-4.8l-5.7-5.7h2.5c0.8,0,1.4-0.6,1.4-1.4s-0.6-1.4-1.4-1.4h-5.2l-9.3-9.3l2.3-4h2.1
	l9.9,9.9c0.3,0.3,0.6,0.4,1,0.4c0.4,0,0.7-0.1,1-0.4c0.5-0.5,0.5-1.4,0-2l-8-8h6.4l3.7,3.7c0.3,0.3,0.6,0.4,1,0.4
	c0.4,0,0.7-0.1,1-0.4c0.5-0.5,0.5-1.4,0-2l-1.7-1.7h8l3.4,3.4c0.3,0.3,0.6,0.4,1,0.4c0.4,0,0.7-0.1,1-0.4c0.5-0.5,0.5-1.4,0-2
	l-1.4-1.4h2.5c0.8,0,1.4-0.6,1.4-1.4S629.3,846.7,628.5,846.7z M591.6,854.3h-7.2l-3.6-6.2l3.6-6.2h7.2l3.6,6.2L591.6,854.3z"/>
<path class="st0" d="M1184.5,1131h-3.2l1.8-1.8c0.7-0.7,0.7-1.8,0-2.5c-0.7-0.7-1.8-0.7-2.5,0l-4.3,4.3h-10.1l2.2-2.2
	c0.7-0.7,0.7-1.8,0-2.5c-0.7-0.7-1.8-0.7-2.5,0l-4.7,4.7h-8.1l10-10c0.7-0.7,0.7-1.8,0-2.5c-0.7-0.7-1.8-0.7-2.5,0l-12.5,12.5h-2.7
	l-2.9-5l11.7-11.7h6.6c1,0,1.8-0.8,1.8-1.8s-0.8-1.8-1.8-1.8h-3.1l7.2-7.2h6.1c1,0,1.8-0.8,1.8-1.8s-0.8-1.8-1.8-1.8h-2.6l2.2-2.2
	c0.7-0.7,0.7-1.8,0-2.5c-0.7-0.7-1.8-0.7-2.5,0l-2.2,2.2v-2.6c0-1-0.8-1.8-1.8-1.8s-1.8,0.8-1.8,1.8v6.1l-7.2,7.2v-3.1
	c0-1-0.8-1.8-1.8-1.8c-1,0-1.8,0.8-1.8,1.8v6.6l-11,11l-0.9-1.5h-4.8v-3.5l12.5-12.5c0.7-0.7,0.7-1.8,0-2.5c-0.7-0.7-1.8-0.7-2.5,0
	l-10,10v-8.1l4.7-4.7c0.7-0.7,0.7-1.8,0-2.5c-0.7-0.7-1.8-0.7-2.5,0l-2.2,2.2v-10.1l4.3-4.3c0.7-0.7,0.7-1.8,0-2.5
	c-0.7-0.7-1.8-0.7-2.5,0l-1.8,1.8v-3.2c0-1-0.8-1.8-1.8-1.8c-1,0-1.8,0.8-1.8,1.8v3.2l-1.8-1.8c-0.7-0.7-1.8-0.7-2.5,0
	c-0.7,0.7-0.7,1.8,0,2.5l4.3,4.3v10.1l-2.2-2.2c-0.7-0.7-1.8-0.7-2.5,0c-0.7,0.7-0.7,1.8,0,2.5l4.7,4.7v8.1l-10-10
	c-0.7-0.7-1.8-0.7-2.5,0c-0.7,0.7-0.7,1.8,0,2.5l12.5,12.5v3.5h-4.8l-0.9,1.5l-11-11v-6.6c0-1-0.8-1.8-1.8-1.8c-1,0-1.8,0.8-1.8,1.8
	v3.1l-7.2-7.2v-6.1c0-1-0.8-1.8-1.8-1.8c-1,0-1.8,0.8-1.8,1.8v2.6l-2.2-2.2c-0.7-0.7-1.8-0.7-2.5,0c-0.7,0.7-0.7,1.8,0,2.5l2.2,2.2
	h-2.6c-1,0-1.8,0.8-1.8,1.8s0.8,1.8,1.8,1.8h6.1l7.2,7.2h-3.1c-1,0-1.8,0.8-1.8,1.8s0.8,1.8,1.8,1.8h6.6l11.7,11.7l-2.9,5h-2.7
	l-12.5-12.5c-0.7-0.7-1.8-0.7-2.5,0c-0.7,0.7-0.7,1.8,0,2.5l10,10h-8.1l-4.7-4.7c-0.7-0.7-1.8-0.7-2.5,0c-0.7,0.7-0.7,1.8,0,2.5
	l2.2,2.2h-10.1l-4.3-4.3c-0.7-0.7-1.8-0.7-2.5,0c-0.7,0.7-0.7,1.8,0,2.5l1.8,1.8h-3.2c-1,0-1.8,0.8-1.8,1.8s0.8,1.8,1.8,1.8h3.2
	l-1.8,1.8c-0.7,0.7-0.7,1.8,0,2.5c0.3,0.3,0.8,0.5,1.2,0.5c0.4,0,0.9-0.2,1.2-0.5l4.3-4.3h10.1l-2.2,2.2c-0.7,0.7-0.7,1.8,0,2.5
	c0.3,0.3,0.8,0.5,1.2,0.5s0.9-0.2,1.2-0.5l4.7-4.7h8.1l-10,10c-0.7,0.7-0.7,1.8,0,2.5c0.3,0.3,0.8,0.5,1.2,0.5
	c0.4,0,0.9-0.2,1.2-0.5l12.5-12.5h2.7l2.9,5l-11.7,11.7h-6.6c-1,0-1.8,0.8-1.8,1.8c0,1,0.8,1.8,1.8,1.8h3.1l-7.2,7.2h-6.1
	c-1,0-1.8,0.8-1.8,1.8c0,1,0.8,1.8,1.8,1.8h2.6l-2.2,2.2c-0.7,0.7-0.7,1.8,0,2.5c0.3,0.3,0.8,0.5,1.2,0.5c0.4,0,0.9-0.2,1.2-0.5
	l2.2-2.2v2.6c0,1,0.8,1.8,1.8,1.8c1,0,1.8-0.8,1.8-1.8v-6.1l7.2-7.2v3.1c0,1,0.8,1.8,1.8,1.8c1,0,1.8-0.8,1.8-1.8v-6.6l11-11
	l0.9,1.5h4.8v3.5l-12.5,12.5c-0.7,0.7-0.7,1.8,0,2.5c0.7,0.7,1.8,0.7,2.5,0l10-10v8.1l-4.7,4.7c-0.7,0.7-0.7,1.8,0,2.5
	c0.7,0.7,1.8,0.7,2.5,0l2.2-2.2v10.1l-4.3,4.3c-0.7,0.7-0.7,1.8,0,2.5c0.7,0.7,1.8,0.7,2.5,0l1.8-1.8v3.2c0,1,0.8,1.8,1.8,1.8
	c1,0,1.8-0.8,1.8-1.8v-3.2l1.8,1.8c0.3,0.3,0.8,0.5,1.2,0.5c0.4,0,0.9-0.2,1.2-0.5c0.7-0.7,0.7-1.8,0-2.5l-4.3-4.3v-10.1l2.2,2.2
	c0.3,0.3,0.8,0.5,1.2,0.5s0.9-0.2,1.2-0.5c0.7-0.7,0.7-1.8,0-2.5l-4.7-4.7v-8.1l10,10c0.3,0.3,0.8,0.5,1.2,0.5
	c0.4,0,0.9-0.2,1.2-0.5c0.7-0.7,0.7-1.8,0-2.5l-12.5-12.5v-3.5h4.8l0.9-1.5l11,11v6.6c0,1,0.8,1.8,1.8,1.8c1,0,1.8-0.8,1.8-1.8v-3.1
	l7.2,7.2v6.1c0,1,0.8,1.8,1.8,1.8s1.8-0.8,1.8-1.8v-2.6l2.2,2.2c0.3,0.3,0.8,0.5,1.2,0.5c0.4,0,0.9-0.2,1.2-0.5
	c0.7-0.7,0.7-1.8,0-2.5l-2.2-2.2h2.6c1,0,1.8-0.8,1.8-1.8c0-1-0.8-1.8-1.8-1.8h-6.1l-7.2-7.2h3.1c1,0,1.8-0.8,1.8-1.8
	c0-1-0.8-1.8-1.8-1.8h-6.6l-11.7-11.7l2.9-5h2.7l12.5,12.5c0.3,0.3,0.8,0.5,1.2,0.5c0.4,0,0.9-0.2,1.2-0.5c0.7-0.7,0.7-1.8,0-2.5
	l-10-10h8.1l4.7,4.7c0.3,0.3,0.8,0.5,1.2,0.5c0.4,0,0.9-0.2,1.2-0.5c0.7-0.7,0.7-1.8,0-2.5l-2.2-2.2h10.1l4.3,4.3
	c0.3,0.3,0.8,0.5,1.2,0.5c0.4,0,0.9-0.2,1.2-0.5c0.7-0.7,0.7-1.8,0-2.5l-1.8-1.8h3.2c1,0,1.8-0.8,1.8-1.8S1185.5,1131,1184.5,1131z
	 M1138,1140.6h-9.1l-4.5-7.9l4.5-7.9h9.1l4.5,7.9L1138,1140.6z"/>
</svg>
