<?xml version="1.0" encoding="utf-8"?>
<!-- Generator: Adobe Illustrator 23.1.0, SVG Export Plug-In . SVG Version: 6.00 Build 0)  -->
<svg version="1.1" id="Слой_1" xmlns="http://www.w3.org/2000/svg" xmlns:xlink="http://www.w3.org/1999/xlink" x="0px" y="0px"
	 viewBox="0 0 1976.4193115 3801.2902832" style="enable-background:new 0 0 1976.4193115 3801.2902832;" xml:space="preserve">
<g>
	<path style="fill:#1C1C1A;" d="M1854.5012207,1622.4750977c0.8272705-100.2850342,3.84375-200.8806152,2.4866943-301.1655273
		c-0.6604004-48.553833-4.4702148-97.7659912-20.6890869-143.4689941
		c-17.0606689-48.0893555-59.8272705-72.3078613-75.1027832-107.2978516
		c-23.6882324-54.2554932-22.7669678-146.5800171-31.5428467-205.5734863
		c-10.3215332-69.4013062-22.0750732-139.1768799-28.0716553-209.2391357
		c6.4779053-8.3188477,17.9436035-15.1060791,23.0887451-25.8536377c6.845459-14.2938232,0.2200928-28.7814331-7.6749268-41.7905273
		c3.7537842,0.2335815,7.8442383,0.5866089,12.7763672,1.0909424c11.8240967,1.2130737,18.1710205-12.7808228,16.3277588-23.5177612
		c-4.2161865-24.5742188-11.9179688-59.7128296-31.3637695-75.4161072
		c-27.7232666-22.389679-84.0939941-13.7257996-115.9923096-14.4610596
		c-33.1103516-0.7644348-95.8258057-9.8928528-126.7154541,8.9028015
		c-24.0708008,14.6494751-33.6811523,51.71521-39.8083496,79.0287476c-1.4174805,6.3147583,0.0922852,11.517334,2.9632568,15.461731
		c3.0986328,5.3114014,8.4903564,8.5576782,15.3287354,7.5861816c0.2418213-0.0106201,0.4692383-0.0318604,0.7087402-0.0557251
		c0.6364746-0.1194458,1.1687012,0.0610352,1.8286133-0.1380615c2.7023926-0.8175049,5.135376-1.194458,7.6341553-1.6881714
		c-6.2553711,15.1113892-14.078125,32.4205933-7.2180176,47.2744751
		c3.0018311,6.4952393,8.2387695,11.9526367,12.9388428,16.9906616c2.7938232,2.9941406,5.701416,5.8634644,8.4927979,8.8602905
		c0.1621094,0.1751709,0.6071777,0.7192993,1.1296387,1.3590088
		c-10.9262695,128.9682007-35.0986328,257.6045532-55.1345215,385.1260986
		c-7.2277832,46.0109863-34.7769775,53.3822021-56.5738525,95.3929443
		c-25.5874023,49.3156738-33.9351807,107.9481201-36.126709,163.9289551
		c-7.6365967,195.1948242-7.2495117,396.0488281-0.3483887,591.2250977
		c5.2950439,149.7359619,127.692749,138.8530273,233.4022217,136.3234863
		c89.0213623-2.1314697,272.6033936,33.8009033,290.7404785-104.2161865
		C1864.7987061,1829.6437988,1853.6888428,1720.8223877,1854.5012207,1622.4750977z M1716.2696533,1016.6004639
		c-85.7368164,9.3327637-171.5457764,10.9891357-257.4829102,4.4885254
		c11.4124756-72.6369629,23.7247314-145.6323242,34.2036133-218.8320313
		c64.2348633,7.9047241,127.6248779,2.7366333,191.6781006-4.6053467
		c8.4299316,57.8149414,17.9992676,115.4759521,26.8040771,172.9007568
		C1713.5605469,984.1852417,1714.7840576,1000.1937866,1716.2696533,1016.6004639z M1534.6756592,592.9885864
		c16.0325928-0.3158569,23.6958008-5.9802856,32.0532227-4.8973389c12.5570068,1.6245117,23.3522949,9.0063477,36.1677246,8.074646
		c6.5577393-0.4777832,25.0770264-8.4701538,30.6164551-11.7827759c3.309082,1.6165161,11.6663818,4.0957031,13.579834,5.1016846
		c4.7023926,2.4712524,13.0549316,7.8994141,18.5749512,8.6638794c7.571167,1.0432129,11.2503662-0.0795898,14.9731445-1.9376831
		c3.3961182,6.3545532,6.8745117,13.0462646,11.1414795,18.0205688c0.1741943,0.3583374,0.3483887,0.7166748,0.522583,1.0750122
		c-0.6434326,0.8573608-1.2868652,1.7651367-1.6594238,2.1553345c-1.9980469,2.107605-4.1315918,4.0930786-6.279541,6.0652466
		c-0.4499512,0.0584106-0.8200684-0.1114502-1.2819824-0.0185547
		c-61.4311523,12.480896-126.4906006,10.6599731-188.2651367,2.8056641
		c-0.0262451-0.0053101-0.0458984,0.0079956-0.0725098,0.0053101c-3.0982666-3.302063-6.2553711-6.4050293-9.2741699-8.9080811
		c0.0266113-0.1698608,0.0483398-0.2388916,0.0749512-0.4273682c0.56604-1.8580322,1.1804199-3.6975098,1.8457031-5.5157471
		c2.9293213-8.3692627,6.2601318-16.5474243,9.1628418-24.9246216
		C1508.3145752,589.4741821,1519.8669434,593.2832031,1534.6756592,592.9885864z M1509.322876,664.855835
		c52.5922852,5.7201538,106.62146,5.967041,159.1459961-1.9695435c2.9075928,32.7550049,6.7706299,65.4569092,11.1706543,98.1243286
		c-60.6401367,6.8429565-120.7020264,11.3129272-181.4969482,4.4858398
		C1502.5574951,731.9849854,1506.376709,698.4389648,1509.322876,664.855835z M1598.7434082,512.9432373
		c23.5167236,0.4990234,56.4407959-3.079071,78.9150391,4.0930176c17.3630371,5.5449829,25.265625,17.1234131,29.9051514,31.5764771
		c-6.2650146-0.77771-12.4332275-1.0776978-17.5662842,0.4512329c-5.282959,1.5714111-9.6728516,6.2616577-14.1870117,9.4336548
		c-1.581543,1.1121826-2.3797607,1.9616089-3.2219238,2.8215942c-10.9989014-3.9788818-23.6159668-14.8326416-35.5244141-15.1219482
		c-12.4429932-0.3052979-32.5487061,13.1019897-38.5939941,13.2320557
		c-4.4749756,0.0955811-24.1359863-9.9406738-34.4958496-10.3308105
		c-11.0379639-0.411438-29.3734131,7.9577637-35.1228027,7.4959106
		c-5.7115479-0.4538574-23.2293701-13.038269-33.8702393-14.4689941c-5.350708-0.7219849-11.347168-0.2521362-17.4453125,0.5866089
		C1502.760376,505.2508545,1552.6386719,511.9664307,1598.7434082,512.9432373z M1822.2642822,1425.3239746
		c-0.9361572,113.2436523-1.869873,226.4871826-2.8060303,339.7335205
		c-0.3599854,43.59021,2.164917,88.7012939-1.0909424,132.1693115
		c-6.3907471,85.3170166-75.3302002,93.6835938-144.6590576,94.5144043
		c-73.496582,0.8812256-168.2531738,20.6590576-238.9487305-0.597168
		c-71.6849365-21.5562744-73.0540771-70.4073486-73.0540771-132.8887939c0-179.3508301-3.9959717-359.2697754,0-538.5648193
		c0.6700439-29.9732666,2.447998-59.6624756,8.3719482-89.072998
		c11.427002-56.7452393,41.3781738-83.7800293,69.6940918-127.1896973
		c8.5388184-13.0860596,11.6931152-29.0706787,13.9237061-45.4932861
		c89.0959473,7.0792236,178.052002,5.3618164,266.9403076-4.5761719
		c2.1431885,13.4523926,5.0072021,26.2145996,9.4604492,36.9196777c2.2398682,5.3911133,1.9520264,10.0627441,5.4715576,15.2626953
		c14.9973145,22.1534424,37.4018555,25.2617188,53.3372803,50.4224854
		c12.9654541,20.4705811,19.9129639,45.5358887,25.2753906,69.4570313
		C1828.548584,1289.5153809,1822.8037109,1359.9333496,1822.2642822,1425.3239746z"/>
	<path style="fill:#1C1C1A;" d="M1584.9312744,1298.2058105c-1.2166748,0.0106201-2.1116943,0.5150146-3.1905518,0.7432861
		c-0.4620361,0.0345459-0.8393555-0.1513672-1.3110352-0.0795898
		c-234.7423096,36.4923096-232.7055664,588.4061279,22.9970703,549.5247803
		C1848.2023926,1811.1746826,1835.338501,1295.7399902,1584.9312744,1298.2058105z M1598.6856689,1809.7678223
		c-211.5742188,22.7824707-204.1044922-439.3178711-12.4602051-474.3237305
		C1794.2724609,1335.3220215,1799.6258545,1788.131958,1598.6856689,1809.7678223z"/>
	<path style="fill:#1C1C1A;" d="M1433.7991943,1317.1607666c6.359375-41.8886719,23.1635742-78.2749023,50.7442627-108.1499023
		c15.5343018-16.8260498-8.4155273-43.0991211-23.9473877-26.2756348
		c-31.3516846,33.960083-52.2004395,76.7803955-59.4523926,124.5458984
		C1397.5926514,1330.6741943,1430.2191162,1340.7342529,1433.7991943,1317.1607666z"/>
	<path style="fill:#1C1C1A;" d="M1499.8725586,1169.9464111c21.7893066,0,21.8255615-37.1612549,0-37.1612549
		C1478.0825195,1132.7851563,1478.0461426,1169.9464111,1499.8725586,1169.9464111z"/>
</g>
<g>
	<path style="fill:#1C1C1A;" d="M954.2311401,3442.7961426c-70.1705322-15.9331055-144.9977417-26.6281738-212.6098022-51.4619141
		c-13.2644043-4.8723145-18.1126099,16.6162109-4.9702759,21.4440918
		c67.6282349,24.8405762,142.4526978,35.5334473,212.6101685,51.4602051
		C963.0701294,3467.3747559,968.0679321,3445.9370117,954.2311401,3442.7961426z"/>
	<path style="fill:#1C1C1A;" d="M1077.7550049,3141.4277344c78.630249-112.6115723,141.0465088-240.5375977,135.1702881-381.7548828
		c-0.1566162-3.7597656-1.8724365-6.3847656-4.230835-8.0546875c-1.1477051-0.9602051-2.5622559-1.7302246-4.2838135-2.2131348
		c-1.9669189-0.5527344-3.9550781-1.0554199-5.9233398-1.6020508c10.3343506-42.4289551-9.1697998-84.8562012-56.2003174-84.1101074
		c-0.3902588-66.0595703-91.5837402-96.3701172-130.1317749-43.770752
		c-28.3518677-34.2531738-92.6836548-38.7905273-117.9048462,0.0766602
		c-31.1376343-13.2856445-63.7689209,9.4057617-62.2687988,43.0229492
		c-1.3965454-0.3044434-2.8007202-0.6040039-4.1969604-0.9099121c-1.906189-0.4174805-3.5982666-0.2963867-5.1421509,0.104248
		c-2.7334595,0.5334473-5.2913818,2.182373-7.0214233,5.3710938
		c-67.3961792,124.2246094-67.6269531,266.5749512-46.5539551,402.2939453
		c12.4252319,80.0163574,4.1548462,138.5119629-31.2752075,212.2609863
		c-22.7677002,47.3896484-50.7737427,90.8696289-57.7536011,144.2426758
		c-0.6638794,5.0788574,0.9989624,9.4572754,5.4751587,12.1635742
		c45.8879395,27.7426758,105.517395,33.7177734,157.0803223,46.0561523
		c47.8572388,11.4538574,98.3781128,27.4177246,148.0111694,24.6569824
		c5.2404175-0.2912598,8.6777344-3.8056641,10.2663574-8.5148926
		c16.4472046-48.7336426,11.838562-97.9008789,11.5129395-148.2219238
		C1011.8424072,3268.5480957,1030.0651855,3209.723877,1077.7550049,3141.4277344z M831.3897705,2685.4145508
		c119.7520752,26.1240234,241.399292,50.4291992,359.5322266,83.1293945
		c0.8374023,39.0449219-4.0157471,78.513916-13.1544189,117.21875
		c-128.1112061-32.8500977-260.3768921-47.0515137-386.4226074-87.9707031
		C800.1516724,2758.5629883,813.2580566,2720.5388184,831.3897705,2685.4145508z M891.2669067,2643.0170898
		c5.0075073,3.8608398,14.2876587,4.4267578,17.2357178-2.7565918c25.4539185-35.2333984,56.5467529-33.5578613,93.2786865,5.026123
		c2.7412109,8.0888672,16.4863892,11.2988281,20.1904297,1.9812012
		c19.1952515-48.2856445,110.2062378-41.6787109,97.5713501,25.9960938
		c-1.170166,6.2670898,3.7200928,14.6940918,11.1762695,13.4848633
		c40.0407715,0.1242676,48.2988281,23.5385742,45.5223389,55.036377
		c-105.5024414-28.307373-213.5179443-50.4682617-320.3002319-73.5683594
		C854.0076294,2638.3161621,873.0582886,2630.967041,891.2669067,2643.0170898z M952.6095581,3485.8498535
		c-35.2816772-4.7443848-70.4667969-14.4458008-105.0455322-22.6894531
		c-36.703186-8.7507324-75.1191406-15.5288086-111.2697754-26.2802734
		c-34.7946167-10.3486328-35.9649048-13.189209-26.4035645-43.8149414
		c6.505127-20.8381348,15.4858398-40.9509277,25.680603-60.222168
		c26.3341064-49.782959,56.1226196-103.1748047,63.0464478-160.1083984
		c9.2266235-75.8728027-20.9775391-153.5605469-21.9743042-229.6064453
		c-0.5327759-40.7365723,2.7827148-82.6313477,10.3218384-123.7099609
		c125.7019653,40.7167969,257.5736694,54.9609375,385.3291626,87.6672363
		c-11.335083,40.7717285-26.9661865,80.3994141-45.5834961,117.1801758
		c-34.3946533,67.9445801-95.6252441,124.2736816-120.7423706,196.5280762
		c-18.8446045,54.2094727-15.5766602,115.1499023-13.8169556,171.5185547
		c0.6812134,21.7888184-0.1062622,43.8071289-3.4308472,65.3791504
		C984.2671509,3486.5861816,985.1047974,3490.2214355,952.6095581,3485.8498535z"/>
	<path style="fill:#1C1C1A;" d="M1035.637085,3103.7290039c4.6375732-9.5356445,16.8846436-16.645752,23.7581787-24.8674316
		c6.7468262-8.0720215,12.8566895-16.7385254,18.3901367-25.682373
		c13.1687012-21.2868652,22.9415283-44.4699707,32.6363525-67.4755859
		c5.4611816-12.9567871-13.8564453-23.5432129-19.3551025-10.4934082
		c-9.6860352,22.9802246-19.407959,46.2492676-32.6381836,67.4753418
		c-6.7270508,10.7944336-14.3375244,21.0869141-23.2113037,30.2233887
		c-6.6436768,6.8400879-14.7189941,11.6535645-18.9385376,20.3259277
		C1010.0924683,3105.9558105,1029.4334717,3116.4831543,1035.637085,3103.7290039z"/>
	<path style="fill:#1C1C1A;" d="M1111.3007813,2945.8476563c13.7974854,3.197998,18.7906494-18.2409668,4.9702148-21.4440918
		C1102.4730225,2921.2055664,1097.4797363,2942.6442871,1111.3007813,2945.8476563z"/>
</g>
<g>
	<path style="fill:#1C1C1A;" d="M1678.7719727,3519.4731445c-69.1467285,19.9123535-139.8438721,46.6594238-211.0455322,57.5415039
		c-13.9688721,2.1345215-7.8438721,23.2946777,5.996582,21.1799316
		c71.2192383-10.8835449,141.9129639-37.6315918,211.045166-57.5429688
		C1698.3758545,3536.7336426,1692.4064941,3515.5458984,1678.7719727,3519.4731445z"/>
	<path style="fill:#1C1C1A;" d="M1641.5062256,3195.911377c14.5157471-136.5773926,7.4398193-278.7419434-65.8630371-399.5871582
		c-1.9517822-3.2172852-4.7214355-4.6882324-7.5928955-5.0126953c-1.4686279-0.2868652-3.0792236-0.2785645-4.8200684,0.1293945
		c-1.9893799,0.4650879-3.9732666,0.984375-5.9609375,1.4555664c-11.4266357-42.1479492-48.9855957-69.8930664-89.815918-46.5410156
		c-32.2244873-57.668457-126.7226563-40.2019043-135.0975342,24.470459
		c-41.362915-16.315918-99.8959961,10.7587891-103.2266846,56.972168
		c-33.6831055,3.3920898-51.3106689,39.0148926-33.7719727,67.7333984
		c-1.3699951,0.4077148-2.7443848,0.8227539-4.1148682,1.2287598c-1.8710938,0.5544434-3.2946777,1.4770508-4.4533691,2.5732422
		c-2.1365967,1.786377-3.5810547,4.4650879-3.557251,8.0927734
		c0.9279785,141.326416,69.4290771,266.1113281,153.3879395,374.8063965
		c49.5009766,64.083252,70.489502,119.3063965,75.0529785,200.9973145
		c2.9313965,52.4931641-0.6119385,104.0908203,19.034668,154.204834c1.869751,4.7685547,5.439209,7.8007813,10.6657715,8.010498
		c53.5792236,2.1506348,108.6877441-21.3955078,159.8027344-35.4753418
		c47.4423828-13.0661621,99.3944092-23.4675293,141.5317383-49.8400879
		c4.4490967-2.7844238,5.7634277-7.5212402,4.8818359-12.4125977
		c-9.1157227-50.619873-36.8818359-91.4572754-61.4537354-135.3725586
		C1645.1311035,3339.0578613,1632.7003174,3278.7431641,1641.5062256,3195.911377z M1205.6463623,2915.4291992
		c117.4898682-34.9165039,235.7617188-72.3405762,355.0073242-100.7160645
		c19.5778809,33.7922363,34.3764648,70.7023926,45.0528564,109.0117188
		c-128.0571289,33.0598145-250.7524414,84.4580078-380.8950195,109.4541016
		C1213.5914307,2994.5710449,1206.7185059,2954.9428711,1205.6463623,2915.4291992z M1237.6256104,2849.3979492
		c6.2490234,0.9645996,14.6499023-3.0185547,13.7650146-10.7329102
		c5.288208-43.1430664,33.3286133-56.6821289,84.1213379-40.6174316c6.3048096,5.7614746,19.892334,1.9389648,18.6392822-8.0095215
		c-6.4925537-51.5537109,76.4056396-89.6923828,98.0018311-24.3232422
		c1.9998779,6.0534668,10.3499756,11.0739746,16.2966309,6.4162598c35.12854-19.2163086,53.6616211-2.6950684,66.4320068,26.2312012
		c-106.0634766,26.1271973-211.3614502,58.8500977-316.0325928,90.1552734
		C1202.7242432,2863.2634277,1215.8624268,2847.6323242,1237.6256104,2849.3979492z M1698.1311035,3557.9633789
		c-33.1903076,12.8728027-68.6884766,21.357666-102.9520264,30.8266602
		c-36.3687744,10.0500488-73.2857666,22.6542969-110.1362305,30.6855469
		c-35.4683838,7.7297363-37.8643799,5.8066406-44.2714844-25.6306152
		c-4.3598633-21.3901367-6.201416-43.3398438-6.5736084-65.1384277
		c-0.9630127-56.3105469-0.6422119-117.4492188-22.0562744-170.6547852
		c-28.5380859-70.9042969-92.4863281-124.3671875-130.0616455-190.4887695
		c-20.1275635-35.4208984-37.4434814-73.7133789-50.666626-113.3295898
		c129.7438965-25.0073242,252.114624-76.1779785,379.7910156-109.1921387
		c9.7502441,41.1794434,15.1859131,83.4304199,16.6320801,124.6291504
		c2.6689453,76.1074219-23.7719727,154.9936523-10.897583,230.3979492
		c9.6588135,56.5727539,41.9329834,108.3686523,70.6796875,156.8884277
		c11.1126709,18.7541504,21.0496826,38.4182129,28.5494385,58.9162598
		C1726.2127686,3543.3291016,1728.7009277,3546.1086426,1698.1311035,3557.9633789z"/>
	<path style="fill:#1C1C1A;" d="M1586.423584,3183.2214355c-0.5405273-10.5898438,6.7541504-22.7277832,8.8061523-33.2458496
		c2.0131836-10.3259277,3.1815186-20.8649902,3.7111816-31.3688965c1.2596436-24.9992676-1.3699951-50.0202637-3.9824219-74.8481445
		c-1.4703369-13.9836426-23.4985352-13.9321289-22.0159912,0.151123
		c2.6077881,24.8015137,5.3234863,49.8730469,3.9805908,74.8486328
		c-0.6820068,12.7006836-2.3797607,25.3884277-5.7420654,37.6730957
		c-2.5174561,9.1970215-7.2667236,17.3103027-6.7768555,26.9421387
		C1565.1258545,3197.5004883,1587.1459961,3197.3857422,1586.423584,3183.2214355z"/>
	<path style="fill:#1C1C1A;" d="M1576.4925537,3008.4277344c13.6275635-3.8583984,7.6536865-25.0449219-5.996582-21.1801758
		C1556.8677979,2991.105957,1562.8417969,3012.2924805,1576.4925537,3008.4277344z"/>
</g>
<path style="fill:#1C1C1A;" d="M63.6843643,225.0971832c-8.4277992-18.2935486-14.3109322-37.6252747-16.8796997-57.6280212
	c-2.3852615-18.5716553-4.7887383-42.6756592,5.0527496-59.6973801c3.6139412,1.2838211,7.2299652,2.5622025,10.8232536,3.8979568
	c-0.0005264,0.0044327-0.0023346,0.0078964-0.0020905,0.0129089c-3.5568504,42.8278198,4.0964775,85.5900879,21.9051018,124.6725769
	c2.7468185,6.0282288,11.7327576,1.0305939,9.005867-4.9520416
	c-16.5751953-36.3656311-23.5795212-76.0884705-20.8907623-115.8893356
	c4.7167664,1.8259888,9.4178238,3.6888199,14.0965805,5.6036301c-0.0192184,0.1508789-0.0571289,0.288147-0.0638351,0.4480515
	c-1.5327225,39.359993,7.4081802,79.1275558,25.6878433,115.9257889c2.8196182,5.6755524,11.0092545,1.4410553,8.2105331-4.1917877
	C103.5431061,198.9112244,95.33741,161.8030243,96.2686005,125.044426
	c7.5664597,3.2114334,15.0769119,6.5403671,22.5348434,9.9821854c-0.4933472,0.7695618-0.7992401,1.7088623-0.7760239,2.8525543
	c0.7917938,39.0193481,11.4598389,77.7684479,30.732254,113.9400024c3.430954,6.4394684,12.4720764,1.0223389,9.0785217-5.3434601
	c-17.9958038-33.7633362-27.5322723-70.1882324-28.6032867-106.5352783
	c4.7752075,2.2884979,9.5204773,4.6369781,14.2479401,7.0197449c0.0066681,0.1309662-0.0095062,0.2479248,0.0063934,0.3842468
	c4.6262207,39.5539856,19.9655609,76.9343414,44.8433838,108.0719757c4.0971375,5.1279755,12.7359772-0.4407806,8.6123352-5.6088715
	c-22.5177307-28.2218628-37.171524-61.5301361-42.4060059-97.1728668
	c7.6493683,4.0070343,15.2300415,8.1408997,22.743576,12.3947601c5.1352539,38.816452,23.4220886,74.4685822,52.1816711,101.1560364
	c4.8498535,4.5005493,11.668457-3.1866455,6.8195038-7.68573c-24.9164276-23.1201477-41.5894165-53.6128082-47.6188354-86.897644
	c6.1293488,3.6056671,12.2078552,7.2969055,18.2393799,11.0670013
	c22.2236938,33.8225555,47.6378326,65.3593445,75.9721527,94.272995c4.6306763,4.7255859,11.4862366-2.930542,6.8724976-7.638092
	c-22.0535583-22.5013428-42.2398987-46.6279755-60.5229034-72.2036591
	c26.3261566,17.7121124,51.6180878,37.0098419,75.6981354,57.8332062c4.9961548,4.3204041,11.8632813-3.3233795,6.8514099-7.6576233
	c-24.1963196-20.9247437-49.6085205-40.3505707-76.0622711-58.197113
	c28.0744781,8.8022614,54.986557,20.8590393,80.3698273,36.0383148c5.6692505,3.3903961,10.249054-5.8131714,4.5900269-9.1957703
	c-33.812561-20.212204-70.4281769-34.9230652-108.7322083-43.9624634c-1.2954865-1.2162018-2.9337006-1.4757385-4.4377747-1.0764771
	c-0.0322418-0.0074005-0.0640259-0.0164795-0.095993-0.0236969c-0.7553864-0.4645538-1.4985046-0.9496307-2.2546692-1.4115448
	c31.1344299-0.7537842,62.0528412,4.7836609,91.1066742,16.6125031c6.0773926,2.4745026,10.7471008-6.6861115,4.6020508-9.1898346
	c-35.4042969-14.4235687-73.4718018-20.2441559-111.4880829-16.8045959
	c-7.7704926-4.5043182-15.6334839-8.8422089-23.5513916-13.0827026c29.9106293-6.1546783,60.5536041-8.0426788,91.0446625-5.431488
	c6.5069885,0.5573578,8.6679993-9.5001678,2.0723267-10.0653076c-36.0462189-3.0910034-71.9730377-0.3436127-107.0901642,8.1708069
	c-9.7427673-4.9734192-19.5788422-9.7654724-29.5215836-14.3365326
	c31.7620621-19.9264297,69.8046646-27.539032,106.8844223-21.0301285c6.4986267,1.1404877,8.6095123-8.9183121,2.0720367-10.0659637
	c-41.5294189-7.2921677-84.4224396,1.8221664-119.3071365,25.5431213c-0.2761917,0.1880646-0.5042114,0.3960266-0.7258072,0.6066666
	c-8.3107452-3.6688232-16.6638489-7.2451782-25.1010208-10.6299973
	c27.4860992-20.9597702,60.2073593-33.5266113,94.881813-35.9838943c6.598877-0.4673615,6.0697021-10.7291489-0.5413818-10.2605324
	c-38.657074,2.7387199-75.509346,17.3062019-105.4022141,41.957386c-5.4561386-2.0945892-10.9379349-4.1268616-16.4426918-6.102005
	c19.6545906-28.3068237,49.2938042-48.0458755,82.852417-55.904747c6.4524841-1.5111923,3.2658844-11.286972-3.1338806-9.787529
	c-36.9315796,8.6535072-68.6077728,31.0519409-89.7604218,62.3492737c-0.2383499,0.0653152-0.4726295,0.1711121-0.7035294,0.2879105
	c-2.909317,0.5676651-4.91856,3.5328369-4.6027412,6.0840683c-10.0399208,17.7069778-9.3536339,39.9987793-7.421772,59.7651215
	c2.238575,22.9102325,8.3993835,45.2098236,18.0279541,66.1018677
	C56.6424065,234.1947937,66.4470062,231.0942993,63.6843643,225.0971832z"/>
<g>
	<g>
		<path style="fill:#1C1C1A;" d="M1504.0874023,2294.6835938c-9.7312012-20.637207-33.2469482-33.1079102-51.4281006-45.2216797
			c-24.4852295-16.3132324-49.6038818-31.7302246-75.5596924-45.5974121
			c-52.4909668-28.0444336-108.5483398-49.3840332-167.4425049-58.9438477
			c-8.5927734-1.3947754-10.8171387,11.9519043-2.2076416,13.3491211
			c54.5950928,8.8632813,106.5133057,28.0825195,155.5289307,53.4367676
			c24.3754883,12.6086426,48.0155029,26.6193848,71.0185547,41.5778809
			c17.5373535,11.4040527,45.0010986,24.7397461,56.3326416,44.355957
			c-113.0006104,23.720459-228.5710449,34.8862305-344.309082,33.1037598
			c-8.6812744-0.1335449-7.3184814,13.3381348,1.3193359,13.4699707
			c94.8304443,1.4470215,189.5812988-5.8149414,282.9172363-21.479248
			c-61.0882568,52.8286133-133.1329346,91.185791-211.2329102,112.2126465
			c-8.3989258,2.2612305-3.6361084,14.9370117,4.7281494,12.6804199
			c45.166626-12.1865234,88.7366943-30.2182617,129.314209-53.4987793
			c18.9442139-10.8688965,37.2349854-22.8764648,54.7388916-35.9401855
			c8.8659668-6.6166992,17.5303955-13.5039063,25.9758301-20.6496582
			c4.1094971-3.4772949,8.2492676-6.9602051,12.2044678-10.6118164c3.5814209-3.3071289,6.3221436-7.2023926,11.1708984-8.6455078
			c3.1362305-0.9338379,6.6051025-1.2724609,9.8162842-1.9282227c8.3546143-1.7055664,16.6939697-3.4875488,25.0289307-5.2875977
			c12.2025146-2.6345215,24.4243164-5.223877,36.579834-8.0703125c17.2921143-4.0488281,34.5166016-8.3903809,51.6617432-13.0224609
			c8.7069092-2.3525391,17.3935547-4.7800293,26.05896-7.2827148c4.2020264-1.2133789,8.3985596-2.4445801,12.59021-3.6931152
			c1.590332-0.4741211,12.1558838-2.5212402,12.5603027-3.7995605
			c-28.3776855,89.6140137-84.0543213,168.7419434-159.3029785,225.2836914
			c-6.9570313,5.2280273,0.8009033,16.314209,7.7810059,11.0703125
			c36.1359863-27.1459961,68.25354-59.5991211,95.0810547-95.9689941
			c26.9313965-36.5095215,48.5136719-76.9504395,63.7193604-119.6994629
			c1.3748779-3.8647461,2.6972656-7.7480469,3.9676514-11.6484375c1.0715332-3.2915039,1.6273193-7.9423828,4.0400391-10.2805176
			c5.5454102-5.3728027,17.4190674-8.0864258,24.7077637-9.7492676c5.9465332-1.3564453,12.0146484-2.0895996,18.0163574-3.1745605
			c9.0003662-1.6274414,17.8570557-4.0495605,26.432251-7.2302246c2.7131348-1.0058594,5.4743652-2.1364746,7.5418701-4.1604004
			c2.8740234-2.8137207,4.0175781-7.2675781,2.8548584-11.1176758c-4.0914307-13.5466309-20.7069092-2.4919434-29.0432129,0.5075684
			c-12.6304932,4.5441895-25.3206787,8.9238281-38.0653076,13.1376953
			c-25.4688721,8.4208984-51.15625,16.1801758-77.0268555,23.2702637
			C1556.3049316,2282.5229492,1530.2702637,2288.9399414,1504.0874023,2294.6835938z"/>
	</g>
	<g>
		<g>
			<path style="fill:#1C1C1A;" d="M1490.0144043,2546.4689941c26.7012939-19.203125,36.2331543-51.3078613,44.0887451-81.7297363
				c1.2952881-5.0168457-6.3065186-7.8842773-7.6119385-2.8293457c-7.5003662,29.0466309-16.1439209,59.9641113-41.697876,78.342041
				C1480.5445557,2543.307373,1485.7910156,2549.5063477,1490.0144043,2546.4689941L1490.0144043,2546.4689941z"/>
		</g>
	</g>
	<g>
		<g>
			<path style="fill:#1C1C1A;" d="M1436.6777344,2529.7712402c12.5107422-8.2131348,26.0269775-14.6599121,40.2884521-19.1987305
				c4.9061279-1.5617676,3.5101318-9.5720215-1.4709473-7.9865723
				c-15.6911621,4.9946289-30.2724609,11.9313965-44.0385742,20.9682617
				C1427.092041,2526.4194336,1432.3551025,2532.6088867,1436.6777344,2529.7712402L1436.6777344,2529.7712402z"/>
		</g>
	</g>
	<g>
		<g>
			<path style="fill:#1C1C1A;" d="M1439.0802002,2502.5910645c17.2279053-7.8554688,35.3272705-12.2211914,54.2567139-12.8522949
				c5.1564941-0.171875,5.9234619-8.2619629,0.7042236-8.0878906c-20.4089355,0.6804199-39.8526611,5.1279297-58.4350586,13.6013184
				C1430.852417,2497.4196777,1434.3151855,2504.763916,1439.0802002,2502.5910645L1439.0802002,2502.5910645z"/>
		</g>
	</g>
	<g>
		<g>
			<path style="fill:#1C1C1A;" d="M1445.9759521,2473.1535645c25.2106934-8.3500977,51.178833-9.3730469,77.0522461-3.6037598
				c5.0825195,1.1337891,5.7373047-6.9658203,0.7043457-8.0876465c-27.3726807-6.1040039-54.6490479-4.4519043-81.2302246,4.3522949
				C1437.5562744,2467.4523926,1441.0639648,2474.7807617,1445.9759521,2473.1535645L1445.9759521,2473.1535645z"/>
		</g>
	</g>
	<g>
		<g>
			<path style="fill:#1C1C1A;" d="M1550.4353027,2523.2961426c12.2910156-26.4401855,14.9208984-55.3266602,7.6241455-83.5576172
				c-1.2984619-5.0241699-9.2983398-3.605957-7.9859619,1.4709473c6.9702148,26.9694824,4.4915771,53.9992676-7.2502441,79.2573242
				C1540.6174316,2525.2126465,1548.2467041,2528.0046387,1550.4353027,2523.2961426L1550.4353027,2523.2961426z"/>
		</g>
	</g>
	<g>
		<g>
			<path style="fill:#1C1C1A;" d="M1580.1260986,2497.1799316c4.704834-24.7143555,1.7677002-49.1306152-8.3278809-72.5759277
				c-2.1766357-5.0537109-10.3598633-1.4951172-8.1882324,3.5480957
				c9.5247803,22.1196289,11.8881836,44.9753418,7.4599609,68.2392578
				C1570.0574951,2501.7097168,1579.1206055,2502.4641113,1580.1260986,2497.1799316L1580.1260986,2497.1799316z"/>
		</g>
	</g>
	<g>
		<g>
			<path style="fill:#1C1C1A;" d="M1605.3842773,2466.9091797c0.5667725-23.7744141-0.4803467-50.2043457-22.2127686-64.7788086
				c-4.342041-2.9121094-9.0351563,3.7141113-4.6903076,6.6276855
				c19.2025146,12.8781738,19.310791,36.6557617,18.8149414,57.4467773
				C1597.1722412,2471.4025879,1605.2591553,2472.1437988,1605.3842773,2466.9091797L1605.3842773,2466.9091797z"/>
		</g>
	</g>
	<g>
		<g>
			<path style="fill:#1C1C1A;" d="M1543.2342529,2431.9699707c-24.1697998-8.5744629-49.2178955-10.2817383-74.3109131-4.9750977
				c-5.0970459,1.0778809-3.6604004,9.0712891,1.4709473,7.9863281c23.7473145-5.0219727,47.1362305-3.5144043,70.0107422,4.6008301
				C1545.3323975,2441.3300781,1548.1621094,2433.71875,1543.2342529,2431.9699707L1543.2342529,2431.9699707z"/>
		</g>
	</g>
	<g>
		<g>
			<path style="fill:#1C1C1A;" d="M1569.2768555,2409.3237305c-28.75354-6.3317871-57.7573242-6.6914063-86.6713867-1.2160645
				c-5.1253662,0.970459-3.6790771,8.9616699,1.4710693,7.986084c28.260498-5.3513184,56.4274902-4.862793,84.4960938,1.3181152
				C1573.65979,2418.5322266,1574.3154297,2410.4333496,1569.2768555,2409.3237305L1569.2768555,2409.3237305z"/>
		</g>
	</g>
	<g>
		<g>
			<path style="fill:#1C1C1A;" d="M1582.2530518,2389.0637207c-24.3056641-10.4604492-50.3292236-12.1774902-75.7822266-4.8901367
				c-4.9724121,1.4233398-3.5649414,9.4277344,1.4710693,7.9858398c24.1784668-6.9221191,48.3466797-5.4404297,71.4818115,4.5163574
				C1584.2338867,2398.7458496,1587.0372314,2391.1230469,1582.2530518,2389.0637207L1582.2530518,2389.0637207z"/>
		</g>
	</g>
	<g>
		<g>
			<path style="fill:#1C1C1A;" d="M1525.2116699,2370.9765625c24.805542-7.4367676,49.8935547-7.4528809,74.630249,0.3232422
				c4.9737549,1.5637207,7.8188477-6.0429688,2.8292236-7.6115723c-25.9997559-8.173584-52.8001709-8.5317383-78.9304199-0.697998
				C1518.7957764,2364.4731445,1520.1981201,2372.4799805,1525.2116699,2370.9765625L1525.2116699,2370.9765625z"/>
		</g>
	</g>
	<g>
		<g>
			<path style="fill:#1C1C1A;" d="M1544.2070313,2355.5637207c20.4006348-7.0996094,41.6103516-7.8891602,62.4849854-2.3637695
				c5.0136719,1.3266602,7.8782959-6.2753906,2.8293457-7.6120605c-23.199707-6.1403809-46.1276855-5.2495117-68.7879639,2.6364746
				C1535.8070068,2349.9384766,1539.3087158,2357.2683105,1544.2070313,2355.5637207L1544.2070313,2355.5637207z"/>
		</g>
	</g>
	<g>
		<g>
			<path style="fill:#1C1C1A;" d="M1624.3046875,2440.4829102c3.6907959-26.6003418-7.8112793-52.5883789-29.8404541-67.8830566
				c-4.298584-2.9846191-8.9857178,3.6459961-4.6904297,6.628418c19.800293,13.7468262,29.7486572,36.7248535,26.4432373,60.550293
				C1615.498291,2444.9577637,1623.5881348,2445.6479492,1624.3046875,2440.4829102L1624.3046875,2440.4829102z"/>
		</g>
	</g>
	<g>
		<g>
			<path style="fill:#1C1C1A;" d="M1638.2860107,2401.8405762c1.7768555-19.557373-6.7952881-37.987793-23.1400146-50.6958008
				c-4.4454346-3.4562988-9.5289307,3.2854004-5.1212158,6.7128906
				c13.902832,10.8095703,20.8426514,26.6708984,19.340332,43.2060547
				C1628.8843994,2406.3574219,1637.8040771,2407.1416016,1638.2860107,2401.8405762L1638.2860107,2401.8405762z"/>
		</g>
	</g>
	<g>
		<g>
			<path style="fill:#1C1C1A;" d="M1658.887207,2378.0588379c-4.8660889-23.2541504-20.9709473-42.2243652-43.1600342-50.746582
				c-4.8864746-1.8764648-7.7055664,5.7390137-2.8292236,7.6120605
				c19.5145264,7.494873,33.7198486,24.1357422,38.0028076,44.6054688
				C1651.9678955,2384.6306152,1659.9614258,2383.1928711,1658.887207,2378.0588379L1658.887207,2378.0588379z"/>
		</g>
	</g>
	<g>
		<g>
			<path style="fill:#1C1C1A;" d="M1564.9188232,2322.2661133c16.237915-3.7910156,38.9888916-8.3449707,48.3839111,9.8601074
				c2.3898926,4.6311035,9.7445068,1.1872559,7.3393555-3.4741211
				c-11.3103027-21.9155273-36.8615723-19.1193848-57.1942139-14.3718262
				C1558.3826904,2315.4631348,1559.8106689,2323.4592285,1564.9188232,2322.2661133L1564.9188232,2322.2661133z"/>
		</g>
	</g>
	<g>
		<g>
			<path style="fill:#1C1C1A;" d="M1464.2231445,2545.677002c19.6682129-13.0549316,33.3336182-32.5637207,38.8662109-55.5153809
				c1.2111816-5.0253906-6.3895264-7.8996582-7.6115723-2.8293457
				c-5.2475586,21.7685547-17.824707,39.7475586-36.4755859,52.1276855
				C1454.6502686,2542.348877,1459.9108887,2548.5395508,1464.2231445,2545.677002L1464.2231445,2545.677002z"/>
		</g>
	</g>
	<g>
		<g>
			<path style="fill:#1C1C1A;" d="M1192.2600098,2463.3232422c9.027832-0.0756836,17.5656738-2.1486816,25.1343994-7.2619629
				c5.1721191-3.4938965,12.8494873-9.7058105,10.2250977-16.9001465
				c-2.2484131-6.1650391-9.9197998-7.3337402-15.5303955-8.0683594
				c-11.9263916-1.5617676-24.0032959-1.0983887-35.8812256,0.5944824c-5.1706543,0.7368164-3.7045898,8.723877,1.4709473,7.9865723
				c11.6063232-1.6547852,23.8145752-2.2939453,35.4344482-0.2526855c3.7982178,0.6669922,4.5993652-0.1008301,4.2388916,3.9716797
				c-0.34729,3.9143066-3.6173096,5.614502-6.8110352,7.4016113c-5.4144287,3.0297852-11.399292,4.388916-17.5767822,4.4406738
				C1187.7857666,2455.2785645,1187.0299072,2463.3664551,1192.2600098,2463.3232422L1192.2600098,2463.3232422z"/>
		</g>
	</g>
	<g>
		<g>
			<path style="fill:#1C1C1A;" d="M1215.2131348,2476.2253418c19.244873-7.4023438,34.0893555-22.4519043,41.4785156-41.6691895
				c1.8789063-4.8857422-5.7370605-7.7043457-7.6114502-2.8291016
				c-6.6834717,17.3811035-19.9904785,30.4855957-37.3406982,37.1591797
				C1206.8636475,2470.7612305,1210.3515625,2478.095459,1215.2131348,2476.2253418L1215.2131348,2476.2253418z"/>
		</g>
	</g>
	<g>
		<g>
			<path style="fill:#1C1C1A;" d="M1249.1292725,2476.8833008c9.7741699-10.4460449,18.3688965-21.6806641,25.2799072-34.2390137
				c4.112793-7.4733887,9.585083-16.0771484,5.7338867-24.6879883
				c-8.7631836-19.5917969-44.6577148-18.2229004-61.7011719-16.204834
				c-5.1851807,0.6140137-3.7092285,8.5996094,1.4709473,7.9865723c8.2955322-0.9824219,16.5080566-1.1882324,24.7950439-0.1760254
				c5.0181885,0.6130371,10.2947998,1.4543457,15.0963135,3.0996094c7.0461426,2.4145508,8.645752,3.076416,10.2617188,11.0200195
				c3.2451172,15.9528809-15.647583,35.751709-26.1577148,46.9846191
				C1240.3779297,2474.4394531,1245.5612793,2480.6967773,1249.1292725,2476.8833008L1249.1292725,2476.8833008z"/>
		</g>
	</g>
	<g>
		<g>
			<path style="fill:#1C1C1A;" d="M1247.4041748,2429.420166c-17.5457764-10.6975098-36.9219971-15.8908691-57.4818115-14.9470215
				c-5.1428223,0.2358398-5.9152832,8.326416-0.7042236,8.0876465c19.114502-0.8774414,37.1237793,3.5058594,53.4962158,13.4875488
				C1247.1611328,2438.7597656,1251.8703613,2432.1430664,1247.4041748,2429.420166L1247.4041748,2429.420166z"/>
		</g>
	</g>
	<g>
		<g>
			<path style="fill:#1C1C1A;" d="M1277.9974365,2474.878418c17.5339355-15.628418,27.4587402-37.0195313,27.7154541-60.5412598
				c0.0568848-5.1916504-8.0305176-5.9384766-8.0876465-0.7041016c-0.2346191,21.4692383-8.7901611,40.7148438-24.848877,55.0280762
				C1268.8778076,2472.1364746,1274.0875244,2478.3635254,1277.9974365,2474.878418L1277.9974365,2474.878418z"/>
		</g>
	</g>
	<g>
		<g>
			<path style="fill:#1C1C1A;" d="M1252.8919678,2389.1257324c18.2895508,3.875,34.8883057,11.6738281,49.7473145,22.9936523
				c4.168457,3.175293,8.8400879-3.4667969,4.6903076-6.6279297c-16.0601807-12.2351074-33.998291-20.2719727-53.7333984-24.4538574
				C1248.4971924,2379.9572754,1247.8381348,2388.0549316,1252.8919678,2389.1257324L1252.8919678,2389.1257324z"/>
		</g>
	</g>
	<g>
		<g>
			<path style="fill:#1C1C1A;" d="M1277.5743408,2376.7358398c18.8956299,4.5341797,36.2581787,12.1254883,52.3475342,23.0634766
				c4.3256836,2.9406738,9.0164795-3.6870117,4.6903076-6.6286621
				c-16.6179199-11.2966309-34.6567383-19.3547363-54.2086182-24.046875
				C1275.3779297,2367.9179688,1272.5030518,2375.5187988,1277.5743408,2376.7358398L1277.5743408,2376.7358398z"/>
		</g>
	</g>
	<g>
		<g>
			<path style="fill:#1C1C1A;" d="M1303.5467529,2371.7900391c17.4599609,1.3261719,32.9888916,7.6970215,46.4418945,18.8891602
				c4.0258789,3.3491211,8.6838379-3.3063965,4.6903076-6.6281738
				c-14.4660645-12.0349121-31.6759033-18.9243164-50.4278564-20.3491211
				C1299.0447998,2363.3066406,1298.3272705,2371.3930664,1303.5467529,2371.7900391L1303.5467529,2371.7900391z"/>
		</g>
	</g>
	<g>
		<g>
			<path style="fill:#1C1C1A;" d="M1322.899292,2363.282959c18.0844727,1.8850098,34.755249,7.6328125,50.1184082,17.354248
				c4.4082031,2.7897949,9.1113281-3.8305664,4.6903076-6.6279297
				c-16.5343018-10.4628906-34.6435547-16.7856445-54.1044922-18.8139648
				C1318.404541,2354.6533203,1317.6992188,2362.7407227,1322.899292,2363.282959L1322.899292,2363.282959z"/>
		</g>
	</g>
	<g>
		<g>
			<path style="fill:#1C1C1A;" d="M1320.2932129,2460.9003906c14.2403564-17.9504395,19.77771-40.2001953,15.8286133-62.7495117
				c-0.9005127-5.1411133-8.8898926-3.689209-7.9859619,1.4709473c3.6002197,20.5595703-1.5062256,40.2458496-14.470459,56.5881348
				C1310.4085693,2460.3151855,1317.0570068,2464.9799805,1320.2932129,2460.9003906L1320.2932129,2460.9003906z"/>
		</g>
	</g>
	<g>
		<g>
			<path style="fill:#1C1C1A;" d="M1349.9645996,2443.7373047c11.0163574-17.1777344,14.1257324-37.2883301,8.2891846-56.8979492
				c-1.4731445-4.9492188-9.4794922-3.5461426-7.9859619,1.4711914c5.2207031,17.5405273,2.9779053,35.2849121-6.9315186,50.7365723
				C1340.5184326,2443.440918,1347.1400146,2448.1416016,1349.9645996,2443.7373047L1349.9645996,2443.7373047z"/>
		</g>
	</g>
	<g>
		<g>
			<path style="fill:#1C1C1A;" d="M1381.536499,2429.1662598c6.49646-19.2441406,4.7098389-39.5322266-5.3848877-57.1962891
				c-2.5749512-4.5053711-9.9400635-1.0771484-7.3388672,3.4743652c9.059082,15.8515625,10.9647217,33.5546875,5.1116943,50.8925781
				C1372.2539063,2431.2858887,1379.8634033,2434.1218262,1381.536499,2429.1662598L1381.536499,2429.1662598z"/>
		</g>
	</g>
	<g>
		<g>
			<path style="fill:#1C1C1A;" d="M1403.4139404,2415.7788086c1.7344971-20.9494629,2.362793-43.4499512-13.592041-59.3876953
				c-3.6737061-3.6694336-9.9194336,1.5227051-6.217041,5.2209473
				c14.4654541,14.4494629,13.2850342,34.5778809,11.7214355,53.4624023
				C1394.8953857,2420.2792969,1402.9825439,2420.9943848,1403.4139404,2415.7788086L1403.4139404,2415.7788086z"/>
		</g>
	</g>
	<g>
		<g>
			<path style="fill:#1C1C1A;" d="M1353.7445068,2349.142334c13.9295654,0.5646973,26.2167969,5.5048828,36.7371826,14.6418457
				c3.9498291,3.4301758,8.6009521-3.2316895,4.6904297-6.6281738
				c-11.475708-9.9665527-25.5455322-15.4863281-40.7233887-16.1013184
				C1349.2452393,2340.8435059,1348.5112305,2348.9304199,1353.7445068,2349.142334L1353.7445068,2349.142334z"/>
		</g>
	</g>
	<g>
		<g>
			<path style="fill:#1C1C1A;" d="M1428.1757813,2407.6181641c8.8135986-22.8366699,1.7548828-48.2944336-17.2354736-63.6203613
				c-4.0765381-3.2905273-8.7391357,3.3598633-4.6903076,6.6281738
				c16.1933594,13.0683594,21.7792969,34.8203125,14.314209,54.1628418
				C1418.6791992,2409.6721191,1426.295166,2412.4907227,1428.1757813,2407.6181641L1428.1757813,2407.6181641z"/>
		</g>
	</g>
	<g>
		<g>
			<path style="fill:#1C1C1A;" d="M1155.5202637,2153.9890137c18.5803223,3.0126953,37.071167,3.3078613,55.7475586,1.0385742
				c5.1834717-0.6298828,3.7084961-8.6159668-1.4710693-7.9863281c-17.975708,2.1843262-35.7126465,1.7561035-53.5722656-1.1403809
				C1151.0655518,2145.064209,1150.3857422,2153.1560059,1155.5202637,2153.9890137L1155.5202637,2153.9890137z"/>
		</g>
	</g>
	<g>
		<g>
			<path style="fill:#1C1C1A;" d="M1217.2532959,2148.723877c-10.5994873-14.7541504-24.7270508-25.8935547-41.4326172-32.9946289
				c-4.8193359-2.048584-7.6242676,5.5734863-2.8292236,7.6115723
				c15.4584961,6.5710449,28.2554932,16.9782715,38.0447998,30.6040039
				C1214.0900879,2158.1950684,1220.2885742,2152.9487305,1217.2532959,2148.723877L1217.2532959,2148.723877z"/>
		</g>
	</g>
	<g>
		<g>
			<path style="fill:#1C1C1A;" d="M1246.180542,2153.1745605c-8.3950195-22.8840332-28.5985107-37.1652832-48.1699219-50.0878906
				c-4.3608398-2.8793945-9.0562744,3.7456055-4.6904297,6.628418
				c18.4710693,12.1953125,37.588501,25.3095703,45.5216064,46.9335938
				C1240.6394043,2161.5498047,1247.9715576,2158.0556641,1246.180542,2153.1745605L1246.180542,2153.1745605z"/>
		</g>
	</g>
	<g>
		<g>
			<path style="fill:#1C1C1A;" d="M1269.3597412,2160.199707c-1.6633301-22.0461426-12.9876709-41.6933594-30.9981689-54.451416
				c-4.2720947-3.026123-8.9559326,3.6066895-4.6898193,6.6286621
				c16.4388428,11.6445313,26.1885986,29.2438965,27.7020264,49.2939453
				C1261.7662354,2166.8674316,1269.7503662,2165.3723145,1269.3597412,2160.199707L1269.3597412,2160.199707z"/>
		</g>
	</g>
	<g>
		<g>
			<path style="fill:#1C1C1A;" d="M1168.7767334,2181.3771973c24.7241211,1.9592285,48.3748779-6.5898438,65.9318848-24.151123
				c3.6712646-3.6721191-1.5209961-9.9182129-5.2210693-6.217041
				c-16.1153564,16.1193848-37.2546387,24.083252-60.0064697,22.2807617
				C1164.2757568,2172.8771973,1163.559082,2180.9641113,1168.7767334,2181.3771973L1168.7767334,2181.3771973z"/>
		</g>
	</g>
	<g>
		<g>
			<path style="fill:#1C1C1A;" d="M1186.0770264,2198.2080078c16.7679443,0.2585449,33.1062012-2.9663086,48.177124-10.4746094
				c8.6855469-4.3271484,28.2640381-13.6308594,28.3286133-24.8510742c0.0109863-1.9250488-0.8859863-3.3603516-2.6293945-4.1577148
				c-0.3696289-0.1689453-0.739624-0.338623-1.1092529-0.5075684c-4.7595215-2.1779785-7.5539551,5.449707-2.8292236,7.6115723
				c0.3701172,0.1694336,0.739624,0.338623,1.1092529,0.5075684c-0.8765869-1.3857422-1.7530518-2.7719727-2.6295166-4.1582031
				c-0.0472412,8.2875977-23.2032471,18.2495117-29.3574219,20.8300781
				c-12.2532959,5.137207-25.1132813,7.3164063-38.355835,7.1120605
				C1181.5871582,2190.0402832,1180.8422852,2198.1274414,1186.0770264,2198.2080078L1186.0770264,2198.2080078z"/>
		</g>
	</g>
	<g>
		<g>
			<path style="fill:#1C1C1A;" d="M1216.9332275,2215.0441895c29.4865723-2.0170898,62.5380859-7.2033691,75.7514648-37.4138184
				c2.0981445-4.7978516-5.5257568-7.5983887-7.6115723-2.8293457
				c-11.9082031,27.2263184-43.5463867,30.4741211-69.6103516,32.2568359
				C1210.2653809,2207.4135742,1211.7637939,2215.3977051,1216.9332275,2215.0441895L1216.9332275,2215.0441895z"/>
		</g>
	</g>
	<g>
		<g>
			<path style="fill:#1C1C1A;" d="M1237.7214355,2235.9238281c31.2901611-3.3974609,68.6912842-19.4934082,81.6345215-50.3266602
				c2.0270996-4.8286133-5.5943604-7.635498-7.6119385-2.8291016
				c-11.8009033,28.1115723-47.279541,42.1062012-75.4936523,45.1696777
				C1231.060791,2228.5009766,1232.5412598,2236.486084,1237.7214355,2235.9238281L1237.7214355,2235.9238281z"/>
		</g>
	</g>
	<g>
		<g>
			<path style="fill:#1C1C1A;" d="M1295.8538818,2171.5354004c5.637207-30.776123-13.230835-55.6833496-31.9698486-77.9038086
				c-3.3723145-3.9987793-9.5915527,1.2197266-6.217041,5.2209473
				c17.4197998,20.6567383,35.3791504,43.152832,30.0992432,71.9787598
				C1286.8250732,2175.9675293,1294.9190674,2176.638916,1295.8538818,2171.5354004L1295.8538818,2171.5354004z"/>
		</g>
	</g>
	<g>
		<g>
			<path style="fill:#1C1C1A;" d="M1321.7364502,2186.3222656c5.7702637-16.114502,9.9090576-31.6013184,5.0068359-48.5234375
				c-4.4729004-15.440918-14.2593994-28.7412109-23.7236328-41.4655762
				c-3.1240234-4.2006836-9.3269043,1.0395508-6.2165527,5.2211914
				c7.7410889,10.4077148,15.7960205,21.121582,20.3969727,33.3669434
				c6.3513184,16.9035645,2.8190918,32.1103516-3.0756836,48.5715332
				C1312.3613281,2188.4160156,1319.9735107,2191.2443848,1321.7364502,2186.3222656L1321.7364502,2186.3222656z"/>
		</g>
	</g>
	<g>
		<g>
			<path style="fill:#1C1C1A;" d="M1357.3883057,2197.9228516c5.5244141-29.0241699,4.6391602-64.8352051-17.2279053-87.2873535
				c-3.6290283-3.7260742-9.8702393,1.4702148-6.217041,5.2207031c20.4301758,20.9768066,20.506958,54.307373,15.3572998,81.3623047
				C1348.324585,2202.3459473,1356.4194336,2203.0141602,1357.3883057,2197.9228516L1357.3883057,2197.9228516z"/>
		</g>
	</g>
	<g>
		<g>
			<path style="fill:#1C1C1A;" d="M1276.2855225,2248.9074707c35.3789063-0.2294922,67.8702393-16.2255859,89.4567871-44.2954102
				c3.1945801-4.1540527-3.4489746-8.8237305-6.628418-4.6899414
				c-19.7232666,25.6467285-49.7364502,40.6872559-82.1241455,40.8977051
				C1271.8100586,2240.8537598,1271.0551758,2248.9418945,1276.2855225,2248.9074707L1276.2855225,2248.9074707z"/>
		</g>
	</g>
	<g>
		<g>
			<path style="fill:#1C1C1A;" d="M1310.2426758,2265.6601563c31.9710693-4.9077148,59.989502-21.3225098,80.1081543-46.6179199
				c3.2613525-4.1003418-3.387085-8.7651367-6.628418-4.6896973c-18.821167,23.6643066-45.088501,38.7375488-74.9508057,43.3217773
				C1303.6101074,2258.4665527,1305.0710449,2266.4541016,1310.2426758,2265.6601563L1310.2426758,2265.6601563z"/>
		</g>
	</g>
	<g>
		<g>
			<path style="fill:#1C1C1A;" d="M1340.7354736,2278.2412109c16.6413574-3.168457,32.5849609-8.751709,47.2487793-17.3188477
				c10.2648926-5.996582,27.2105713-15.1711426,31.706543-26.6503906c0.5010986-1.2800293,0.2681885-3.0063477-0.6972656-4.0251465
				c-0.3111572-0.328125-0.6217041-0.65625-0.9328613-0.984375c-3.5826416-3.7805176-9.8197021,1.4194336-6.217041,5.2211914
				c-0.2729492-0.2880859-30.0532227,20.7111816-32.977417,22.2441406
				c-12.4824219,6.5439453-25.7714844,10.8942871-39.6016846,13.5273438
				C1334.140625,2271.2307129,1335.5858154,2279.2219238,1340.7354736,2278.2412109L1340.7354736,2278.2412109z"/>
		</g>
	</g>
	<g>
		<g>
			<path style="fill:#1C1C1A;" d="M1372.6055908,2288.8664551c26.8560791,0.2587891,51.5366211-13.1748047,65.3571777-36.3273926
				c2.6665039-4.4672852-3.947998-9.1804199-6.6282959-4.6901855
				c-12.2984619,20.6027832-33.9162598,33.1623535-58.0246582,32.9299316
				C1368.1190186,2280.7285156,1367.3710938,2288.8161621,1372.6055908,2288.8664551L1372.6055908,2288.8664551z"/>
		</g>
	</g>
	<g>
		<g>
			<path style="fill:#1C1C1A;" d="M1414.5609131,2298.3183594c25.8988037,5.2963867,40.7524414-19.5317383,50.1748047-39.3310547
				c2.2474365-4.723877-5.3835449-7.5124512-7.6120605-2.8293457c-7.9294434,16.6628418-19.802002,38.5827637-41.8583984,34.0727539
				C1410.1556396,2289.185791,1409.4931641,2297.2824707,1414.5609131,2298.3183594L1414.5609131,2298.3183594z"/>
		</g>
	</g>
	<g>
		<g>
			<path style="fill:#1C1C1A;" d="M1467.4361572,2260.1193848c3.6473389-15.5136719,4.7507324-31.2099609,2.3265381-47.017334
				c-1.5217285-9.9206543-3.3671875-26.1745605-13.6865234-30.9294434c-4.75354-2.1901855-7.5469971,5.4377441-2.8293457,7.6120605
				c7.0065918,3.2282715,8.7399902,24.9196777,9.3427734,31.5217285c1.1107178,12.157959,0.0233154,24.121582-2.7648926,35.9838867
				C1458.6427002,2262.3168945,1466.2431641,2265.1938477,1467.4361572,2260.1193848L1467.4361572,2260.1193848z"/>
		</g>
	</g>
	<g>
		<g>
			<path style="fill:#1C1C1A;" d="M1440.8227539,2243.7314453c2.3864746-24.0637207,5.2185059-57.9179688-9.6748047-78.6625977
				c-3.0522461-4.2509766-9.2507324,0.9956055-6.217041,5.2211914c13.3171387,18.5493164,9.9268799,51.3325195,7.8041992,72.7370605
				C1432.2192383,2248.2280273,1440.3066406,2248.9350586,1440.8227539,2243.7314453L1440.8227539,2243.7314453z"/>
		</g>
	</g>
	<g>
		<g>
			<path style="fill:#1C1C1A;" d="M1419.6710205,2228.4506836c2.8829346-16.5085449,2.9610596-33.1784668-0.5174561-49.6123047
				c-2.1884766-10.3388672-4.597168-26.1364746-15.7070313-30.1906738
				c-4.9140625-1.7929688-7.7398682,5.8195801-2.8292236,7.6120605
				c9.4666748,3.4543457,11.4584961,26.5290527,12.4371338,35.5224609
				c1.3143311,12.0805664,0.6149902,24.0170898-1.4715576,35.9641113
				C1410.6845703,2232.8925781,1418.7772217,2233.5671387,1419.6710205,2228.4506836L1419.6710205,2228.4506836z"/>
		</g>
	</g>
	<g>
		<g>
			<path style="fill:#1C1C1A;" d="M1391.2055664,2214.9946289c4.0217285-25.126709,0.5378418-49.8466797-10.0983887-72.9489746
				c-2.1851807-4.7451172-9.5297852-1.2839355-7.3392334,3.4736328
				c10.092041,21.9206543,13.1621094,44.9516602,9.3494873,68.7709961
				C1382.291748,2219.4511719,1390.3829346,2220.1318359,1391.2055664,2214.9946289L1391.2055664,2214.9946289z"/>
		</g>
	</g>
	<g>
		<g>
			<path style="fill:#1C1C1A;" d="M1149.0982666,2337.5620117c-15.9232178-15.9777832-36.5170898-23.6623535-59.0098877-22.1594238
				c-5.1965332,0.3466797-3.6976318,8.3312988,1.4710693,7.986084c19.3465576-1.2924805,37.6508789,5.6765137,51.3217773,19.3942871
				C1146.5471191,2346.4616699,1152.7924805,2341.2687988,1149.0982666,2337.5620117L1149.0982666,2337.5620117z"/>
		</g>
	</g>
	<g>
		<g>
			<path style="fill:#1C1C1A;" d="M1133.423584,2331.6564941c-17.8181152,4.4567871-35.7663574,6.4272461-54.1328125,5.8098145
				c-5.2016602-0.175293-5.9385986,7.9116211-0.7042236,8.0876465c19.0773926,0.6418457,37.7791748-1.2766113,56.3081055-5.911377
				C1139.9327393,2338.3823242,1138.5113525,2330.3837891,1133.423584,2331.6564941L1133.423584,2331.6564941z"/>
		</g>
	</g>
	<g>
		<g>
			<path style="fill:#1C1C1A;" d="M1165.0147705,2332.0168457c-19.7145996,10.7983398-40.592041,17.4743652-62.9134521,20.125
				c-5.1853027,0.6152344-3.7087402,8.6008301,1.4709473,7.9858398c22.9422607-2.723877,44.6552734-9.6738281,64.916626-20.7714844
				C1173.0496826,2336.8579102,1169.614624,2329.4973145,1165.0147705,2332.0168457L1165.0147705,2332.0168457z"/>
		</g>
	</g>
	<g>
		<g>
			<path style="fill:#1C1C1A;" d="M1182.3171387,2335.6010742c-17.8262939,14.3227539-38.4675293,22.7570801-61.1806641,25.2299805
				c-5.1893311,0.5646973-3.7087402,8.5500488,1.4709473,7.986084
				c24.0493164-2.6186523,46.0845947-11.8571777,64.9307861-26.9990234
				C1191.6190186,2338.5393066,1186.3927002,2332.3269043,1182.3171387,2335.6010742L1182.3171387,2335.6010742z"/>
		</g>
	</g>
	<g>
		<g>
			<path style="fill:#1C1C1A;" d="M1205.5383301,2339.7475586c-3.0153809,9.2023926-13.1433105,14.1730957-21.1843262,18.3544922
				c-8.4737549,4.40625-17.3641357,7.6938477-26.5952148,10.1154785c-5.0172119,1.315918-3.6009521,9.3161621,1.4709473,7.986084
				c12.0301514-3.1555176,23.6047363-7.6218262,34.3464355-13.9458008
				c8.2614746-4.8635254,16.4624023-10.1860352,19.5737305-19.6811523
				C1214.7752686,2337.6162109,1207.1672363,2334.7763672,1205.5383301,2339.7475586L1205.5383301,2339.7475586z"/>
		</g>
	</g>
	<g>
		<g>
			<path style="fill:#1C1C1A;" d="M1232.4349365,2339.9399414c-2.8662109,9.3964844-14.6776123,15.4958496-22.380249,20.6135254
				c-9.2282715,6.1308594-18.7839355,11.6826172-28.5915527,16.829834
				c-4.6120605,2.4204102-1.1706543,9.7766113,3.4741211,7.3388672
				c11.4837646-6.0268555,22.6202393-12.642334,33.3238525-19.9697266c8.4661865-5.7963867,18.625-11.6218262,21.7858887-21.9831543
				C1241.5667725,2337.786377,1233.9609375,2334.9377441,1232.4349365,2339.9399414L1232.4349365,2339.9399414z"/>
		</g>
	</g>
	<g>
		<g>
			<path style="fill:#1C1C1A;" d="M1266.4519043,2334.4294434c-11.6207275,16.5097656-27.5449219,28.4182129-46.5791016,35.1035156
				c-4.9216309,1.7287598-1.4215088,9.0585938,3.4741211,7.3391113
				c20.2602539-7.1159668,37.3815918-20.2043457,49.7332764-37.7524414
				C1276.0933838,2334.8391113,1269.4611816,2330.1542969,1266.4519043,2334.4294434L1266.4519043,2334.4294434z"/>
		</g>
	</g>
	<g>
		<g>
			<path style="fill:#1C1C1A;" d="M1280.2250977,2330.2412109c-14.5231934-19.8850098-34.0749512-34.5888672-57.1520996-43.1564941
				c-4.9051514-1.8210449-7.729126,5.7929688-2.8292236,7.6113281
				c21.8580322,8.1152344,40.0203857,21.9484863,53.7642822,40.7661133
				C1277.0952148,2339.6889648,1283.2958984,2334.4458008,1280.2250977,2330.2412109L1280.2250977,2330.2412109z"/>
		</g>
	</g>
	<g>
		<g>
			<path style="fill:#1C1C1A;" d="M1239.578125,2332.9885254c-10.5893555-19.1928711-28.2270508-31.9545898-49.7043457-36.2143555
				c-5.1176758-1.0148926-5.7819824,7.0805664-0.7042236,8.0881348
				c18.4847412,3.6660156,33.9783936,15.123291,43.0693359,31.6005859
				C1234.7502441,2341.013916,1242.1118164,2337.5803223,1239.578125,2332.9885254L1239.578125,2332.9885254z"/>
		</g>
	</g>
	<g>
		<g>
			<path style="fill:#1C1C1A;" d="M1205.4527588,2334.0668945c-12.3669434-14.7692871-27.1595459-26.5219727-44.2052002-35.4694824
				c-4.6199951-2.4250488-7.394165,5.2158203-2.8292236,7.6115723c15.758667,8.2722168,29.3999023,19.4436035,40.8173828,33.0788574
				C1202.5944824,2343.2988281,1208.8125,2338.0788574,1205.4527588,2334.0668945L1205.4527588,2334.0668945z"/>
		</g>
	</g>
	<g>
		<g>
			<path style="fill:#1C1C1A;" d="M1171.3096924,2331.8586426c-10.4416504-13.6975098-22.9190674-25.4389648-37.2120361-35.0490723
				c-4.338623-2.9177246-9.03125,3.7089844-4.6898193,6.6281738c13.7541504,9.2480469,25.6373291,20.4619141,35.6846924,33.6420898
				C1168.2669678,2341.2443848,1174.4729004,2336.0080566,1171.3096924,2331.8586426L1171.3096924,2331.8586426z"/>
		</g>
	</g>
	<g>
		<g>
			<path style="fill:#1C1C1A;" d="M1298.932251,2327.3339844c-11.5927734-21.1489258-29.8023682-36.9211426-52.4875488-45.1787109
				c-4.9147949-1.7890625-7.7412109,5.8237305-2.8287354,7.6123047
				c20.6679688,7.5229492,37.3928223,21.7312012,47.9770508,41.0405273
				C1294.0922852,2335.3679199,1301.4534912,2331.9328613,1298.932251,2327.3339844L1298.932251,2327.3339844z"/>
		</g>
	</g>
	<g>
		<g>
			<path style="fill:#1C1C1A;" d="M1323.3198242,2332.6464844c-0.6959229-23.2995605-18.69104-43.0390625-42.0897217-45.1171875
				c-5.2034912-0.4621582-5.9156494,7.6254883-0.7043457,8.0881348
				c18.6278076,1.6542969,34.1420898,17.4418945,34.7064209,36.324707
				C1315.3863525,2337.1018066,1323.4755859,2337.8671875,1323.3198242,2332.6464844L1323.3198242,2332.6464844z"/>
		</g>
	</g>
	<g>
		<g>
			<path style="fill:#1C1C1A;" d="M1286.5030518,2336.1936035c-1.7941895,9.369873-8.0922852,16.9960938-16.6853027,20.9621582
				c-4.743042,2.1887207-1.2823486,9.5336914,3.4736328,7.3391113
				c11.3740234-5.2495117,18.9576416-15.3676758,21.2999268-27.5969238
				C1295.5727539,2331.7714844,1287.4779053,2331.1037598,1286.5030518,2336.1936035L1286.5030518,2336.1936035z"/>
		</g>
	</g>
	<g>
		<g>
			<path style="fill:#1C1C1A;" d="M1301.25354,2353.145752c8.3806152-5.9394531,13.6086426-14.7687988,15.3269043-24.8374023
				c0.8789063-5.1501465-7.2137451-5.8261719-8.0876465-0.7041016c-1.3679199,8.0158691-5.8739014,14.65625-12.4603271,19.3244629
				C1291.763916,2349.9541016,1297.0129395,2356.1513672,1301.25354,2353.145752L1301.25354,2353.145752z"/>
		</g>
	</g>
</g>
<g id="snowflake_18_">
	<path style="fill:#1C1C1A;" d="M1119.8631592,1569.2109375c-0.8359375-1.6290283-2.4925537-2.6425781-4.3250732-2.6425781
		c-0.7619629,0-1.5273438,0.1860352-2.208374,0.5360107l-29.2376709,14.9763184l-13.460083-7.7713623l44.7147217-22.9007568
		c2.3823242-1.22229,3.3270264-4.152832,2.1082764-6.5351563c-0.8359375-1.6290283-2.4943848-2.6409912-4.3286133-2.6409912
		c-0.7618408,0-1.5238037,0.1844482-2.206543,0.5327148l-50.300293,25.7636719l-12.4104004-7.1652832l23.6530762-12.1132813
		c2.3823242-1.2220459,3.3270264-4.15271,2.1082764-6.5351563c-0.8360596-1.6290283-2.4943848-2.6409912-4.3286133-2.6409912
		c-0.7619629,0-1.5256348,0.1844482-2.206543,0.5327148l-29.2387695,14.9758301l-13.4570313-7.7694092l44.7144775-22.9005127
		c2.3823242-1.22229,3.3270264-4.152832,2.1082764-6.5351563c-0.8360596-1.6290283-2.4943848-2.6409912-4.3286133-2.6409912
		c-0.762085,0-1.5256348,0.1844482-2.206543,0.5327148l-50.2998657,25.7631836l-7.0227051-4.0545654
		c0.3014526-1.2651367,0.4779663-2.5778809,0.4779663-3.9338379c0-7.6871338-5.1327515-14.1917725-12.1480713-16.2871094v-8.0985107
		l47.4631348-30.6799316c2.2463379-1.4532471,2.8927002-4.4648438,1.4411621-6.7127686
		c-0.8980713-1.3894043-2.423584-2.2203369-4.0803223-2.2203369c-0.9344482,0-1.8444824,0.269043-2.6324463,0.7791748
		l-42.1915283,27.2729492v-15.5400391l27.5905151-17.8353271c2.2461548-1.4532471,2.8926392-4.4648438,1.440979-6.7127686
		c-0.8979492-1.3894043-2.423645-2.2203369-4.0785522-2.2203369c-0.9343872,0-1.8444824,0.2689209-2.6340332,0.7791748
		l-22.3189087,14.4282227v-14.3314209l47.4631348-30.6799316c2.2463379-1.453125,2.8927002-4.4648438,1.4411621-6.7127686
		c-0.8980713-1.3892822-2.423584-2.2203369-4.0803223-2.2203369c-0.9344482,0-1.8444824,0.2689209-2.6324463,0.7791748
		l-42.1915283,27.2730713v-15.5401611l27.5905151-17.8353271c2.2461548-1.4532471,2.8926392-4.4648438,1.440979-6.7127686
		c-0.8979492-1.3894043-2.423645-2.2186279-4.0785522-2.2186279c-0.9343872,0-1.8444824,0.2689209-2.6340332,0.7774658
		l-22.3189087,14.4282227v-25.1782227c0-2.677124-2.1773071-4.8543701-4.8544312-4.8543701
		s-4.8544312,2.1772461-4.8544312,4.8543701v25.1782227l-22.3189697-14.4282227
		c-0.7877197-0.5085449-1.697998-0.7774658-2.6322632-0.7774658c-1.6566772,0-3.182251,0.8292236-4.0803223,2.2186279
		c-1.4516602,2.2479248-0.8051147,5.2595215,1.440979,6.7127686l27.5905762,17.8353271v15.5401611l-42.1915894-27.2730713
		c-0.7879028-0.5085449-1.6964111-0.7773438-2.6306763-0.7773438c-1.6566772,0-3.182251,0.8292236-4.0820923,2.2185059
		c-1.4514771,2.2479248-0.8051147,5.2596436,1.4411621,6.7127686l47.4631958,30.6799316v14.3314209l-22.3189697-14.4282227
		c-0.7877197-0.5085449-1.697998-0.7774658-2.6322632-0.7774658c-1.6566772,0-3.182251,0.8292236-4.0803223,2.2186279
		c-1.4516602,2.2479248-0.8051147,5.2595215,1.440979,6.7127686l27.5905762,17.8353271v15.5400391l-42.1915894-27.2729492
		c-0.7879028-0.5085449-1.6964111-0.7773438-2.6306763-0.7773438c-1.6566772,0-3.182251,0.8291016-4.0820923,2.2185059
		c-1.4514771,2.2479248-0.8051147,5.2595215,1.4411621,6.7127686l47.4631958,30.6799316v8.0985107
		c-7.0153809,2.0953369-12.1480713,8.5999756-12.1480713,16.2871094c0,1.355957,0.1765137,2.6687012,0.4779053,3.9338379
		l-7.0227051,4.0545654l-50.3015747-25.7631836c-0.6928101-0.3533936-1.4358521-0.5327148-2.2081299-0.5327148
		c-1.8308716,0-3.4891357,1.0119629-4.3253174,2.6409912c-1.21875,2.3823242-0.2740479,5.3128662,2.1082764,6.5351563
		l44.7144775,22.9005127l-13.4572144,7.7695313l-29.2402954-14.9759521
		c-0.6929932-0.3533936-1.4358521-0.5327148-2.2081909-0.5327148c-1.8308105,0-3.4891357,1.0119629-4.3252563,2.6409912
		c-1.21875,2.3824463-0.2740479,5.3131104,2.1082764,6.5351563l23.6530762,12.1132813l-12.4104004,7.1652832l-50.302002-25.7636719
		c-0.6912231-0.3533936-1.4342651-0.5327148-2.206543-0.5327148c-1.8342285,0-3.4925537,1.0119629-4.3269043,2.6409912
		c-1.21875,2.3823242-0.2740479,5.3128662,2.1082764,6.5351563l44.7147217,22.9007568l-13.460083,7.7713623l-29.2376709-14.9763184
		c-0.6930542-0.3551025-1.4378052-0.5360107-2.211731-0.5360107c-1.8324585,0-3.4873657,1.0135498-4.3217163,2.6425781
		c-0.5913696,1.1531982-0.6981812,2.4686279-0.2999878,3.7028809c0.3982544,1.2342529,1.2531738,2.2393799,2.4064941,2.8306885
		l23.6540527,12.1158447l-21.8043823,12.5888672c-1.1222534,0.6480713-1.9255981,1.6962891-2.2617188,2.9477539
		c-0.3361206,1.2532959-0.1637573,2.5616455,0.484436,3.68396c0.8653564,1.4963379,2.4771729,2.427124,4.2080078,2.427124
		c0.8497925,0,1.687561-0.2258301,2.4237061-0.6499023l21.8043823-12.5887451l-1.335144,26.5400391
		c-0.1344604,2.6737061,1.9307251,4.9595947,4.6061401,5.0939941c0.0828247,0.00354,0.1654663,0.005249,0.246521,0.005249
		c2.5858154,0,4.7148438-2.0255127,4.8457642-4.6096191l1.6499023-32.810791l13.4572754-7.7697754l-2.5229492,50.1738281
		c-0.1344604,2.6738281,1.9324951,4.9595947,4.6062622,5.0941162c0.0826416,0.003418,0.1654663,0.005127,0.246521,0.005127
		c2.5858154,0,4.7146606-2.0256348,4.8457642-4.6096191l2.8375854-56.444458l12.4094849-7.1647949l-1.3337402,26.5426025
		c-0.0638428,1.2946777,0.3792114,2.5374756,1.2479858,3.4993896c0.8706055,0.9620361,2.0635986,1.5273438,3.3598633,1.5930176
		c0.0810547,0.003418,0.1638794,0.005127,0.244751,0.005127c2.5858154,0,4.7148438-2.0256348,4.8458862-4.6113281
		l1.6481934-32.8096924l13.4572754-7.7696533l-2.5229492,50.1743164c-0.1344604,2.6737061,1.9324951,4.9595947,4.6060791,5.0941162
		c0.0828247,0.003418,0.1655273,0.005127,0.246582,0.005127c2.5857544,0,4.7147827-2.0255127,4.8458252-4.6096191
		l2.8376465-56.4451904l7.0291748-4.0582275c3.0478516,2.8823242,7.1470337,4.6639404,11.6625366,4.6639404
		c4.5154419,0,8.614624-1.7816162,11.6624756-4.6639404l7.0291748,4.0582275l2.8376465,56.4451904
		c0.1310425,2.5841064,2.2600708,4.6096191,4.8458862,4.6096191c0.0810547,0,0.1637573-0.001709,0.2481689-0.005127
		c2.6719971-0.1345215,4.7389526-2.4204102,4.6044922-5.0941162l-2.5230103-50.1743164l13.4573364,7.7696533l1.6481934,32.8096924
		c0.1309814,2.5856934,2.2600098,4.6113281,4.8458252,4.6113281c0.0810547,0,0.1636963-0.001709,0.246582-0.005127
		c1.2944336-0.0656738,2.4874268-0.6309814,3.3580322-1.5930176c0.8687744-0.9619141,1.3118896-2.2047119,1.2480469-3.4993896
		l-1.3337402-26.5426025l12.4094238,7.1647949l2.8376465,56.444458c0.1311035,2.5839844,2.2598877,4.6096191,4.8457031,4.6096191
		c0.0810547,0,0.1639404-0.001709,0.248291-0.005127c2.6719971-0.1345215,4.7390137-2.4202881,4.6044922-5.0941162
		l-2.5229492-50.1738281l13.4572754,7.7697754l1.6499023,32.810791c0.1309814,2.5841064,2.2600098,4.6096191,4.8458252,4.6096191
		c0.0810547,0,0.1636963-0.001709,0.248291-0.005249c2.673584-0.1343994,4.7387695-2.4202881,4.6043701-5.0939941
		l-1.3352051-26.5400391l21.8044434,12.5887451c0.736084,0.4240723,1.5738525,0.6499023,2.4237061,0.6499023
		c1.730835,0,3.3426514-0.9307861,4.2080078-2.427124c0.6481934-1.1223145,0.8205566-2.4306641,0.484375-3.68396
		c-0.3360596-1.2514648-1.1394043-2.2996826-2.2617188-2.9477539l-21.8043213-12.5888672l23.6540527-12.1158447
		c1.1533203-0.5913086,2.0083008-1.5964355,2.4064941-2.8306885S1120.4545898,1570.3641357,1119.8631592,1569.2109375z"/>
	<path style="fill:#1C1C1A;" d="M866.4529419,1467.638916l25.6293945,14.7973633l-23.6538086,12.1157227
		c-1.1532593,0.5913086-2.0082397,1.5963135-2.4064331,2.8305664c-0.3982544,1.2342529-0.2914429,2.5495605,0.2999268,3.7028809
		c0.8343506,1.6290283,2.4909058,2.6427002,4.3233643,2.6427002c0.7637329,0,1.5273438-0.1862793,2.210083-0.5361328
		l29.2373657-14.9760742l15.37146,8.8747559l-44.7139893,22.9003906c-2.3807373,1.222168-3.3270874,4.152832-2.1083374,6.5352783
		c0.8359985,1.6306152,2.4944458,2.6425781,4.3251343,2.6425781c0.7705688,0,1.5153198-0.1791992,2.210083-0.5343018
		l50.2993774-25.7633057l30.8103638,17.7886963c0.7359619,0.4256592,1.5738525,0.6499023,2.423645,0.6499023
		c1.730835,0,3.3426514-0.9310303,4.2080688-2.4272461c1.3375854-2.3168945,0.5411987-5.2923584-1.7772827-6.6317139
		l-30.8088989-17.7877197l-2.8394165-56.4454346c-0.1309204-2.5858154-2.2496338-4.6114502-4.8251343-4.6114502
		c-0.0895996,0-0.1809082,0.00354-0.2689209,0.006958c-2.673584,0.1343994-4.7387695,2.4202881-4.6043091,5.0939941
		l2.5245972,50.1745605l-15.3690796-8.8731689l-1.6499023-32.8131104c-0.1360474-2.663208-2.3530884-4.7232666-5.0940552-4.6044922
		c-2.6719971,0.1345215-4.7387695,2.4202881-4.6043091,5.0941162l1.335083,26.5421143l-25.6296387-14.7973633
		c-0.736145-0.4259033-1.5739136-0.6517334-2.4220581-0.6517334c-1.7307129,0-3.3442993,0.9309082-4.2096558,2.4289551
		c-0.6481934,1.1223145-0.8205566,2.4306641-0.484436,3.68396
		C864.5273438,1465.942749,865.3306885,1466.9908447,866.4529419,1467.638916z"/>
	<path style="fill:#1C1C1A;" d="M1043.4975586,1635.4799805l-47.4631348-30.6799316v-35.5769043
		c0-2.6773682-2.1773071-4.8544922-4.8544312-4.8544922s-4.8544312,2.177124-4.8544312,4.8544922v35.5769043l-47.4631958,30.6799316
		c-2.2462769,1.4532471-2.8926392,4.4647217-1.4411621,6.7127686c0.8980713,1.3911133,2.423645,2.2219238,4.0803223,2.2202148
		c0.9344482,0,1.8445435-0.2689209,2.6324463-0.7791748l42.1915894-27.2728271v17.748291l-27.5905762,17.8336182
		c-2.2460938,1.4532471-2.8926392,4.4647217-1.440979,6.7127686c0.8997803,1.3911133,2.425415,2.2202148,4.0803223,2.2202148
		c0.9342651,0,1.8445435-0.2689209,2.6322632-0.7791748l22.3189697-14.4266357v29.5932617
		c0,2.677124,2.1773071,4.8543701,4.8544312,4.8543701s4.8544312-2.1772461,4.8544312-4.8543701v-29.5932617l22.3189087,14.4266357
		c0.7860107,0.5085449,1.6962891,0.7775879,2.6322632,0.7775879c1.6549683,0,3.180542-0.8292236,4.0803223-2.2186279
		c1.4516602-2.2480469,0.8051758-5.2595215-1.440979-6.7127686l-27.5905151-17.8336182v-17.748291l42.1915283,27.2728271
		c0.7861328,0.5084229,1.6964111,0.7775879,2.6324463,0.7775879c1.6549072,0,3.180542-0.8292236,4.0803223-2.2186279
		C1046.3902588,1639.9447021,1045.7438965,1636.9332275,1043.4975586,1635.4799805z"/>
	<path style="fill:#1C1C1A;" d="M1019.2186279,1512.2509766c-2.3184814,1.3393555-3.1149292,4.3148193-1.7773438,6.6317139
		c0.8654175,1.4962158,2.4772339,2.4272461,4.2080688,2.4272461c0.8497925,0,1.6877441-0.2242432,2.423645-0.6499023
		l30.8104248-17.7886963l50.3010254,25.7633057c0.6931152,0.3551025,1.4360352,0.5343018,2.208374,0.5343018
		c1.8325195-0.001709,3.4891357-1.0153809,4.3251953-2.6425781c1.21875-2.3824463,0.2740479-5.3131104-2.1083984-6.5352783
		l-44.7139893-22.9003906l15.37146-8.8747559l29.2374268,14.9760742c0.6929932,0.3552246,1.4377441,0.5361328,2.210083,0.5361328
		c1.8323975-0.0018311,3.4890137-1.0153809,4.3233643-2.6427002c0.5913086-1.1533203,0.6981201-2.4686279,0.2999268-3.7028809
		s-1.2531738-2.2392578-2.4064941-2.8305664l-23.6538086-12.1157227l25.6293945-14.7973633
		c1.1223145-0.6480713,1.9256592-1.696167,2.2617188-2.9477539c0.3361816-1.2532959,0.1638184-2.5616455-0.484375-3.68396
		c-0.8653564-1.4980469-2.4771729-2.4289551-4.2097168-2.4289551c-0.8481445,0-1.6859131,0.2258301-2.4219971,0.6517334
		l-25.6296387,14.7973633l1.335083-26.5421143c0.1343994-2.6738281-1.932373-4.9595947-4.6079102-5.0941162l-0.2275391-0.005127
		c-2.5960693,0-4.7320557,2.0256348-4.862915,4.6096191l-1.6499023,32.8131104l-15.3691406,8.8731689l2.5246582-50.1745605
		c0.0638428-1.2946777-0.3792725-2.5374756-1.2480469-3.5012207c-0.8687744-0.9619141-2.0617676-1.5273438-3.3563232-1.5927734
		c-2.6529541-0.1033936-4.9577637,1.9324951-5.0939941,4.6044922l-2.8394775,56.4454346L1019.2186279,1512.2509766z"/>
</g>
<path id="snowflake_11_" style="fill:#1C1C1A;" d="M550.1619263,2078.536377l-21.3908691,5.7319336l-11.1040039-6.4108887
	l22.0405884-5.9060059l-2.1170044-7.9020996l-29.9423828,8.0234375l-10.958313-6.3266602l29.8268433-7.9921875l-2.1170654-7.9020996
	l-37.7286072,10.1096191l-11.1949158-6.4633789l11.7607727-3.1508789l-2.1171875-7.9020996l-19.6625671,5.2681885
	l-9.4885864-5.4782715l19.6583252-5.2669678l-2.1171875-7.9020996l-27.5601196,7.3843994l-5.9685364-3.4459229
	c0.3847961-1.6188965,0.6099243-3.2988281,0.6099243-5.0338135c0-3.3282471-0.7712708-6.4720459-2.1099243-9.2967529
	l7.611084-4.3944092l27.5622559,7.3850098l2.1171875-7.9012451l-19.6607666-5.2680664l9.4889221-5.4785156l19.6637573,5.2686768
	l2.1171875-7.9012451l-11.7621155-3.1518555l11.1946106-6.4631348l37.7302856,10.109375l2.1170044-7.9012451l-29.8284302-7.9926758
	l10.9585266-6.3267822l29.9446716,8.0233154l2.1171875-7.9013672l-22.0430298-5.9064941l11.1044922-6.411377l21.3919067,5.7322998
	l2.1170044-7.9013672l-13.4901123-3.6152344l8.1693726-4.7165527l-4.0904541-7.0837402l-8.1679688,4.7158203l3.6141357-13.489624
	l-7.9012451-2.1170654l-5.7329102,21.3919678l-11.1033325,6.4104004l5.9053955-22.0422363l-7.9012451-2.1170654
	l-8.0242004,29.944458l-10.956543,6.3256836l7.9912415-29.8273926l-7.9012451-2.1171875l-10.1100464,37.7298584
	l-11.1949158,6.463501l3.151001-11.7618408l-7.9011841-2.1171875l-5.2697144,19.6640625l-9.4878235,5.4777832l5.2672729-19.6602783
	l-7.9012146-2.1171875l-7.3861084,27.5625l-8.3794861,4.8378906c-2.9458618-2.744751-6.6383057-4.6900635-10.7476807-5.473999
	v-10.5748291l20.1761475-20.1774902l-5.7841797-5.7841797l-14.3919678,14.3919678v-10.9561768l14.3937988-14.3950195
	l-5.7841797-5.7841797l-8.6096191,8.6096191v-12.9265137l27.6193542-27.6201172l-5.7841492-5.7840576l-21.8352051,21.8343506
	v-12.6523438l21.9195862-21.920166l-5.7841797-5.7841797l-16.1354065,16.1346436v-12.8212891l15.6586304-15.6601563
	l-5.7840271-5.7841797l-9.8746033,9.8746338v-9.4316406h-8.1808472v9.4317627l-9.8753662-9.8747559l-5.7841797,5.7841797
	l15.6595459,15.6601563v12.8214111l-16.136322-16.1347656l-5.7840271,5.7841797l21.9203491,21.9202881v12.6524658
	l-21.8360901-21.8345947l-5.7840271,5.7840576l27.6201172,27.6202393v12.9267578l-8.6105347-8.6099854l-5.7841492,5.7841797
	l14.3946838,14.3952637v10.9561768l-14.3928833-14.3922119l-5.7841797,5.7841797l20.177063,20.1777344v10.574585
	c-4.0583191,0.7739258-7.7088013,2.6816406-10.6365051,5.3721924l-8.6364136-4.986084l-7.3859558-27.5628662l-7.9012146,2.1170654
	l5.2671204,19.6607666l-9.4875183-5.4779053l-5.2698364-19.6641846l-7.9012146,2.1170654l3.151001,11.762207l-11.1938477-6.4628906
	l-10.111084-37.7298584l-7.9012146,2.1170654l7.9922485,29.8276367l-10.9567566-6.3258057l-8.0249634-29.9445801
	l-7.9013672,2.1171875l5.9061279,22.0421143l-11.1047668-6.411377l-5.7312927-21.3909912l-7.9011841,2.1171875l3.6141052,13.489624
	l-8.1679688-4.7158203l-4.0904541,7.0837402l8.1690674,4.7163086l-13.4907227,3.614502l2.1171875,7.9012451l21.3919067-5.7314453
	l11.1052246,6.411499l-22.0429077,5.9066162l2.1170349,7.9012451l29.9447021-8.0233154l10.9575195,6.3261719l-29.8283691,7.9925537
	l2.1170349,7.9012451l37.7301636-10.1092529l11.1954956,6.4637451l-11.7628479,3.1518555l2.117157,7.9013672l19.6643677-5.2689209
	l9.4889221,5.4786377l-19.6604614,5.2681885l2.1171875,7.901123l27.5621033-7.3850098l7.8180237,4.5136719
	c-1.3778687,2.8579102-2.1729431,6.0474854-2.1729431,9.427002c0,1.5782471,0.1777039,3.1141357,0.4976807,4.5982666
	l-6.2912292,3.6323242l-27.1189575-7.2666016l-0.4393616-0.1188965l-2.117157,7.9020996l19.6569519,5.2677002l-9.4873962,5.4776611
	l-19.223053-5.1495361l-0.438446-0.1188965l-2.1171875,7.9019775l11.7601624,3.1508789l-11.1953735,6.463623l-37.2889709-9.9907227
	l-0.4385986-0.1188965l-2.1170349,7.9020996l29.8260803,7.9916992l-10.9587097,6.3271484l-29.5027771-7.904541l-0.4393616-0.1188965
	l-2.117157,7.9020996l22.040741,5.9060059l-11.1038513,6.4106445l-20.9507446-5.612793l-0.4394836-0.1188965l-2.1170349,7.9020996
	l13.4885864,3.6140137l-8.1678467,4.7158203l4.0904541,7.0871582l8.1673584-4.715332l-3.6134949,13.4875488l7.9011841,2.1179199
	l5.7323608-21.390625l11.1034241-6.4108887l-5.9049377,22.0405273l7.9012146,2.1179199l8.0237427-29.9436035l10.9575195-6.326416
	l-7.9916382,29.8273926l7.9012146,2.1179199l10.1097107-37.7299805l11.1947632-6.463623l-3.1505432,11.7612305l7.9012146,2.1181641
	l5.2692261-19.6643066l9.4881287-5.4782715l-5.2671204,19.6601563l7.9012146,2.1181641l7.3861084-27.5634766l5.4267883-3.1331787
	c3.1403809,4.6450195,8.0222473,8.0206299,13.7012939,9.1824951v5.1611328l-20.177063,20.177002l5.7841797,5.7841797
	l14.3928833-14.3928223v10.9575195l-14.3946838,14.3947754l5.7841492,5.7839355l8.6105347-8.6105957v12.9282227
	l-27.6202698,27.6193848l5.7841797,5.7841797l21.8360901-21.8352051v12.654541l-21.9205017,21.9189453l5.7841797,5.7839355
	l16.136322-16.1347656v12.8222656l-15.6595459,15.6601563l5.7840271,5.7841797l9.8755188-9.8759766v9.4321289h8.1808472v-9.4318848
	l9.8744507,9.8757324l5.7841797-5.7841797l-15.6586304-15.6601563v-12.8220215l16.1354065,16.1345215l5.7840271-5.7839355
	l-21.9194336-21.9189453v-12.654541l21.8352051,21.8352051l5.7839966-5.7841797l-27.6192017-27.6193848v-12.9277344
	l8.6096191,8.6101074l5.7841797-5.7839355l-14.3937988-14.3945313v-10.9575195l14.3919678,14.3925781l5.7841797-5.7841797
	l-20.1761475-20.1767578v-5.072998c5.772522-1.0209961,10.7622375-4.3093262,14.0159607-8.9213867l5.2565002,3.0350342
	l7.385498,27.5604248l7.9012146-2.1179199l-5.26651-19.6572266l9.4875183,5.4775391l5.2692261,19.6638184l7.9012146-2.1179199
	l-3.1505432-11.7607422l11.1940002,6.4631348l10.1104736,37.7280273l7.9012451-2.1179199l-7.9914551-29.8249512
	l10.9564209,6.3259277l8.0245361,29.9436035l7.9013062-2.1181641l-5.9055786-22.0402832l11.1047974,6.4116211l5.7307129,21.3898926
	l7.9011841-2.1181641l-3.6135254-13.4875488l8.1674194,4.7155762l4.0903931-7.0871582l-8.1677856-4.7158203l13.4894409-3.6142578
	L550.1619263,2078.536377z M432.4101563,2027.9705811c0,7.5131836-6.1124573,13.6258545-13.6267395,13.6258545
	s-13.627655-6.1126709-13.627655-13.6258545c0-7.5142822,6.1133728-13.6278076,13.627655-13.6278076
	S432.4101563,2020.4562988,432.4101563,2027.9705811z"/>
<path id="snowflake_45_" style="fill:#1C1C1A;" d="M580.4584961,3239.6499023h-18.9091797l14.428894-14.4311523
	l-9.7179565-9.7180176l-24.1490479,24.1491699h-18.9906616l27.2380981-27.239502l-9.7181396-9.7182617l-36.9585571,36.9577637
	h-22.1942139l44.8516846-44.8530273l-9.7181396-9.7182617l-54.5723267,54.5712891h-20.81604l52.8575134-52.8588867
	l-4.4623413-4.4624023v-5.7419434h-74.754364l14.7203064-14.720459h77.1764526v-13.744873h-63.4315491l15.6927185-15.692627
	h52.26828v-13.744873h-38.5233765l13.4287415-13.4287109h34.1520081v-13.7451172h-20.407074l13.3719788-13.3718262
	l-9.7178955-9.7182617l-13.3692017,13.3688965v-20.4025879h-13.7449341v34.1474609l-13.4302368,13.4304199v-38.5187988h-13.7450256
	v52.2636719l-15.6941528,15.6940918v-63.4299316h-13.7449036v77.1750488l-14.7187805,14.71875v-74.7512207h-6.3101807
	l-4.0596008-4.0598145l-52.8588867,52.8588867v-20.8198242l54.5708923-54.5683594l-9.7178955-9.7182617l-44.8529968,44.8505859
	v-22.1958008l36.9573059-36.9572754l-9.7181702-9.7182617l-27.2391357,27.239502v-18.9946289l24.1475525-24.1464844
	l-9.7181702-9.7177734l-14.4293823,14.4282227v-18.9086914h-13.7449036v18.9082031l-14.4281006-14.4277344l-9.717926,9.7177734
	l24.1460266,24.1462402v18.9943848l-27.237854-27.2390137l-9.7181702,9.7182617l36.9560242,36.9570313v22.1958008
	l-44.8514709-44.8503418l-9.7181702,9.7182617l54.5696411,54.5681152v20.8200684l-52.8589172-52.8588867l-4.4622498,4.4624023
	h-5.7390137v74.7526855l-14.7203064-14.7202148v-77.1750488h-13.7449188v63.4301758l-15.6941528-15.6940918v-52.2668457h-13.7449188
	v38.5217285l-13.4287872-13.4287109v-34.1489258h-13.7449188v20.4040527l-13.3707428-13.3706055l-9.717926,9.7182617
	l13.3720245,13.3720703h-20.4071198v13.744873h34.1520538l13.4287872,13.4287109h-38.5234528v13.744873h52.2683716
	l15.692627,15.692627h-63.4315338v13.7451172h77.1764526l14.7202911,14.7202148h-74.7542877v6.3085938l-4.059845,4.0595703
	l52.8576202,52.8588867h-20.8164215l-54.5719147-54.5681152l-9.7181702,9.7182617l44.8511963,44.8498535h-22.1942291
	l-36.9580536-36.9541016l-9.7181625,9.7177734l27.2373428,27.2363281h-18.9906464l-24.1483002-24.1459961l-9.7179108,9.7182617
	l14.4278412,14.4277344H90.2230301v13.7451172h18.9091949l-14.4288559,14.4311523l9.7179108,9.7177734l24.1490631-24.1489258
	h18.9906464l-27.2381058,27.2392578l9.7181625,9.7182617l36.9585724-36.9575195h22.1942139l-44.8516998,44.8527832
	l9.7181702,9.7182617l54.5721588-54.5710449h20.8161774l-52.8576202,52.8588867l4.4625244,4.4621582v5.7419434h74.7542877
	l-14.7203064,14.720459h-77.1764526v13.744873h63.4315338l-15.692627,15.692627h-52.2683563v13.744873h38.5234375
	l-13.4287872,13.4289551h-34.1520538v13.744873h20.407135l-13.3720245,13.3720703l9.7179108,9.7180176l13.3692322-13.3688965
	v20.4025879h13.7449188v-34.1474609l13.4303131-13.4304199v38.5187988h13.7449188v-52.2636719l15.6941528-15.6940918v63.4299316
	h13.7449188v-77.1750488l14.7187805-14.71875v74.7512207h6.3101807l4.0596008,4.0600586l52.8588867-52.8588867v20.8195801
	l-54.5708923,54.5683594l9.7178955,9.7182617l44.8529968-44.8505859v22.1958008l-36.9573059,36.9572754l9.7181702,9.7182617
	l27.2391357-27.239502v18.9946289l-24.1475525,24.1464844l9.7181702,9.7177734l14.4293823-14.4282227v18.9086914h13.7449036
	v-18.9082031l14.4281006,14.4277344l9.717926-9.7177734l-24.1460266-24.1462402v-18.9943848l27.237854,27.2390137
	l9.7181702-9.7182617l-36.9560242-36.9570313v-22.1958008l44.8514709,44.8503418l9.7181702-9.7182617l-54.5696411-54.5681152
	v-20.8198242l52.8589172,52.8588867l4.4622498-4.4626465h5.7390137v-74.7526855l14.7203064,14.7202148v77.1750488h13.7449036
	v-63.4301758l15.6941528,15.6943359v52.2668457h13.7450562v-38.5219727l13.4287415,13.4287109v34.1489258h13.7449036v-20.4040527
	l13.370697,13.3706055l9.717926-9.7182617l-13.3720093-13.3720703h20.4071045v-13.744873h-34.1520386l-13.4287415-13.4287109
	h38.5233765v-13.744873h-52.26828l-15.6927185-15.692627h63.4315491v-13.7451172h-77.1764526l-14.7203064-14.7202148h74.7543945
	v-6.3085938l4.0596313-4.0595703l-52.8575134-52.8588867h20.8164368l54.5719299,54.5681152l9.7181396-9.7182617
	l-44.8512878-44.8498535h22.1943054l36.9580688,36.9541016l9.7181396-9.7177734l-27.2373047-27.2363281h18.9906616
	l24.1482544,24.1459961l9.7179565-9.7182617l-14.4278564-14.4277344h18.9081421V3239.6499023z M369.1766968,3253.3947754
	l12.2747192,12.2741699h-17.1279602l-1.1365051-1.1362305l-1.1362305,1.1362305h-7.4423523v7.4423828l-1.1393127,1.1391602
	l1.1393127,1.1396484v17.3630371l-12.110321-12.1101074v-1.6137695h-1.613739l-5.2586975-5.2587891l-5.258728,5.2587891h-1.613739
	v1.6137695l-12.2772827,12.2770996v-17.1274414l1.1393127-1.1394043l-1.1393127-1.1394043v-7.4423828h-7.4423523
	l-1.136261-1.1362305l-1.1364746,1.1362305H289.394043l12.1108093-12.1101074h1.6107178v-1.611084l5.2617493-5.2614746
	l-5.2617493-5.2614746v-1.611084h-1.6107178l-12.2747192-12.2741699h17.1279602l1.1365051,1.1362305l1.1362305-1.1362305h7.4423828
	v-7.4423828l1.1392822-1.1391602l-1.1392822-1.1396484v-17.3630371l12.1102905,12.1101074v1.6137695h1.613739l5.2586975,5.2590332
	l5.258728-5.2590332h1.613739v-1.6137695l12.2772827-12.2770996v17.1274414l-1.1393127,1.1394043l1.1393127,1.1394043v7.4423828
	h7.4423523l1.136261,1.1362305l1.1364746-1.1362305h17.3667297l-12.1108093,12.1103516h-1.6106873v1.6108398l-5.2617798,5.2614746
	l5.2617798,5.2614746v1.611084H369.1766968z M388.6155701,3239.6499023l12.1098022-12.1103516h24.5227051v-13.744873h-10.7783203
	l7.7880249-7.7883301l-9.7181396-9.7182617l-17.506958,17.5065918h-17.3669739l23.4630737-23.4631348h69.9844666
	l-49.3192139,49.3183594H388.6155701z M367.950592,3204.0732422v-17.1274414l17.3392334-17.3391113l-9.717926-9.7182617
	l-7.6213074,7.6213379v-11.0126953h-13.7449036v24.7575684l-12.2772827,12.2773438v-33.1809082l49.4837646-49.4838867v69.7446289
	L367.950592,3204.0732422z M328.1835022,3193.5319824l-12.1102905-12.1103516v-24.5249023h-13.7449341v10.7800293
	l-7.788269-7.7883301l-9.7181702,9.7182617l17.5064392,17.5061035v17.3632813l-23.460022-23.4599609v-69.9802246
	l49.3152466,49.3151855V3193.5319824z M292.6131592,3214.1972656h-17.1284485l-17.342804-17.3422852l-9.7181549,9.7182617
	l7.6238556,7.6240234h-11.0168152v13.744873h24.7614746l12.2737122,12.2741699h-33.1784668l-49.4832306-49.4821777h69.7458038
	L292.6131592,3214.1972656z M282.065979,3253.9614258l-12.1098022,12.1101074h-24.5227051v13.744873h10.7783203
	l-7.7880402,7.7883301l9.7181549,9.7182617l17.506958-17.5065918h17.3669739l-23.4630737,23.4631348h-69.9845581
	l49.3193054-49.3181152H282.065979z M302.730957,3289.5378418v17.1274414l-17.3392334,17.3391113l9.717926,9.7182617
	l7.6213074-7.6213379v11.0126953h13.7449036v-24.7575684l12.2772827-12.2773438v33.1809082l-49.4837646,49.4838867v-69.7446289
	L302.730957,3289.5378418z M342.4980469,3300.0791016l12.110321,12.1103516v24.5249023h13.7449036v-10.7800293l7.788269,7.7883301
	l9.7181702-9.7182617l-17.5064392-17.5061035v-17.3632813l23.460022,23.4602051v69.9802246l-49.3152466-49.3154297V3300.0791016z
	 M378.0683899,3279.4138184h17.1284485l17.342804,17.3422852l9.7181396-9.7182617l-7.6238403-7.6240234h11.0168152v-13.744873
	h-24.7614746l-12.2737122-12.2741699h33.1784668l49.4832458,49.4821777h-69.7458191L378.0683899,3279.4138184z"/>
<path id="snowflake_41_" style="fill:#1C1C1A;" d="M484.1904907,700.0322876l-31.6094666,8.4700928l-8.7501221-5.052124
	l24.4455261-6.5501099l-1.9193726-7.1639404l-31.6091919,8.4699097l-8.7502747-5.0519409l24.4454041-6.5501099l-1.9194031-7.1639404
	l-31.6089172,8.4700928l-8.7501526-5.052124l24.4450073-6.5499878l-1.9194031-7.1640625l-31.6086426,8.4699097l-8.75-5.0518188
	l21.4518127-5.7481689l0.7974548,0.213562l0.3982849,0.1079712l0.1852722-0.6917114l1.6117554-0.4317627l-0.7479858-2.7921143
	l0.8703613-3.2484741l-1.8753052-0.5024414l-0.1663208-0.6209106l-1.0755615,0.288147l-21.3273926-5.7146606l8.7503967-5.052124
	l31.209137,8.3619995l0.3982849,0.1079712l1.9194031-7.1639404l-24.4439087-6.5499878l8.7505493-5.052124l31.2091064,8.3621216
	l0.3983154,0.1077881l1.9194031-7.1638794l-24.4440308-6.5500488l8.7503967-5.0519409l31.2100525,8.3619995l0.397644,0.1077881
	l1.9192505-7.1638794l-24.4440308-6.5498657l8.7505493-5.052124l31.2100525,8.3619995l0.3974915,0.1077881l1.9194031-7.1639404
	l-24.4440308-6.5498047l21.0689087-12.1640015l-3.7083435-6.4251709l-21.0704041,12.164978l6.5493164-24.4455566
	l-7.1631165-1.9202271l-8.4702148,31.6104126l-8.749176,5.0512695l6.5498657-24.4453735l-7.1631165-1.9202271l-8.4708862,31.6102905
	l-8.7486267,5.0509033l6.5493164-24.4450073l-7.1632385-1.920105l-8.4700928,31.6097412l-8.7492981,5.0514526l6.5491638-24.4450073
	l-7.1631165-1.920105l-8.4702148,31.6097412l-8.7492981,5.0514526l5.7469482-21.4506226l0.8762512-0.8762207l-0.5059814-0.5059814
	l0.4319458-1.6121826l-2.7926331-0.7486572l-2.3770447-2.3770142l-1.3722229,1.3721924l-0.6212158-0.166626l-0.2884216,1.0762939
	l-15.6143494,15.6143188v-10.1044922l23.1399231-23.1400146l-5.2437134-5.2437134l-17.8962097,17.8960571v-10.1044922
	l23.1399231-23.1398926l-5.2437134-5.2438965l-17.8962097,17.8962402v-10.1046143l23.1399231-23.1399536l-5.2437134-5.2438354
	l-17.8962097,17.8962402v-10.1044922l23.1399231-23.1400757l-5.2437134-5.2437134l-17.8962097,17.8961182v-24.3309937h-7.4166565
	v24.3309937l-17.8953857-17.8961182l-5.243866,5.2437134l23.1392517,23.1399536v10.1044922l-17.8953857-17.8961182
	l-5.243866,5.2438354l23.1392517,23.1399536v10.1044922l-17.8953857-17.8961182l-5.243866,5.2438965l23.1392517,23.1397705
	v10.1046143l-17.8953857-17.8960571l-5.243866,5.2437134l23.1392517,23.1398926v10.1044922l-15.7035217-15.7040405
	l-0.3208313-1.1973877l-0.6912537,0.1854248l-1.1797791-1.1800537l-2.0442505,2.0442505l-3.2478027,0.8706055l0.5022583,1.8748779
	l-0.454071,0.4541016l0.7863159,0.7863159l5.7145081,21.3292847l-8.7494202-5.0515747l-8.4699707-31.6091919l-7.1630859,1.920105
	l6.5490112,24.4442749l-8.7485962-5.0509644l-8.4707642-31.6094971l-7.1631165,1.920105l6.5497131,24.4445801l-8.749176-5.0514526
	l-8.4700623-31.609314l-7.1631165,1.920105l6.5490417,24.4442749l-8.7492981-5.0515747l-8.4699707-31.6088867l-7.1632385,1.9202271
	l6.5490417,24.4438477l-21.0699921-12.164917l-3.7083282,6.4251709l21.0704041,12.1652222l-24.4455261,6.5502319
	l1.9192657,7.1639404l31.6091766-8.4699707l8.7502747,5.052002l-24.4454041,6.5501099l1.9194031,7.1639404l31.6089172-8.4699097
	l8.7501221,5.0519409l-24.4449768,6.5501099l1.9194031,7.1639404l31.6085205-8.4699097l8.7499695,5.0518188l-24.4444275,6.5501099
	l1.9194031,7.1640625l31.6079407-8.4699097l8.7502747,5.0519409l-21.451416,5.7480469l-0.7974243-0.213562l-0.3982849-0.1077881
	l-0.1853027,0.6915283l-1.6117249,0.4317627l0.7479858,2.7921143l-0.8703613,3.2484741l1.8753052,0.5024414l0.1663208,0.6209106
	l1.0755615-0.288147l21.3273926,5.7146606l-8.7504272,5.052124l-31.2091064-8.3619995l-0.3982849-0.1079712l-1.9194031,7.1639404
	l24.4438782,6.5499878l-8.7505493,5.052124l-31.2090759-8.3621216l-0.3983154-0.1077881l-1.9194031,7.1638794l24.4440308,6.5500488
	l-8.7505493,5.0519409l-31.2091064-8.3619995l-0.3984375-0.1077881l-1.9192505,7.1638794l24.4437561,6.5500488l-8.7502747,5.0519409
	l-31.2100677-8.3619995l-0.3974762-0.1077881l-1.9194031,7.1639404l24.4440308,6.5498047l-21.0689087,12.1640015
	l3.7083282,6.4251709l21.0701447-12.1647949l-6.5498657,24.4453735l7.1630859,1.9202271l8.4710693-31.6102905l8.7484741-5.0508423
	l-6.5491638,24.4448242l7.1630859,1.9202271l8.4702148-31.6097412l8.7493286-5.0514526l-6.5493164,24.4450073l7.1632385,1.920105
	l8.4700928-31.6097412l8.7492981-5.0514526l-6.5491638,24.4450073l7.1630859,1.920105l8.4702454-31.6097412l8.7492981-5.0514526
	l-5.7469482,21.4506226l-0.8762512,0.8762207l0.5059814,0.5059814l-0.4319458,1.6121826l2.7926331,0.7486572l2.3770447,2.3770142
	l1.3721924-1.3721924l0.6212158,0.166626l0.2884216-1.0762939l15.6143799-15.6143188v10.1044922l-23.1399231,23.1400146
	l5.2437134,5.2437134l17.8962097-17.8960571v10.1044922l-23.1399231,23.1398926l5.2437134,5.2438965l17.8962097-17.8962402
	v10.1046143l-23.1399231,23.1399536l5.2437134,5.2438354l17.8962097-17.8962402v10.1044922l-23.1399231,23.1400757
	l5.2437134,5.2437134l17.8962097-17.8961182v24.3309937h7.4166565v-24.3309937l17.8953857,17.8961182l5.243866-5.2437134
	l-23.1392517-23.1399536v-10.1044922l17.8953857,17.8961182l5.243866-5.2438354l-23.1392517-23.1399536v-10.1044922
	l17.8953857,17.8961182l5.243866-5.2438965l-23.1392517-23.1397705v-10.1046143l17.8953857,17.8960571l5.243866-5.2437134
	l-23.1392517-23.1398926v-10.1044922l15.7034912,15.7040405l0.3208618,1.1973877l0.6912537-0.1854248l1.1797791,1.1800537
	l2.0442505-2.0442505l3.2478027-0.8706055l-0.5022583-1.8748779l0.454071-0.4541016l-0.7863159-0.7863159l-5.714386-21.3288574
	l8.7484741,5.0510254l8.4707642,31.609314l7.1631165-1.920105l-6.5497131-24.444458l8.7492981,5.0514526l8.4699402,31.6091919
	l7.1631165-1.920105l-6.5490417-24.4442749l8.7492981,5.0515747l8.4699402,31.6088867l7.163269-1.920105l-6.5489197-24.4441528
	l8.7493286,5.0515747l8.4697876,31.6087646l7.1632385-1.9202271l-6.5490112-24.4437256l21.0699768,12.1647949l3.7083435-6.4251709
	L461.664093,713.74646l24.4456787-6.5502319L484.1904907,700.0322876z M369.736969,668.6691895h-6.6782837l-3.3378906-5.78302
	l3.337616-5.7827759h6.6791077l3.3374939,5.7823486L369.736969,668.6691895z M373.8164063,663.0270996l7.5544128-4.3615723
	l16.0846252,4.3095093l-16.2068787,4.3429565L373.8164063,663.0270996z M370.2279968,656.5327148v-8.7228394l11.7754211-11.7753906
	l-4.342865,16.2069702L370.2279968,656.5327148z M362.8113403,656.3920288l-7.5542603-4.3616333l-4.3101807-16.0853271
	l11.8644409,11.8648071V656.3920288z M358.9794006,662.7457886l-7.5539856,4.3612671l-16.0846252-4.3095093l16.2064514-4.3427124
	L358.9794006,662.7457886z M362.5682373,669.2398682v8.7228394l-11.7754211,11.7753906l4.3428345-16.2069702
	L362.5682373,669.2398682z M369.9848938,669.3811035l7.5543823,4.3615112l4.3100281,16.0848999l-11.8644104-11.8648071V669.3811035z
	"/>
<path id="snowflake_34_" style="fill:#1C1C1A;" d="M1273.885376,393.4947815l-2.0111084-7.5026245l-18.8393555,5.0474854
	l-9.1668701-5.2923279l18.8996582-5.0644836l-2.0111084-7.5025024l-26.4018555,7.0745544l-9.0374756-5.2178345l25.7849121-6.9089661
	l-2.0111084-7.5026245l-33.2873535,8.9191589l-8.7519531-5.0529785l30.7023926-8.2272034l-2.0109863-7.5025024
	l-38.204834,10.2372742l-31.5256348-18.2011108l31.6530762-18.2745972l38.2053223,10.236969l2.0112305-7.5024719
	l-30.7033691-8.2270813l8.7526855-5.0531006l33.2875977,8.9191284l2.0111084-7.5026245l-25.7854004-6.9090881l9.0375977-5.2178345
	l26.4020996,7.0746765l2.0112305-7.5025024l-18.8999023-5.0646057l9.166748-5.2922058l18.8380127,5.0475159l2.0111084-7.502655
	l-11.3359375-3.0374451l17.1737061-9.9151917l0.3742676-0.2157593l-3.8839111-6.7261353l-17.546875,10.1305542l3.0373535-11.3358765
	l-7.503418-2.0103455l-5.0474854,18.8388062l-9.1668701,5.2924805l4.9510498-18.4822083l0.112915-0.4172974l-7.5032959-2.0101929
	l-7.0737305,26.4018555l-9.0371094,5.2175293l6.795166-25.3668518l0.112915-0.4172974l-7.5032959-2.0101929l-8.9179688,33.2866211
	l-8.7536621,5.0539856l8.1148682-30.2851563l0.1131592-0.4173279l-7.50354-2.0101929l-10.237793,38.2051086l-31.5238037,18.2001038
	v-36.548645l27.967041-27.9676819l-5.4923096-5.4923096l-22.4747314,22.4739685v-10.1056519l24.3662109-24.36763
	l-5.4923096-5.4922943l-18.8739014,18.8739014V254.9375l19.3273926-19.3280487l-5.4921875-5.4922943l-13.8352051,13.8345947
	v-10.5848236l13.7896729-13.790863l-5.4923096-5.4922943l-8.2973633,8.2974243v-20.260498h-7.7680664v20.2609253
	l-8.2990723-8.2978516l-5.4921875,5.4922943l13.7912598,13.7913055v10.5843811l-13.835083-13.8345947l-5.4923096,5.4922943
	l19.3273926,19.3280487v10.4337769l-18.8756104-18.8743286l-5.4923096,5.4922943l24.3679199,24.3679047v10.1058044
	l-22.4763184-22.4743958l-5.4923096,5.4923096l27.9686279,27.9678345v36.4013367l-31.6525879-18.2744751l-10.2370605-38.2045288
	l-7.50354,2.0103455l8.2260742,30.7010193l-8.7509766-5.0522461l-8.9204102-33.2870789l-7.503418,2.0103455l6.9091797,25.7834473
	l-9.0351563-5.2164001l-7.0749512-26.4022827l-7.5032959,2.0101929l5.0635986,18.8989258l-9.1656494-5.291748l-5.0483398-18.8389587
	l-7.503418,2.0103455l3.0372314,11.3354492l-17.1723633-9.9143372l-0.3743896-0.2157593l-3.8840332,6.7261047l17.5474854,10.1309814
	l-11.3370361,3.0374451l2.0112305,7.5026245l18.8392334-5.0474854l9.1668701,5.2923279l-18.8996582,5.0644836l2.0112305,7.5024719
	l26.4018555-7.0745239l9.0374756,5.2178345l-25.7850342,6.9089355l2.0111084,7.502655l33.2873535-8.9191589l8.7519531,5.0529785
	l-30.7023926,8.2272034l2.0111084,7.5025024l38.2047119-10.2372742l31.5257568,18.2011108l-31.6530762,18.2745972
	l-38.2055664-10.2369995l-2.0111084,7.5025024l30.7032471,8.2270813l-8.7525635,5.0531006l-33.2874756-8.9191589
	l-2.0112305,7.502655l25.7852783,6.9090881l-9.0374756,5.2178345l-26.4020996-7.0746765l-2.0111084,7.5024719l18.8999023,5.0646362
	l-9.166748,5.2922058l-18.8380127-5.0475159l-2.0112305,7.5026245l11.3359375,3.0374756l-17.1737061,9.9151611l-0.3742676,0.2157898
	l3.8840332,6.7261047l17.5467529-10.1305237l-3.0372314,11.3358765l7.5032959,2.0103455l5.0474854-18.8388062l9.1669922-5.2924805
	l-4.9510498,18.4821777l-0.1131592,0.4173279l7.50354,2.0101929l7.0734863-26.4018555l9.0371094-5.2175293l-6.795166,25.3668213
	l-0.112915,0.4173279l7.503418,2.0101929l8.9179688-33.2866211l8.7536621-5.0539856l-8.1149902,30.2851563l-0.112915,0.4173279
	l7.503418,2.0101929l10.237793-38.2051086l31.5239258-18.2001038v36.548645l-27.9671631,27.9676819l5.4923096,5.4923096
	l22.4748535-22.4739685v10.1056519l-24.3662109,24.3676453l5.4921875,5.4922791l18.8740234-18.8739014v10.4333496
	l-19.3275146,19.3280334l5.4923096,5.4923096l13.8352051-13.8345947v10.5848083l-13.7896729,13.790863l5.4921875,5.4923096
	l8.2974854-8.2974243v20.260498h7.7680664v-20.2609253l8.2989502,8.2978516l5.4923096-5.4923096l-13.7912598-13.7912903v-10.5843811
	l13.8349609,13.8345947l5.4923096-5.4923096l-19.3272705-19.3280334v-10.4337769l18.8753662,18.8743286l5.4923096-5.4922791
	l-24.3676758-24.3679199v-10.1053772l22.4746094,22.4739685l5.4923096-5.4923096l-27.9669189-27.9676819v-36.4014893
	l31.6524658,18.2744751l10.2371826,38.2045288l7.503418-2.0103455l-8.2259521-30.7010193l8.7508545,5.0522461l8.9204102,33.2870789
	l7.503418-2.0103455l-6.9090576-25.7834473l9.0351563,5.2164001l7.0748291,26.4022827l7.503418-2.0101929l-5.0635986-18.8989258
	l9.1655273,5.291748l5.0484619,18.8389587l7.503418-2.0103455l-3.0373535-11.3354492l17.1724854,9.9143066l0.3742676,0.2157898
	l3.8839111-6.7261047l-17.5473633-10.1309814L1273.885376,393.4947815z M1154.75,346.7070007l-3.4968262-6.0556335
	l3.4973145-6.0567627h6.9924316l3.4967041,6.0556335l-3.4973145,6.0567627H1154.75z"/>
</svg>
