<?xml version="1.0" encoding="utf-8"?>
<!-- Generator: Adobe Illustrator 23.1.0, SVG Export Plug-In . SVG Version: 6.00 Build 0)  -->
<svg version="1.1" id="Слой_1" xmlns="http://www.w3.org/2000/svg" xmlns:xlink="http://www.w3.org/1999/xlink" x="0px" y="0px"
	 viewBox="0 0 1366 1168.2258301" style="enable-background:new 0 0 1366 1168.2258301;" xml:space="preserve">
<g>
	<path style="fill:#1C1C1C;" d="M998.9625244,854.5080566c10.4950562-13.1843262,27.2438965-31.7283325,26.4781494-49.8260498
		c-0.8704834-20.5883789-19.9421997-42.1889648-34.112854-55.7111206
		c-32.7776489-31.2758179-89.0299683-14.7255249-118.8804932,13.1263428
		c-14.1521606,14.3519287-26.19104,28.9245605-23.7496948,50.2785645
		c2.1490479,18.7955933,16.7907104,57.8995972,33.0883179,69.2122192
		c14.0461426,9.7504272,47.7324219,8.2536011,63.8364258,7.5397339
		C970.4176636,888.0278931,984.0285645,873.2666016,998.9625244,854.5080566z M961.1739502,752.5157471
		c-6.2265625,7.722168-12.3273315,15.5454102-18.6326904,23.2047119
		c-6.4498291,7.8331299-14.4691772,14.3666992-20.9707031,22.0481567c-5.2376709-0.7348022-10.8267822,0.046875-17.069397,0.4673462
		c-11.5814209,0.7780151-23.225708,1.152832-34.781189,2.3032227c2.2477417-9.1635742,6.9761963-18.1668091,14.9327393-26.2366943
		C903.4087524,756.8040161,935.0557251,745.4507446,961.1739502,752.5157471z M917.0282593,870.2174683
		c-26.8186035-4.8789063-46.3872681-27.4992065-48.6904907-52.3832397
		c14.9710083-1.8605957,46.3219604-8.7578735,56.5101929,2.2070313
		c12.031311,12.9475098,16.8510742,33.4544678,27.1415405,48.0357666
		C941.6965332,871.6317139,930.2125244,872.6143799,917.0282593,870.2174683z M967.3894653,860.2537231
		c-0.0875854-0.1331787-0.0802002-0.2613525-0.1762695-0.395752c-11.6776733-16.2051392-17.4110107-37.9832764-30.6594238-53.05896
		c5.9219971-6.3634033,12.6430054-12.1313477,18.192688-18.873291c7.5335083-9.1486816,14.7329102-18.5699463,22.2614746-27.7235718
		c0.0825806-0.0999146,0.0900269-0.2095947,0.1664429-0.3095093c0.6436157,0.4401855,1.3192749,0.8100586,1.9468994,1.28479
		c8.9267578,6.7493286,26.9813232,28.5077515,28.4399414,40.975708
		c1.3464355,11.5222168-9.4039307,24.5733643-15.4664307,32.9884644
		C984.6240845,845.5109863,976.4975586,854.017334,967.3894653,860.2537231z"/>
	<path style="fill:#1C1C1C;" d="M1095.6036377,932.9171143c-32.4003906-15.5479126-89.2050781-18.3209229-112.8314819,14.5294189
		c-11.6899414,16.2544556-24.7692871,46.7140503-21.3861084,67.1691895
		c3.348877,20.2381592,24.4857788,33.0366211,40.3728027,43.894165
		c19.4885254,13.3199463,37.6096802,23.914917,61.3174438,17.3875732
		c15.9732666-4.3980713,47.7879639-12.2176514,58.7578125-25.9949951
		c12.6799316-15.9227295,14.9116211-57.9785156,10.9476318-77.1415405
		C1128.5587158,952.3587646,1113.0046387,942.0633545,1095.6036377,932.9171143z M1086.8913574,947.8214111
		c8.9564209,4.7075195,16.1102295,12.1904907,21.2282715,21.0235596
		c-10.3681641,2.2008667-20.6340332,4.9886475-30.9232178,7.4977417
		c-6.4769287,1.5806885-12.8391113,2.4968262-18.2246094,5.0577393c-8.4941406-5.2574463-17.9091797-9.1314697-26.3439941-14.644165
		c-8.5384521-5.5792236-16.9213867-11.3927612-25.4093628-17.0484619
		C1030.2320557,935.364563,1064.8135986,937.2276001,1086.8913574,947.8214111z M978.2717285,1011.6060181
		c-2.5374756-12.7588501,7.6469727-39.0337524,15.7489014-50.1651001c0.2046509,0.1578369,0.2946777,0.3649292,0.5203247,0.5129395
		c9.8651123,6.4570923,19.5020752,13.2582397,29.3745728,19.7079468
		c7.4915771,4.8961792,15.7636719,8.4915771,23.4797363,12.9081421c-7.862793,18.4035034-6.8961182,40.5072021-13.291626,59.3939209
		c-0.0974121,0.2873535-0.0319824,0.5167236-0.0997314,0.7952881c-8.1623535-2.4104004-16.1139526-6.0526123-23.5328369-11.1535645
		C1001.3618164,1037.3408203,980.9127808,1024.8765869,978.2717285,1011.6060181z M1094.725708,1045.5142822
		c-13.7749023,9.2325439-28.8566895,13.057251-43.7597656,12.2718506
		c5.6236572-17.324585,4.2784424-37.9277344,11.670166-54.4324341c4.0418701-9.024231,13.8537598-9.0574951,22.7041016-11.2423706
		c9.7727051-2.4129028,19.5255127-5.0773926,29.3968506-7.0859375
		C1120.4605713,1006.9379883,1115.1341553,1031.8331299,1094.725708,1045.5142822z"/>
	<path style="fill:#1C1C1C;" d="M1075.4776611,792.3916016c16.1828613,2.182373,30.8972168-9.5444946,33.9526367-25.2736816
		c3.2020264-16.4849854-6.2167969-27.4141235-20.7856445-33.2005005c-1.6251221-0.6448364-3.0393066-0.6411743-4.3413086-0.387146
		c-16.1903076-1.0246582-33.1326904,6.5113525-36.8822021,23.7102051
		C1043.7615967,774.0201416,1059.5327148,790.2424927,1075.4776611,792.3916016z M1064.6988525,759.3353271
		c2.6619873-8.1795654,12.2016602-9.1549072,19.6439209-8.6246948c5.9614258,2.446228,9.5765381,6.2130127,8.223999,13.0745239
		c-1.3723145,6.9651489-7.4804688,12.4815063-14.7749023,11.4901733
		C1070.8649902,774.3345947,1062.2353516,766.9083252,1064.6988525,759.3353271z"/>
	<path style="fill:#1C1C1C;" d="M1135.4770508,827.8485107c-1.6262207-0.6448975-3.0393066-0.6411743-4.3414307-0.387207
		c-16.1889648-1.0245972-33.1326904,6.5101929-36.8834229,23.7102661
		c-3.6582031,16.7808838,12.112915,33.0020142,28.0565186,35.151123
		c16.1829834,2.182373,30.8973389-9.5445557,33.9526367-25.2736816
		C1159.463501,844.5652466,1150.0458984,833.6348877,1135.4770508,827.8485107z M1139.399292,857.7162476
		c-1.3724365,6.9663696-7.4819336,12.4815063-14.7762451,11.491394
		c-6.9256592-0.9407349-15.5551758-8.3682251-13.0917969-15.9400024c2.6619873-8.1808472,12.2016602-9.1561279,19.644043-8.6259155
		C1137.1365967,847.0891724,1140.751709,850.8547363,1139.399292,857.7162476z"/>
	<path style="fill:#1C1C1C;" d="M912.5328369,953.4105225c-1.6263428-0.6448975-3.0405884-0.6411743-4.3424683-0.3859253
		c-16.1890869-1.0246582-33.1328125,6.5101318-36.8823242,23.7089844
		c-3.6581421,16.7808838,12.112793,33.0032349,28.0565186,35.1523438
		c16.1828613,2.1811523,30.8972778-9.5457764,33.9526367-25.2749023
		C936.5192261,970.1272583,927.1005249,959.1968994,912.5328369,953.4105225z M916.4549561,983.2782593
		c-1.3722534,6.9663696-7.4805298,12.4815063-14.776062,11.491394c-6.9244385-0.9407349-15.5553589-8.3670044-13.0918579-15.9400024
		c2.6621094-8.1795654,12.2003784-9.1549072,19.6426392-8.6259155
		C914.1911621,972.6511841,917.8062744,976.416748,916.4549561,983.2782593z"/>
	<path style="fill:#1C1C1C;" d="M1233.1970215,522.1563721c3.0787354,3.1218872,9.1943359,3.5485229,12.2053223,0
		c10.2608643-12.0857239,20.6807861-24.1270142,29.9503174-37.0005798c2.348877-3.2624817,0.9815674-7.7197266-1.3500977-10.4594116
		c-27.8554688-32.7455444-110.7994385-151.396698-147.1046143-62.1521912
		c-12.329834,30.3067322-17.6428223,65.5256348-25.9099121,97.0949097
		c-3.7198486,14.2039795-7.4250488,28.4141235-11.0906982,42.6340942
		c-102.3412476-0.225647-204.6800537-2.774231-307.0471802-2.8876343c-1.4746094-0.0025024-2.7224121,0.331665-3.8062134,0.8569336
		c-2.9776611,1.0073242-5.2130127,3.5842285-4.824646,7.7739258
		c11.9304199,128.8713379,26.7791748,257.5269165,47.3378906,385.3280029
		c5.3770142,33.4310913,11.1362915,66.8017578,17.4232788,100.0737915
		c3.2969971,17.4528809,2.9494019,47.3267822,15.4936523,61.0671387
		c9.5568848,10.4692383,26.2391357,8.4434814,38.9388428,8.8331299c34.206604,1.0493164,68.3134766,2.0541992,102.543457,1.9246826
		c30.1538086-0.1134033,60.3039551-0.6522217,90.456543-0.9111328c16.9868164-0.1455078,44.9829102,3.7630615,60.8365479-4.4770508
		c33.6419678-17.486084,29.5854492-83.7305908,34.6702881-115.817688
		c22.8631592-144.2651367,45.7263184-288.5302734,68.5882568-432.7954102
		c0.8372803-5.2783813-2.1983643-11.1251831-8.3226318-10.925415c-28.5286865,0.9296265-57.0561523,1.3956909-85.5849609,1.6854858
		c7.1981201-27.8407593,14.9893799-55.5150757,23.7324219-82.9094849
		C1198.043457,486.6908569,1215.6640625,504.3816833,1233.1970215,522.1563721z M1075.6502686,684.4649658
		c8.4976807-38.4752197,17.902832-76.7445679,27.6644287-114.920166c10.3360596,0,20.6708984,0.0037231,31.006958-0.0542603
		c-9.6394043,38.7255249-18.4921875,77.6655884-27.7913818,116.4354858
		C1096.2595215,685.8335571,1085.965332,685.3267822,1075.6502686,684.4649658z M1058.3613281,682.7055054
		c-22.6558838-2.6287231-45.3885498-6.5348511-68.1432495-10.6653442
		c-65.0582886-11.8082275-123.041748-13.5455322-186.7191162,4.5213623
		c-3.9763794-36.5974121-7.7369995-73.2157593-11.1671753-109.8661499
		c97.7422485,0.2527466,195.4622803,2.5571899,293.182251,2.8370972
		C1075.9301758,607.1286011,1066.6827393,644.8109741,1058.3613281,682.7055054z M1178.4649658,906.2180786
		c-4.3968506,27.7433472-8.7937012,55.4866943-13.1904297,83.2300415
		c-4.0750732,25.71875-3.9035645,58.9920654-13.189209,83.2299805
		c-11.5444336,30.1303711-38.6700439,24.1590576-65.6723633,24.3920898
		c-27.6052246,0.2380371-55.2067871,0.7041016-82.8120728,0.8643799
		c-25.9949341,0.1516113-51.9887085,0.0592041-77.9750366-0.6633301
		c-12.1276245-0.3366699-28.5939941,2.0405273-40.3505859-1.6077881
		c-23.9864502-7.4436035-21.5709229-15.2249756-25.2909546-34.2054443
		c-10.5259399-53.7173462-19.6845703-107.6973267-27.8949585-161.814209
		c-10.3768311-68.3873291-19.0200195-137.013916-26.6780396-205.7526855
		c85.3778687-24.829834,158.0054321-5.4744873,243.0801392,6.1981812
		c55.6899414,7.6408081,112.682251,4.6212158,165.140625-15.776001
		C1201.9089355,758.2811279,1190.1868896,832.2502441,1178.4649658,906.2180786z M1232.0922852,567.8247681
		c-5.1181641,32.2967529-10.2362061,64.5947266-15.3543701,96.8914795
		c-30.4250488,13.5702515-61.2767334,19.4946899-92.3909912,20.864563
		c9.2509766-38.7341919,18.1322021-77.6138306,27.8260498-116.2714844
		C1178.8126221,569.0651855,1205.4525146,568.6114502,1232.0922852,567.8247681z M1138.7358398,552.1831665
		c-10.3311768,0.0665894-20.6623535,0.0961914-30.9923096,0.102356c2.8149414-10.9020386,5.6384277-21.8028564,8.4853516-32.696228
		c8.1303711-31.1056824,11.6098633-75.9702454,28.190918-104.0501709
		c21.6807861-36.71698,47.4735107-5.3955383,66.3641357,14.356842
		c9.7182617,10.1622314,46.0308838,40.9078979,45.0161133,53.1588135
		c-0.5178223,6.2660217-14.1916504,14.6897583-17.4442139,20.7313538c-0.4093018-0.7373047-0.7027588-1.3427124-1.2650146-2.252655
		c-12.4211426-20.087738-37.6984863-38.063385-54.5606689-54.6950989
		c-4.8037109-4.7383423-12.3927002-2.2908936-14.4259033,3.8086853
		C1156.9543457,484.0954285,1147.4849854,518.0394287,1138.7358398,552.1831665z"/>
	<path style="fill:#1C1C1C;" d="M812.2814941,622.6185303c2.4017944,10.4779053,4.1588135,21.0926514,5.9331055,31.6913452
		c1.8284912,10.9328613,18.4663696,6.296875,16.6439819-4.5878906c-1.9949341-11.9204712-3.9750977-23.8668823-6.8578491-35.6134644
		c-0.4265747-1.7422485-2.4807129-6.1205444-2.0516357-7.7912598c-0.3452759-0.3661499-0.6917114-0.7335815-1.0369263-1.0997925
		c1.6065674-0.1257935,3.2155762-0.2515259,4.8234863-0.3760986c6.7197876-0.3328857,13.388855,0.1516724,20.0518799,0.9728394
		c10.9994507,1.3538208,10.9008179-15.9202881,0-17.2630005c-12.0744629-1.4857178-38.1262817-5.4053955-41.4109497,11.8144531
		C807.0092163,607.5366821,810.7020264,615.7298584,812.2814941,622.6185303z"/>
	<path style="fill:#1C1C1C;" d="M876.5629883,608.0582275c11.1067505,0,11.1252441-17.2629395,0-17.2629395
		C865.4552002,590.7952881,865.4378052,608.0582275,876.5629883,608.0582275z"/>
</g>
<g id="snowflake_9_">
	
		<ellipse transform="matrix(0.9870875 -0.1601819 0.1601819 0.9870875 -24.252079 43.9933472)" style="fill:#1C1C1C;" cx="260.7470093" cy="172.4225769" rx="11.9320936" ry="11.9319973"/>
	<path style="fill:#1C1C1C;" d="M344.2302246,209.5961761l-2.4620972-4.8058014l-10.3638916,5.308609l-5.4474182-3.1450043
		l11.8912964-6.0912018l-2.4620667-4.8058014l-14.9975281,7.6822968l-6.3710938-3.6781921l16.5252991-8.4654999
		l-2.4620972-4.8058014l-19.6322937,10.0559998l-9.5748901-5.5278931l-9.696106-16.7953033h10.3388062l12.3163757,12.316391
		l2.9695435-2.9694977l-9.3468323-9.3468933h3.6010132l8.6063843,8.6067963l2.9695129-2.9694977l-5.6368103-5.6372986h8.6098938
		v-4.1999969h-8.6098938l5.6368103-5.6372986l-2.9695129-2.9695129l-8.6063843,8.6068115h-3.6010132l9.3468323-9.3469086
		l-2.9695435-2.9694977l-12.3163757,12.3164063h-10.9342041l9.3984985-16.2798004l10.4678955-6.0434113l19.6322937,10.0559998
		l2.4620972-4.8057861l-16.5252991-8.4654999l6.3710938-3.6782074l14.9975281,7.6822968l2.4620667-4.8058014l-11.8912964-6.0912018
		l5.4474182-3.144989l10.3638916,5.3085938l2.4620972-4.8058014l-7.2576904-3.7174988l10.6022034-6.1209946l-2.7000122-4.6758041
		l-10.6019897,6.120903l0.4101868-8.144104l-5.3930054-0.2713013l-0.5858765,11.6304092l-5.446991,3.1446991l0.6715698-13.3443069
		l-5.3930054-0.2713013l-0.8476868,16.8308029l-6.3702087,3.6777039l0.9320068-18.5444031l-5.394104-0.2706985
		l-1.1069946,22.0304031l-10.4683838,6.0435944h-18.7973022l5.4676819-9.4700012l16.8249207-4.5074921l-1.0887146-4.0565033
		l-12.7666016,3.4205933l1.800293-3.118103l11.7573242-3.1501007l-1.088623-4.0564957l-7.6990051,2.0631027l4.3052063-7.4565964
		l-3.6374817-2.1000061l-4.3052063,7.456604l-2.0628052-7.6997986l-4.058197,1.0868988l3.1510925,11.756691l-1.8005981,3.1186066
		l-3.4199829-12.7687988l-4.058197,1.0868988l4.5084839,16.8255005l-5.1691895,8.9530029l-9.6962891-16.7946014v-11.0567017
		l18.5249939-11.9745026l-2.9321289-4.5345001L263.447052,112.46978v-7.3563995l14.1526794-9.1473999l-2.9320068-4.535202
		l-11.2206726,7.2525024v-6.2897034l9.7792664-6.3218002l-2.9320984-4.5350952l-6.847168,4.4266968V73.72258h-5.3999939v12.240799
		l-6.8473206-4.4266968l-2.9320068,4.5350952l9.7793274,6.3218002v6.2897034l-11.2207336-7.2525024l-2.9320984,4.535202
		l14.152832,9.1473999v7.3563995l-15.5930023-10.0790024l-2.9320068,4.5345001l18.5250092,11.9745026v12.0877991
		l-9.3987274,16.2790985l-5.4676056-9.4698944l4.4307098-16.5342026l0.0784912-0.2900009l-4.058197-1.0868988l-3.4206848,12.7675934
		l-1.7999115-3.1174011l3.1510925-11.756691l-4.0581665-1.0868988l-2.0627289,7.6997986l-4.3052826-7.456604l-3.6375122,2.1000061
		l4.305191,7.4565964l-7.6988983-2.0631027l-1.0886993,4.0564957l11.7574005,3.1501007l1.8005219,3.1184998l-12.7681274-3.42099
		l-1.0885925,4.0565033l16.8262939,4.5078888l5.4674225,9.4696045h-18.7973175l-10.4685974-6.0437927l-1.1067047-22.0302048
		l-5.3941956,0.2706985l0.9319916,18.5444031l-6.3704987-3.6779022l-0.8473969-16.8306046l-5.3929901,0.2713013
		l0.6717072,13.3443069l-5.447113-3.1446991l-0.5858765-11.6304092l-5.3930054,0.2713013l0.4101868,8.144104l-10.602005-6.120903
		l-2.6999969,4.6758041l10.6022034,6.1209946l-7.2575989,3.7174988l2.4620972,4.8058014l10.3638-5.3085938l5.4474945,3.144989
		l-11.8914032,6.0912018l2.4620972,4.8058014l14.9975128-7.6822968l6.3710938,3.6782074l-16.5252075,8.4654999l2.4621124,4.8057861
		l19.6321869-10.0559998l9.5749054,5.5279083l9.696106,16.7953033H221.977829l-12.316391-12.3164063l-2.9695129,2.9694977
		l9.3469086,9.3469086h-3.6011047l-8.6063995-8.6068115l-2.9694977,2.9695129l5.6369019,5.6372986h-8.6099091v4.1999969h8.6099091
		l-5.6369019,5.6372986l2.9694977,2.9694977l8.6063995-8.6067963h3.6011047l-9.3469086,9.3468933l2.9695129,2.9694977
		l12.316391-12.316391h10.9342194l-9.3985138,16.2798004l-10.4679108,6.043396l-19.6321869-10.0559998l-2.4621124,4.8058014
		l16.5252075,8.4654999l-6.3710938,3.6781921l-14.9975128-7.6822968l-2.4620972,4.8058014l11.8914032,6.0912018
		l-5.4474945,3.1450043l-10.3638-5.308609l-2.4620972,4.8058014l7.2575989,3.7174988l-10.6022034,6.1210022l2.6999969,4.6757965
		l10.602005-6.1208954l-0.4101868,8.144104l5.3930054,0.2713013l0.5858765-11.6304016l5.447113-3.1446991l-0.6717072,13.3442993
		l5.3929901,0.2713013l0.8477173-16.8307953l6.3701782-3.6777039l-0.9319916,18.5444031l5.3941956,0.2706909l1.1070099-22.0303955
		l10.4682922-6.0436096h18.7973175l-5.4674225,9.4696045l-16.8251953,4.5079041l1.0886993,4.0565033l12.7667999-3.4208984
		l-1.8003998,3.1183929l-11.7574005,3.1501007l1.0886993,4.0565033l7.6988983-2.0631104l-4.305191,7.456604l3.6375122,2.1000061
		l4.3052826-7.456604l2.0627289,7.6997986l4.0581665-1.0868988l-3.1510925-11.7566986l1.7999115-3.1174011l3.4206848,12.7676086
		l4.058197-1.0869141l-4.5090942-16.824295l5.1697998-8.9541931l9.6964264,16.7946014v11.0566864l-18.5250092,11.9745026
		l2.9320068,4.5345001l15.5930023-10.0789948v7.3563995l-14.152832,9.1473999l2.9320984,4.535202l11.2207336-7.2525024v6.2897034
		l-9.7793274,6.3217926l2.9320068,4.5350952l6.8473206-4.4266968v12.2408142h5.3999939v-12.2408142l6.847168,4.4266968
		l2.9320984-4.5350952l-9.7792664-6.3217926v-6.2897034l11.2206726,7.2525024l2.9320068-4.535202l-14.1526794-9.1473999v-7.3563995
		l15.592865,10.0789948l2.9321289-4.5345001l-18.5249939-11.9745026v-12.0877991l9.3985901-16.2790985l5.4675903,9.4699097
		l-4.4306946,16.5341949l-0.0784912,0.2899933l4.058197,1.0869141l3.4206848-12.7676086l1.7998962,3.1174011l-3.1510925,11.7566986
		l4.058197,1.0868988l2.0628052-7.6997986l4.3052063,7.456604l3.6374817-2.1000061l-4.3052063-7.456604l7.6990051,2.0631104
		l1.088623-4.0565033l-11.7573242-3.1501007l-1.8004761-3.1183929l12.7667847,3.4208984l1.0887146-4.0565033l-16.8251038-4.5079041
		l-5.4674988-9.4696045h18.7973022l10.468689,6.043808l1.1066895,22.0301971l5.394104-0.2706909l-0.9320068-18.5444031
		l6.3705139,3.6779022l0.8473816,16.8305969l5.3930054-0.2713013l-0.6715698-13.3442993l5.446991,3.1446991l0.5858765,11.6304016
		l5.3930054-0.2713013l-0.4101868-8.144104l10.6019897,6.1208954l2.7000122-4.6757965l-10.6022034-6.1210022
		L344.2302246,209.5961761z M291.9235229,190.0780792h-20.9823914l-10.4917908,18.1716003l-10.491806-18.1716003h-19.7918091
		l9.8977051-17.1398926l-10.4929962-18.1711121h20.9823914l10.4917908-18.1716003l10.4918213,18.1716003h19.7917786
		l-9.897583,17.1399078L291.9235229,190.0780792z"/>
</g>
<path id="snowflake_34_" style="fill:#1C1C1C;" d="M754.0562134,1046.864624l-1.7904053-6.6794434l-16.7723389,4.4937744
	l-8.1610718-4.711792l16.8259888-4.5087891l-1.7904053-6.6793213l-23.505127,6.2983398l-8.0459595-4.6453857l22.9558105-6.1508789
	l-1.7904053-6.6794434l-29.6351318,7.9405518l-7.791748-4.4985352l27.3338623-7.324585l-1.7904053-6.6793213l-34.0130615,9.1140747
	L658.019104,999.949707l28.1801758-16.2695313l34.0135498,9.1138306l1.7905884-6.6793823l-27.3346558-7.3244019l7.7922363-4.4987183
	l29.635437,7.9406128l1.7904053-6.6795044l-22.9561768-6.151062l8.0459595-4.6453247l23.5053101,6.2984619l1.7905884-6.6793213
	l-16.8262939-4.5089722l8.1609497-4.7115479l16.7712402,4.4937134l1.7904053-6.6794434l-10.0921631-2.7041626l15.2894897-8.8273315
	l0.3331909-0.1921387l-3.4578247-5.9880981l-15.6217041,9.0189819l2.7041016-10.0921021l-6.6801147-1.7897949l-4.4937134,16.7718506
	l-8.1610718,4.711853l4.4078979-16.4544067l0.1005249-0.371521l-6.6801147-1.7896118l-6.2975464,23.5050659l-8.0455933,4.6450806
	l6.0496216-22.5836182l0.1005249-0.371521l-6.6801147-1.7896729l-7.9395142,29.6345215l-7.7931519,4.4994507l7.2244873-26.9623413
	l0.100708-0.371521l-6.6802368-1.7896118l-9.114563,34.0133057l-28.0650635,16.2032471v-32.5386353l24.8984985-24.8991699
	l-4.8897095-4.8896484l-20.0087891,20.0081787v-8.9968872l21.6928101-21.6940918l-4.8897095-4.8897095l-16.8031006,16.8031006
	v-9.2886353l17.2067871-17.2073975l-4.8895874-4.8897095l-12.3171997,12.3167114v-9.4234619l12.2766724-12.277771
	l-4.8897095-4.8897095l-7.3869629,7.387085v-18.0375977h-6.9157715v18.0379639l-7.3885498-7.3874512l-4.8895264,4.8897095
	l12.2780762,12.2781372v9.4230957l-12.3171997-12.3167114l-4.8896484,4.8897095l17.2068481,17.2073975v9.2890625
	l-16.8046265-16.8035278l-4.8896484,4.8897095l21.6942749,21.6943359v8.9970093l-20.0103149-20.0085449l-4.8897095,4.8896484
	l24.9000244,24.899292v32.4074707l-28.1797485-16.2694092l-9.1139526-34.0128174l-6.6801758,1.7897339l7.3234863,27.3325806
	l-7.7908325-4.4979248l-7.9417114-29.6348877l-6.6801147,1.7897949l6.151062,22.9545288l-8.0438232-4.644043l-6.298645-23.5054932
	l-6.6801147,1.7896118l4.5080566,16.8253784l-8.1599731-4.7111206l-4.4945068-16.7719727l-6.6801758,1.7897339l2.7040405,10.0917358
	l-15.2883301-8.8265381l-0.3331909-0.1920776l-3.4578857,5.9880981l15.6221313,9.0194702l-10.0931396,2.7041626l1.7905884,6.6794434
	l16.7722168-4.4936523l8.1610718,4.7116699l-16.8260498,4.5087891l1.7905884,6.6793213l23.5050659-6.2982788l8.0459595,4.6453247
	l-22.9559326,6.1508789l1.7904053,6.6795044l29.6351929-7.9405518l7.791748,4.4985352l-27.3339233,7.3245239l1.7905884,6.6793823
	l34.0129395-9.1140747l28.0667725,16.2041016l-28.1801147,16.2695923l-34.0137329-9.1138306l-1.7905273,6.6793213
	l27.3346558,7.3244629l-7.7922974,4.4987183l-29.6352539-7.9406128l-1.7905273,6.6795044l22.9561768,6.151001l-8.0459595,4.6453857
	l-23.5053711-6.2984619l-1.7904053,6.6793213l16.8262939,4.5089111l-8.1610107,4.7115479l-16.7711792-4.4936523
	l-1.7905273,6.6794434l10.0921021,2.7042236l-15.2894287,8.8272705l-0.3331299,0.1921387l3.4578857,5.9881592l15.621521-9.019043
	l-2.7040405,10.092041l6.6801147,1.7897949l4.4937134-16.7718506l8.1611938-4.711792l-4.4078979,16.4543457l-0.100647,0.371582
	l6.6802368,1.7896729l6.2974243-23.505127l8.0455933-4.6451416l-6.0496216,22.5836182l-0.1005249,0.371582l6.6800537,1.7896729
	l7.9395752-29.6345215l7.7932739-4.4995117l-7.2246704,26.9624023l-0.1005249,0.37146l6.6801147,1.7896729l9.114624-34.0133057
	l28.0651245-16.2032471v32.5385742l-24.8986816,24.8991699l4.8897095,4.8896484l20.0089722-20.0080566v8.9968262
	l-21.6928101,21.6940918l4.8895264,4.8896484l16.8032837-16.8031006v9.2886963l-17.2069092,17.2073975l4.8896484,4.8896484
	l12.3172607-12.3166504v9.4234619l-12.2767334,12.27771l4.8897095,4.8897705l7.3870239-7.387085v18.0375977h6.9157715v-18.0379639
	l7.3884277,7.3874512l4.8896484-4.8897705l-12.2780762-12.2780762v-9.4230957l12.3170166,12.3166504l4.8897095-4.8896484
	l-17.2067261-17.2073975v-9.2890625l16.8044434,16.8034668l4.8897095-4.8896484l-21.6941528-21.6943359v-8.996582
	l20.008728,20.0080566l4.8897095-4.8896484l-24.8984375-24.8991699V1005.87323l28.1795654,16.2694092l9.1140747,34.0128784
	l6.6801147-1.7897949l-7.3234253-27.3326416l7.7907715,4.4979248l7.9417114,29.6348877l6.6801147-1.7897949l-6.151062-22.9544678
	l8.0438843,4.644043l6.298645,23.5054932l6.6801147-1.7896729l-4.5080566-16.8253174l8.1599121,4.7111816l4.4946289,16.7719727
	l6.6801147-1.7897949l-2.7041016-10.0917969l15.2883911,8.8265381l0.3331299,0.1921387l3.4578857-5.9881592l-15.6221924-9.0194092
	L754.0562134,1046.864624z M647.9921875,1005.2103271l-3.1132813-5.3912354l3.1136475-5.3922119h6.2252197l3.1130981,5.3911743
	l-3.1136475,5.3922729H647.9921875z"/>
<g>
	<g>
		<g>
			
				<ellipse transform="matrix(0.9962397 -0.0866402 0.0866402 0.9962397 -31.7058487 43.5527534)" style="fill:#1C1C1C;" cx="485.887085" cy="387.0367126" rx="3.3816149" ry="3.3815212"/>
			<path style="fill:#1C1C1C;" d="M488.0622559,634.2959595c1.4300842,1.2012939,1.6154175,3.3342285,0.4139709,4.7643433
				c-1.2012634,1.4298706-3.3342285,1.6152344-4.7643127,0.4139404c-1.4299011-1.2014771-1.6152344-3.3344116-0.4139709-4.7642822
				C484.4994202,633.2798462,486.6324158,633.0945435,488.0622559,634.2959595z"/>
			<path style="fill:#1C1C1C;" d="M363.1381836,505.9900513c1.4298706,1.2012634,1.6152039,3.3344116,0.4139404,4.7643127
				c-1.2012939,1.4299011-3.3344116,1.6152039-4.7643127,0.4139404s-1.6152344-3.3344116-0.4139709-4.7643127
				C359.5751343,504.9740906,361.708252,504.7887573,363.1381836,505.9900513z"/>
			
				<ellipse transform="matrix(0.9962513 -0.0865066 0.0865066 0.9962513 -40.6544647 33.3391266)" style="fill:#1C1C1C;" cx="364.3446045" cy="485.7469177" rx="3.3815017" ry="3.3816345"/>
			<path style="fill:#1C1C1C;" d="M367.6478882,536.0634155c0.3994751,1.8243408-0.7554626,3.6272583-2.579834,4.0267334
				c-1.8243103,0.3996582-3.6270752-0.7554932-4.0267029-2.579834c-0.3994751-1.8242188,0.7554626-3.6270752,2.5798645-4.0267334
				C365.4455261,533.0841064,367.2484131,534.2390137,367.6478882,536.0634155z"/>
			<path style="fill:#1C1C1C;" d="M378.1221619,564.8165283c0.3996277,1.8243408-0.7554932,3.6272583-2.579834,4.0267334
				c-1.8241882,0.3996582-3.6270752-0.7554932-4.0267334-2.579834c-0.3994751-1.8243408,0.7554626-3.6270752,2.5798645-4.0267334
				C375.9197693,561.8372192,377.7226868,562.9921875,378.1221619,564.8165283z"/>
			<path style="fill:#1C1C1C;" d="M396.0972595,593.7675171c0.3994751,1.8243408-0.7554626,3.6272583-2.579834,4.0267334
				c-1.8243713,0.3996582-3.6272583-0.7554932-4.0267334-2.579834c-0.3996582-1.8244019,0.7554626-3.6270752,2.579834-4.0267334
				C393.8948975,590.788208,395.6976013,591.9431152,396.0972595,593.7675171z"/>
			<path style="fill:#1C1C1C;" d="M421.8848572,615.1437378c0.3994751,1.8243408-0.7554932,3.6270752-2.579834,4.0267334
				c-1.8243713,0.3994751-3.6272583-0.7554932-4.0267334-2.579834c-0.3996582-1.8243408,0.7554626-3.6270752,2.579834-4.0267334
				C419.6824951,612.1644287,421.485199,613.319397,421.8848572,615.1437378z"/>
			<path style="fill:#1C1C1C;" d="M453.0498047,629.8375854c0.3996582,1.8243408-0.7554626,3.6270752-2.579834,4.0267334
				c-1.8241577,0.3994751-3.6270752-0.7554932-4.0267029-2.579834c-0.3994751-1.8244019,0.7554932-3.6272583,2.579834-4.0267334
				C450.8474426,626.8580933,452.6503601,628.0131836,453.0498047,629.8375854z"/>
			<path style="fill:#1C1C1C;" d="M373.6118774,459.0122681c1.4299316,1.2012634,1.6152344,3.3344116,0.4139404,4.7643127
				c-1.2012634,1.4299011-3.3343811,1.6152344-4.7642822,0.4139404c-1.4299011-1.2012634-1.6152039-3.3344116-0.4139709-4.7643127
				C370.0488586,457.9963074,372.1819763,457.8109741,373.6118774,459.0122681z"/>
			<path style="fill:#1C1C1C;" d="M385.9516296,437.1803894c1.4299011,1.2012634,1.6152344,3.3343811,0.4139709,4.7642822
				c-1.2014465,1.4299011-3.3343811,1.6152344-4.7643127,0.4139709c-1.4299011-1.2012634-1.6152344-3.3344116-0.4139709-4.7643127
				C382.3886108,436.1644287,384.5217285,435.9790955,385.9516296,437.1803894z"/>
			
				<ellipse transform="matrix(0.9961975 -0.087124 0.087124 0.9961975 -35.2498093 36.3417892)" style="fill:#1C1C1C;" cx="398.7091064" cy="421.9951172" rx="3.3815746" ry="3.3815615"/>
			<path style="fill:#1C1C1C;" d="M420.7567444,402.8953247c1.4299011,1.2012634,1.6152344,3.3343811,0.4139709,4.7642822
				c-1.201416,1.4299011-3.3344116,1.6152344-4.7643127,0.4139709s-1.6152344-3.3344116-0.4139404-4.7643127
				C417.1936951,401.879364,419.3268433,401.6940308,420.7567444,402.8953247z"/>
			
				<ellipse transform="matrix(0.9962397 -0.0866397 0.0866397 0.9962397 -32.5677223 39.6559029)" style="fill:#1C1C1C;" cx="440.5662231" cy="395.0196838" rx="3.3816152" ry="3.381521"/>
			
				<ellipse transform="matrix(0.9962397 -0.0866399 0.0866399 0.9962397 -31.9599056 41.5966339)" style="fill:#1C1C1C;" cx="463.2265625" cy="388.9866638" rx="3.3816149" ry="3.381521"/>
		</g>
		<g>
			
				<ellipse transform="matrix(0.0866251 -0.996241 0.996241 0.0866251 51.8300629 1073.6906738)" style="fill:#1C1C1C;" cx="611.4657593" cy="508.5791931" rx="3.38151" ry="3.3816259"/>
			<path style="fill:#1C1C1C;" d="M605.9089355,483.1577759c-1.4298706,1.2012939-1.6152344,3.3342285-0.4138794,4.7643127
				c1.201416,1.4299011,3.3343506,1.6152344,4.7642822,0.4139709c1.4298706-1.2014465,1.6152344-3.3344116,0.4139404-4.7643127
				C609.4719849,482.1416626,607.3388672,481.9563293,605.9089355,483.1577759z"/>
			<path style="fill:#1C1C1C;" d="M604.7808838,536.0634155c-0.3994751,1.8243408,0.7554321,3.6272583,2.579834,4.0267334
				c1.8243408,0.3996582,3.6272583-0.7554932,4.0266724-2.579834c0.3996582-1.8242188-0.7554321-3.6270752-2.5797729-4.0267334
				C606.9832153,533.0841064,605.180481,534.2390137,604.7808838,536.0634155z"/>
			<path style="fill:#1C1C1C;" d="M594.3065796,564.8165283c-0.3994141,1.8243408,0.7554932,3.6272583,2.579834,4.0267334
				c1.8244019,0.3996582,3.6270752-0.7554932,4.0267334-2.579834c0.3994751-1.8243408-0.7554321-3.6270752-2.579834-4.0267334
				C596.5089722,561.8372192,594.7060547,562.9921875,594.3065796,564.8165283z"/>
			<path style="fill:#1C1C1C;" d="M576.3317261,593.7675171c-0.3997192,1.8243408,0.7554321,3.6272583,2.5797729,4.0267334
				c1.8242188,0.3996582,3.6270752-0.7554932,4.0267944-2.579834c0.3994141-1.8244019-0.7554932-3.6270752-2.579895-4.0267334
				C578.5340576,590.788208,576.7311401,591.9431152,576.3317261,593.7675171z"/>
			<path style="fill:#1C1C1C;" d="M550.5441284,615.1437378c-0.3997192,1.8243408,0.7554321,3.6270752,2.5797729,4.0267334
				c1.8242188,0.3994751,3.6270752-0.7554932,4.0267944-2.579834c0.3994141-1.8243408-0.7554932-3.6270752-2.579895-4.0267334
				C552.74646,612.1644287,550.9435425,613.319397,550.5441284,615.1437378z"/>
			<path style="fill:#1C1C1C;" d="M519.3789673,629.8375854c-0.3994751,1.8243408,0.7554321,3.6270752,2.579834,4.0267334
				c1.8243408,0.3994751,3.6270752-0.7554932,4.0267334-2.579834c0.3994141-1.8244019-0.7554932-3.6272583-2.579895-4.0267334
				C521.5812988,626.8580933,519.7783813,628.0131836,519.3789673,629.8375854z"/>
			
				<ellipse transform="matrix(0.0866251 -0.996241 0.996241 0.0866251 89.0649948 1020.3482056)" style="fill:#1C1C1C;" cx="600.9922485" cy="461.6014099" rx="3.38151" ry="3.3816259"/>
			<path style="fill:#1C1C1C;" d="M586.4772949,437.1803894c-1.4300537,1.2012634-1.6154175,3.3343811-0.4139404,4.7642822
				c1.2012329,1.4299011,3.3342285,1.6152344,4.7642822,0.4139709c1.4299316-1.2012634,1.6152954-3.3344116,0.4140015-4.7643127
				C590.0401611,436.1644287,587.9072266,435.9790955,586.4772949,437.1803894z"/>
			<path style="fill:#1C1C1C;" d="M571.5446777,419.4059753c-1.4299316,1.2012939-1.6152344,3.3342285-0.4140015,4.7643127
				c1.2012939,1.4299011,3.3344116,1.6152344,4.7643433,0.4139709c1.4298706-1.2014465,1.6152344-3.3344116,0.4139404-4.7643127
				C575.1074829,418.3898621,572.9745483,418.2045288,571.5446777,419.4059753z"/>
			
				<ellipse transform="matrix(0.0866251 -0.996241 0.996241 0.0866251 101.9100571 922.1247559)" style="fill:#1C1C1C;" cx="553.8473511" cy="405.484436" rx="3.38151" ry="3.3816259"/>
			<path style="fill:#1C1C1C;" d="M529.687561,392.430542c-1.4299316,1.2012634-1.6152344,3.3344116-0.4139404,4.7643127
				c1.2012329,1.4299011,3.3343506,1.6152344,4.7642822,0.4139404c1.4298706-1.2012634,1.6152344-3.3343811,0.4139404-4.7642822
				C533.2504272,391.4146118,531.1174316,391.2292786,529.687561,392.430542z"/>
			<path style="fill:#1C1C1C;" d="M507.0270081,386.397522c-1.4299011,1.2012634-1.6152344,3.3344116-0.4139099,4.7643127
				c1.2012329,1.4299011,3.3343506,1.6152344,4.7642517,0.4139404c1.4299011-1.2012634,1.6152649-3.3344116,0.4139709-4.7643127
				C510.5900574,385.3815613,508.4569092,385.196228,507.0270081,386.397522z"/>
		</g>
	</g>
	<g>
		<path style="fill:#1C1C1C;" d="M486.2144775,665.0195923c-20.660675,0-40.7059326-4.0474854-59.5789185-12.0302734
			c-18.2268066-7.7092285-34.5949097-18.7446899-48.6500854-32.7994995
			c-14.0549927-14.0551758-25.0904541-30.4230957-32.7997131-48.6500854
			c-7.9824219-18.8728027-12.0300903-38.9180908-12.0300903-59.5787354c0-20.6604919,4.0476685-40.7057495,12.0300903-59.5789185
			c7.709259-18.2266235,18.7447205-34.5950928,32.7997131-48.6499023
			c14.0551758-14.0551758,30.4232788-25.0906067,48.6499023-32.7997131
			c18.8731689-7.9829712,38.9184265-12.0302734,59.5791016-12.0302734c20.6603088,0,40.7055664,4.0473022,59.5787354,12.0302734
			c18.2266235,7.7091064,34.5950928,18.7445374,48.6499023,32.7997131
			c14.0551758,14.0548096,25.0906372,30.4232788,32.7996826,48.6499023
			c7.9829712,18.8731689,12.0302734,38.9184265,12.0302734,59.5789185c0,20.6606445-4.0473022,40.7059326-12.0302734,59.5787354
			c-7.7090454,18.2269897-18.7445068,34.5949097-32.7996826,48.6500854
			c-14.0548096,14.0548096-30.4232788,25.090271-48.6499023,32.7994995
			C526.9200439,660.9721069,506.8747864,665.0195923,486.2144775,665.0195923z M486.2144775,368.7852173
			c-38.2436523,0-74.1983337,14.8929138-101.2406921,41.9354553
			c-27.0421753,27.0421753-41.9350891,62.9968567-41.9350891,101.2403259
			c0,38.2436523,14.8929138,74.1983032,41.9350891,101.2404785c27.0423584,27.0421753,62.9970398,41.9351196,101.2406921,41.9351196
			c38.2432861,0,74.197937-14.8929443,101.2401123-41.9351196c27.0425415-27.0421753,41.9354858-62.9968262,41.9354858-101.2404785
			c0-38.2434692-14.8929443-74.1981506-41.9354858-101.2403259
			C560.4124146,383.6781311,524.4577637,368.7852173,486.2144775,368.7852173z"/>
	</g>
</g>
<g>
	<g>
		<path style="fill:#1C1C1C;" d="M493.5900879,504.7536621c0,1.1932373-0.9673767,2.1605835-2.160614,2.1605835
			c-1.1932678,0-2.160553-0.9673462-2.160553-2.1605835c0-1.1932678,0.9672852-2.1607666,2.160553-2.1607666
			C492.6227112,502.5928955,493.5900879,503.5603943,493.5900879,504.7536621z"/>
		<path style="fill:#1C1C1C;" d="M468.5761108,504.7536621c0,1.1932373-0.9673157,2.1605835-2.1607666,2.1605835
			c-1.1932373,0-2.1605835-0.9673462-2.1605835-2.1605835c0-1.1932678,0.9673462-2.1607666,2.1605835-2.1607666
			C467.6087952,502.5928955,468.5761108,503.5603943,468.5761108,504.7536621z"/>
		<path style="fill:#1C1C1C;" d="M501.6143494,518.6697998c-3.8860474-2.0119019-7.869812-3.3555298-11.7331238-5.3196411
			c-4.3074951-2.1899109-9.4413147-2.4805603-14.1712952-2.0219116
			c-11.000824,1.0667725-21.5940552,5.9578857-29.5409546,13.6392822
			c-6.6346436,6.4133301-4.1388245,19.1863403-0.0489197,26.803772c2.2113953,4.1185303,5.7995911,6.493103,8.8153076,9.3306274
			c2.6656189,2.5082397,4.8839111,5.3782349,5.3089294,10.1345215c0.2817383,3.1516113-0.2675171,6.4302979,0.7597046,9.4230957
			c1.159668,3.378479,4.1181641,5.7841797,7.0605469,7.8095093c6.3937378,4.4012451,13.3941956,7.9196777,20.7409363,10.4247437
			c-1.3299561-6.2997437-2.4445801-13.5789795,1.620697-18.5718384c2.5982361-3.19104,6.712677-4.6165771,10.4060364-6.4312744
			c3.6933899-1.8148804,7.4642334-4.651123,7.9869995-8.7330322c0.430542-3.3621826-1.3251648-7.3681641,0.9924316-9.84198
			c0.9832764-1.0496216,2.5011597-1.4967041,3.4174805-2.6051025c1.0124512-1.2249756,1.0632935-2.9550171,1.065918-4.5440063
			c0.0050659-2.9337158,0.0100098-5.8675537,0.0150146-8.8022461
			C514.3249512,530.4046631,509.5371399,522.7713013,501.6143494,518.6697998z M469.7579651,530.1515503
			c-1.455719,0.1837769-2.6152344,1.4929199-3.8422546,2.4677734c-4.1062927,3.2622681-9.9712219,2.736145-13.6437988-1.2240601
			c-1.2992249-1.4008179-2.3834839-3.5695801-1.7834167-5.5560303c1.1939697-0.9085083,2.5013733,0.8102417,3.6608582,1.78302
			c2.2592163,1.8954468,5.4017029,0.9209595,7.7290039-0.8466187c2.3275452-1.7675781,4.3048706-4.2515869,6.8309021-5.5491943
			c4.0430298-2.0767212,12.8051453,5.135437,8.1567688,9.6679077
			C474.9398499,532.772522,472.2090149,529.8424683,469.7579651,530.1515503z M482.0835876,536.1968994
			c-2.0975037,3.5516968-7.0153503,3.0516968-8.5108337-0.7243652c-0.286377-0.7229004,0.8804016-1.0335693,1.1628418-0.3204346
			c1.1233826,2.8363647,4.7881775,3.0076904,6.3067322,0.4360352
			C481.4371643,534.9197388,482.4790344,535.5270996,482.0835876,536.1968994z M504.1098022,531.3952637
			c-3.6726379,3.9602051-9.5375061,4.4863281-13.6437988,1.2240601c-1.2270203-0.9748535-2.3864441-2.2839966-3.8422546-2.4677734
			c-2.4510498-0.309082-5.1818542,2.6209717-7.1080322,0.7427979c-4.6483154-4.5324707,4.113739-11.7446289,8.1567383-9.6679077
			c2.526123,1.2976074,4.5033875,3.7816162,6.8309021,5.5491943c2.327301,1.7675781,5.4698792,2.7420654,7.7288513,0.8466187
			c1.159668-0.9727783,2.467041-2.6915283,3.6610107-1.78302
			C506.4933167,527.8256836,505.4090271,529.9944458,504.1098022,531.3952637z"/>
	</g>
	<g>
		<path style="fill:#1C1C1C;" d="M514.7533569,427.8468628c-4.7883301-2.5246277-10.7727356-3.1784058-16.0665894-2.6474609
			c-11.2130127,1.1246643-20.8554077,9.0876465-28.6539612,16.6122742
			c-5.7988281,5.5951233-10.949585,11.8712463-15.2423096,18.6930542
			c-1.0745239,1.7073059-9.8077087,20.5866394-9.675415,20.5951538l1.3890991,0.0890503
			c22.6391602,0.4737244,45.2782898,0.9474182,67.9176331,1.4213257c2.0368652-7.1101379-1.7814331-14.3848572-5.1135864-21.0735168
			c-3.6083984-7.2427063-10.5862732-20.6113586,4.300415-18.7166748c3.9457397,0.5023193,7.6152344,2.8595276,9.7125854,6.2394714
			c0.9330444-4.5936584,0.7024536-9.5181274-1.2816162-13.7648315
			C520.4547729,431.902832,517.8549194,429.4823608,514.7533569,427.8468628z"/>
		<path style="fill:#1C1C1C;" d="M447.2327881,476.6694031c-2.8362427,1.0654297-4.6836243,3.931366-5.3469849,6.8875732
			c-0.6635132,2.9563904-0.3356018,6.0338135-0.0048218,9.0455017c0.096344,0.8752441,0.2230835,1.8189392,0.8329773,2.4542236
			c0.5161743,0.5376892,1.2798157,0.7458496,2.0093079,0.897644c3.0699768,0.6390381,6.2286377,0.6802673,9.3640137,0.7190247
			c16.8482056,0.208313,33.6962891,0.4166565,50.5446167,0.6249695c3.833252,0.0474548,7.9650879,0.0047913,11.0658569-2.2494507
			c2.8762207-2.0912781,4.2927246-6.0018311,3.4227905-9.4498901c-0.869751-3.4482422-3.9717407-6.2188721-7.495636-6.6956177
			L447.2327881,476.6694031z"/>
		<path style="fill:#1C1C1C;" d="M534.7450562,449.6356506c-1.5905762-1.9867554-3.8981323-3.339447-6.5644531-3.2670898
			c-1.6292725,0.0446167-3.2057495,0.6118164-4.5662231,1.5180054c-0.7994385,0.0019531-1.6072998,0.5227661-2.2050781,1.1123657
			c-2.7651367,2.72995-3.5655518,7.2512512-1.9055176,10.7636719c1.1139526,2.3571777,3.2843628,4.150177,5.7520752,4.9461365
			c3.0061646,0.9698181,5.4196777,0.0375061,7.970459-1.6758423c1.3752441-0.9237976,2.5916138-2.156311,3.225647-3.6869507
			c0.4273682-1.0318604,0.5757446-2.1611328,0.5842896-3.2779541
			C537.0535278,453.7968445,536.1986694,451.4515686,534.7450562,449.6356506z"/>
	</g>
</g>
<g>
	<g>
		<g>
			<g>
				<path style="fill:#1C1C1C;" d="M908.3609009,147.6741333c-1.3256226,0.2129517-1.8030396,2.2438354-1.6497192,3.1569672
					c0.366272,2.1794739,1.4121094,3.5187073,2.1016235,5.4334106c-1.5540161,0.191864-2.7608643,0.6790161-3.6593628,2.0672302
					c-0.8983765,1.3883209-0.8344727,2.8938751-0.8204956,4.4621277c-2.0646973-1.899826-5.5090942-0.0306244-7.3848877,1.1979828
					c-0.5499268,0.3600769-0.3007202,0.3282623-0.5870972,0.3884125c-0.6507568,0.136734-0.7973633-0.3846588-0.8215942-0.8482361
					c-0.024231-0.4633636,0.3704224-0.8360291,0.5892334-1.1658325c1.2205811-1.8389282,2.1314087-3.260498,1.826416-5.4782562
					c2.9841309-0.4947968,0.8106689-3.0841522-0.2226563-4.5654755c0.7845459,0.5464172,2.0913696-1.0649719,2.1235962-1.4238129
					c0.1604004-1.7889404-0.7762451-2.5924377-1.4788208-3.898407c2.6179199-0.66362,4.2749023-4.8621674,5.6119995-7.0345154
					C904.3596191,143.5966492,905.0930786,145.9209595,908.3609009,147.6741333z"/>
			</g>
		</g>
		<g>
			<g>
				<path style="fill:#1C1C1C;" d="M898.2953491,160.0791321c-2.7339478,3.8099976-5.8373413,6.7735596-10.2050171,8.6202545
					c-0.4989624,0.2109375-0.2106323,1.0032043,0.2896729,0.7916565c4.4969482-1.9013824,7.741333-4.9397888,10.5646973-8.8748169
					C899.2591553,160.1781158,898.6121826,159.6376343,898.2953491,160.0791321L898.2953491,160.0791321z"/>
			</g>
		</g>
	</g>
	<g>
		<g>
			<g>
				<path style="fill:#1C1C1C;" d="M993.9569092,168.3342743c-1.6518555-0.5576172-3.2944336,1.4592133-3.605957,2.5878143
					c-0.7433472,2.6943665-0.2481079,4.8444519-0.4744263,7.433075c-1.9057007-0.7192078-3.5667725-0.8939362-5.3532715,0.1397247
					c-1.7862549,1.0338593-2.519165,2.7807617-3.343689,4.569046c-1.376709-3.4009094-6.3743896-3.3567047-9.2088623-3.0933075
					c-0.8310547,0.0769958-0.5249023,0.1911621-0.8892822,0.0868683c-0.8283691-0.2373047-0.71875-0.9172668-0.4984741-1.4579773
					c0.2203369-0.5406952,0.8778076-0.7256012,1.3085327-0.9678345c2.4017334-1.3508606,4.2203979-2.4150696,5.0552979-5.1156158
					c3.7267456,1.2377472,2.593689-3.0111847,2.1889038-5.3153229c0.6172485,1.0929413,2.9969482,0.0524292,3.2268066-0.3355713
					c1.1448975-1.9332733,0.4890747-3.4098663,0.3741455-5.3154297c3.3925171,0.8252563,7.5652466-2.9401245,10.2808838-4.5993195
					C991.5010986,161.2942352,991.105896,164.3743591,993.9569092,168.3342743z"/>
			</g>
		</g>
		<g>
			<g>
				<path style="fill:#1C1C1C;" d="M975.6779785,176.336441c-5.241272,2.7088318-10.5250854,4.1988068-16.4631348,3.6394501
					c-0.6876221-0.0647736-0.8682251,0.9998016-0.1743164,1.0653076c6.1272583,0.5771484,11.5826416-0.8869476,17.0084839-3.6910858
					C976.6589966,177.0348206,976.2938232,176.0182343,975.6779785,176.336441L975.6779785,176.336441z"/>
			</g>
		</g>
	</g>
	<g>
		<g>
			<path style="fill:#1C1C1C;" d="M1003.2658081,175.5783081c-0.2591553-0.1356659-0.5188599-0.2947998-0.7791138-0.480835
				c-0.3518066,1.3243713-1.4268188,2.4320679-2.7399902,2.8233185c-1.3132324,0.3912506-2.8192139,0.0527191-3.838501-0.8631592
				c-0.3321533,1.3236847-0.6883545,2.6933899-1.5493164,3.7522583c-0.861145,1.0587769-2.3793945,1.7138214-3.6264648,1.1596527
				c-0.4423218-0.1966553-1.0540771-0.4879913-1.3170776-0.081665c-0.0959473,0.1482086-0.0896606,0.3373413-0.0936279,0.5139008
				c-0.0391235,1.7236023-3.8511353,9.7062073-5.7167358,9.5148315c0.5041504,0.0516815,8.9460449,1.4917908,8.0438843,2.7630768
				c1.7541504-2.4720917,4.8062744-4.6794586,7.6286011-3.5734863c-0.0983276-3.9859924,3.6445923-7.6398926,7.6269531-7.4459534
				c-0.2076416-0.0101166,1.9657593-3.7955322,2.2450562-4.1225891c1.0787964-1.2627258,2.8397827-2.0127411,3.5897217-3.5053253
				C1009.5064087,175.4047241,1006.4159546,177.2269135,1003.2658081,175.5783081z"/>
		</g>
		<g>
			<path style="fill:#1C1C1C;" d="M967.0036011,151.1760254c-0.4064941-0.1778412-0.8171387-0.3893585-1.2322388-0.639679
				c-0.3375854,1.9346313-1.7866211,3.6067505-3.6928711,4.262207c-1.9063721,0.6555481-4.2042847,0.2714996-5.8569946-0.9787903
				c-0.3081665,1.932312-0.6461792,3.9326019-1.7823486,5.5196075c-1.1361084,1.5868988-3.3114624,2.6369781-5.2532349,1.9240265
				c-0.6884766-0.2528992-1.6436157-0.6307373-1.9790649-0.0264435c-0.1222534,0.2203369-0.0859985,0.4927216-0.0670776,0.7478027
				c0.1862183,2.4886627-4.3760986,14.2667999-7.1904297,14.1200562c0.760437,0.0396576,13.576416,1.5312653,12.4090576,3.427475
				c2.2699585-3.6870575,6.5166016-7.0827179,10.8897705-5.683136c-0.7123413-5.7422333,4.3608398-11.2721252,10.3378906-11.2686005
				c-0.3115845-0.0000305,2.3982544-5.6108246,2.769104-6.1017761c1.4324951-1.8961639,3.9569092-3.1002045,4.8655396-5.3050385
				C976.302002,150.4929199,971.9436035,153.3353882,967.0036011,151.1760254z"/>
		</g>
		<g>
			<path style="fill:#1C1C1C;" d="M967.7745972,209.3951111c0.6424561-0.218399,0.7539673-2.3374481,0.6153564-2.7329102
				c-0.3307495-0.9438782-1.6582031-1.6515808-2.5162964-2.0626068c0.9539795-0.779007,1.392395-2.0838318,1.1755371-3.1277313
				c-0.2167969-1.0440369-1.0142822-1.8192749-2.0033569-2.1753235c1.447876,0.5210419,1.7351074-4.4998779,1.637085-4.9020233
				c-0.0288086-0.1179504-0.0615845-0.2419891-0.0212402-0.3697815c0.0916748-0.2903595,0.5113525-0.400528,0.742981-0.2661285
				c0.2314453,0.1342926,0.3251343,0.4105225,0.4225464,0.6632385c0.543396,1.4098358,1.5797729,2.5240326,2.9182739,3.1981049
				c-1.3814087,1.1243439,1.6487427,3.4627991,2.5968628,3.6403046c-0.5354004-0.100235-0.8681641,2.4432983-0.8581543,2.6564026
				c0.050354,1.0613098,0.5654907,1.9992523,1.3547363,2.5903931c-0.8599243-0.6439819-1.8253784,5.4575653-1.9056396,5.8216553
				C971.1671143,211.1115417,969.7612915,208.7195892,967.7745972,209.3951111z"/>
		</g>
		<g>
			<g>
				<path style="fill:#1C1C1C;" d="M975.2040405,187.5862274c-15.9980469-8.9886627-33.8961182-13.6929626-51.9835205-16.145462
					c-0.7080688-0.095871-0.8917236,1.0018005-0.1795044,1.0983582
					c17.9990845,2.4402771,35.7879639,7.1180878,51.7070923,16.0623474
					C975.37146,188.9517822,975.8252563,187.9354706,975.2040405,187.5862274L975.2040405,187.5862274z"/>
			</g>
		</g>
		<g>
			<g>
				<g>
					<path style="fill:#1C1C1C;" d="M959.8805542,207.877533c-2.4497681-0.2395782-3.5531006-3.901947-3.3758545-5.5899353
						c0.423645-4.0298615,2.1856689-6.598526,3.230957-10.1801758c-2.8654785-0.1753387-5.1287842-0.9303131-6.9299927-3.3688354
						c-1.8010254-2.4388733-1.8544922-5.2008667-2.0063477-8.0724335
						c-3.5629272,3.710144-10.0775146,0.6795654-13.6488037-1.3564453c-1.0471191-0.5966187-0.5874634-0.5667114-1.1182251-0.644455
						c-1.2063599-0.1764679-1.4156494,0.7941284-1.4074707,1.6450195c0.0080566,0.8510284,0.7722168,1.4881592,1.210144,2.0667877
						c2.4415894,3.2270203,4.269165,5.7253571,3.9620361,9.8178101c5.5162964,0.5678406,1.8322754,5.5519257,0.1088257,8.3792572
						c1.3739624-1.0882263,3.9475098,1.7123718,4.0470581,2.3654938c0.4959106,3.2551422-1.1270752,4.8315277-2.2648315,7.3006744
						c4.8654175,0.9182892,8.3723755,8.4134369,11.0650635,12.2372131
						C953.0200806,215.7917786,954.0993042,211.4553375,959.8805542,207.877533z"/>
				</g>
			</g>
			<g>
				<g>
					<path style="fill:#1C1C1C;" d="M941.255249,185.3455963c-5.5895996-6.8621826-11.8779907-12.1385193-20.3092041-15.0934601
						c-0.9304199-0.3262024-1.5744019,1.0799103-0.6329956,1.4098969
						c8.2207031,2.8811188,14.2246094,7.8772888,19.6760254,14.5697784
						C940.6144409,186.9995728,941.883728,186.1170807,941.255249,185.3455963L941.255249,185.3455963z"/>
				</g>
			</g>
		</g>
		<g>
			<g>
				<g>
					<path style="fill:#1C1C1C;" d="M855.5461426,148.6925964c-2.1607666,0.4780426-2.7510376,3.8659515-2.4107666,5.3535919
						c0.812561,3.5514526,2.6622925,5.6542816,3.9813843,8.738739c-2.5388184,0.4653625-4.4777832,1.3832245-5.8226318,3.7541351
						c-1.3447266,2.3712463-1.0946655,4.8422241-0.9206543,7.4217834
						c-3.5804443-2.9276276-9.0686035,0.4797668-12.0369873,2.6820374
						c-0.8701782,0.6454926-0.4631958,0.5691071-0.9287109,0.6957245c-1.0576782,0.287796-1.3490601-0.5561371-1.4335327-1.3165588
						c-0.0846558-0.7604828,0.5288086-1.4115601,0.8573608-1.9753265c1.831604-3.1436005,3.1935425-5.570694,2.4782715-9.1906281
						c4.8625488-1.1015015,1.0369873-5.1531525-0.8061523-7.4912567c1.343689,0.8234253,3.3389893-1.9537659,3.3573608-2.5475769
						c0.0917969-2.9590912-1.5267334-4.1912079-2.8084717-6.272522c4.2438965-1.344162,6.5663452-8.4123688,8.5576172-12.1158752
						C848.5693359,142.3678131,850.000061,146.1222229,855.5461426,148.6925964z"/>
				</g>
			</g>
			<g>
				<g>
					<path style="fill:#1C1C1C;" d="M840.2015991,170.0426788c-4.1190796,6.5125122-8.9506226,11.7299957-15.9501953,15.184433
						c-0.795105,0.392334-0.3237915,1.7002106,0.4775391,1.3048096c7.2304077-3.5683746,12.2615356-8.8340302,16.5432739-15.6037598
						C841.7436523,170.1828003,840.6790771,169.2879028,840.2015991,170.0426788L840.2015991,170.0426788z"/>
				</g>
			</g>
		</g>
		<g>
			<g>
				<g>
					<path style="fill:#1C1C1C;" d="M991.4529419,222.060318c-1.7136841-0.9394379-1.0960693-4.3045349-0.6083374-5.5848389
						c1.1639404-3.0558319,2.7466431-5.0093689,4.2694702-7.6850281c-2.4059448-0.890976-3.6853027-2.4014893-4.6348267-4.770401
						c-0.949585-2.3687897-1.0476685-4.7525177-0.7249146-7.269577c-3.2875977,2.1493073-8.0289307-1.7816772-10.2994995-3.7007446
						c-0.6655273-0.5625-0.34552-0.4879913-0.7201538-0.6076813c-0.8515015-0.2719116-1.1260986,0.3897858-1.2312012,1.0126343
						c-0.1051636,0.6226196,0.3273926,1.1695251,0.5698853,1.6820831c1.3518066,2.8578796,2.7611084,5.3518372,2.2871094,8.5747833
						c4,1.6751862,1.1565552,5.3634796-0.9050903,7.6534271c1.4352417-0.5570068,2.5272827,2.4725952,2.4755859,3.0313416
						c-0.2566528,2.7853241-1.9752808,3.3453827-3.8457031,4.7093658c2.7246704,2.0182648,1.7372437,8.1018982,1.9752808,11.1829071
						C982.9369507,226.1252136,986.5801392,223.5028076,991.4529419,222.060318z"/>
				</g>
			</g>
			<g>
				<g>
					<path style="fill:#1C1C1C;" d="M981.7025146,198.3127747c-3.1786499-5.7971344-6.8371582-10.5594788-12.6154785-13.9298859
						c-0.6170044-0.3598633-1.0698853,0.6569824-0.4559326,1.0152435c5.583374,3.2566528,9.1027222,7.977829,12.159729,13.552887
						C981.1352539,199.5788422,982.043396,198.9342194,981.7025146,198.3127747L981.7025146,198.3127747z"/>
				</g>
			</g>
		</g>
		<g>
			<g>
				<g>
					<path style="fill:#1C1C1C;" d="M922.6345215,191.7146606c-1.3984985-0.3596497-1.5709229-2.8816071-1.4555664-3.887085
						c0.2752075-2.4003601,1.0513916-4.0878601,1.6530151-6.281601c-1.8852539-0.1983643-3.0769043-1.046051-4.1893311-2.5687103
						c-1.1124268-1.5224152-1.618103-3.2109375-1.8466187-5.0718689c-1.9610596,2.1391754-6.0733032,0.1908264-8.0491333-0.7683868
						c-0.5793457-0.2810974-0.3366089-0.2861786-0.6266479-0.3034363c-0.6593018-0.0392303-0.7349854,0.4846191-0.6965332,0.9496765
						c0.0385132,0.4650574,0.447937,0.7775116,0.7151489,1.1001434c1.4896851,1.7992249,2.9541626,3.3272705,3.2033691,5.7210388
						c3.1696777,0.468811,1.8075562,3.6285553,0.7498169,5.6444855c0.9257202-0.6608582,2.2608032,1.308609,2.3259888,1.7179718
						c0.3248901,2.0409698-0.8032837,2.7559052-1.8933105,4.0737915c2.3193359,0.9473877,2.7235718,5.4829865,3.4564819,7.6453094
						C917.2802124,196.1800537,919.4093628,193.6373138,922.6345215,191.7146606z"/>
				</g>
			</g>
			<g>
				<g>
					<path style="fill:#1C1C1C;" d="M911.3109741,176.4893036c-3.3344116-3.5695648-6.8269653-6.3080292-11.5735474-7.664032
						c-0.5075073-0.1451111-0.637085,0.6673126-0.1327515,0.8112793c4.5983276,1.3137054,7.9745483,4.0522461,11.182373,7.4861755
						C911.1472168,177.5083008,911.6677246,176.8712006,911.3109741,176.4893036L911.3109741,176.4893036z"/>
				</g>
			</g>
		</g>
		<g>
			<path style="fill:#1C1C1C;" d="M1043.1668701,243.1382294c0.1022949-0.3411255,0.2324219-0.6881866,0.3946533-1.042038
				c-1.6638184-0.1144714-3.2358398-1.1430359-4.0067139-2.6218109c-0.7709961-1.4787598-0.7143555-3.3565674,0.1444092-4.7861786
				c-1.6583252-0.0908813-3.3774414-0.2001495-4.8416748-0.9844055c-1.4639893-0.7841492-2.5975342-2.4470062-2.2233887-4.0651703
				c0.1326904-0.5740662,0.3393555-1.3722382-0.2069092-1.5926056c-0.1992188-0.0805054-0.4237061-0.0294037-0.6357422,0.0066528
				c-2.0683594,0.3515778-12.487854-2.3588867-12.6901855-4.632431c0.0546875,0.6143188,0.2846069,11.0343933-1.4430542,10.2501221
				c3.3591919,1.5249329,6.7020874,4.6620483,6.0327148,8.289856c4.7400513-1.0383911,9.9711304,2.5897675,10.6594849,7.393219
				c-0.0360107-0.250412,4.989502,1.471817,5.4448242,1.7301788c1.7580566,0.9973145,3.0614014,2.9281616,5.0180664,3.4794159
				C1044.8161621,250.5549774,1041.9248047,247.2832794,1043.1668701,243.1382294z"/>
		</g>
		<g>
			<path style="fill:#1C1C1C;" d="M1032.6781006,190.7685852c-0.3114014-0.3162079-0.6138916-0.6652527-0.9061279-1.0518341
				c-1.0327148,1.6702423-2.9993896,2.6840057-5.0128174,2.583786c-2.0133057-0.1003418-4.0039063-1.311142-5.0733032-3.0861511
				c-1.0045166,1.6791077-2.0618896,3.410614-3.706604,4.4611969c-1.6447144,1.0508118-4.0544434,1.2169647-5.5918579-0.1667938
				c-0.5452271-0.4907227-1.2915039-1.1965027-1.8274536-0.7602386c-0.1954956,0.1591644-0.2632446,0.4252777-0.340332,0.66922
				c-0.7525024,2.3795319-9.3665161,11.6172791-11.9244995,10.4346466
				c0.6911011,0.3195496,12.0339966,6.4690094,10.2452393,7.7952576c3.4780273-2.5788574,8.6827393-4.1521606,12.222168-1.2272491
				c1.4733887-5.59552,8.2389526-8.842926,13.7861938-6.6174927c-0.2891846-0.1159058,4.3122559-4.3170624,4.8391113-4.634964
				c2.0349121-1.2276917,4.8259277-1.4068756,6.4891357-3.11586
				C1041.5639648,193.5913391,1036.4611816,194.6097412,1032.6781006,190.7685852z"/>
		</g>
		<g>
			<g>
				<path style="fill:#1C1C1C;" d="M1023.8979492,230.6817169c-4.9002686-9.463913-13.0444336-17.2828674-21.0249023-24.1710815
					c-8.4116211-7.2604828-17.6068726-14.1180878-27.6690063-18.924408
					c-0.645752-0.3084412-1.1032715,0.7061157-0.4559326,1.0152435
					c9.6098022,4.5901337,18.3843384,11.0842438,26.4730225,17.9590454
					c8.1820679,6.9541779,16.6337891,14.8510437,21.6317749,24.5036621
					C1023.1784058,231.6927338,1024.2265625,231.3162231,1023.8979492,230.6817169L1023.8979492,230.6817169z"/>
			</g>
		</g>
		<g>
			<g>
				<g>
					<path style="fill:#1C1C1C;" d="M1007.7471924,245.0953522c-1.6627197-0.6639709-1.3047485-4.0933075-0.7407227-5.197937
						c1.3464966-2.6371002,3.6370239-4.0584717,5.5971069-6.0136108c-2.0629883-1.1393433-3.0171509-2.8592987-2.8981323-5.24263
						c0.1194458-2.3832703,1.348938-4.3865509,2.8146973-6.1984558c-3.289917,1.3651581-5.8812256-5.5729065-6.6151733-7.7841492
						c-0.2151489-0.6481781-0.0463867-0.5604095-0.2799683-0.8161163c-0.5307617-0.5809937-1.199646-0.2332153-1.5558472,0.2743683
						c-0.3564453,0.507843-0.2723389,1.1687775-0.2869263,1.7805786c-0.0809937,3.4113464-0.9137573,6.240036-3.1697388,8.8499298
						c3.322876,2.4249573-2.0073853,6.5768585-4.0946045,8.0660248c1.4943237-0.302887,1.9260864,3.46138,1.8364868,3.9830017
						c-0.446106,2.5997772-1.9784546,3.879776-3.6246338,5.5104523c2.0541382,0.0068665,3.4383545,8.9897461,3.9475708,11.1494446
						C1000.7073364,249.3315277,1002.7932129,245.671875,1007.7471924,245.0953522z"/>
				</g>
			</g>
			<g>
				<g>
					<path style="fill:#1C1C1C;" d="M1005.4420776,223.8265533c1.0847168-6.6117554-0.3151245-13.1914063-3.9852295-18.7958374
						c-0.3931885-0.6005096-1.3034058,0.0400696-0.9118042,0.6381378c3.5137329,5.3655243,4.836853,11.6500549,3.7988892,17.9781647
						C1004.2281494,224.3531952,1005.3258667,224.5352631,1005.4420776,223.8265533L1005.4420776,223.8265533z"/>
				</g>
			</g>
		</g>
		<g>
			<path style="fill:#1C1C1C;" d="M930.2029419,139.9123993c-0.3870239-0.0935822-0.7819824-0.2180328-1.1865234-0.3777008
				c-0.0278931,1.8633423-1.0809937,3.6791077-2.6847534,4.6281891s-3.7023926,0.9986572-5.3491211,0.1263885
				c-0.001709,1.8559113-0.0203857,3.7805786-0.8075562,5.46138c-0.7869263,1.6807556-2.5743408,3.0454559-4.4024048,2.7252502
				c-0.6483154-0.1135406-1.5513916-0.2963715-1.7645264,0.326355c-0.0777588,0.227066-0.0072021,0.4745483,0.0458374,0.7089996
				c0.5164185,2.2868652-1.882019,14.0756073-4.4067383,14.4378967c0.6821899-0.0978394,12.295166-0.9803467,11.5239258,0.9944916
				c1.4995728-3.8396149,4.7990723-7.7582092,8.8872681-7.229187c-1.4433594-5.226593,2.2906494-11.2813568,7.6088867-12.3380127
				c-0.2772217,0.0550537,1.3426514-5.6557159,1.6033936-6.1793213c1.0072021-2.0216217,3.0834351-3.5916138,3.5810547-5.8082428
				C938.3793335,137.6264954,934.9024658,141.0493927,930.2029419,139.9123993z"/>
		</g>
		<g>
			<path style="fill:#1C1C1C;" d="M880.8108521,139.3396912c-0.4432373-0.0198212-0.9023438-0.0698853-1.3796387-0.1543274
				c0.3796997,1.9268341-0.3718262,4.007782-1.9156494,5.3042755c-1.5435791,1.296463-3.8261108,1.7634735-5.8175659,1.1903381
				c0.40625,1.9139862,0.8095093,3.9022217,0.3191528,5.7913208c-0.4904785,1.8889923-2.1433105,3.6503754-4.2116089,3.6824951
				c-0.7333374,0.011322-1.760437,0.0018005-1.8564453,0.6861267c-0.0350952,0.2497406,0.0965576,0.4907379,0.2059937,0.7220917
				c1.0675049,2.2556458,1.0402222,14.8866882-1.6390381,15.7603912c0.723938-0.2361145,13.2205811-3.447403,12.8121338-1.2582703
				c0.7940674-4.2563934,3.5378418-8.9507446,8.1217041-9.2153778c-2.727417-5.1031952,0.0211182-12.0863342,5.6005859-14.2296448
				c-0.2908936,0.111618,0.2228394-6.0979614,0.3927002-6.6894226c0.6557617-2.2841644,2.5794067-4.3145294,2.6352539-6.6986084
				C889.2434692,135.3623047,886.1969604,139.5806122,880.8108521,139.3396912z"/>
		</g>
		<g>
			<g>
				<path style="fill:#1C1C1C;" d="M904.5308838,190.5531158c-1.5310669,0.9282074-4.0543823-1.4218445-4.5969238-2.5370331
					c-1.2955933-2.6624298-1.0522461-5.347229-1.4337769-8.0892181c-2.1516113,0.9616394-4.0992432,0.6886444-5.9309692-0.8409882
					c-1.8314209-1.5297699-2.6911621-3.7174683-3.2558594-5.9784546c-0.8900146,3.4489594-7.9904785,1.3426514-10.197998,0.5979156
					c-0.6472168-0.2183228-0.4754028-0.3003387-0.8201904-0.2677002c-0.7833862,0.0741272-0.9083862,0.8176422-0.7174072,1.4077606
					s0.7695313,0.9208069,1.2492676,1.3006134c2.6757813,2.1179199,4.4334106,4.4853973,5.1598511,7.8579865
					c3.9363403-1.1942902,4.0438843,5.5614014,3.9769897,8.124588c0.6575317-1.3756256,3.9235229,0.5451965,4.2861328,0.9306488
					c1.8077393,1.9208679,1.9075317,3.9151306,2.2191162,6.2111511c1.2418213-1.6362915,9.2484741,2.6647186,11.2796631,3.5579834
					C903.6768188,198.7247467,902.0096436,194.8562927,904.5308838,190.5531158z"/>
			</g>
		</g>
		<g>
			<g>
				<path style="fill:#1C1C1C;" d="M920.7193604,170.40802c-16.5131226-4.2101135-35.289978-1.8018036-51.8001099,1.0791168
					c-17.6947632,3.0875702-36.7770386,7.7631378-51.6767578,18.2611389
					c-0.5860596,0.4129028,0.0526733,1.3243256,0.6382446,0.9117126
					c15.0296021-10.5895844,34.4754639-15.2640228,52.3301392-18.2685242
					c16.1005859-2.7094879,34.2644043-4.9809875,50.3289185-0.8853302
					C921.2331543,171.6829376,921.4100342,170.5841217,920.7193604,170.40802L920.7193604,170.40802z"/>
			</g>
		</g>
		<g>
			<g>
				<path style="fill:#1C1C1C;" d="M884.9963989,178.4026184c-4.6539917-4.8066864-10.618103-7.5910797-17.2909546-8.0788727
					c-0.708252-0.0517731-0.895813,1.045929-0.1796265,1.0982361c6.5096436,0.4757233,12.2181396,3.1456299,16.7614746,7.8379974
					C884.784729,179.7737122,885.4899292,178.9122467,884.9963989,178.4026184L884.9963989,178.4026184z"/>
			</g>
		</g>
		<g>
			<g>
				<path style="fill:#1C1C1C;" d="M876.7770996,193.6452942c-2.380127-0.3695679-4.2888184-1.7793427-5.7285156-3.6979828
					c-1.4395752-1.9187622-1.6352539-3.5090027-1.8682861-5.5378265c-1.9425659-0.5511475-3.6478271-1.4924469-4.8031006-3.2220459
					c-1.1672974-1.7472839-0.8989258-3.5348053-1.7411499-5.2311096c-5.1100464-0.0633545-9.3703613,1.7410736-14.8384399,0.6292725
					c-0.1856079-0.0377045-0.3803101-0.0777435-0.5457153-0.0312653c-0.1994019,0.0560303-0.3168945,0.2259369-0.4230347,0.3872223
					c-0.3096924,0.4710693-0.6194458,0.942276-0.9293823,1.4133606c-0.1292114,0.1965332,0.6807861,2.4522247,0.7134399,2.8985291
					c0.0651855,0.8864288,0.0543823,1.7722778,0.1095581,2.6492004c0.1490479,2.3628845,0.059021,4.6744537-0.2489014,6.9424133
					c3.5157471-0.4214935,6.7503052,0.9322205,8.112854,4.5261841c2.1651611-0.8005981,3.4651489-1.0885162,5.8381958,0.7079315
					c1.4988403,1.1344147,2.0783081,3.1845551,2.4934082,4.849762c0.1685791,0.6764526,0.2272949,1.443634-0.1514893,1.9712372
					c4.5462036-0.3209381,7.9866333,1.2778168,12.4914551,2.9152527c-0.5557251-2.299881-0.6346436-3.5202026-0.2602539-5.9661713
					C875.1694946,198.7272949,875.1713867,194.2377167,876.7770996,193.6452942z"/>
			</g>
		</g>
		<g>
			<g>
				<path style="fill:#1C1C1C;" d="M967.4573364,195.5759583c-1.1595459-5.2971954-7.7852173-8.5267334-7.1550903-14.2433167
					c0.0715942-0.6504059-0.9354248-0.8203278-1.0075684-0.164856c-0.6749268,6.1222687,5.9425659,9.0050354,7.1464233,14.504364
					C966.5799561,196.3065796,967.5977783,196.2173157,967.4573364,195.5759583L967.4573364,195.5759583z"/>
			</g>
		</g>
	</g>
</g>
<g>
	<path style="fill:#1C1C1C;" d="M234.6610718,970.9852905c-2.0898743-3.4712524-5.3694-6.2310181-9.1814117-7.6241455
		c-1.8440247-0.6739502-3.6381226-0.5357666-5.4673462-0.932312c-1.7697144-0.3840942-3.3952942-1.336853-5.2248993-1.678894
		c-7.2869415-1.361084-15.4727783,1.3026733-20.8437347,6.1865234c-6.1798248,5.6193237-9.5666656,14.6105347-8.838623,23.4656982
		c0.2710114,3.2833862,1.0249786,5.9980469,2.3052368,8.2973022c1.7597351,3.1590576,4.7436981,5.8687134,8.8710632,8.0545654
		c4.3291016,2.2926025,9.4848938,3.5110474,14.65625,3.5102539c8.7810364,0,17.6037292-3.5135498,22.4792938-11.2488403
		c1.5077209-2.3933716,2.6685944-5.2324219,3.4501801-8.4365234
		C238.6525421,983.2733765,237.8686523,976.3154297,234.6610718,970.9852905z"/>
	<path style="fill:#1C1C1C;" d="M248.0005951,1016.7351074c-7.1756287-6.8153687-18.1667175-10.3196411-26.729126-8.5150146
		c-1.9507294,0.4104004-4.1098938,0.6746826-6.7944183,0.8324585h-0.0007782
		c-1.4370728,0.0840454-2.8757019,0.1324463-4.3133545,0.1800537c-5.5559998,0.1852417-11.3012695,0.3762207-17.04422,2.6578369
		c-8.4105835,3.3409424-15.5787201,8.7435913-20.7293396,15.6231079
		c-7.7251434,10.3154297-10.8434753,23.5499268-8.5566559,36.3098145
		c2.1683807,12.0977783,8.8902435,22.3289795,18.9271851,28.8106689c4.5761261,2.9539795,10.050354,4.9421387,16.7355652,6.0788574
		c3.5377197,0.6014404,7.0654449,0.8973389,10.5430908,0.8973389c12.2636566-0.0007324,23.8852844-3.6802979,32.9388733-10.6098633
		c10.2730255-7.8635254,16.8856812-21.5708008,17.6887817-36.668335
		C261.4251404,1038.0758057,256.809082,1025.1015625,248.0005951,1016.7351074z"/>
	<path style="fill:#1C1C1C;" d="M235.3219452,975.1497192c-14.2558594-2.8607178-28.6627655-4.5980225-43.0821533-6.0151367
		c-2.7549744-0.2706299-8.8868103-0.4533691-9.754776-3.6002808c-0.7063446-2.5603638,1.5608826-5.5452271,3.794342-6.4957275
		c3.2091064-1.3659058,6.8618011-0.678772,10.3448029-0.4977417c1.5184784,0.0789185,3.2609406-0.0435791,4.2060852-1.2349854
		c0.589447-0.742981,0.7226563-1.7382202,0.8347473-2.6801147c1.0522308-8.8522339,2.10466-17.7044678,3.1570892-26.5565186
		c0.0967407-0.8144531,0.2316742-1.7050781,0.8443604-2.2501831c0.5391693-0.4796753,1.3119354-0.56604,2.0311432-0.624939
		c12.7450714-1.0443726,25.6210632-0.4810181,38.2259979,1.6727905c1.0850372,0.1854248,2.3209686,0.4923096,2.8071594,1.4796753
		c0.3437653,0.6981201,0.1948395,1.5272827,0.0328217,2.2883301c-2.2902679,10.7509766-5.7510223,21.2521973-10.3014221,31.2582397
		c-0.5458984,1.2000122-0.9983063,2.8660889,0.0777283,3.6277466c0.6792908,0.480835,1.5998535,0.2831421,2.4321289,0.2781372
		c3.8189087-0.0220947,6.1295319,5.6143188,3.3939362,8.2792969
		C242.0977478,976.2879639,238.4268188,975.7727661,235.3219452,975.1497192z"/>
	<g>
		<path style="fill:#1C1C1C;" d="M221.9927979,1017.975647c5.8709717,0.2001953,12.1815033,0.0236206,16.9559174-3.3987427
			c2.4539948-1.7591553,4.4154663-4.9972534,3.1213837-7.7251587c-0.3998108-0.8426514-1.0639343-1.5248413-1.6222992-2.2716675
			c-0.7679749-1.0270996-1.3541718-2.2021484-2.2787323-3.0910645c-3.0697784-2.9507446-8.0606995-1.5359497-12.1149445-0.2347412
			c-6.3554382,2.0397949-12.9502411,3.3344116-19.6039734,3.8598022c-3.21698,0.2539063-10.6791687-1.0969849-13.0744324,1.7090454
			c-1.2407227,1.453186-1.1378479,5.0861206-0.1865692,6.6234131c1.7462921,2.821167,5.7991943,2.5015869,9.0420837,2.9205933
			C208.7878265,1017.2145996,215.3855133,1017.7501221,221.9927979,1017.975647z"/>
		<path style="fill:#1C1C1C;" d="M226.4933014,1059.9080811c0.4207306,1.0546875,1.0973358,2.2493896,2.2305756,2.3212891
			c1.4217224,0.0904541,2.2075348-1.5837402,3.3599701-2.4211426c1.3914032-1.0111084,3.3332977-0.741333,4.9490814-0.1519775
			c1.6159973,0.5894775,3.1799316,1.4620361,4.898407,1.5396729c1.718277,0.0777588,3.6736298-1.0336914,3.7229309-2.7531738
			c0.0618134-2.1531982-2.5202179-3.1724854-4.3108673-4.3696289c-3.0332794-2.0280762-4.3995361-5.7388916-5.4279633-9.2397461
			c-2.9235077-9.9511719-4.7536774-20.5389404-10.6734161-29.055481c-0.4255371-0.6123047-0.9105835-1.2420654-1.6104126-1.4998779
			c-0.7948456-0.2932739-1.6758575-0.0402832-2.4843292,0.2130737c-1.8511047,0.5804443-3.7336884,1.0864258-5.4755707,1.8952637
			c2.1457367,7.2366333,4.927002,13.7659912,6.1007385,21.4602051
			C222.8908997,1045.1790771,223.4807434,1053.0355225,226.4933014,1059.9080811z"/>
		<path style="fill:#1C1C1C;" d="M241.1480255,1041.3752441c0.2736969,1.0401611,0.743576,2.3327637,1.8177185,2.3890381
			c0.4061279,0.0212402,0.7932739-0.1595459,1.1535797-0.3483887c2.4914246-1.3057861,4.6615143-3.2193604,6.269043-5.5275879
			c0.3301392-0.4743652,0.6495361-1.0136719,0.5934906-1.5887451c-0.0669861-0.6867676-0.6395569-1.1984863-1.1672058-1.6433105
			c-5.3404541-4.5014648-10.1908722-9.5842285-14.4376221-15.1296997c-2.2432556-2.9292603-4.6893768-7.7266846-8.2689362-5.1807861
			c-4.0962677,2.9135132-0.4266968,5.5750122,1.9058075,8.1044312
			C234.1117401,1027.9783936,239.1949768,1033.9382324,241.1480255,1041.3752441z"/>
	</g>
	<path style="fill:#1C1C1C;" d="M169.2961884,996.1477661c-0.6100006,0.4179077-1.2885284,0.9906616-1.20578,1.7252197
		c0.0548859,0.4862061,0.4424133,0.8683472,0.8527832,1.1347656c1.874527,1.2169189,4.3291016,0.7905884,6.5140228,0.3197632
		c6.6087952-1.4238281,13.2174072-2.8476563,19.8262329-4.2714844c1.0564575-0.2276611,2.1891174-0.4984741,2.9012299-1.3115845
		c0.6811981-0.77771,0.8222809-1.8764038,0.9334412-2.90448c0.1838531-1.699646,0.3642883-3.4476929-0.0910034-5.09552
		C196.6852112,977.2683716,173.6993713,993.1323853,169.2961884,996.1477661z"/>
</g>
</svg>
