<?xml version="1.0" encoding="utf-8"?>
<!-- Generator: Adobe Illustrator 23.1.0, SVG Export Plug-In . SVG Version: 6.00 Build 0)  -->
<svg version="1.1" id="Слой_1" xmlns="http://www.w3.org/2000/svg" xmlns:xlink="http://www.w3.org/1999/xlink" x="0px" y="0px"
	 viewBox="0 0 1976.4 3801.3" style="enable-background:new 0 0 1976.4 3801.3;" xml:space="preserve">
<style type="text/css">
	.st0{fill:#1C1C1A;}
</style>
<g>
	<path class="st0" d="M1854.5,1622.5c0.8-100.3,3.8-200.9,2.5-301.2c-0.7-48.6-4.5-97.8-20.7-143.5c-17.1-48.1-59.8-72.3-75.1-107.3
		c-23.7-54.3-22.8-146.6-31.5-205.6c-10.3-69.4-22.1-139.2-28.1-209.2c6.5-8.3,17.9-15.1,23.1-25.9c6.8-14.3,0.2-28.8-7.7-41.8
		c3.8,0.2,7.8,0.6,12.8,1.1c11.8,1.2,18.2-12.8,16.3-23.5c-4.2-24.6-11.9-59.7-31.4-75.4c-27.7-22.4-84.1-13.7-116-14.5
		c-33.1-0.8-95.8-9.9-126.7,8.9c-24.1,14.6-33.7,51.7-39.8,79c-1.4,6.3,0.1,11.5,3,15.5c3.1,5.3,8.5,8.6,15.3,7.6
		c0.2,0,0.5,0,0.7-0.1c0.6-0.1,1.2,0.1,1.8-0.1c2.7-0.8,5.1-1.2,7.6-1.7c-6.3,15.1-14.1,32.4-7.2,47.3c3,6.5,8.2,12,12.9,17
		c2.8,3,5.7,5.9,8.5,8.9c0.2,0.2,0.6,0.7,1.1,1.4c-10.9,129-35.1,257.6-55.1,385.1c-7.2,46-34.8,53.4-56.6,95.4
		c-25.6,49.3-33.9,107.9-36.1,163.9c-7.6,195.2-7.2,396-0.3,591.2c5.3,149.7,127.7,138.9,233.4,136.3c89-2.1,272.6,33.8,290.7-104.2
		C1864.8,1829.6,1853.7,1720.8,1854.5,1622.5z M1716.3,1016.6c-85.7,9.3-171.5,11-257.5,4.5c11.4-72.6,23.7-145.6,34.2-218.8
		c64.2,7.9,127.6,2.7,191.7-4.6c8.4,57.8,18,115.5,26.8,172.9C1713.6,984.2,1714.8,1000.2,1716.3,1016.6z M1534.7,593
		c16-0.3,23.7-6,32.1-4.9c12.6,1.6,23.4,9,36.2,8.1c6.6-0.5,25.1-8.5,30.6-11.8c3.3,1.6,11.7,4.1,13.6,5.1
		c4.7,2.5,13.1,7.9,18.6,8.7c7.6,1,11.3-0.1,15-1.9c3.4,6.4,6.9,13,11.1,18c0.2,0.4,0.3,0.7,0.5,1.1c-0.6,0.9-1.3,1.8-1.7,2.2
		c-2,2.1-4.1,4.1-6.3,6.1c-0.4,0.1-0.8-0.1-1.3,0c-61.4,12.5-126.5,10.7-188.3,2.8c0,0,0,0-0.1,0c-3.1-3.3-6.3-6.4-9.3-8.9
		c0-0.2,0-0.2,0.1-0.4c0.6-1.9,1.2-3.7,1.8-5.5c2.9-8.4,6.3-16.5,9.2-24.9C1508.3,589.5,1519.9,593.3,1534.7,593z M1509.3,664.9
		c52.6,5.7,106.6,6,159.1-2c2.9,32.8,6.8,65.5,11.2,98.1c-60.6,6.8-120.7,11.3-181.5,4.5C1502.6,732,1506.4,698.4,1509.3,664.9z
		 M1598.7,512.9c23.5,0.5,56.4-3.1,78.9,4.1c17.4,5.5,25.3,17.1,29.9,31.6c-6.3-0.8-12.4-1.1-17.6,0.5c-5.3,1.6-9.7,6.3-14.2,9.4
		c-1.6,1.1-2.4,2-3.2,2.8c-11-4-23.6-14.8-35.5-15.1c-12.4-0.3-32.5,13.1-38.6,13.2c-4.5,0.1-24.1-9.9-34.5-10.3
		c-11-0.4-29.4,8-35.1,7.5c-5.7-0.5-23.2-13-33.9-14.5c-5.4-0.7-11.3-0.3-17.4,0.6C1502.8,505.3,1552.6,512,1598.7,512.9z
		 M1822.3,1425.3c-0.9,113.2-1.9,226.5-2.8,339.7c-0.4,43.6,2.2,88.7-1.1,132.2c-6.4,85.3-75.3,93.7-144.7,94.5
		c-73.5,0.9-168.3,20.7-238.9-0.6c-71.7-21.6-73.1-70.4-73.1-132.9c0-179.4-4-359.3,0-538.6c0.7-30,2.4-59.7,8.4-89.1
		c11.4-56.7,41.4-83.8,69.7-127.2c8.5-13.1,11.7-29.1,13.9-45.5c89.1,7.1,178.1,5.4,266.9-4.6c2.1,13.5,5,26.2,9.5,36.9
		c2.2,5.4,2,10.1,5.5,15.3c15,22.2,37.4,25.3,53.3,50.4c13,20.5,19.9,45.5,25.3,69.5C1828.5,1289.5,1822.8,1359.9,1822.3,1425.3z"/>
	<path class="st0" d="M1584.9,1298.2c-1.2,0-2.1,0.5-3.2,0.7c-0.5,0-0.8-0.2-1.3-0.1c-234.7,36.5-232.7,588.4,23,549.5
		C1848.2,1811.2,1835.3,1295.7,1584.9,1298.2z M1598.7,1809.8c-211.6,22.8-204.1-439.3-12.5-474.3
		C1794.3,1335.3,1799.6,1788.1,1598.7,1809.8z"/>
	<path class="st0" d="M1433.8,1317.2c6.4-41.9,23.2-78.3,50.7-108.1c15.5-16.8-8.4-43.1-23.9-26.3c-31.4,34-52.2,76.8-59.5,124.5
		C1397.6,1330.7,1430.2,1340.7,1433.8,1317.2z"/>
	<path class="st0" d="M1499.9,1169.9c21.8,0,21.8-37.2,0-37.2C1478.1,1132.8,1478,1169.9,1499.9,1169.9z"/>
</g>
<g>
	<path class="st0" d="M954.2,3442.8c-70.2-15.9-145-26.6-212.6-51.5c-13.3-4.9-18.1,16.6-5,21.4c67.6,24.8,142.5,35.5,212.6,51.5
		C963.1,3467.4,968.1,3445.9,954.2,3442.8z"/>
	<path class="st0" d="M1077.8,3141.4c78.6-112.6,141-240.5,135.2-381.8c-0.2-3.8-1.9-6.4-4.2-8.1c-1.1-1-2.6-1.7-4.3-2.2
		c-2-0.6-4-1.1-5.9-1.6c10.3-42.4-9.2-84.9-56.2-84.1c-0.4-66.1-91.6-96.4-130.1-43.8c-28.4-34.3-92.7-38.8-117.9,0.1
		c-31.1-13.3-63.8,9.4-62.3,43c-1.4-0.3-2.8-0.6-4.2-0.9c-1.9-0.4-3.6-0.3-5.1,0.1c-2.7,0.5-5.3,2.2-7,5.4
		c-67.4,124.2-67.6,266.6-46.6,402.3c12.4,80,4.2,138.5-31.3,212.3C715,3329.5,687,3373,680,3426.4c-0.7,5.1,1,9.5,5.5,12.2
		c45.9,27.7,105.5,33.7,157.1,46.1c47.9,11.5,98.4,27.4,148,24.7c5.2-0.3,8.7-3.8,10.3-8.5c16.4-48.7,11.8-97.9,11.5-148.2
		C1011.8,3268.5,1030.1,3209.7,1077.8,3141.4z M831.4,2685.4c119.8,26.1,241.4,50.4,359.5,83.1c0.8,39-4,78.5-13.2,117.2
		c-128.1-32.9-260.4-47.1-386.4-88C800.2,2758.6,813.3,2720.5,831.4,2685.4z M891.3,2643c5,3.9,14.3,4.4,17.2-2.8
		c25.5-35.2,56.5-33.6,93.3,5c2.7,8.1,16.5,11.3,20.2,2c19.2-48.3,110.2-41.7,97.6,26c-1.2,6.3,3.7,14.7,11.2,13.5
		c40,0.1,48.3,23.5,45.5,55c-105.5-28.3-213.5-50.5-320.3-73.6C854,2638.3,873.1,2631,891.3,2643z M952.6,3485.8
		c-35.3-4.7-70.5-14.4-105-22.7c-36.7-8.8-75.1-15.5-111.3-26.3c-34.8-10.3-36-13.2-26.4-43.8c6.5-20.8,15.5-41,25.7-60.2
		c26.3-49.8,56.1-103.2,63-160.1c9.2-75.9-21-153.6-22-229.6c-0.5-40.7,2.8-82.6,10.3-123.7c125.7,40.7,257.6,55,385.3,87.7
		c-11.3,40.8-27,80.4-45.6,117.2c-34.4,67.9-95.6,124.3-120.7,196.5c-18.8,54.2-15.6,115.1-13.8,171.5c0.7,21.8-0.1,43.8-3.4,65.4
		C984.3,3486.6,985.1,3490.2,952.6,3485.8z"/>
	<path class="st0" d="M1035.6,3103.7c4.6-9.5,16.9-16.6,23.8-24.9c6.7-8.1,12.9-16.7,18.4-25.7c13.2-21.3,22.9-44.5,32.6-67.5
		c5.5-13-13.9-23.5-19.4-10.5c-9.7,23-19.4,46.2-32.6,67.5c-6.7,10.8-14.3,21.1-23.2,30.2c-6.6,6.8-14.7,11.7-18.9,20.3
		C1010.1,3106,1029.4,3116.5,1035.6,3103.7z"/>
	<path class="st0" d="M1111.3,2945.8c13.8,3.2,18.8-18.2,5-21.4C1102.5,2921.2,1097.5,2942.6,1111.3,2945.8z"/>
</g>
<g>
	<path class="st0" d="M1678.8,3519.5c-69.1,19.9-139.8,46.7-211,57.5c-14,2.1-7.8,23.3,6,21.2c71.2-10.9,141.9-37.6,211-57.5
		C1698.4,3536.7,1692.4,3515.5,1678.8,3519.5z"/>
	<path class="st0" d="M1641.5,3195.9c14.5-136.6,7.4-278.7-65.9-399.6c-2-3.2-4.7-4.7-7.6-5c-1.5-0.3-3.1-0.3-4.8,0.1
		c-2,0.5-4,1-6,1.5c-11.4-42.1-49-69.9-89.8-46.5c-32.2-57.7-126.7-40.2-135.1,24.5c-41.4-16.3-99.9,10.8-103.2,57
		c-33.7,3.4-51.3,39-33.8,67.7c-1.4,0.4-2.7,0.8-4.1,1.2c-1.9,0.6-3.3,1.5-4.5,2.6c-2.1,1.8-3.6,4.5-3.6,8.1
		c0.9,141.3,69.4,266.1,153.4,374.8c49.5,64.1,70.5,119.3,75.1,201c2.9,52.5-0.6,104.1,19,154.2c1.9,4.8,5.4,7.8,10.7,8
		c53.6,2.2,108.7-21.4,159.8-35.5c47.4-13.1,99.4-23.5,141.5-49.8c4.4-2.8,5.8-7.5,4.9-12.4c-9.1-50.6-36.9-91.5-61.5-135.4
		C1645.1,3339.1,1632.7,3278.7,1641.5,3195.9z M1205.6,2915.4c117.5-34.9,235.8-72.3,355-100.7c19.6,33.8,34.4,70.7,45.1,109
		c-128.1,33.1-250.8,84.5-380.9,109.5C1213.6,2994.6,1206.7,2954.9,1205.6,2915.4z M1237.6,2849.4c6.2,1,14.6-3,13.8-10.7
		c5.3-43.1,33.3-56.7,84.1-40.6c6.3,5.8,19.9,1.9,18.6-8c-6.5-51.6,76.4-89.7,98-24.3c2,6.1,10.3,11.1,16.3,6.4
		c35.1-19.2,53.7-2.7,66.4,26.2c-106.1,26.1-211.4,58.9-316,90.2C1202.7,2863.3,1215.9,2847.6,1237.6,2849.4z M1698.1,3558
		c-33.2,12.9-68.7,21.4-103,30.8c-36.4,10.1-73.3,22.7-110.1,30.7c-35.5,7.7-37.9,5.8-44.3-25.6c-4.4-21.4-6.2-43.3-6.6-65.1
		c-1-56.3-0.6-117.4-22.1-170.7c-28.5-70.9-92.5-124.4-130.1-190.5c-20.1-35.4-37.4-73.7-50.7-113.3
		c129.7-25,252.1-76.2,379.8-109.2c9.8,41.2,15.2,83.4,16.6,124.6c2.7,76.1-23.8,155-10.9,230.4c9.7,56.6,41.9,108.4,70.7,156.9
		c11.1,18.8,21,38.4,28.5,58.9C1726.2,3543.3,1728.7,3546.1,1698.1,3558z"/>
	<path class="st0" d="M1586.4,3183.2c-0.5-10.6,6.8-22.7,8.8-33.2c2-10.3,3.2-20.9,3.7-31.4c1.3-25-1.4-50-4-74.8
		c-1.5-14-23.5-13.9-22,0.2c2.6,24.8,5.3,49.9,4,74.8c-0.7,12.7-2.4,25.4-5.7,37.7c-2.5,9.2-7.3,17.3-6.8,26.9
		C1565.1,3197.5,1587.1,3197.4,1586.4,3183.2z"/>
	<path class="st0" d="M1576.5,3008.4c13.6-3.9,7.7-25-6-21.2C1556.9,2991.1,1562.8,3012.3,1576.5,3008.4z"/>
</g>
<path class="st0" d="M465.2,293.4c-8.4-18.3-14.3-37.6-16.9-57.6c-2.4-18.6-4.8-42.7,5.1-59.7c3.6,1.3,7.2,2.6,10.8,3.9c0,0,0,0,0,0
	c-3.6,42.8,4.1,85.6,21.9,124.7c2.7,6,11.7,1,9-5c-16.6-36.4-23.6-76.1-20.9-115.9c4.7,1.8,9.4,3.7,14.1,5.6c0,0.2-0.1,0.3-0.1,0.4
	c-1.5,39.4,7.4,79.1,25.7,115.9c2.8,5.7,11,1.4,8.2-4.2c-17.1-34.4-25.3-71.5-24.4-108.3c7.6,3.2,15.1,6.5,22.5,10
	c-0.5,0.8-0.8,1.7-0.8,2.9c0.8,39,11.5,77.8,30.7,113.9c3.4,6.4,12.5,1,9.1-5.3c-18-33.8-27.5-70.2-28.6-106.5
	c4.8,2.3,9.5,4.6,14.2,7c0,0.1,0,0.2,0,0.4c4.6,39.6,20,76.9,44.8,108.1c4.1,5.1,12.7-0.4,8.6-5.6c-22.5-28.2-37.2-61.5-42.4-97.2
	c7.6,4,15.2,8.1,22.7,12.4c5.1,38.8,23.4,74.5,52.2,101.2c4.8,4.5,11.7-3.2,6.8-7.7c-24.9-23.1-41.6-53.6-47.6-86.9
	c6.1,3.6,12.2,7.3,18.2,11.1c22.2,33.8,47.6,65.4,76,94.3c4.6,4.7,11.5-2.9,6.9-7.6c-22.1-22.5-42.2-46.6-60.5-72.2
	c26.3,17.7,51.6,37,75.7,57.8c5,4.3,11.9-3.3,6.9-7.7c-24.2-20.9-49.6-40.4-76.1-58.2c28.1,8.8,55,20.9,80.4,36
	c5.7,3.4,10.2-5.8,4.6-9.2c-33.8-20.2-70.4-34.9-108.7-44c-1.3-1.2-2.9-1.5-4.4-1.1c0,0-0.1,0-0.1,0c-0.8-0.5-1.5-0.9-2.3-1.4
	c31.1-0.8,62.1,4.8,91.1,16.6c6.1,2.5,10.7-6.7,4.6-9.2c-35.4-14.4-73.5-20.2-111.5-16.8c-7.8-4.5-15.6-8.8-23.6-13.1
	c29.9-6.2,60.6-8,91-5.4c6.5,0.6,8.7-9.5,2.1-10.1c-36-3.1-72-0.3-107.1,8.2c-9.7-5-19.6-9.8-29.5-14.3
	c31.8-19.9,69.8-27.5,106.9-21c6.5,1.1,8.6-8.9,2.1-10.1c-41.5-7.3-84.4,1.8-119.3,25.5c-0.3,0.2-0.5,0.4-0.7,0.6
	c-8.3-3.7-16.7-7.2-25.1-10.6c27.5-21,60.2-33.5,94.9-36c6.6-0.5,6.1-10.7-0.5-10.3c-38.7,2.7-75.5,17.3-105.4,42
	c-5.5-2.1-10.9-4.1-16.4-6.1c19.7-28.3,49.3-48,82.9-55.9c6.5-1.5,3.3-11.3-3.1-9.8c-36.9,8.7-68.6,31.1-89.8,62.3
	c-0.2,0.1-0.5,0.2-0.7,0.3c-2.9,0.6-4.9,3.5-4.6,6.1c-10,17.7-9.4,40-7.4,59.8c2.2,22.9,8.4,45.2,18,66.1
	C458.1,302.5,467.9,299.4,465.2,293.4z"/>
<g>
	<g>
		<path class="st0" d="M1504.1,2294.7c-9.7-20.6-33.2-33.1-51.4-45.2c-24.5-16.3-49.6-31.7-75.6-45.6
			c-52.5-28-108.5-49.4-167.4-58.9c-8.6-1.4-10.8,12-2.2,13.3c54.6,8.9,106.5,28.1,155.5,53.4c24.4,12.6,48,26.6,71,41.6
			c17.5,11.4,45,24.7,56.3,44.4c-113,23.7-228.6,34.9-344.3,33.1c-8.7-0.1-7.3,13.3,1.3,13.5c94.8,1.4,189.6-5.8,282.9-21.5
			c-61.1,52.8-133.1,91.2-211.2,112.2c-8.4,2.3-3.6,14.9,4.7,12.7c45.2-12.2,88.7-30.2,129.3-53.5c18.9-10.9,37.2-22.9,54.7-35.9
			c8.9-6.6,17.5-13.5,26-20.6c4.1-3.5,8.2-7,12.2-10.6c3.6-3.3,6.3-7.2,11.2-8.6c3.1-0.9,6.6-1.3,9.8-1.9c8.4-1.7,16.7-3.5,25-5.3
			c12.2-2.6,24.4-5.2,36.6-8.1c17.3-4,34.5-8.4,51.7-13c8.7-2.4,17.4-4.8,26.1-7.3c4.2-1.2,8.4-2.4,12.6-3.7
			c1.6-0.5,12.2-2.5,12.6-3.8c-28.4,89.6-84.1,168.7-159.3,225.3c-7,5.2,0.8,16.3,7.8,11.1c36.1-27.1,68.3-59.6,95.1-96
			c26.9-36.5,48.5-77,63.7-119.7c1.4-3.9,2.7-7.7,4-11.6c1.1-3.3,1.6-7.9,4-10.3c5.5-5.4,17.4-8.1,24.7-9.7c5.9-1.4,12-2.1,18-3.2
			c9-1.6,17.9-4,26.4-7.2c2.7-1,5.5-2.1,7.5-4.2c2.9-2.8,4-7.3,2.9-11.1c-4.1-13.5-20.7-2.5-29,0.5c-12.6,4.5-25.3,8.9-38.1,13.1
			c-25.5,8.4-51.2,16.2-77,23.3C1556.3,2282.5,1530.3,2288.9,1504.1,2294.7z"/>
	</g>
	<g>
		<g>
			<path class="st0" d="M1490,2546.5c26.7-19.2,36.2-51.3,44.1-81.7c1.3-5-6.3-7.9-7.6-2.8c-7.5,29-16.1,60-41.7,78.3
				C1480.5,2543.3,1485.8,2549.5,1490,2546.5L1490,2546.5z"/>
		</g>
	</g>
	<g>
		<g>
			<path class="st0" d="M1436.7,2529.8c12.5-8.2,26-14.7,40.3-19.2c4.9-1.6,3.5-9.6-1.5-8c-15.7,5-30.3,11.9-44,21
				C1427.1,2526.4,1432.4,2532.6,1436.7,2529.8L1436.7,2529.8z"/>
		</g>
	</g>
	<g>
		<g>
			<path class="st0" d="M1439.1,2502.6c17.2-7.9,35.3-12.2,54.3-12.9c5.2-0.2,5.9-8.3,0.7-8.1c-20.4,0.7-39.9,5.1-58.4,13.6
				C1430.9,2497.4,1434.3,2504.8,1439.1,2502.6L1439.1,2502.6z"/>
		</g>
	</g>
	<g>
		<g>
			<path class="st0" d="M1446,2473.2c25.2-8.4,51.2-9.4,77.1-3.6c5.1,1.1,5.7-7,0.7-8.1c-27.4-6.1-54.6-4.5-81.2,4.4
				C1437.6,2467.5,1441.1,2474.8,1446,2473.2L1446,2473.2z"/>
		</g>
	</g>
	<g>
		<g>
			<path class="st0" d="M1550.4,2523.3c12.3-26.4,14.9-55.3,7.6-83.6c-1.3-5-9.3-3.6-8,1.5c7,27,4.5,54-7.3,79.3
				C1540.6,2525.2,1548.2,2528,1550.4,2523.3L1550.4,2523.3z"/>
		</g>
	</g>
	<g>
		<g>
			<path class="st0" d="M1580.1,2497.2c4.7-24.7,1.8-49.1-8.3-72.6c-2.2-5.1-10.4-1.5-8.2,3.5c9.5,22.1,11.9,45,7.5,68.2
				C1570.1,2501.7,1579.1,2502.5,1580.1,2497.2L1580.1,2497.2z"/>
		</g>
	</g>
	<g>
		<g>
			<path class="st0" d="M1605.4,2466.9c0.6-23.8-0.5-50.2-22.2-64.8c-4.3-2.9-9,3.7-4.7,6.6c19.2,12.9,19.3,36.7,18.8,57.4
				C1597.2,2471.4,1605.3,2472.1,1605.4,2466.9L1605.4,2466.9z"/>
		</g>
	</g>
	<g>
		<g>
			<path class="st0" d="M1543.2,2432c-24.2-8.6-49.2-10.3-74.3-5c-5.1,1.1-3.7,9.1,1.5,8c23.7-5,47.1-3.5,70,4.6
				C1545.3,2441.3,1548.2,2433.7,1543.2,2432L1543.2,2432z"/>
		</g>
	</g>
	<g>
		<g>
			<path class="st0" d="M1569.3,2409.3c-28.8-6.3-57.8-6.7-86.7-1.2c-5.1,1-3.7,9,1.5,8c28.3-5.4,56.4-4.9,84.5,1.3
				C1573.7,2418.5,1574.3,2410.4,1569.3,2409.3L1569.3,2409.3z"/>
		</g>
	</g>
	<g>
		<g>
			<path class="st0" d="M1582.3,2389.1c-24.3-10.5-50.3-12.2-75.8-4.9c-5,1.4-3.6,9.4,1.5,8c24.2-6.9,48.3-5.4,71.5,4.5
				C1584.2,2398.7,1587,2391.1,1582.3,2389.1L1582.3,2389.1z"/>
		</g>
	</g>
	<g>
		<g>
			<path class="st0" d="M1525.2,2371c24.8-7.4,49.9-7.5,74.6,0.3c5,1.6,7.8-6,2.8-7.6c-26-8.2-52.8-8.5-78.9-0.7
				C1518.8,2364.5,1520.2,2372.5,1525.2,2371L1525.2,2371z"/>
		</g>
	</g>
	<g>
		<g>
			<path class="st0" d="M1544.2,2355.6c20.4-7.1,41.6-7.9,62.5-2.4c5,1.3,7.9-6.3,2.8-7.6c-23.2-6.1-46.1-5.2-68.8,2.6
				C1535.8,2349.9,1539.3,2357.3,1544.2,2355.6L1544.2,2355.6z"/>
		</g>
	</g>
	<g>
		<g>
			<path class="st0" d="M1624.3,2440.5c3.7-26.6-7.8-52.6-29.8-67.9c-4.3-3-9,3.6-4.7,6.6c19.8,13.7,29.7,36.7,26.4,60.6
				C1615.5,2445,1623.6,2445.6,1624.3,2440.5L1624.3,2440.5z"/>
		</g>
	</g>
	<g>
		<g>
			<path class="st0" d="M1638.3,2401.8c1.8-19.6-6.8-38-23.1-50.7c-4.4-3.5-9.5,3.3-5.1,6.7c13.9,10.8,20.8,26.7,19.3,43.2
				C1628.9,2406.4,1637.8,2407.1,1638.3,2401.8L1638.3,2401.8z"/>
		</g>
	</g>
	<g>
		<g>
			<path class="st0" d="M1658.9,2378.1c-4.9-23.3-21-42.2-43.2-50.7c-4.9-1.9-7.7,5.7-2.8,7.6c19.5,7.5,33.7,24.1,38,44.6
				C1652,2384.6,1660,2383.2,1658.9,2378.1L1658.9,2378.1z"/>
		</g>
	</g>
	<g>
		<g>
			<path class="st0" d="M1564.9,2322.3c16.2-3.8,39-8.3,48.4,9.9c2.4,4.6,9.7,1.2,7.3-3.5c-11.3-21.9-36.9-19.1-57.2-14.4
				C1558.4,2315.5,1559.8,2323.5,1564.9,2322.3L1564.9,2322.3z"/>
		</g>
	</g>
	<g>
		<g>
			<path class="st0" d="M1464.2,2545.7c19.7-13.1,33.3-32.6,38.9-55.5c1.2-5-6.4-7.9-7.6-2.8c-5.2,21.8-17.8,39.7-36.5,52.1
				C1454.7,2542.3,1459.9,2548.5,1464.2,2545.7L1464.2,2545.7z"/>
		</g>
	</g>
	<g>
		<g>
			<path class="st0" d="M1192.3,2463.3c9-0.1,17.6-2.1,25.1-7.3c5.2-3.5,12.8-9.7,10.2-16.9c-2.2-6.2-9.9-7.3-15.5-8.1
				c-11.9-1.6-24-1.1-35.9,0.6c-5.2,0.7-3.7,8.7,1.5,8c11.6-1.7,23.8-2.3,35.4-0.3c3.8,0.7,4.6-0.1,4.2,4c-0.3,3.9-3.6,5.6-6.8,7.4
				c-5.4,3-11.4,4.4-17.6,4.4C1187.8,2455.3,1187,2463.4,1192.3,2463.3L1192.3,2463.3z"/>
		</g>
	</g>
	<g>
		<g>
			<path class="st0" d="M1215.2,2476.2c19.2-7.4,34.1-22.5,41.5-41.7c1.9-4.9-5.7-7.7-7.6-2.8c-6.7,17.4-20,30.5-37.3,37.2
				C1206.9,2470.8,1210.4,2478.1,1215.2,2476.2L1215.2,2476.2z"/>
		</g>
	</g>
	<g>
		<g>
			<path class="st0" d="M1249.1,2476.9c9.8-10.4,18.4-21.7,25.3-34.2c4.1-7.5,9.6-16.1,5.7-24.7c-8.8-19.6-44.7-18.2-61.7-16.2
				c-5.2,0.6-3.7,8.6,1.5,8c8.3-1,16.5-1.2,24.8-0.2c5,0.6,10.3,1.5,15.1,3.1c7,2.4,8.6,3.1,10.3,11c3.2,16-15.6,35.8-26.2,47
				C1240.4,2474.4,1245.6,2480.7,1249.1,2476.9L1249.1,2476.9z"/>
		</g>
	</g>
	<g>
		<g>
			<path class="st0" d="M1247.4,2429.4c-17.5-10.7-36.9-15.9-57.5-14.9c-5.1,0.2-5.9,8.3-0.7,8.1c19.1-0.9,37.1,3.5,53.5,13.5
				C1247.2,2438.8,1251.9,2432.1,1247.4,2429.4L1247.4,2429.4z"/>
		</g>
	</g>
	<g>
		<g>
			<path class="st0" d="M1278,2474.9c17.5-15.6,27.5-37,27.7-60.5c0.1-5.2-8-5.9-8.1-0.7c-0.2,21.5-8.8,40.7-24.8,55
				C1268.9,2472.1,1274.1,2478.4,1278,2474.9L1278,2474.9z"/>
		</g>
	</g>
	<g>
		<g>
			<path class="st0" d="M1252.9,2389.1c18.3,3.9,34.9,11.7,49.7,23c4.2,3.2,8.8-3.5,4.7-6.6c-16.1-12.2-34-20.3-53.7-24.5
				C1248.5,2380,1247.8,2388.1,1252.9,2389.1L1252.9,2389.1z"/>
		</g>
	</g>
	<g>
		<g>
			<path class="st0" d="M1277.6,2376.7c18.9,4.5,36.3,12.1,52.3,23.1c4.3,2.9,9-3.7,4.7-6.6c-16.6-11.3-34.7-19.4-54.2-24
				C1275.4,2367.9,1272.5,2375.5,1277.6,2376.7L1277.6,2376.7z"/>
		</g>
	</g>
	<g>
		<g>
			<path class="st0" d="M1303.5,2371.8c17.5,1.3,33,7.7,46.4,18.9c4,3.3,8.7-3.3,4.7-6.6c-14.5-12-31.7-18.9-50.4-20.3
				C1299,2363.3,1298.3,2371.4,1303.5,2371.8L1303.5,2371.8z"/>
		</g>
	</g>
	<g>
		<g>
			<path class="st0" d="M1322.9,2363.3c18.1,1.9,34.8,7.6,50.1,17.4c4.4,2.8,9.1-3.8,4.7-6.6c-16.5-10.5-34.6-16.8-54.1-18.8
				C1318.4,2354.7,1317.7,2362.7,1322.9,2363.3L1322.9,2363.3z"/>
		</g>
	</g>
	<g>
		<g>
			<path class="st0" d="M1320.3,2460.9c14.2-18,19.8-40.2,15.8-62.7c-0.9-5.1-8.9-3.7-8,1.5c3.6,20.6-1.5,40.2-14.5,56.6
				C1310.4,2460.3,1317.1,2465,1320.3,2460.9L1320.3,2460.9z"/>
		</g>
	</g>
	<g>
		<g>
			<path class="st0" d="M1350,2443.7c11-17.2,14.1-37.3,8.3-56.9c-1.5-4.9-9.5-3.5-8,1.5c5.2,17.5,3,35.3-6.9,50.7
				C1340.5,2443.4,1347.1,2448.1,1350,2443.7L1350,2443.7z"/>
		</g>
	</g>
	<g>
		<g>
			<path class="st0" d="M1381.5,2429.2c6.5-19.2,4.7-39.5-5.4-57.2c-2.6-4.5-9.9-1.1-7.3,3.5c9.1,15.9,11,33.6,5.1,50.9
				C1372.3,2431.3,1379.9,2434.1,1381.5,2429.2L1381.5,2429.2z"/>
		</g>
	</g>
	<g>
		<g>
			<path class="st0" d="M1403.4,2415.8c1.7-20.9,2.4-43.4-13.6-59.4c-3.7-3.7-9.9,1.5-6.2,5.2c14.5,14.4,13.3,34.6,11.7,53.5
				C1394.9,2420.3,1403,2421,1403.4,2415.8L1403.4,2415.8z"/>
		</g>
	</g>
	<g>
		<g>
			<path class="st0" d="M1353.7,2349.1c13.9,0.6,26.2,5.5,36.7,14.6c3.9,3.4,8.6-3.2,4.7-6.6c-11.5-10-25.5-15.5-40.7-16.1
				C1349.2,2340.8,1348.5,2348.9,1353.7,2349.1L1353.7,2349.1z"/>
		</g>
	</g>
	<g>
		<g>
			<path class="st0" d="M1428.2,2407.6c8.8-22.8,1.8-48.3-17.2-63.6c-4.1-3.3-8.7,3.4-4.7,6.6c16.2,13.1,21.8,34.8,14.3,54.2
				C1418.7,2409.7,1426.3,2412.5,1428.2,2407.6L1428.2,2407.6z"/>
		</g>
	</g>
	<g>
		<g>
			<path class="st0" d="M1155.5,2154c18.6,3,37.1,3.3,55.7,1c5.2-0.6,3.7-8.6-1.5-8c-18,2.2-35.7,1.8-53.6-1.1
				C1151.1,2145.1,1150.4,2153.2,1155.5,2154L1155.5,2154z"/>
		</g>
	</g>
	<g>
		<g>
			<path class="st0" d="M1217.3,2148.7c-10.6-14.8-24.7-25.9-41.4-33c-4.8-2-7.6,5.6-2.8,7.6c15.5,6.6,28.3,17,38,30.6
				C1214.1,2158.2,1220.3,2152.9,1217.3,2148.7L1217.3,2148.7z"/>
		</g>
	</g>
	<g>
		<g>
			<path class="st0" d="M1246.2,2153.2c-8.4-22.9-28.6-37.2-48.2-50.1c-4.4-2.9-9.1,3.7-4.7,6.6c18.5,12.2,37.6,25.3,45.5,46.9
				C1240.6,2161.5,1248,2158.1,1246.2,2153.2L1246.2,2153.2z"/>
		</g>
	</g>
	<g>
		<g>
			<path class="st0" d="M1269.4,2160.2c-1.7-22-13-41.7-31-54.5c-4.3-3-9,3.6-4.7,6.6c16.4,11.6,26.2,29.2,27.7,49.3
				C1261.8,2166.9,1269.8,2165.4,1269.4,2160.2L1269.4,2160.2z"/>
		</g>
	</g>
	<g>
		<g>
			<path class="st0" d="M1168.8,2181.4c24.7,2,48.4-6.6,65.9-24.2c3.7-3.7-1.5-9.9-5.2-6.2c-16.1,16.1-37.3,24.1-60,22.3
				C1164.3,2172.9,1163.6,2181,1168.8,2181.4L1168.8,2181.4z"/>
		</g>
	</g>
	<g>
		<g>
			<path class="st0" d="M1186.1,2198.2c16.8,0.3,33.1-3,48.2-10.5c8.7-4.3,28.3-13.6,28.3-24.9c0-1.9-0.9-3.4-2.6-4.2
				c-0.4-0.2-0.7-0.3-1.1-0.5c-4.8-2.2-7.6,5.4-2.8,7.6c0.4,0.2,0.7,0.3,1.1,0.5c-0.9-1.4-1.8-2.8-2.6-4.2
				c0,8.3-23.2,18.2-29.4,20.8c-12.3,5.1-25.1,7.3-38.4,7.1C1181.6,2190,1180.8,2198.1,1186.1,2198.2L1186.1,2198.2z"/>
		</g>
	</g>
	<g>
		<g>
			<path class="st0" d="M1216.9,2215c29.5-2,62.5-7.2,75.8-37.4c2.1-4.8-5.5-7.6-7.6-2.8c-11.9,27.2-43.5,30.5-69.6,32.3
				C1210.3,2207.4,1211.8,2215.4,1216.9,2215L1216.9,2215z"/>
		</g>
	</g>
	<g>
		<g>
			<path class="st0" d="M1237.7,2235.9c31.3-3.4,68.7-19.5,81.6-50.3c2-4.8-5.6-7.6-7.6-2.8c-11.8,28.1-47.3,42.1-75.5,45.2
				C1231.1,2228.5,1232.5,2236.5,1237.7,2235.9L1237.7,2235.9z"/>
		</g>
	</g>
	<g>
		<g>
			<path class="st0" d="M1295.9,2171.5c5.6-30.8-13.2-55.7-32-77.9c-3.4-4-9.6,1.2-6.2,5.2c17.4,20.7,35.4,43.2,30.1,72
				C1286.8,2176,1294.9,2176.6,1295.9,2171.5L1295.9,2171.5z"/>
		</g>
	</g>
	<g>
		<g>
			<path class="st0" d="M1321.7,2186.3c5.8-16.1,9.9-31.6,5-48.5c-4.5-15.4-14.3-28.7-23.7-41.5c-3.1-4.2-9.3,1-6.2,5.2
				c7.7,10.4,15.8,21.1,20.4,33.4c6.4,16.9,2.8,32.1-3.1,48.6C1312.4,2188.4,1320,2191.2,1321.7,2186.3L1321.7,2186.3z"/>
		</g>
	</g>
	<g>
		<g>
			<path class="st0" d="M1357.4,2197.9c5.5-29,4.6-64.8-17.2-87.3c-3.6-3.7-9.9,1.5-6.2,5.2c20.4,21,20.5,54.3,15.4,81.4
				C1348.3,2202.3,1356.4,2203,1357.4,2197.9L1357.4,2197.9z"/>
		</g>
	</g>
	<g>
		<g>
			<path class="st0" d="M1276.3,2248.9c35.4-0.2,67.9-16.2,89.5-44.3c3.2-4.2-3.4-8.8-6.6-4.7c-19.7,25.6-49.7,40.7-82.1,40.9
				C1271.8,2240.9,1271.1,2248.9,1276.3,2248.9L1276.3,2248.9z"/>
		</g>
	</g>
	<g>
		<g>
			<path class="st0" d="M1310.2,2265.7c32-4.9,60-21.3,80.1-46.6c3.3-4.1-3.4-8.8-6.6-4.7c-18.8,23.7-45.1,38.7-75,43.3
				C1303.6,2258.5,1305.1,2266.5,1310.2,2265.7L1310.2,2265.7z"/>
		</g>
	</g>
	<g>
		<g>
			<path class="st0" d="M1340.7,2278.2c16.6-3.2,32.6-8.8,47.2-17.3c10.3-6,27.2-15.2,31.7-26.7c0.5-1.3,0.3-3-0.7-4
				c-0.3-0.3-0.6-0.7-0.9-1c-3.6-3.8-9.8,1.4-6.2,5.2c-0.3-0.3-30.1,20.7-33,22.2c-12.5,6.5-25.8,10.9-39.6,13.5
				C1334.1,2271.2,1335.6,2279.2,1340.7,2278.2L1340.7,2278.2z"/>
		</g>
	</g>
	<g>
		<g>
			<path class="st0" d="M1372.6,2288.9c26.9,0.3,51.5-13.2,65.4-36.3c2.7-4.5-3.9-9.2-6.6-4.7c-12.3,20.6-33.9,33.2-58,32.9
				C1368.1,2280.7,1367.4,2288.8,1372.6,2288.9L1372.6,2288.9z"/>
		</g>
	</g>
	<g>
		<g>
			<path class="st0" d="M1414.6,2298.3c25.9,5.3,40.8-19.5,50.2-39.3c2.2-4.7-5.4-7.5-7.6-2.8c-7.9,16.7-19.8,38.6-41.9,34.1
				C1410.2,2289.2,1409.5,2297.3,1414.6,2298.3L1414.6,2298.3z"/>
		</g>
	</g>
	<g>
		<g>
			<path class="st0" d="M1467.4,2260.1c3.6-15.5,4.8-31.2,2.3-47c-1.5-9.9-3.4-26.2-13.7-30.9c-4.8-2.2-7.5,5.4-2.8,7.6
				c7,3.2,8.7,24.9,9.3,31.5c1.1,12.2,0,24.1-2.8,36C1458.6,2262.3,1466.2,2265.2,1467.4,2260.1L1467.4,2260.1z"/>
		</g>
	</g>
	<g>
		<g>
			<path class="st0" d="M1440.8,2243.7c2.4-24.1,5.2-57.9-9.7-78.7c-3.1-4.3-9.3,1-6.2,5.2c13.3,18.5,9.9,51.3,7.8,72.7
				C1432.2,2248.2,1440.3,2248.9,1440.8,2243.7L1440.8,2243.7z"/>
		</g>
	</g>
	<g>
		<g>
			<path class="st0" d="M1419.7,2228.5c2.9-16.5,3-33.2-0.5-49.6c-2.2-10.3-4.6-26.1-15.7-30.2c-4.9-1.8-7.7,5.8-2.8,7.6
				c9.5,3.5,11.5,26.5,12.4,35.5c1.3,12.1,0.6,24-1.5,36C1410.7,2232.9,1418.8,2233.6,1419.7,2228.5L1419.7,2228.5z"/>
		</g>
	</g>
	<g>
		<g>
			<path class="st0" d="M1391.2,2215c4-25.1,0.5-49.8-10.1-72.9c-2.2-4.7-9.5-1.3-7.3,3.5c10.1,21.9,13.2,45,9.3,68.8
				C1382.3,2219.5,1390.4,2220.1,1391.2,2215L1391.2,2215z"/>
		</g>
	</g>
	<g>
		<g>
			<path class="st0" d="M1149.1,2337.6c-15.9-16-36.5-23.7-59-22.2c-5.2,0.3-3.7,8.3,1.5,8c19.3-1.3,37.7,5.7,51.3,19.4
				C1146.5,2346.5,1152.8,2341.3,1149.1,2337.6L1149.1,2337.6z"/>
		</g>
	</g>
	<g>
		<g>
			<path class="st0" d="M1133.4,2331.7c-17.8,4.5-35.8,6.4-54.1,5.8c-5.2-0.2-5.9,7.9-0.7,8.1c19.1,0.6,37.8-1.3,56.3-5.9
				C1139.9,2338.4,1138.5,2330.4,1133.4,2331.7L1133.4,2331.7z"/>
		</g>
	</g>
	<g>
		<g>
			<path class="st0" d="M1165,2332c-19.7,10.8-40.6,17.5-62.9,20.1c-5.2,0.6-3.7,8.6,1.5,8c22.9-2.7,44.7-9.7,64.9-20.8
				C1173,2336.9,1169.6,2329.5,1165,2332L1165,2332z"/>
		</g>
	</g>
	<g>
		<g>
			<path class="st0" d="M1182.3,2335.6c-17.8,14.3-38.5,22.8-61.2,25.2c-5.2,0.6-3.7,8.6,1.5,8c24-2.6,46.1-11.9,64.9-27
				C1191.6,2338.5,1186.4,2332.3,1182.3,2335.6L1182.3,2335.6z"/>
		</g>
	</g>
	<g>
		<g>
			<path class="st0" d="M1205.5,2339.7c-3,9.2-13.1,14.2-21.2,18.4c-8.5,4.4-17.4,7.7-26.6,10.1c-5,1.3-3.6,9.3,1.5,8
				c12-3.2,23.6-7.6,34.3-13.9c8.3-4.9,16.5-10.2,19.6-19.7C1214.8,2337.6,1207.2,2334.8,1205.5,2339.7L1205.5,2339.7z"/>
		</g>
	</g>
	<g>
		<g>
			<path class="st0" d="M1232.4,2339.9c-2.9,9.4-14.7,15.5-22.4,20.6c-9.2,6.1-18.8,11.7-28.6,16.8c-4.6,2.4-1.2,9.8,3.5,7.3
				c11.5-6,22.6-12.6,33.3-20c8.5-5.8,18.6-11.6,21.8-22C1241.6,2337.8,1234,2334.9,1232.4,2339.9L1232.4,2339.9z"/>
		</g>
	</g>
	<g>
		<g>
			<path class="st0" d="M1266.5,2334.4c-11.6,16.5-27.5,28.4-46.6,35.1c-4.9,1.7-1.4,9.1,3.5,7.3c20.3-7.1,37.4-20.2,49.7-37.8
				C1276.1,2334.8,1269.5,2330.2,1266.5,2334.4L1266.5,2334.4z"/>
		</g>
	</g>
	<g>
		<g>
			<path class="st0" d="M1280.2,2330.2c-14.5-19.9-34.1-34.6-57.2-43.2c-4.9-1.8-7.7,5.8-2.8,7.6c21.9,8.1,40,21.9,53.8,40.8
				C1277.1,2339.7,1283.3,2334.4,1280.2,2330.2L1280.2,2330.2z"/>
		</g>
	</g>
	<g>
		<g>
			<path class="st0" d="M1239.6,2333c-10.6-19.2-28.2-32-49.7-36.2c-5.1-1-5.8,7.1-0.7,8.1c18.5,3.7,34,15.1,43.1,31.6
				C1234.8,2341,1242.1,2337.6,1239.6,2333L1239.6,2333z"/>
		</g>
	</g>
	<g>
		<g>
			<path class="st0" d="M1205.5,2334.1c-12.4-14.8-27.2-26.5-44.2-35.5c-4.6-2.4-7.4,5.2-2.8,7.6c15.8,8.3,29.4,19.4,40.8,33.1
				C1202.6,2343.3,1208.8,2338.1,1205.5,2334.1L1205.5,2334.1z"/>
		</g>
	</g>
	<g>
		<g>
			<path class="st0" d="M1171.3,2331.9c-10.4-13.7-22.9-25.4-37.2-35c-4.3-2.9-9,3.7-4.7,6.6c13.8,9.2,25.6,20.5,35.7,33.6
				C1168.3,2341.2,1174.5,2336,1171.3,2331.9L1171.3,2331.9z"/>
		</g>
	</g>
	<g>
		<g>
			<path class="st0" d="M1298.9,2327.3c-11.6-21.1-29.8-36.9-52.5-45.2c-4.9-1.8-7.7,5.8-2.8,7.6c20.7,7.5,37.4,21.7,48,41
				C1294.1,2335.4,1301.5,2331.9,1298.9,2327.3L1298.9,2327.3z"/>
		</g>
	</g>
	<g>
		<g>
			<path class="st0" d="M1323.3,2332.6c-0.7-23.3-18.7-43-42.1-45.1c-5.2-0.5-5.9,7.6-0.7,8.1c18.6,1.7,34.1,17.4,34.7,36.3
				C1315.4,2337.1,1323.5,2337.9,1323.3,2332.6L1323.3,2332.6z"/>
		</g>
	</g>
	<g>
		<g>
			<path class="st0" d="M1286.5,2336.2c-1.8,9.4-8.1,17-16.7,21c-4.7,2.2-1.3,9.5,3.5,7.3c11.4-5.2,19-15.4,21.3-27.6
				C1295.6,2331.8,1287.5,2331.1,1286.5,2336.2L1286.5,2336.2z"/>
		</g>
	</g>
	<g>
		<g>
			<path class="st0" d="M1301.3,2353.1c8.4-5.9,13.6-14.8,15.3-24.8c0.9-5.2-7.2-5.8-8.1-0.7c-1.4,8-5.9,14.7-12.5,19.3
				C1291.8,2350,1297,2356.2,1301.3,2353.1L1301.3,2353.1z"/>
		</g>
	</g>
</g>
<g id="snowflake_18_">
	<path class="st0" d="M1119.9,1569.2c-0.8-1.6-2.5-2.6-4.3-2.6c-0.8,0-1.5,0.2-2.2,0.5l-29.2,15l-13.5-7.8l44.7-22.9
		c2.4-1.2,3.3-4.2,2.1-6.5c-0.8-1.6-2.5-2.6-4.3-2.6c-0.8,0-1.5,0.2-2.2,0.5l-50.3,25.8l-12.4-7.2l23.7-12.1
		c2.4-1.2,3.3-4.2,2.1-6.5c-0.8-1.6-2.5-2.6-4.3-2.6c-0.8,0-1.5,0.2-2.2,0.5l-29.2,15l-13.5-7.8l44.7-22.9c2.4-1.2,3.3-4.2,2.1-6.5
		c-0.8-1.6-2.5-2.6-4.3-2.6c-0.8,0-1.5,0.2-2.2,0.5l-50.3,25.8l-7-4.1c0.3-1.3,0.5-2.6,0.5-3.9c0-7.7-5.1-14.2-12.1-16.3v-8.1
		l47.5-30.7c2.2-1.5,2.9-4.5,1.4-6.7c-0.9-1.4-2.4-2.2-4.1-2.2c-0.9,0-1.8,0.3-2.6,0.8l-42.2,27.3v-15.5l27.6-17.8
		c2.2-1.5,2.9-4.5,1.4-6.7c-0.9-1.4-2.4-2.2-4.1-2.2c-0.9,0-1.8,0.3-2.6,0.8L996,1471v-14.3l47.5-30.7c2.2-1.5,2.9-4.5,1.4-6.7
		c-0.9-1.4-2.4-2.2-4.1-2.2c-0.9,0-1.8,0.3-2.6,0.8l-42.2,27.3v-15.5l27.6-17.8c2.2-1.5,2.9-4.5,1.4-6.7c-0.9-1.4-2.4-2.2-4.1-2.2
		c-0.9,0-1.8,0.3-2.6,0.8L996,1418v-25.2c0-2.7-2.2-4.9-4.9-4.9s-4.9,2.2-4.9,4.9v25.2l-22.3-14.4c-0.8-0.5-1.7-0.8-2.6-0.8
		c-1.7,0-3.2,0.8-4.1,2.2c-1.5,2.2-0.8,5.3,1.4,6.7l27.6,17.8v15.5l-42.2-27.3c-0.8-0.5-1.7-0.8-2.6-0.8c-1.7,0-3.2,0.8-4.1,2.2
		c-1.5,2.2-0.8,5.3,1.4,6.7l47.5,30.7v14.3l-22.3-14.4c-0.8-0.5-1.7-0.8-2.6-0.8c-1.7,0-3.2,0.8-4.1,2.2c-1.5,2.2-0.8,5.3,1.4,6.7
		l27.6,17.8v15.5l-42.2-27.3c-0.8-0.5-1.7-0.8-2.6-0.8c-1.7,0-3.2,0.8-4.1,2.2c-1.5,2.2-0.8,5.3,1.4,6.7l47.5,30.7v8.1
		c-7,2.1-12.1,8.6-12.1,16.3c0,1.4,0.2,2.7,0.5,3.9l-7,4.1l-50.3-25.8c-0.7-0.4-1.4-0.5-2.2-0.5c-1.8,0-3.5,1-4.3,2.6
		c-1.2,2.4-0.3,5.3,2.1,6.5l44.7,22.9l-13.5,7.8l-29.2-15c-0.7-0.4-1.4-0.5-2.2-0.5c-1.8,0-3.5,1-4.3,2.6c-1.2,2.4-0.3,5.3,2.1,6.5
		l23.7,12.1l-12.4,7.2l-50.3-25.8c-0.7-0.4-1.4-0.5-2.2-0.5c-1.8,0-3.5,1-4.3,2.6c-1.2,2.4-0.3,5.3,2.1,6.5l44.7,22.9l-13.5,7.8
		l-29.2-15c-0.7-0.4-1.4-0.5-2.2-0.5c-1.8,0-3.5,1-4.3,2.6c-0.6,1.2-0.7,2.5-0.3,3.7c0.4,1.2,1.3,2.2,2.4,2.8l23.7,12.1l-21.8,12.6
		c-1.1,0.6-1.9,1.7-2.3,2.9c-0.3,1.3-0.2,2.6,0.5,3.7c0.9,1.5,2.5,2.4,4.2,2.4c0.8,0,1.7-0.2,2.4-0.6l21.8-12.6l-1.3,26.5
		c-0.1,2.7,1.9,5,4.6,5.1c0.1,0,0.2,0,0.2,0c2.6,0,4.7-2,4.8-4.6l1.6-32.8l13.5-7.8l-2.5,50.2c-0.1,2.7,1.9,5,4.6,5.1
		c0.1,0,0.2,0,0.2,0c2.6,0,4.7-2,4.8-4.6l2.8-56.4l12.4-7.2l-1.3,26.5c-0.1,1.3,0.4,2.5,1.2,3.5c0.9,1,2.1,1.5,3.4,1.6
		c0.1,0,0.2,0,0.2,0c2.6,0,4.7-2,4.8-4.6l1.6-32.8l13.5-7.8l-2.5,50.2c-0.1,2.7,1.9,5,4.6,5.1c0.1,0,0.2,0,0.2,0
		c2.6,0,4.7-2,4.8-4.6l2.8-56.4l7-4.1c3,2.9,7.1,4.7,11.7,4.7c4.5,0,8.6-1.8,11.7-4.7l7,4.1l2.8,56.4c0.1,2.6,2.3,4.6,4.8,4.6
		c0.1,0,0.2,0,0.2,0c2.7-0.1,4.7-2.4,4.6-5.1l-2.5-50.2l13.5,7.8l1.6,32.8c0.1,2.6,2.3,4.6,4.8,4.6c0.1,0,0.2,0,0.2,0
		c1.3-0.1,2.5-0.6,3.4-1.6c0.9-1,1.3-2.2,1.2-3.5l-1.3-26.5l12.4,7.2l2.8,56.4c0.1,2.6,2.3,4.6,4.8,4.6c0.1,0,0.2,0,0.2,0
		c2.7-0.1,4.7-2.4,4.6-5.1l-2.5-50.2l13.5,7.8l1.6,32.8c0.1,2.6,2.3,4.6,4.8,4.6c0.1,0,0.2,0,0.2,0c2.7-0.1,4.7-2.4,4.6-5.1
		l-1.3-26.5l21.8,12.6c0.7,0.4,1.6,0.6,2.4,0.6c1.7,0,3.3-0.9,4.2-2.4c0.6-1.1,0.8-2.4,0.5-3.7c-0.3-1.3-1.1-2.3-2.3-2.9l-21.8-12.6
		l23.7-12.1c1.2-0.6,2-1.6,2.4-2.8S1120.5,1570.4,1119.9,1569.2z"/>
	<path class="st0" d="M866.5,1467.6l25.6,14.8l-23.7,12.1c-1.2,0.6-2,1.6-2.4,2.8c-0.4,1.2-0.3,2.5,0.3,3.7c0.8,1.6,2.5,2.6,4.3,2.6
		c0.8,0,1.5-0.2,2.2-0.5l29.2-15l15.4,8.9l-44.7,22.9c-2.4,1.2-3.3,4.2-2.1,6.5c0.8,1.6,2.5,2.6,4.3,2.6c0.8,0,1.5-0.2,2.2-0.5
		l50.3-25.8l30.8,17.8c0.7,0.4,1.6,0.6,2.4,0.6c1.7,0,3.3-0.9,4.2-2.4c1.3-2.3,0.5-5.3-1.8-6.6l-30.8-17.8l-2.8-56.4
		c-0.1-2.6-2.2-4.6-4.8-4.6c-0.1,0-0.2,0-0.3,0c-2.7,0.1-4.7,2.4-4.6,5.1l2.5,50.2l-15.4-8.9l-1.6-32.8c-0.1-2.7-2.4-4.7-5.1-4.6
		c-2.7,0.1-4.7,2.4-4.6,5.1l1.3,26.5l-25.6-14.8c-0.7-0.4-1.6-0.7-2.4-0.7c-1.7,0-3.3,0.9-4.2,2.4c-0.6,1.1-0.8,2.4-0.5,3.7
		C864.5,1465.9,865.3,1467,866.5,1467.6z"/>
	<path class="st0" d="M1043.5,1635.5l-47.5-30.7v-35.6c0-2.7-2.2-4.9-4.9-4.9s-4.9,2.2-4.9,4.9v35.6l-47.5,30.7
		c-2.2,1.5-2.9,4.5-1.4,6.7c0.9,1.4,2.4,2.2,4.1,2.2c0.9,0,1.8-0.3,2.6-0.8l42.2-27.3v17.7l-27.6,17.8c-2.2,1.5-2.9,4.5-1.4,6.7
		c0.9,1.4,2.4,2.2,4.1,2.2c0.9,0,1.8-0.3,2.6-0.8l22.3-14.4v29.6c0,2.7,2.2,4.9,4.9,4.9s4.9-2.2,4.9-4.9v-29.6l22.3,14.4
		c0.8,0.5,1.7,0.8,2.6,0.8c1.7,0,3.2-0.8,4.1-2.2c1.5-2.2,0.8-5.3-1.4-6.7l-27.6-17.8v-17.7l42.2,27.3c0.8,0.5,1.7,0.8,2.6,0.8
		c1.7,0,3.2-0.8,4.1-2.2C1046.4,1639.9,1045.7,1636.9,1043.5,1635.5z"/>
	<path class="st0" d="M1019.2,1512.3c-2.3,1.3-3.1,4.3-1.8,6.6c0.9,1.5,2.5,2.4,4.2,2.4c0.8,0,1.7-0.2,2.4-0.6l30.8-17.8l50.3,25.8
		c0.7,0.4,1.4,0.5,2.2,0.5c1.8,0,3.5-1,4.3-2.6c1.2-2.4,0.3-5.3-2.1-6.5l-44.7-22.9l15.4-8.9l29.2,15c0.7,0.4,1.4,0.5,2.2,0.5
		c1.8,0,3.5-1,4.3-2.6c0.6-1.2,0.7-2.5,0.3-3.7s-1.3-2.2-2.4-2.8l-23.7-12.1l25.6-14.8c1.1-0.6,1.9-1.7,2.3-2.9
		c0.3-1.3,0.2-2.6-0.5-3.7c-0.9-1.5-2.5-2.4-4.2-2.4c-0.8,0-1.7,0.2-2.4,0.7l-25.6,14.8l1.3-26.5c0.1-2.7-1.9-5-4.6-5.1l-0.2,0
		c-2.6,0-4.7,2-4.9,4.6l-1.6,32.8l-15.4,8.9l2.5-50.2c0.1-1.3-0.4-2.5-1.2-3.5c-0.9-1-2.1-1.5-3.4-1.6c-2.7-0.1-5,1.9-5.1,4.6
		l-2.8,56.4L1019.2,1512.3z"/>
</g>
<path id="snowflake_11_" class="st0" d="M648.8,2078.5l-21.4,5.7l-11.1-6.4l22-5.9l-2.1-7.9l-29.9,8l-11-6.3l29.8-8l-2.1-7.9
	l-37.7,10.1l-11.2-6.5l11.8-3.2l-2.1-7.9l-19.7,5.3l-9.5-5.5l19.7-5.3l-2.1-7.9l-27.6,7.4l-6-3.4c0.4-1.6,0.6-3.3,0.6-5
	c0-3.3-0.8-6.5-2.1-9.3l7.6-4.4l27.6,7.4l2.1-7.9l-19.7-5.3l9.5-5.5l19.7,5.3l2.1-7.9l-11.8-3.2l11.2-6.5l37.7,10.1l2.1-7.9l-29.8-8
	l11-6.3l29.9,8l2.1-7.9l-22-5.9l11.1-6.4l21.4,5.7l2.1-7.9l-13.5-3.6l8.2-4.7l-4.1-7.1l-8.2,4.7l3.6-13.5l-7.9-2.1l-5.7,21.4
	l-11.1,6.4l5.9-22l-7.9-2.1l-8,29.9l-11,6.3l8-29.8l-7.9-2.1l-10.1,37.7l-11.2,6.5l3.2-11.8l-7.9-2.1l-5.3,19.7l-9.5,5.5l5.3-19.7
	l-7.9-2.1l-7.4,27.6l-8.4,4.8c-2.9-2.7-6.6-4.7-10.7-5.5V1996l20.2-20.2l-5.8-5.8l-14.4,14.4v-11l14.4-14.4l-5.8-5.8l-8.6,8.6V1949
	l27.6-27.6l-5.8-5.8l-21.8,21.8v-12.7l21.9-21.9l-5.8-5.8l-16.1,16.1v-12.8l15.7-15.7l-5.8-5.8l-9.9,9.9v-9.4h-8.2v9.4l-9.9-9.9
	l-5.8,5.8l15.7,15.7v12.8l-16.1-16.1l-5.8,5.8l21.9,21.9v12.7l-21.8-21.8l-5.8,5.8l27.6,27.6v12.9l-8.6-8.6l-5.8,5.8l14.4,14.4v11
	L499,1970l-5.8,5.8l20.2,20.2v10.6c-4.1,0.8-7.7,2.7-10.6,5.4l-8.6-5l-7.4-27.6l-7.9,2.1l5.3,19.7l-9.5-5.5l-5.3-19.7l-7.9,2.1
	l3.2,11.8l-11.2-6.5l-10.1-37.7l-7.9,2.1l8,29.8l-11-6.3l-8-29.9l-7.9,2.1l5.9,22l-11.1-6.4l-5.7-21.4l-7.9,2.1l3.6,13.5l-8.2-4.7
	l-4.1,7.1l8.2,4.7l-13.5,3.6l2.1,7.9l21.4-5.7l11.1,6.4l-22,5.9l2.1,7.9l29.9-8l11,6.3l-29.8,8l2.1,7.9l37.7-10.1l11.2,6.5
	l-11.8,3.2l2.1,7.9l19.7-5.3l9.5,5.5l-19.7,5.3l2.1,7.9l27.6-7.4l7.8,4.5c-1.4,2.9-2.2,6-2.2,9.4c0,1.6,0.2,3.1,0.5,4.6l-6.3,3.6
	l-27.1-7.3l-0.4-0.1l-2.1,7.9l19.7,5.3l-9.5,5.5l-19.2-5.1l-0.4-0.1l-2.1,7.9l11.8,3.2l-11.2,6.5l-37.3-10l-0.4-0.1l-2.1,7.9l29.8,8
	l-11,6.3l-29.5-7.9l-0.4-0.1l-2.1,7.9l22,5.9L407,2084l-21-5.6l-0.4-0.1l-2.1,7.9l13.5,3.6l-8.2,4.7l4.1,7.1l8.2-4.7l-3.6,13.5
	l7.9,2.1l5.7-21.4l11.1-6.4l-5.9,22l7.9,2.1l8-29.9l11-6.3l-8,29.8l7.9,2.1l10.1-37.7l11.2-6.5l-3.2,11.8l7.9,2.1l5.3-19.7l9.5-5.5
	l-5.3,19.7l7.9,2.1l7.4-27.6l5.4-3.1c3.1,4.6,8,8,13.7,9.2v5.2l-20.2,20.2l5.8,5.8l14.4-14.4v11l-14.4,14.4l5.8,5.8l8.6-8.6v12.9
	l-27.6,27.6l5.8,5.8l21.8-21.8v12.7l-21.9,21.9l5.8,5.8l16.1-16.1v12.8l-15.7,15.7l5.8,5.8l9.9-9.9v9.4h8.2v-9.4l9.9,9.9l5.8-5.8
	l-15.7-15.7v-12.8l16.1,16.1l5.8-5.8l-21.9-21.9v-12.7l21.8,21.8l5.8-5.8l-27.6-27.6v-12.9l8.6,8.6l5.8-5.8l-14.4-14.4v-11
	l14.4,14.4l5.8-5.8l-20.2-20.2v-5.1c5.8-1,10.8-4.3,14-8.9l5.3,3l7.4,27.6l7.9-2.1l-5.3-19.7l9.5,5.5l5.3,19.7l7.9-2.1l-3.2-11.8
	l11.2,6.5l10.1,37.7l7.9-2.1l-8-29.8l11,6.3l8,29.9l7.9-2.1l-5.9-22l11.1,6.4l5.7,21.4l7.9-2.1l-3.6-13.5l8.2,4.7l4.1-7.1l-8.2-4.7
	l13.5-3.6L648.8,2078.5z M531.1,2028c0,7.5-6.1,13.6-13.6,13.6s-13.6-6.1-13.6-13.6c0-7.5,6.1-13.6,13.6-13.6
	S531.1,2020.5,531.1,2028z"/>
<path id="snowflake_45_" class="st0" d="M636.9,3150.3H618l14.4-14.4l-9.7-9.7l-24.1,24.1h-19l27.2-27.2l-9.7-9.7l-37,37H538
	l44.9-44.9l-9.7-9.7l-54.6,54.6h-20.8l52.9-52.9l-4.5-4.5v-5.7h-74.8l14.7-14.7h77.2v-13.7h-63.4l15.7-15.7h52.3v-13.7h-38.5
	l13.4-13.4h34.2v-13.7h-20.4l13.4-13.4l-9.7-9.7l-13.4,13.4v-20.4H533v34.1l-13.4,13.4v-38.5h-13.7v52.3l-15.7,15.7v-63.4h-13.7
	v77.2l-14.7,14.7v-74.8h-6.3l-4.1-4.1l-52.9,52.9v-20.8l54.6-54.6l-9.7-9.7l-44.9,44.9v-22.2l37-37l-9.7-9.7l-27.2,27.2v-19
	l24.1-24.1l-9.7-9.7l-14.4,14.4v-18.9h-13.7v18.9l-14.4-14.4l-9.7,9.7l24.1,24.1v19l-27.2-27.2l-9.7,9.7l37,37v22.2l-44.9-44.9
	l-9.7,9.7l54.6,54.6v20.8l-52.9-52.9l-4.5,4.5h-5.7v74.8l-14.7-14.7V2986h-13.7v63.4l-15.7-15.7v-52.3h-13.7v38.5l-13.4-13.4v-34.1
	h-13.7v20.4l-13.4-13.4l-9.7,9.7l13.4,13.4h-20.4v13.7h34.2l13.4,13.4h-38.5v13.7h52.3l15.7,15.7H220v13.7h77.2l14.7,14.7h-74.8v6.3
	l-4.1,4.1l52.9,52.9h-20.8l-54.6-54.6l-9.7,9.7l44.9,44.8h-22.2l-37-37l-9.7,9.7l27.2,27.2h-19l-24.1-24.1l-9.7,9.7l14.4,14.4h-18.9
	v13.7h18.9l-14.4,14.4l9.7,9.7l24.1-24.1h19l-27.2,27.2l9.7,9.7l37-37h22.2l-44.9,44.9l9.7,9.7l54.6-54.6h20.8l-52.9,52.9l4.5,4.5
	v5.7h74.8l-14.7,14.7h-77.2v13.7h63.4l-15.7,15.7h-52.3v13.7h38.5l-13.4,13.4h-34.2v13.7h20.4l-13.4,13.4l9.7,9.7l13.4-13.4v20.4
	h13.7v-34.1l13.4-13.4v38.5h13.7v-52.3l15.7-15.7v63.4h13.7v-77.2l14.7-14.7v74.8h6.3l4.1,4.1l52.9-52.9v20.8l-54.6,54.6l9.7,9.7
	l44.9-44.9v22.2l-37,37l9.7,9.7l27.2-27.2v19l-24.1,24.1l9.7,9.7l14.4-14.4v18.9H399v-18.9l14.4,14.4l9.7-9.7l-24.1-24.1v-19
	l27.2,27.2l9.7-9.7l-37-37v-22.2l44.9,44.9l9.7-9.7l-54.6-54.6v-20.8l52.9,52.9l4.5-4.5h5.7V3237l14.7,14.7v77.2h13.7v-63.4
	l15.7,15.7v52.3h13.7v-38.5l13.4,13.4v34.1h13.7v-20.4l13.4,13.4l9.7-9.7l-13.4-13.4h20.4v-13.7h-34.2l-13.4-13.4h38.5v-13.7h-52.3
	l-15.7-15.7h63.4V3242h-77.2l-14.7-14.7h74.8v-6.3l4.1-4.1l-52.9-52.9h20.8l54.6,54.6l9.7-9.7l-44.9-44.8h22.2l37,37l9.7-9.7
	l-27.2-27.2h19l24.1,24.1l9.7-9.7l-14.4-14.4h18.9V3150.3z M425.6,3164.1l12.3,12.3h-17.1l-1.1-1.1l-1.1,1.1h-7.4v7.4l-1.1,1.1
	l1.1,1.1v17.4l-12.1-12.1v-1.6h-1.6l-5.3-5.3l-5.3,5.3h-1.6v1.6l-12.3,12.3v-17.1l1.1-1.1l-1.1-1.1v-7.4h-7.4l-1.1-1.1l-1.1,1.1
	h-17.4l12.1-12.1h1.6v-1.6l5.3-5.3l-5.3-5.3v-1.6H358l-12.3-12.3h17.1l1.1,1.1l1.1-1.1h7.4v-7.4l1.1-1.1l-1.1-1.1v-17.4l12.1,12.1
	v1.6h1.6l5.3,5.3l5.3-5.3h1.6v-1.6l12.3-12.3v17.1l-1.1,1.1l1.1,1.1v7.4h7.4l1.1,1.1l1.1-1.1h17.4l-12.1,12.1H424v1.6l-5.3,5.3
	l5.3,5.3v1.6H425.6z M445.1,3150.3l12.1-12.1h24.5v-13.7h-10.8l7.8-7.8l-9.7-9.7l-17.5,17.5h-17.4l23.5-23.5h70l-49.3,49.3H445.1z
	 M424.4,3114.7v-17.1l17.3-17.3l-9.7-9.7l-7.6,7.6v-11h-13.7v24.8l-12.3,12.3V3071l49.5-49.5v69.7L424.4,3114.7z M384.7,3104.2
	l-12.1-12.1v-24.5h-13.7v10.8l-7.8-7.8l-9.7,9.7l17.5,17.5v17.4l-23.5-23.5v-70l49.3,49.3V3104.2z M349.1,3124.9H332l-17.3-17.3
	l-9.7,9.7l7.6,7.6h-11v13.7h24.8l12.3,12.3h-33.2l-49.5-49.5h69.7L349.1,3124.9z M338.5,3164.6l-12.1,12.1h-24.5v13.7h10.8l-7.8,7.8
	l9.7,9.7l17.5-17.5h17.4l-23.5,23.5h-70l49.3-49.3H338.5z M359.2,3200.2v17.1l-17.3,17.3l9.7,9.7l7.6-7.6v11h13.7V3223l12.3-12.3
	v33.2l-49.5,49.5v-69.7L359.2,3200.2z M399,3210.7l12.1,12.1v24.5h13.7v-10.8l7.8,7.8l9.7-9.7l-17.5-17.5v-17.4l23.5,23.5v70
	l-49.3-49.3V3210.7z M434.5,3190.1h17.1l17.3,17.3l9.7-9.7l-7.6-7.6h11v-13.7h-24.8l-12.3-12.3h33.2l49.5,49.5H458L434.5,3190.1z"/>
<path id="snowflake_41_" class="st0" d="M604,753l-31.6,8.5l-8.8-5.1l24.4-6.6l-1.9-7.2l-31.6,8.5l-8.8-5.1l24.4-6.6l-1.9-7.2
	l-31.6,8.5l-8.8-5.1l24.4-6.5l-1.9-7.2l-31.6,8.5l-8.8-5.1l21.5-5.7l0.8,0.2l0.4,0.1l0.2-0.7l1.6-0.4l-0.7-2.8l0.9-3.2l-1.9-0.5
	l-0.2-0.6l-1.1,0.3l-21.3-5.7l8.8-5.1l31.2,8.4l0.4,0.1l1.9-7.2l-24.4-6.5l8.8-5.1l31.2,8.4l0.4,0.1l1.9-7.2l-24.4-6.6l8.8-5.1
	l31.2,8.4l0.4,0.1l1.9-7.2l-24.4-6.5l8.8-5.1l31.2,8.4l0.4,0.1l1.9-7.2l-24.4-6.5l21.1-12.2l-3.7-6.4l-21.1,12.2l6.5-24.4l-7.2-1.9
	l-8.5,31.6l-8.7,5.1l6.5-24.4l-7.2-1.9l-8.5,31.6l-8.7,5.1l6.5-24.4l-7.2-1.9l-8.5,31.6l-8.7,5.1l6.5-24.4l-7.2-1.9l-8.5,31.6
	l-8.7,5.1l5.7-21.5l0.9-0.9l-0.5-0.5l0.4-1.6l-2.8-0.7l-2.4-2.4l-1.4,1.4l-0.6-0.2l-0.3,1.1l-15.6,15.6v-10.1l23.1-23.1l-5.2-5.2
	l-17.9,17.9v-10.1l23.1-23.1l-5.2-5.2l-17.9,17.9V639l23.1-23.1l-5.2-5.2l-17.9,17.9v-10.1l23.1-23.1l-5.2-5.2L490.1,608v-24.3h-7.4
	V608l-17.9-17.9l-5.2,5.2l23.1,23.1v10.1l-17.9-17.9l-5.2,5.2l23.1,23.1v10.1l-17.9-17.9l-5.2,5.2l23.1,23.1v10.1l-17.9-17.9
	l-5.2,5.2l23.1,23.1v10.1l-15.7-15.7l-0.3-1.2l-0.7,0.2l-1.2-1.2l-2,2l-3.2,0.9l0.5,1.9l-0.5,0.5l0.8,0.8l5.7,21.3l-8.7-5.1
	l-8.5-31.6l-7.2,1.9l6.5,24.4l-8.7-5.1l-8.5-31.6l-7.2,1.9l6.5,24.4l-8.7-5.1l-8.5-31.6l-7.2,1.9l6.5,24.4l-8.7-5.1l-8.5-31.6
	l-7.2,1.9l6.5,24.4l-21.1-12.2l-3.7,6.4L391,665l-24.4,6.6l1.9,7.2l31.6-8.5l8.8,5.1l-24.4,6.6l1.9,7.2l31.6-8.5l8.8,5.1l-24.4,6.6
	l1.9,7.2l31.6-8.5l8.8,5.1l-24.4,6.6l1.9,7.2l31.6-8.5l8.8,5.1l-21.5,5.7l-0.8-0.2l-0.4-0.1l-0.2,0.7l-1.6,0.4l0.7,2.8l-0.9,3.2
	l1.9,0.5l0.2,0.6l1.1-0.3l21.3,5.7l-8.8,5.1l-31.2-8.4l-0.4-0.1l-1.9,7.2l24.4,6.5l-8.8,5.1l-31.2-8.4l-0.4-0.1l-1.9,7.2l24.4,6.6
	l-8.8,5.1l-31.2-8.4l-0.4-0.1l-1.9,7.2l24.4,6.6l-8.8,5.1l-31.2-8.4l-0.4-0.1l-1.9,7.2l24.4,6.5l-21.1,12.2l3.7,6.4l21.1-12.2
	l-6.5,24.4l7.2,1.9l8.5-31.6l8.7-5.1l-6.5,24.4l7.2,1.9l8.5-31.6l8.7-5.1l-6.5,24.4l7.2,1.9l8.5-31.6l8.7-5.1l-6.5,24.4l7.2,1.9
	l8.5-31.6l8.7-5.1l-5.7,21.5l-0.9,0.9l0.5,0.5l-0.4,1.6l2.8,0.7l2.4,2.4l1.4-1.4l0.6,0.2l0.3-1.1l15.6-15.6v10.1l-23.1,23.1l5.2,5.2
	l17.9-17.9v10.1l-23.1,23.1l5.2,5.2l17.9-17.9v10.1l-23.1,23.1l5.2,5.2l17.9-17.9v10.1l-23.1,23.1l5.2,5.2l17.9-17.9v24.3h7.4v-24.3
	l17.9,17.9l5.2-5.2l-23.1-23.1v-10.1l17.9,17.9l5.2-5.2l-23.1-23.1v-10.1l17.9,17.9l5.2-5.2l-23.1-23.1V762l17.9,17.9l5.2-5.2
	l-23.1-23.1v-10.1l15.7,15.7l0.3,1.2l0.7-0.2l1.2,1.2l2-2l3.2-0.9l-0.5-1.9l0.5-0.5l-0.8-0.8l-5.7-21.3l8.7,5.1l8.5,31.6l7.2-1.9
	l-6.5-24.4l8.7,5.1l8.5,31.6l7.2-1.9l-6.5-24.4l8.7,5.1l8.5,31.6l7.2-1.9l-6.5-24.4l8.7,5.1l8.5,31.6l7.2-1.9l-6.5-24.4l21.1,12.2
	l3.7-6.4l-21.1-12.2l24.4-6.6L604,753z M489.6,721.7h-6.7l-3.3-5.8l3.3-5.8h6.7l3.3,5.8L489.6,721.7z M493.6,716l7.6-4.4l16.1,4.3
	l-16.2,4.3L493.6,716z M490.1,709.5v-8.7l11.8-11.8l-4.3,16.2L490.1,709.5z M482.6,709.4l-7.6-4.4l-4.3-16.1l11.9,11.9V709.4z
	 M478.8,715.8l-7.6,4.4l-16.1-4.3l16.2-4.3L478.8,715.8z M482.4,722.2v8.7l-11.8,11.8l4.3-16.2L482.4,722.2z M489.8,722.4l7.6,4.4
	l4.3,16.1L489.8,731V722.4z"/>
<path id="snowflake_34_" class="st0" d="M1273.9,393.5l-2-7.5l-18.8,5l-9.2-5.3l18.9-5.1l-2-7.5l-26.4,7.1l-9-5.2l25.8-6.9l-2-7.5
	l-33.3,8.9l-8.8-5.1l30.7-8.2l-2-7.5l-38.2,10.2l-31.5-18.2l31.7-18.3l38.2,10.2l2-7.5l-30.7-8.2l8.8-5.1l33.3,8.9l2-7.5l-25.8-6.9
	l9-5.2l26.4,7.1l2-7.5l-18.9-5.1l9.2-5.3l18.8,5l2-7.5l-11.3-3l17.2-9.9l0.4-0.2l-3.9-6.7l-17.5,10.1l3-11.3l-7.5-2l-5,18.8
	l-9.2,5.3l5-18.5l0.1-0.4l-7.5-2l-7.1,26.4l-9,5.2l6.8-25.4l0.1-0.4l-7.5-2l-8.9,33.3l-8.8,5.1l8.1-30.3l0.1-0.4l-7.5-2l-10.2,38.2
	l-31.5,18.2v-36.5l28-28l-5.5-5.5l-22.5,22.5v-10.1l24.4-24.4l-5.5-5.5l-18.9,18.9v-10.4l19.3-19.3l-5.5-5.5l-13.8,13.8v-10.6
	l13.8-13.8l-5.5-5.5l-8.3,8.3v-20.3h-7.8v20.3l-8.3-8.3l-5.5,5.5l13.8,13.8V244l-13.8-13.8l-5.5,5.5l19.3,19.3v10.4l-18.9-18.9
	l-5.5,5.5l24.4,24.4v10.1L1132,264l-5.5,5.5l28,28v36.4l-31.7-18.3l-10.2-38.2l-7.5,2l8.2,30.7l-8.8-5.1l-8.9-33.3l-7.5,2l6.9,25.8
	l-9-5.2l-7.1-26.4l-7.5,2l5.1,18.9l-9.2-5.3l-5-18.8l-7.5,2l3,11.3l-17.2-9.9l-0.4-0.2l-3.9,6.7l17.5,10.1l-11.3,3l2,7.5l18.8-5
	l9.2,5.3l-18.9,5.1l2,7.5l26.4-7.1l9,5.2l-25.8,6.9l2,7.5l33.3-8.9l8.8,5.1l-30.7,8.2l2,7.5l38.2-10.2l31.5,18.2l-31.7,18.3
	l-38.2-10.2l-2,7.5l30.7,8.2l-8.8,5.1l-33.3-8.9l-2,7.5l25.8,6.9l-9,5.2l-26.4-7.1l-2,7.5l18.9,5.1l-9.2,5.3l-18.8-5l-2,7.5l11.3,3
	l-17.2,9.9l-0.4,0.2l3.9,6.7l17.5-10.1l-3,11.3l7.5,2l5-18.8l9.2-5.3l-5,18.5l-0.1,0.4l7.5,2l7.1-26.4l9-5.2l-6.8,25.4l-0.1,0.4
	l7.5,2l8.9-33.3l8.8-5.1l-8.1,30.3l-0.1,0.4l7.5,2l10.2-38.2l31.5-18.2v36.5l-28,28l5.5,5.5l22.5-22.5v10.1l-24.4,24.4l5.5,5.5
	l18.9-18.9v10.4l-19.3,19.3l5.5,5.5l13.8-13.8v10.6l-13.8,13.8l5.5,5.5l8.3-8.3v20.3h7.8v-20.3l8.3,8.3l5.5-5.5l-13.8-13.8v-10.6
	l13.8,13.8l5.5-5.5l-19.3-19.3v-10.4l18.9,18.9l5.5-5.5l-24.4-24.4v-10.1l22.5,22.5l5.5-5.5l-28-28v-36.4l31.7,18.3l10.2,38.2l7.5-2
	l-8.2-30.7l8.8,5.1l8.9,33.3l7.5-2l-6.9-25.8l9,5.2l7.1,26.4l7.5-2l-5.1-18.9l9.2,5.3l5,18.8l7.5-2l-3-11.3l17.2,9.9l0.4,0.2
	l3.9-6.7l-17.5-10.1L1273.9,393.5z M1154.8,346.7l-3.5-6.1l3.5-6.1h7l3.5,6.1l-3.5,6.1H1154.8z"/>
</svg>
