<?xml version="1.0" encoding="utf-8"?>
<!-- Generator: Adobe Illustrator 23.1.0, SVG Export Plug-In . SVG Version: 6.00 Build 0)  -->
<svg version="1.1" id="Слой_1" xmlns="http://www.w3.org/2000/svg" xmlns:xlink="http://www.w3.org/1999/xlink" x="0px" y="0px"
	 viewBox="0 0 1366 1498" style="enable-background:new 0 0 1366 1498;" xml:space="preserve">
<style type="text/css">
	.st0{fill:#1C1C1C;}
</style>
<g>
	<g>
		<path class="st0" d="M420.1,624.7c-1.6-0.7-2.7-2.3-2.7-4.2c0.1-2.5,2.1-4.4,4.6-4.4c20.8,0.5,42.4,3.1,64,7.7
			c47.2,10.1,89.7,28.6,119.7,52.2c1.9,1.5,2.3,4.3,0.7,6.3c-1.5,1.9-4.3,2.3-6.3,0.8c-29-22.8-70.2-40.7-116-50.5
			c-21.1-4.5-42.1-7-62.4-7.5C421.2,625.1,420.6,624.9,420.1,624.7z"/>
	</g>
	<g>
		<path class="st0" d="M381.4,783.7c-63.1-27.3-101.7-69.1-93.5-107.6c7.5-35.3,53.2-58.3,119.1-59.9c2.5-0.1,4.5,1.9,4.6,4.4
			c0.1,2.5-1.9,4.5-4.4,4.6c-60.7,1.5-104.1,22.2-110.6,52.8c-9.6,45,58.9,97.8,152.8,117.8c93.8,20,177.9-0.3,187.5-45.3
			c3-13.9-1.8-29.3-13.6-44.7c-1.5-2-1.2-4.8,0.8-6.3c1.9-1.5,4.8-1.2,6.3,0.8c13.6,17.5,18.9,35.5,15.3,52
			c-10.6,49.8-99.5,73.2-198.2,52.2C423.6,799.4,401.2,792.2,381.4,783.7z"/>
	</g>
	<g>
		<path class="st0" d="M274.3,1386.4c-53-22.9-86.4-61.5-78.9-96.7c7.1-33.3,48.2-55.3,104.7-56.2c2.5,0,4.5,1.9,4.5,4.4
			c0,2.5-1.9,4.5-4.4,4.5c-52.2,0.8-89.9,20.1-96,49.1c-8.5,39.8,44.5,85,118.1,100.7c36.1,7.7,71.6,7.1,100-1.6
			c27.5-8.4,44.9-23.4,48.9-42.2c6.2-28.8-20.1-61.7-67-83.7c-2.2-1.1-3.2-3.7-2.2-6c1-2.2,3.7-3.4,6-2.1
			c50.8,23.9,79,60.6,71.9,93.7c-4.7,22.1-24.2,39.5-55,48.9c-29.8,9.2-67,9.8-104.5,1.8C303.9,1397.5,288.4,1392.5,274.3,1386.4z"
			/>
	</g>
	<g>
		<path class="st0" d="M267.7,1414.4c-18.5-8-34.8-18-48-29.5c-24.2-21.1-35-44.9-30.3-67.1l6-28.1c0.5-2.4,2.9-4,5.3-3.5
			c2.4,0.5,4,2.9,3.5,5.3l-6,28.1c-4,18.8,5.7,39.6,27.4,58.5c22.4,19.5,54.6,34.5,90.7,42.2c73.6,15.7,140.4-3.9,148.9-43.8l6-28.2
			c0.5-2.4,2.9-4,5.3-3.5c2.5,0.5,4,2.9,3.5,5.3l-6,28.2c-9.5,44.7-81.1,67.4-159.5,50.7C297.9,1425.6,282.1,1420.6,267.7,1414.4z"
			/>
	</g>
	<g>
		<path class="st0" d="M400.9,1364.1c-10.5-4.6-19.8-20.5-24.5-30c-12.3-24.7-22-60.7-15.6-78.9c4.9-13.8,22.4-38.4,41-64.5
			c17.4-24.4,35.4-49.6,41.4-64.2c10.5-25.5,22.6-79.6,34.2-132c17.3-77.8,28.6-125.8,39.1-135.9c8.1-7.8,20.1-16.8,31.5-15.5
			c5.9,0.7,10.9,4,14.8,9.9c1.1,1.7,0.6,4-1.1,5.2c-1.7,1.1-4.1,0.6-5.2-1.1c-2.6-4-5.7-6.2-9.3-6.6c-6.6-0.8-15.6,4-25.4,13.5
			c-9.6,9.3-24.2,74.6-37,132.1c-11.7,52.7-23.8,107.1-34.6,133.2c-6.4,15.4-24.6,41-42.2,65.7c-17.5,24.5-35.6,49.9-40.1,62.7
			c-5.5,15.7,3.4,49.4,15.2,73c7.4,14.8,15.4,24.9,21.7,26.8c17.1,5.4,29.7-29.9,29.8-30.3c3-6.8-6.6-21.8-15.9-36.2
			c-1.8-2.8-3.6-5.6-5.4-8.5c-1.1-1.7-0.6-4.1,1.2-5.1c1.8-1.1,4.1-0.6,5.1,1.2c1.8,2.8,3.6,5.7,5.4,8.4
			c11.3,17.6,21.1,32.8,16.5,43c-0.5,1.4-14.8,42.3-39,34.7C402,1364.5,401.5,1364.3,400.9,1364.1z"/>
	</g>
	<g>
		<path class="st0" d="M408.1,1273.7c-0.9-0.4-1.7-1-2.2-1.9c-9-16.2-12-27.7-9.5-37.3c4.3-16.2,19.9-27.6,39.8-42.1
			c17-12.4,36.3-26.5,53.6-47.2c26.1-31.3,51.4-153.8,66.5-226.9c6.3-30.7,11.3-54.9,14.7-64.7c11.5-34.3,56.1-84.1,58-86.3
			c1.7-1.8,4.5-2,6.3-0.3c1.8,1.7,2,4.5,0.3,6.3c-0.5,0.5-45.2,50.6-56.1,83.1c-3.1,9.3-8.1,33.3-14.4,63.7
			c-16.3,78.8-40.9,197.8-68.4,230.9c-18,21.6-38.6,36.6-55.2,48.7c-18.4,13.4-32.9,24-36.4,37.1c-1.8,7,0.9,16.8,8.6,30.6
			c1.2,2.1,0.4,4.9-1.7,6.1C410.8,1274.2,409.3,1274.2,408.1,1273.7z"/>
	</g>
	<g>
		<path class="st0" d="M241.1,1291c-1.6-0.7-2.7-2.3-2.7-4.1c0-11.6,15.3-21.5,32.9-33.1c17.3-11.3,36.9-24.2,39.1-37.3
			c2.2-13.4-6.8-29-18.1-48.7c-10.2-17.8-23-39.9-30.6-67c-11.7-41.4,14.4-160.2,31.7-238.7c6.7-30.3,11.9-54.2,12.9-64
			c3.3-34.2-17.2-98.2-17.4-98.8c-0.8-2.4,0.5-4.9,2.9-5.6c2.4-0.8,4.9,0.5,5.6,2.9c0.9,2.7,21.2,66.4,17.8,102.4
			c-1,10.3-6.3,34.5-13,65.1c-16,73-42.9,195.1-31.8,234.4c7.3,26,19.2,46.7,29.7,64.9c12.2,21.3,21.9,38.1,19.2,54.6
			c-2.8,17-23.2,30.4-43,43.3c-13.6,8.9-28.9,18.9-28.9,25.6c0,2.5-2,4.5-4.5,4.5C242.3,1291.4,241.7,1291.2,241.1,1291z"/>
	</g>
	<g>
		<path class="st0" d="M609,791.9c-0.8-0.4-1.5-1-1.9-1.9c-0.9-1.9,0-4.1,1.8-4.9c3.1-1.4,4.8-3,4.9-4.7c0.4-4.2-6.1-10.2-9.3-12.5
			c-1.3-0.9-1.9-2.5-1.4-4c2.3-8.6-0.6-15.9-8.7-21.8c-1.7-1.2-2-3.6-0.8-5.2c1.2-1.7,3.5-2.1,5.2-0.8c9.7,7.1,13.9,16.7,12,27.3
			c3.8,3.1,11.2,10.2,10.4,17.7c-0.3,3.2-2.2,7.6-9.3,10.8C611,792.3,609.9,792.3,609,791.9z"/>
	</g>
	<g>
		<path class="st0" d="M307.6,731.5c-1.3-0.5-2.2-1.8-2.3-3.3c0-1.2-0.9-29.2,20.5-40.5c14.7-7.8,25-5,30.1-2.4
			c2.3-3.7,6.6-9.1,13.1-11.5c4.9-1.8,10-1.6,15.4,0.5c3.5-3.7,11.5-10.7,20.5-10.4c4.9,0.2,9.2,2.3,12.9,6.4c4.2-3,12-7.6,20.6-6.6
			c5.6,0.6,10.5,3.5,14.6,8.4c5-3.9,15.2-10.3,26-8.3c7.8,1.4,14.2,6.8,19.2,15.9c5-2.1,14-4.8,21-0.4c4.4,2.7,7,7.5,7.8,14.3
			c5-1.8,12.7-3.5,19.7-0.5c0.2,0.1,0.3,0.2,0.5,0.2c5.8,2.7,9.8,8.1,12.1,16.1c5.7-3,15.4-6.8,23.2-2.7c1.8,1,2.5,3.2,1.6,5
			c-1,1.8-3.4,2.4-5,1.6c-5.7-3.1-16.8,2.7-20.1,5.1c-1.1,0.7-2.4,0.9-3.6,0.4l0,0c-1.2-0.5-2-1.6-2.2-2.8c-1.4-8.3-4.4-13.6-9-15.8
			c-0.1-0.1-0.2-0.1-0.3-0.2c-7.9-3.4-18.3,2.5-18.4,2.6c-1.2,0.7-2.6,0.7-3.8,0c-1.2-0.7-1.8-1.9-1.8-3.3
			c0.1-4.9-0.5-11.2-4.4-13.6c-5-3.1-14.2,0.7-17,2.3c-0.9,0.5-2,0.6-3,0.3c-1-0.3-1.8-1-2.2-2c-4.1-8.9-9.3-13.9-15.4-15
			c-11.1-2.1-22.6,8.9-22.8,9c-0.8,0.8-1.9,1.2-3,1c-1.1-0.1-2.1-0.7-2.7-1.7c-3.3-5.1-7.3-8-11.7-8.5c-9-1.1-17.7,7.1-17.8,7.2
			c-0.8,0.7-1.9,1.1-3,1c-1.1-0.1-2-0.7-2.7-1.6c-2.9-4.2-6-6.2-9.5-6.4c-6.8-0.2-14.1,7-16.4,9.8c-1.1,1.4-2.9,1.8-4.6,1
			c-4.4-2.2-8.4-2.7-12.1-1.3c-7.1,2.6-10.9,11.2-10.9,11.3c-0.5,1.1-1.5,2-2.7,2.2c-1.2,0.2-2.5-0.1-3.4-1
			c-0.3-0.3-8.7-7.8-25.3,0.9c-17.3,9.1-16.5,33.3-16.5,33.5c0.1,2.1-1.5,3.8-3.6,3.9C308.6,731.9,308.1,731.8,307.6,731.5z"/>
	</g>
	<g>
		<path class="st0" d="M344.9,726.6c-3.8-1.7-5.9-6.2-4.9-10.8c1.1-5.2,5.8-8.7,10.4-7.7c4.7,1,7.5,6.1,6.4,11.2
			c-0.6,2.7-2.1,5.1-4.3,6.5c-1.9,1.2-4,1.6-6.1,1.2C345.8,727,345.4,726.8,344.9,726.6z M350.3,712.1c-0.2-0.1-0.5-0.2-0.7-0.2
			c-2.6-0.6-5.3,1.6-6,4.8c-0.7,3.1,0.8,6.3,3.5,6.8c1.4,0.3,2.5-0.2,3.3-0.7c1.3-0.9,2.3-2.4,2.7-4.1
			C353.7,715.9,352.5,713,350.3,712.1z"/>
	</g>
	<g>
		<path class="st0" d="M376.1,717.1c-4.8-2.1-7.4-5.6-6.7-8.9c0.9-4.2,6.9-6.4,13.6-5c1.3,0.3,2.5,0.7,3.7,1.2
			c4.8,2.1,7.4,5.5,6.7,8.9c-0.9,4.2-6.9,6.4-13.6,5C378.5,718,377.3,717.6,376.1,717.1z M385.2,707.8c-0.9-0.4-1.9-0.7-3-0.9
			c-4.8-1-8.7,0.3-9.1,2.1c-0.4,1.9,3.2,4.7,7.5,5.6c4.8,1,8.7-0.3,9.1-2.1C390,711.1,388.1,709.1,385.2,707.8z"/>
	</g>
	<g>
		<path class="st0" d="M424.4,727.7c-3.7-1.6-5.5-7.1-4.3-13.1c0.6-3,2-5.7,3.7-7.5c2-2.1,4.4-3,6.6-2.5c4.4,1,6.8,6.9,5.3,13.4
			c-1.4,6.6-6,11-10.4,10.1C425.1,728,424.8,727.8,424.4,727.7z M430.1,708.3c-1.3-0.3-2.4,0.2-3.5,1.3c-1.3,1.4-2.3,3.5-2.8,5.8
			c-1,4.8,0.4,8.5,2.5,9c2,0.4,4.9-2.4,5.9-7.2C433.2,712.7,431.8,709.1,430.1,708.3z"/>
	</g>
	<g>
		<path class="st0" d="M482.8,734c-5-2.2-7.8-6.6-6.9-10.9c1.1-5.1,7.3-8.1,13.7-6.7c6.7,1.4,10.8,6.8,9.8,11.8
			c-1.1,5.1-7.2,8.1-13.7,6.8C484.7,734.7,483.7,734.4,482.8,734z M491,720.7c-0.7-0.3-1.4-0.5-2.2-0.7c-4.4-0.9-8.7,0.8-9.3,3.9
			c-0.6,3,2.4,6.4,6.9,7.3c4.4,0.9,8.6-0.8,9.3-3.9C496.3,724.9,494.3,722.2,491,720.7z"/>
	</g>
	<g>
		<path class="st0" d="M461.8,770.5c-4.7-2-7.3-7.3-6.2-12.5c1.3-6,7-9.9,12.8-8.7c5.8,1.3,9.4,7.2,8.1,13.1c-0.6,2.9-2.3,5.4-4.7,7
			c-2.4,1.6-5.3,2.2-8.1,1.6C463,770.9,462.4,770.7,461.8,770.5z M468.8,753.4c-0.4-0.2-0.8-0.3-1.2-0.4c-3.8-0.8-7.5,1.8-8.4,5.8
			c-0.8,3.9,1.5,7.9,5.3,8.7c1.8,0.4,3.7,0,5.2-1.1c1.6-1.1,2.7-2.8,3.1-4.7C473.6,758.2,471.9,754.7,468.8,753.4z"/>
	</g>
	<g>
		<path class="st0" d="M527.8,749.7c-4.7-2-7.3-7.7-6.1-13.4c0.7-3.4,2.7-6.3,5.4-8.1c2.3-1.5,4.9-2,7.5-1.5
			c5.8,1.3,9.2,7.6,7.8,13.9c-0.7,3.4-2.7,6.3-5.4,8.1c-2.3,1.5-5,2-7.5,1.5C528.9,750.1,528.3,749.9,527.8,749.7z M534.9,730.7
			c-0.3-0.2-0.7-0.3-1.1-0.3c-1.6-0.3-3.2,0-4.7,0.9c-1.9,1.2-3.2,3.3-3.8,5.7c-0.9,4.4,1.3,8.7,5,9.5c1.6,0.3,3.2,0,4.7-0.9
			c1.9-1.2,3.3-3.3,3.8-5.7C539.6,736,537.9,732,534.9,730.7z"/>
	</g>
	<g>
		<path class="st0" d="M387.9,754.6c-4-1.7-6.1-4.7-5.5-7.5c0.8-3.6,5.6-5.5,11.2-4.3c5.6,1.2,9.2,4.9,8.5,8.4
			c-0.8,3.6-5.6,5.5-11.2,4.3C389.8,755.3,388.8,755,387.9,754.6z M395,747.2c-0.7-0.3-1.4-0.5-2.3-0.7c-3.7-0.8-6.5,0.3-6.7,1.4
			c-0.2,1.1,2.1,3.2,5.6,4c3.7,0.8,6.5-0.3,6.7-1.4C398.5,749.6,397.3,748.2,395,747.2z"/>
	</g>
	<g>
		<path class="st0" d="M426.2,785.1c-4.5-2-7.1-6.4-6.2-10.8c1.1-5.1,6.6-8.3,12.3-7.1c5.9,1.2,9.4,6.4,8.4,11.5
			c-1.1,5.1-6.7,8.3-12.3,7.1C427.6,785.7,426.9,785.4,426.2,785.1z M433.1,771.4c-0.5-0.2-1-0.4-1.5-0.5c-3.7-0.8-7.2,1.1-7.9,4.2
			c-0.6,3.1,1.8,6.3,5.5,7.1c3.7,0.8,7.2-1.1,7.9-4.2C437.6,775.4,436,772.6,433.1,771.4z"/>
	</g>
	<g>
		<path class="st0" d="M504.7,786.3c-3.7-1.6-5.8-5.9-4.8-10.2c0.5-2.5,2-4.6,4-6c1.9-1.2,4-1.6,6.1-1.2c4.7,1,7.3,5.8,6.3,10.6
			c-1,4.9-5.6,8.1-10.1,7.1C505.6,786.7,505.2,786.5,504.7,786.3z M509.9,772.9c-0.2-0.1-0.5-0.2-0.8-0.2c-1.1-0.2-2.3,0-3.3,0.7
			c-1.2,0.8-2.1,2.1-2.4,3.6c-0.6,2.8,0.9,5.6,3.5,6.2c2.5,0.5,5-1.4,5.7-4.3C513.2,776.3,512,773.8,509.9,772.9z"/>
	</g>
	<g>
		<g>
			<path class="st0" d="M557,879c-1.2-0.5-1.9-1.9-1.6-3.2L558,865c0.3-1.5,1.9-2.4,3.4-2.1c1.5,0.3,2.4,1.9,2.1,3.4l-2.6,10.9
				c-0.4,1.5-1.9,2.4-3.4,2.1C557.3,879.2,557.1,879.1,557,879z"/>
		</g>
		<g>
			<path class="st0" d="M420.3,1207c-0.3-0.1-0.6-0.3-0.8-0.6c-1.1-1.1-1.1-2.9,0-4c4-4.1,8.6-8.5,13.4-13.1l2.2-2.1
				c1.1-1.1,2.9-1,3.9,0.1c1.1,1.1,1.1,2.9-0.1,4l-2.2,2.2c-4.8,4.6-9.3,9-13.3,13C422.6,1207.3,421.3,1207.5,420.3,1207z
				 M446.3,1181.7c-0.3-0.1-0.6-0.3-0.9-0.6c-1.1-1.1-1.1-2.9,0-4c5.8-5.7,10.7-10.8,15-15.6c1-1.1,2.8-1.2,4-0.2
				c1.1,1,1.2,2.8,0.2,4c-4.4,4.9-9.3,10-15.2,15.8C448.5,1181.9,447.3,1182.1,446.3,1181.7z M470.7,1154.9
				c-0.2-0.1-0.4-0.2-0.7-0.4c-1.2-1-1.4-2.7-0.4-3.9c4.8-6,8.9-11.9,12.2-17.5c0.8-1.3,2.4-1.9,3.9-1c1.3,0.8,1.8,2.5,1,3.8
				c-3.4,5.9-7.7,12-12.6,18.2C473.2,1155.1,471.8,1155.4,470.7,1154.9z M489.4,1124c-1.4-0.6-2.1-2.2-1.5-3.6
				c2.1-5.2,4.6-12.1,7.3-20.3c0.5-1.5,2.1-2.3,3.5-1.8c1.4,0.5,2.3,2.1,1.8,3.5c-2.8,8.4-5.2,15.3-7.4,20.7
				C492.6,1123.9,490.9,1124.6,489.4,1124C489.5,1124,489.4,1124,489.4,1124z M501.2,1089.6c-1.3-0.6-2-2-1.5-3.4
				c2-6.5,4.1-13.5,6.2-20.8c0.4-1.5,2-2.3,3.5-1.9c1.6,0.4,2.3,2,1.9,3.5c-2.1,7.3-4.3,14.4-6.3,20.9c-0.5,1.5-2,2.3-3.5,1.8
				C501.4,1089.7,501.2,1089.6,501.2,1089.6z M511.5,1054.8c-1.3-0.5-2-2-1.6-3.3c1.9-6.8,3.9-13.8,5.8-21c0.4-1.5,2-2.4,3.5-2
				c1.5,0.5,2.4,2,2,3.5c-2,7.2-3.9,14.2-5.8,21c-0.4,1.5-2,2.4-3.5,1.9C511.7,1054.9,511.6,1054.8,511.5,1054.8z M521.1,1019.8
				c-1.3-0.5-1.9-1.9-1.6-3.3c1.9-7,3.8-14,5.6-21c0.4-1.5,1.9-2.4,3.4-2c1.4,0.4,2.4,1.9,2,3.4c-1.9,7-3.7,14.1-5.6,21
				c-0.4,1.5-1.9,2.4-3.5,2C521.4,1019.9,521.2,1019.8,521.1,1019.8z M530.4,984.7c-1.3-0.5-2-1.9-1.6-3.3l5.5-21.1
				c0.4-1.5,1.9-2.4,3.4-2c1.6,0.4,2.4,1.9,2,3.4l-5.4,21.1c-0.4,1.5-1.9,2.4-3.4,2C530.7,984.8,530.5,984.7,530.4,984.7z
				 M539.5,949.5c-1.2-0.5-1.9-1.9-1.6-3.2l5.3-21.1c0.4-1.5,1.9-2.4,3.4-2c1.6,0.4,2.4,1.9,2,3.4l-5.3,21.1c-0.4,1.5-1.9,2.4-3.4,2
				C539.7,949.6,539.6,949.6,539.5,949.5z M548.3,914.3c-1.2-0.5-1.9-1.9-1.6-3.2c1.9-7.9,3.7-15,5.2-21.2c0.4-1.5,1.9-2.4,3.4-2.1
				c1.5,0.3,2.4,1.9,2.1,3.4c-1.5,6.2-3.3,13.3-5.2,21.2c-0.4,1.5-1.9,2.4-3.4,2C548.6,914.4,548.4,914.3,548.3,914.3z"/>
		</g>
		<g>
			<path class="st0" d="M405,1227.2c-1.3-0.6-2-2-1.5-3.4c1-3,3-6.4,6.2-10.4c1-1.2,2.7-1.4,3.9-0.5c1.2,1,1.4,2.7,0.5,3.9
				c-2.7,3.4-4.5,6.4-5.2,8.7c-0.5,1.5-2.1,2.3-3.5,1.8C405.2,1227.2,405.1,1227.2,405,1227.2z"/>
		</g>
	</g>
	<g>
		<path class="st0" d="M836.1,713.3c-1.2-0.5-2.4-1.2-3.4-2.1c-4.3-3.6-6.1-9.6-4.9-16.8c1.1-6.5,4.4-13.4,9.5-19.5
			c10.9-13,26.5-17.9,35-10.8c4.3,3.6,6.1,9.6,4.9,16.8c-1.1,6.5-4.4,13.4-9.5,19.5C858,711.9,845.1,717.2,836.1,713.3z M866,668.9
			c-5-2.1-14.9,1.3-22.9,10.8c-4.2,5-7,10.7-7.9,15.9c-0.4,2.6-0.7,7.4,2.3,9.9c4.4,3.7,15.5,0.7,24.4-9.9c4.2-5,7-10.7,7.9-15.9
			c0.4-2.6,0.7-7.4-2.3-9.9C867,669.4,866.5,669.1,866,668.9z"/>
	</g>
	<g>
		<path class="st0" d="M346,1251.4c-1.6-0.7-2.5-2.4-2.2-4.2c1.2-5.6,8.2-21.5,17.2-41.8c11.5-26,25.8-58.3,32.1-78.9
			c13.2-42.8,56.3-187.8,56.7-254.3c0.1-24.9-11.5-33.7-21.5-36.8c-12.6-3.9-26.5,0.4-29.7,5.2c-1.1,1.7-3.5,2.1-5.2,1
			c-1.7-1.1-2.2-3.5-1-5.2c5.2-7.8,22.6-12.9,38-8.2c10.1,3.1,27,12.9,26.8,44c-0.4,67.4-43.7,213.3-57,256.4
			c-6.5,21-20.9,53.6-32.4,79.7c-8.1,18.3-15.7,35.5-16.7,40.3c-0.4,2-2.4,3.3-4.4,2.9C346.5,1251.6,346.3,1251.5,346,1251.4z"/>
	</g>
	<g>
		<path class="st0" d="M302.7,1369.9c-1.4-0.6-2.1-2.2-1.5-3.6c0.6-1.4,2.2-2.1,3.6-1.6c8.5,3.4,15.8,4.1,19,1.9
			c1.3-0.9,3-0.6,3.9,0.7c0.9,1.3,0.6,3-0.7,3.9C320.3,1375.8,309,1372.4,302.7,1369.9C302.7,1369.9,302.7,1369.9,302.7,1369.9z
			 M289.4,1363c-0.1-0.1-0.3-0.1-0.4-0.2c-8-5.2-14-11.1-16.8-16.6c-0.7-1.4-0.1-3.1,1.2-3.8c1.4-0.7,3.1-0.2,3.8,1.2
			c2.3,4.6,7.7,9.9,14.8,14.5c1.3,0.8,1.7,2.6,0.8,3.9C292.1,1363.1,290.7,1363.6,289.4,1363z M329.5,1357.8
			c-1.2-0.5-1.9-1.8-1.6-3.1c1-5.5,2.2-12.9,3.3-22c0.2-1.5,1.6-2.6,3.1-2.4c1.5,0.2,2.6,1.6,2.4,3.1c-1.2,9.2-2.3,16.8-3.4,22.4
			c-0.3,1.5-1.7,2.5-3.3,2.2C329.9,1358,329.7,1357.9,329.5,1357.8z M274.5,1333.1c-1.4-0.6-2-2.1-1.5-3.5c0.3-0.9,0.7-1.7,1.1-2.6
			c2.1-4.9,5.3-10.7,9.6-17.7c0.8-1.3,2.4-1.8,3.9-0.9c1.3,0.8,1.7,2.5,0.9,3.8c-4.2,6.8-7.2,12.3-9.2,17c-0.3,0.8-0.7,1.6-1,2.4
			c-0.5,1.4-2.1,2.2-3.6,1.6C274.6,1333.1,274.5,1333.1,274.5,1333.1z M334.7,1320.7c-1.1-0.5-1.8-1.6-1.7-2.9
			c0.8-7.4,1.7-15,2.4-22.3c0.2-1.5,1.5-2.7,3.1-2.5c1.5,0.2,2.7,1.6,2.5,3.1c-0.7,7.3-1.6,14.9-2.4,22.4c-0.2,1.5-1.6,2.7-3.1,2.5
			C335.2,1320.9,334.9,1320.9,334.7,1320.7z M293,1300.7c-0.1-0.1-0.3-0.2-0.5-0.3c-1.3-0.9-1.6-2.6-0.7-3.9
			c4.1-6.2,8.5-12.4,12.9-18.5c0.9-1.3,2.6-1.6,3.9-0.7c1.3,0.9,1.5,2.6,0.7,3.9c-4.3,6-8.7,12.2-12.8,18.3
			C295.7,1300.8,294.2,1301.2,293,1300.7z M338.6,1283.5c-1.1-0.5-1.8-1.6-1.7-2.9c1-9.7,1.8-17.8,2.4-22.4c0.2-1.5,1.6-2.6,3.1-2.4
			c1.5,0.2,2.6,1.6,2.4,3.1c-0.6,4.6-1.4,12.6-2.4,22.3c-0.2,1.5-1.5,2.7-3.1,2.5C339.1,1283.7,338.8,1283.6,338.6,1283.5z
			 M314.5,1270.1c-0.2-0.1-0.4-0.2-0.5-0.3c-1.3-0.9-1.6-2.6-0.7-3.9c4.6-6.5,9.2-13.2,12.4-18.4c0.8-1.3,2.6-1.7,3.9-0.9
			c1.3,0.8,1.7,2.5,1,3.8c-3.3,5.4-8,12.2-12.6,18.8C317.1,1270.2,315.7,1270.6,314.5,1270.1z M332.8,1237.8
			c-1.3-0.5-1.9-1.9-1.6-3.3c1.4-5.7,2.5-13,3.1-21.7c0.1-1.6,1.4-2.7,3-2.6c1.5,0.1,2.7,1.4,2.6,3c-0.6,9.2-1.7,16.6-3.2,22.7
			c-0.4,1.5-1.9,2.4-3.4,2C333.1,1237.9,332.9,1237.8,332.8,1237.8z M336.6,1200.7c-1-0.4-1.7-1.5-1.7-2.6
			c0.1-6.6,0.1-13.9-0.2-22.3c0-1.5,1.2-2.8,2.7-2.9c1.5,0,2.8,1.2,2.9,2.7c0.2,8.4,0.3,15.8,0.1,22.5c0,1.6-1.3,2.8-2.9,2.8
			C337.3,1200.9,336.9,1200.8,336.6,1200.7z M335.9,1163.3c-1-0.4-1.7-1.3-1.7-2.4c-0.3-7.4-0.7-14.9-1-22.4
			c-0.1-1.5,1.1-2.9,2.7-2.9c1.6-0.1,2.9,1.1,2.9,2.7c0.4,7.5,0.8,15,1.1,22.4c0.1,1.6-1.1,2.9-2.7,2.9
			C336.7,1163.6,336.3,1163.5,335.9,1163.3z M334.1,1126c-0.9-0.4-1.6-1.3-1.7-2.4l-0.1-1.3c-0.3-5.6-0.2-12.9,0.3-21.4
			c0.1-1.6,1.4-2.7,2.9-2.6c1.6,0.1,2.7,1.4,2.7,3c-0.4,8.3-0.5,15.4-0.2,20.8l0,1.3c0.1,1.5-1.1,2.8-2.7,2.9
			C334.9,1126.2,334.5,1126.2,334.1,1126z M335.4,1088.6c-1.1-0.5-1.8-1.6-1.7-2.8c0.6-7,1.4-14.5,2.3-22.4c0.2-1.5,1.6-2.6,3.1-2.5
			c1.6,0.2,2.6,1.6,2.5,3.1c-0.9,7.8-1.7,15.3-2.2,22.2c-0.1,1.6-1.5,2.7-3,2.6C335.9,1088.8,335.6,1088.7,335.4,1088.6z
			 M339.5,1051.4c-1.1-0.5-1.8-1.6-1.7-2.9c0.9-7.2,2-14.7,3.1-22.3c0.2-1.5,1.7-2.6,3.2-2.4c1.5,0.2,2.6,1.7,2.4,3.2
			c-1.1,7.6-2.1,15-3.1,22.2c-0.2,1.5-1.6,2.6-3.1,2.4C339.9,1051.6,339.7,1051.5,339.5,1051.4z M344.8,1014.4
			c-1.2-0.5-1.9-1.7-1.7-3c1.2-7.4,2.4-14.8,3.7-22.2c0.3-1.5,1.7-2.6,3.2-2.3c1.5,0.3,2.6,1.7,2.3,3.2c-1.3,7.4-2.5,14.8-3.6,22.1
			c-0.3,1.5-1.7,2.6-3.2,2.3C345.2,1014.6,345,1014.5,344.8,1014.4z M351,977.5c-1.2-0.5-1.9-1.8-1.7-3.1c1.4-7.4,2.8-14.8,4.2-22.1
			c0.3-1.5,1.8-2.5,3.3-2.2c1.6,0.3,2.5,1.8,2.2,3.3c-1.4,7.2-2.8,14.6-4.1,22c-0.3,1.5-1.7,2.5-3.3,2.3
			C351.4,977.7,351.2,977.6,351,977.5z M358.1,940.8c-1.2-0.5-1.9-1.8-1.6-3.1c1.6-7.6,3.1-14.9,4.8-22c0.3-1.5,1.8-2.5,3.3-2.1
			c1.5,0.4,2.5,1.8,2.1,3.4c-1.6,7-3.1,14.3-4.7,21.9c-0.3,1.5-1.8,2.5-3.3,2.2C358.5,941,358.3,940.9,358.1,940.8z M366.3,904.3
			c-1.2-0.5-1.9-1.9-1.6-3.2c1.9-7.9,3.8-15.2,5.7-21.8c0.4-1.5,2-2.4,3.5-1.9c1.6,0.4,2.4,2,1.9,3.4c-1.9,6.6-3.8,13.8-5.6,21.6
			c-0.4,1.5-1.9,2.4-3.4,2C366.6,904.4,366.4,904.4,366.3,904.3z M376.3,868.3c-1.3-0.6-2-2.1-1.5-3.5c1.5-4.4,2.9-8.2,4.2-11.3
			c2.2-5,4.1-8.3,6-10c1.1-1,2.9-0.9,4,0.2c1,1.1,1,2.9-0.2,4c-0.7,0.7-2.3,2.6-4.7,8.1c-1.3,2.9-2.6,6.6-4.1,10.9
			c-0.5,1.5-2.1,2.3-3.5,1.8C376.5,868.4,376.4,868.3,376.3,868.3z"/>
	</g>
	<g>
		<path class="st0" d="M309.3,1199.9c-5.5-26.6-18-93.2-16.1-142.5c0.9-22.7,10.6-66.4,20.9-112.8c12.4-55.8,29.4-132.1,20.7-139.9
			c-3.8-3.4-7.2-4.6-10.5-3.9c-6.1,1.3-10.8,9.5-12.1,12.6c-0.8,1.9-3,2.8-4.9,1.9c0,0,0,0,0,0c-1.9-0.8-2.8-3-2-4.9
			c0.3-0.6,6.3-14.4,17.4-16.9c5.7-1.3,11.4,0.6,17.1,5.6c11.2,10,0.5,62.2-18.4,147.1c-10.2,46-19.9,89.5-20.7,111.5
			c-1.8,48.5,10.5,114.4,15.9,140.4L309.3,1199.9z"/>
	</g>
	<g>
		<path class="st0" d="M506.9,811.1c-0.3-0.1-0.5-0.3-0.7-0.4c-1.7-1.2-2-3.6-0.8-5.2c31.4-42.1,188.8-252.6,205.8-258.7
			c1.4-0.5,2.9-0.1,3.9,0.9c1,1,1.3,2.6,0.8,3.9c-3.7,9.9-8,28.1-3.4,34.4c0.8,1.1,2.3,2.6,6.2,2.4c1.5-0.1,2.9,0.7,3.5,2.1
			c0.7,1.3,0.5,2.9-0.5,4.1L540.6,809.6c-1.3,1.6-3.7,1.8-5.3,0.4c-1.6-1.3-1.8-3.7-0.4-5.3l177.1-210.1c-2.6-1.1-4.3-2.8-5.4-4.3
			c-5.1-7-3.6-19.4-1.4-28.9C674.4,594.2,577,721.8,511.4,809.9C510.4,811.3,508.5,811.7,506.9,811.1z"/>
	</g>
	<g>
		<path class="st0" d="M724.8,596c-0.7-0.3-1.5-0.7-2.3-1.1c-4-2.3-8.6-7.5-8-19.5c0.7-14.3,9.2-34.1,15.9-37c1.9-0.8,4.1,0,4.9,1.9
			c0.8,1.9,0,4.1-1.9,4.9c-3.1,1.7-11.3,18.2-11.5,31.8c-0.1,4.1,0.6,9.3,4.3,11.4c1.7,0.9,3,1.4,4.1,1.5c-2-2.7-3.9-6.8-4.1-12.4
			c-0.3-7.8,4.9-21.6,13-29.9c5-5.1,10.7-7.7,16.5-7.6c2,0,3.7,1.7,3.7,3.8c0,2.1-1.7,3.7-3.8,3.7c-3.7,0-7.4,1.8-11,5.4
			c-7,7.2-11.1,19-10.9,24.4c0.3,7.6,4.9,10.6,5.1,10.8c0.9,0.6,1.5,1.4,1.7,2.4c0.2,1,0,2-0.6,2.9
			C738.1,595.9,732.8,599.4,724.8,596z"/>
	</g>
	<g>
		<path class="st0" d="M742.9,600.6c-2.6-1.1-4.7-2.9-6.1-5.2c-2.1-3.4-3.7-9.7,0.7-20.1c10.3-24.8,33-24.2,34-24.1
			c2.1,0.1,3.7,1.8,3.6,3.9c-0.1,2.1-1.8,3.7-3.9,3.6c-0.9,0-18.5-0.3-26.8,19.5c-2.4,5.8-2.9,10.6-1.2,13.4
			c1.3,2.2,3.7,2.8,5.5,2.9c2.1,0.2,3.6,2,3.4,4c-0.2,2.1-2,3.6-4,3.4C746.2,601.7,744.5,601.2,742.9,600.6z"/>
	</g>
	<g>
		<path class="st0" d="M833.6,711.8c-0.5-0.2-1-0.6-1.4-1.1C818.5,694,749.7,609.8,747,599.6c-3-11.7,3.9-22.2,11.3-28.2
			c12-9.6,24-6.3,24.5-6.1c0.7,0.2,1.3,0.6,1.7,1.1l85.6,95.3c1.4,1.5,1.2,3.9-0.3,5.3c-1.5,1.4-3.9,1.2-5.3-0.3l-84.8-94.4
			c-2.5-0.4-9.5-0.8-16.8,5c-5.6,4.5-10.8,12.3-8.7,20.5C756.5,605,806.8,668,838,706c1.3,1.6,1.1,3.9-0.5,5.3
			C836.4,712.2,834.9,712.3,833.6,711.8z"/>
	</g>
	<g>
		<path class="st0" d="M419.8,705.1c-0.2-0.1-0.4-0.2-0.6-0.3c-0.9-0.6-1.5-1.5-1.7-2.6l-24.2-164.3c-0.3-2,1.1-3.9,3.2-4.2
			c2-0.3,3.9,1.1,4.2,3.1l23.6,160.1l3.2-0.9l-23.4-158.4c-0.3-2,1.1-3.9,3.2-4.2c2-0.3,3.9,1.1,4.2,3.1l23.9,161.6
			c0.3,1.9-0.9,3.6-2.7,4.1l-10.4,3C421.5,705.5,420.6,705.4,419.8,705.1z"/>
	</g>
	<g>
		<path class="st0" d="M266.3,635.1c-15.4-6.7-24.4-15.5-25.7-25.9c-4-31.7,66.2-65.7,159.9-77.5c93.6-11.8,170.1,3.9,174,35.6
			c2.8,22.5-29.9,46-87.4,62.8c-2,0.6-4.1-0.6-4.6-2.5c-0.6-2,0.5-4.1,2.5-4.6c51.4-15,84.3-37,82.1-54.7
			c-3-23.7-70.3-41.1-165.7-29.1c-95.4,12-156.4,45.5-153.4,69.2c1.8,14.6,26.7,26.1,66.5,30.7c2.1,0.3,3.5,2.1,3.3,4.1
			c-0.2,2.1-2.1,3.5-4.1,3.3C294.3,644.2,278.3,640.3,266.3,635.1z"/>
	</g>
	<g>
		<path class="st0" d="M228.4,610.6c-0.5-0.2-1-0.6-1.4-1c-1.3-1.6-1.1-3.9,0.4-5.3L392.6,464c1.2-1,2.6-1.2,4.1-0.5l161.6,83.3
			c1.8,0.9,2.6,3.2,1.6,5c-1,1.8-3.3,2.4-5,1.6l-159.4-82.2L232.3,610C231.2,610.9,229.7,611.1,228.4,610.6z"/>
	</g>
	<g>
		<path class="st0" d="M352.8,559.3C352.8,559.3,352.8,559.3,352.8,559.3c-2-0.9-2.8-3.1-1.9-5l40.7-89c0.5-1.2,1.6-2,2.9-2.1
			c1.3-0.2,2.5,0.3,3.4,1.3l63.6,76.6c1.3,1.6,1.1,3.9-0.5,5.3c-1.6,1.3-3.9,1.1-5.3-0.5l-59.8-72l-38.2,83.6
			C356.8,559.3,354.7,560.1,352.8,559.3z"/>
	</g>
	<g>
		<path class="st0" d="M506.3,635.6c-0.5-0.2-0.9-0.5-1.2-1l-69.2-100.9c-0.9-1.3-0.5-3,0.7-3.9c1.3-0.9,3-0.6,3.9,0.7l69.2,100.9
			c0.9,1.3,0.6,3-0.7,3.9C508.2,635.9,507.2,635.9,506.3,635.6z"/>
	</g>
	<g>
		<path class="st0" d="M346.5,632.1c-1.3-0.5-2-1.9-1.6-3.3l24.2-89.1c0.4-1.5,1.9-2.4,3.4-2c1.5,0.4,2.4,1.9,2,3.4l-24.2,89.1
			c-0.4,1.5-1.9,2.4-3.4,2C346.7,632.2,346.6,632.2,346.5,632.1z"/>
	</g>
	<g>
		<path class="st0" d="M261.7,650.2c-0.2-0.1-0.4-0.2-0.5-0.3c-1.3-0.9-1.5-2.7-0.6-3.9l71.4-99c0.9-1.3,2.6-1.5,3.9-0.6
			c1.3,0.9,1.5,2.7,0.6,3.9l-71.4,99C264.3,650.3,262.9,650.7,261.7,650.2z"/>
	</g>
	<g>
		<path class="st0" d="M567.2,613c-0.2-0.1-0.4-0.2-0.6-0.4l-98.4-78.7c-1.2-1-1.4-2.7-0.4-3.9c1-1.2,2.7-1.4,3.9-0.4l98.4,78.7
			c1.2,1,1.4,2.7,0.4,3.9C569.7,613.1,568.3,613.5,567.2,613z"/>
	</g>
</g>
<g>
	<path class="st0" d="M1244.2,1037.1l32.8,10.9l0,14l-104.4-35.8l0-16.3l104.6-35.4l0,14.4l-32.9,11.1L1244.2,1037.1z
		 M1233.7,1002.8l-30.1,10.1c-6.8,2.3-13,3.8-19.1,5.4l0,0.3c6.2,1.6,12.5,3.3,18.9,5.3l30.2,10.3L1233.7,1002.8z"/>
	<path class="st0" d="M1172.8,958.9l0-13.5l93.2,0.3l0.1-44.6l11.3,0l-0.2,58.1L1172.8,958.9z"/>
	<path class="st0" d="M1274.2,819.1c2.5,5,4.9,14.9,4.9,27.6c-0.1,29.5-18.7,51.6-53,51.5c-32.7-0.1-54.8-22.3-54.7-54.7
		c0-13,2.9-21.2,4.7-24.8l11,3.3c-2.5,5.1-4.4,12.4-4.4,21.1c-0.1,24.5,15.5,40.8,43,40.9c25.6,0.1,42.1-14.6,42.1-40
		c0-8.2-1.7-16.6-4.3-22L1274.2,819.1z"/>
	<path class="st0" d="M1224.6,716c36,0.1,55,22,54.9,48.7c-0.1,27.6-21.5,46.9-53.1,46.8c-33.2-0.1-54.8-20.8-54.7-48.7
		C1171.7,734.3,1193.6,715.9,1224.6,716z M1226.1,797.1c22.3,0.1,42.4-12,42.4-33.2c0.1-21.4-19.6-33.5-43.3-33.6
		c-20.8-0.1-42.5,10.7-42.6,33.2C1182.5,785.8,1203.1,797,1226.1,797.1z"/>
	<path class="st0" d="M1173.5,684.9l43.7,0.1l0.1-50.5l-43.7-0.1l0-13.6l104.5,0.3l0,13.6l-49-0.1L1229,685l49,0.1l0,13.5
		l-104.5-0.3L1173.5,684.9z"/>
	<path class="st0" d="M1225.2,508.1c36,0.1,55,22,54.9,48.7c-0.1,27.6-21.5,46.9-53.1,46.8c-33.2-0.1-54.8-20.8-54.7-48.7
		C1172.3,526.4,1194.2,508,1225.2,508.1z M1226.6,589.2c22.3,0.1,42.4-12,42.4-33.2c0.1-21.4-19.6-33.5-43.3-33.6
		c-20.8-0.1-42.5,10.7-42.6,33.2C1183.1,577.9,1203.7,589.1,1226.6,589.2z"/>
	<path class="st0" d="M1174.1,490.5l0-13.5l93.2,0.3l0.1-44.6l11.3,0l-0.2,58.1L1174.1,490.5z"/>
	<path class="st0" d="M1174.4,384.4l0.2-56.3l11.3,0l-0.1,42.8l34.7,0.1l0.1-39.5l11.2,0l-0.1,39.5l47.3,0.1l0,13.5L1174.4,384.4z"
		/>
	<path class="st0" d="M1176,308.9c-1.4-6.8-2.1-16.6-2.1-25.9c0-14.4,2.7-23.7,8.6-30.2c4.7-5.3,11.8-8.2,19.9-8.2
		c13.8,0,22.9,8.7,26.6,19.8l0.5,0c2.8-8.1,10.3-12.8,21.1-15.3c14.6-3.4,24.7-5.8,28.7-8l0,14c-3,1.7-11.9,4-25,6.9
		c-14.4,3.1-19.9,8.6-20.4,20.9l0,12.7l45.3,0.1l0,13.5L1176,308.9z M1223.6,295.6l0-13.8c0-14.4-7.8-23.6-19.8-23.6
		c-13.5,0-19.4,9.7-19.6,24c0,6.5,0.6,11.2,1.2,13.3L1223.6,295.6z"/>
	<path class="st0" d="M1230.4,171.6l-0.1,40.6l37.7,0.1l0.1-45.3l11.3,0l-0.2,58.8l-104.5-0.3l0.2-56.4l11.3,0l-0.1,42.9l33,0.1
		l0.1-40.6L1230.4,171.6z"/>
	<path class="st0" d="M1230.7,95.3l-0.1,40.6l37.7,0.1l0.1-45.3l11.3,0l-0.2,58.8l-104.5-0.3l0.2-56.4l11.3,0l-0.1,42.9l33,0.1
		l0.1-40.6L1230.7,95.3z"/>
</g>
<g id="snowflake_25_">
	
		<ellipse transform="matrix(0.1602 -0.9871 0.9871 0.1602 102.0686 488.692)" class="st0" cx="338.2" cy="184.4" rx="14.7" ry="14.7"/>
	<path class="st0" d="M419.5,217.1l-6.8-3.9l-4.2,7.3l-10.9-6.3l10.2-17.7l-6.8-3.9l-10.2,17.7l-10.9-6.3l7.2-12.5l-6.8-3.9
		l-7.2,12.5l-9.1-5.2c1.3-3.2,2-6.7,2-10.4s-0.7-7.2-2-10.4l9.1-5.2l7.2,12.5l6.8-3.9l-7.2-12.5l10.9-6.3l10.2,17.7l6.8-3.9
		l-10.2-17.7l10.9-6.3l4.2,7.3l6.8-3.9l-4.2-7.3l8.3-4.8l-3.9-6.8l-8.3,4.8l-4.2-7.3l-6.8,3.9l4.2,7.3l-10.9,6.3l-10.2-17.7
		l-6.8,3.9l10.2,17.7L376,158l-7.2-12.5l-6.8,3.9l7.2,12.5l-9.1,5.2c-4.4-5.5-10.8-9.4-18.1-10.4v-10.5h14.4v-7.8h-14.4v-12.6h20.4
		v-7.8h-20.4v-12.6h8.4v-7.8h-8.4v-9.6h-7.8v9.6h-8.4v7.8h8.4v12.6h-20.4v7.8h20.4v12.6h-14.4v7.8h14.4v10.5
		c-7.3,1-13.7,4.9-18.1,10.4l-9.1-5.2l7.2-12.5l-6.8-3.9l-7.2,12.5l-10.9-6.3l10.2-17.7l-6.8-3.9l-10.2,17.7l-10.9-6.3l4.2-7.3
		l-6.8-3.9l-4.2,7.3l-8.3-4.8l-3.9,6.8l8.3,4.8l-4.2,7.3l6.8,3.9l4.2-7.3l10.9,6.3l-10.2,17.7l6.8,3.9l10.2-17.7l10.9,6.3l-7.2,12.5
		l6.8,3.9l7.2-12.5l9.1,5.2c-1.3,3.2-2,6.7-2,10.4s0.7,7.2,2,10.4l-9.1,5.2l-7.2-12.5l-6.8,3.9l7.2,12.5l-10.9,6.3l-10.2-17.7
		l-6.8,3.9l10.2,17.7l-10.9,6.3l-4.2-7.3l-6.8,3.9l4.2,7.3l-8.3,4.8l3.9,6.8l8.3-4.8l4.2,7.3l6.8-3.9l-4.2-7.3l10.9-6.3l10.2,17.7
		l6.8-3.9L289.5,217l10.9-6.3l7.2,12.5l6.8-3.9l-7.2-12.5l9.1-5.2c4.4,5.5,10.8,9.4,18.1,10.4v10.5h-14.4v7.8h14.4v12.6h-20.4v7.8
		h20.4v12.6h-8.4v7.8h8.4v9.6h7.8v-9.6h8.4v-7.8h-8.4v-12.6h20.4v-7.8h-20.4v-12.6h14.4v-7.8h-14.4V212c7.3-1,13.7-4.9,18.1-10.4
		l9.1,5.2l-7.2,12.5l6.8,3.9l7.2-12.5l10.9,6.3l-10.2,17.7l6.8,3.9l10.2-17.7l10.9,6.3l-4.2,7.3l6.8,3.9l4.2-7.3l8.3,4.8l3.9-6.8
		l-8.3-4.8L419.5,217.1z M358.3,184.4c0,11.1-9,20.1-20.1,20.1s-20.1-9-20.1-20.1c0-11.1,9-20.1,20.1-20.1S358.3,173.3,358.3,184.4z
		"/>
</g>
<path id="snowflake_21_" class="st0" d="M696.9,1027.5h-4.8l3.4-3.4l-2.4-2.4l-5.8,5.8h-6.4l7.5-7.5l-2.4-2.4l-9.9,9.9H674l7.5-23.3
	l0-0.1l-1.2-2l-24-5.2l1-1.7l13.8-3.7l-0.9-3.2l-10.6,2.8l3.3-5.7l7.9-2.1L670,980l-4.7,1.3l2.3-4l0.1-0.2l-2.9-1.7l-2.4,4.2
	l-1.3-4.7l-3.2,0.9l2.1,7.9l-3.2,5.6l-2.8-10.3l-3.2,0.9l3.6,13.5l-1.1,1.9L637,977.1L637,977h-2.4l-16.5,18.2l-1-1.7l3.7-13.8
	l-3.2-0.9l-2.8,10.6l-3.3-5.7l2.1-7.9l-3.2-0.9l-1.3,4.7l-2.3-4l-0.1-0.2l-2.9,1.7l2.4,4.2l-4.7-1.3l-0.9,3.2l7.9,2.1l3.2,5.6
	l-10.1-2.7l-0.2,0l-0.9,3.2l13.5,3.6l1.1,1.9l-24,5.2l-1.2,2l7.5,23.4h-2l-10.1-10.1l-2.4,2.4l7.8,7.8h-6.6l-5.8-5.8l-2.4,2.4
	l3.4,3.4h-4.8v3.3h4.8l-3.4,3.4l2.4,2.4l5.8-5.8h6.4l-7.5,7.5l2.4,2.4l9.9-9.9h2.2l-7.5,23.3l0,0.1l1.2,2l24,5.2l-1,1.7l-13.8,3.7
	l0.9,3.2l10.6-2.8l-3.3,5.7l-7.9,2.1l0.9,3.2l4.7-1.3l-2.3,4l-0.1,0.2l2.9,1.7l2.4-4.2l1.3,4.7l3.2-0.9l-2.1-7.9l3.2-5.6l2.8,10.3
	l3.2-0.9L617,1065l1.1-1.9l16.4,18.1l0.1,0.1h2.4l16.5-18.2l1,1.7l-3.7,13.8l3.2,0.9l2.8-10.6l3.3,5.7l-2.1,7.9l3.2,0.9l1.3-4.7
	l2.3,4l0.1,0.2l2.9-1.7l-2.4-4.2l4.7,1.3l0.9-3.2l-7.9-2.1l-3.2-5.6l10.1,2.7l0.2,0l0.9-3.2l-13.5-3.6l-1.1-1.9l24-5.2l1.2-2
	l-7.5-23.4h2l10.1,10.1l2.4-2.4l-7.8-7.8h6.6l5.8,5.8l2.4-2.4l-3.4-3.4h4.8V1027.5z M650.8,1027.5l3.4-3.4l-1.8-1.8l-5.3,5.3h-8.4
	l4.2-7.3l7.2-1.9l-0.7-2.5l-4.7,1.3l4-6.9l14.6,3.2l-4.6,14.2H650.8z M641.8,1015.3l-1.3-4.7l-2.5,0.7l1.9,7.2l-4.2,7.3l-4.2-7.3
	l1.9-7.2l-2.5-0.7l-1.3,4.7l-4-6.9l10-11.1l10,11.1L641.8,1015.3z M626.8,1017l-4.7-1.3l-0.7,2.5l7.2,1.9l4.2,7.3h-8.4l-5.3-5.3
	l-1.8,1.8l3.4,3.4h-8l-4.6-14.2l14.6-3.2L626.8,1017z M620.8,1030.8l-3.4,3.4l1.8,1.8l5.3-5.3h8.4l-4.2,7.3l-7.2,1.9l0.7,2.5
	l4.7-1.3l-4,6.9l-14.6-3.2l4.6-14.2H620.8z M629.7,1043l1.3,4.7l2.5-0.7l-1.9-7.2l4.2-7.3l4.2,7.3l-1.9,7.2l2.5,0.7l1.3-4.7l4,6.9
	l-10,11.1l-10-11.1L629.7,1043z M644.7,1041.3l4.7,1.3l0.7-2.5l-7.2-1.9l-4.2-7.3h8.4l5.3,5.3l1.8-1.8l-3.4-3.4h8l4.6,14.2
	l-14.6,3.2L644.7,1041.3z M662.3,1027.5l4.8-15l0-0.1l-1.2-2l-15.5-3.3l4.1-7.1l23.2,5l-7.3,22.6H662.3z M647.6,1005.4L637,993.7
	l-0.1-0.1h-2.4l-10.6,11.7l-4.1-7.1l15.9-17.6l15.9,17.6L647.6,1005.4z M621.1,1007.1l-15.5,3.3l-1.2,2l4.8,15.1h-8.2l-7.3-22.6
	l23.2-5L621.1,1007.1z M609.3,1030.8l-4.8,15l0,0.1l1.2,2.1l15.5,3.3l-4.1,7.1l-23.2-5l7.3-22.6H609.3z M624,1052.9l10.6,11.7
	l0.1,0.1h2.4l10.6-11.7l4.1,7.1l-15.9,17.6l-15.9-17.6L624,1052.9z M650.5,1051.3l15.5-3.3l1.2-2.1l-4.8-15.1h8.2l7.3,22.6l-23.2,5
	L650.5,1051.3z"/>
<g id="snowflake_10_">
	<polygon class="st0" points="998.8,1006.7 998.5,1006.6 996.8,1013 1032.9,1022.7 1047.3,1047.4 1053,1044.1 1038.7,1019.4 
		1048.3,983.5 1048.3,983.2 1042,981.5 1034,1011.3 1025.2,996 1031.2,973.5 1024.8,971.8 1020.5,987.9 1009.2,968.4 1003.5,971.7 
		1014.8,991.2 998.7,986.9 997,993.3 1019.4,999.3 1028.3,1014.6 	"/>
	<polygon class="st0" points="1044.2,1059.3 1044.2,1052.7 1015.6,1052.7 989.1,1026.3 984.5,1030.9 1006.3,1052.7 988.6,1052.7 
		972.2,1036.3 967.5,1041 979.3,1052.7 956.7,1052.7 956.7,1059.3 979.3,1059.3 967.5,1071 972.2,1075.7 988.6,1059.3 
		1006.3,1059.3 984.5,1081.1 989.1,1085.7 1015.6,1059.3 	"/>
	<polygon class="st0" points="1052.8,1068.1 1053,1067.9 1047.3,1064.6 1032.9,1089.3 996.8,1099 998.5,1105.4 1028.3,1097.4 
		1019.4,1112.7 997,1118.7 998.7,1125.1 1014.8,1120.8 1003.6,1140.1 1003.5,1140.3 1009.2,1143.6 1020.5,1124.1 1024.8,1140.2 
		1031.2,1138.5 1025.2,1116 1034,1100.7 1042,1130.5 1048.3,1128.8 1038.7,1092.6 	"/>
	<polygon class="st0" points="1113.2,1105.3 1113.5,1105.4 1115.2,1099 1079.1,1089.3 1064.9,1064.8 1064.7,1064.6 1059,1067.9 
		1073.3,1092.6 1063.7,1128.8 1070,1130.5 1078,1100.7 1086.8,1116 1080.8,1138.5 1087.2,1140.2 1091.5,1124.1 1102.6,1143.4 
		1102.8,1143.6 1108.5,1140.3 1097.2,1120.8 1113,1125 1113.3,1125.1 1115,1118.7 1092.6,1112.7 1083.7,1097.4 	"/>
	<polygon class="st0" points="1155.3,1052.7 1132.7,1052.7 1144.5,1041 1139.8,1036.3 1123.4,1052.7 1105.7,1052.7 1127.5,1030.9 
		1122.9,1026.3 1096.4,1052.7 1067.8,1052.7 1067.8,1059.3 1096.4,1059.3 1122.9,1085.7 1127.5,1081.1 1105.7,1059.3 1123.4,1059.3 
		1139.8,1075.7 1144.5,1071 1132.7,1059.3 1155.3,1059.3 	"/>
	<polygon class="st0" points="1059,1044.1 1064.7,1047.4 1079.1,1022.7 1114.9,1013.1 1115.2,1013 1113.5,1006.6 1083.7,1014.6 
		1092.6,999.3 1115,993.3 1113.3,986.9 1097.2,991.2 1108.5,971.7 1102.8,968.4 1091.5,987.9 1087.2,971.8 1080.8,973.5 1086.8,996 
		1078,1011.3 1070.1,981.8 1070,981.5 1063.7,983.2 1073.3,1019.4 	"/>
	<path class="st0" d="M1056,1045.8c-1.8,0-3.5,0.5-5.1,1.4c-2.3,1.4-4,3.5-4.7,6.2c-0.7,2.6-0.3,5.4,1,7.7c1.8,3.1,5.2,5.1,8.8,5.1
		c1.8,0,3.5-0.5,5.1-1.4c2.3-1.4,4-3.5,4.7-6.2c0.7-2.6,0.3-5.4-1-7.7C1063,1047.8,1059.6,1045.8,1056,1045.8z M1052.6,1055.1
		c0.2-0.9,0.8-1.7,1.7-2.2c0.5-0.3,1.2-0.5,1.8-0.5c1.3,0,2.5,0.7,3.1,1.8c0.5,0.8,0.6,1.8,0.4,2.7c-0.2,0.9-0.8,1.7-1.7,2.2
		c-0.5,0.3-1.2,0.5-1.8,0.5c-1.3,0-2.5-0.7-3.1-1.8C1052.4,1057,1052.3,1056,1052.6,1055.1z"/>
	<path class="st0" d="M1056,1043.1l14.1-23.6L1056,996l-14.1,23.6L1056,1043.1z M1056,1030.3l-6.4-10.7l6.4-10.7l6.4,10.7
		L1056,1030.3z"/>
	<path class="st0" d="M1017.4,1050l27.5-0.5l-13.3-24l-27.5,0.5L1017.4,1050z M1021.2,1043.3l-6.1-10.9l12.5-0.2l6.1,10.9
		L1021.2,1043.3z"/>
	<path class="st0" d="M1017.4,1062l-13.3,24l27.3,0.5l0.2,0l13.3-24l-27.3-0.5L1017.4,1062z M1015.2,1079.6l6.1-10.9l12.5,0.2
		l-6.1,10.9L1015.2,1079.6z"/>
	<path class="st0" d="M1056,1068.9l-14.1,23.6l14.1,23.6l14.1-23.6L1056,1068.9z M1056,1081.7l6.4,10.7l-6.4,10.7l-6.4-10.7
		L1056,1081.7z"/>
	<path class="st0" d="M1080.5,1086.5l27.5-0.5l-13.2-23.9l-0.1-0.2l-27.5,0.5l13.2,23.9L1080.5,1086.5z M1090.8,1068.7l6.1,10.9
		l-12.5,0.2l-6.1-10.9L1090.8,1068.7z"/>
	<path class="st0" d="M1094.6,1050l13.3-24l-27.5-0.5l-13.3,24L1094.6,1050z M1096.8,1032.4l-6.1,10.9l-12.5-0.2l6.1-10.9
		L1096.8,1032.4z"/>
</g>
<g id="snowflake_46_">
	<path class="st0" d="M129.8,1442.8l-11.1-6.4l10.2-5.2c1.3-0.7,1.8-2.3,1.1-3.5c-0.5-0.9-1.4-1.4-2.3-1.4c-0.4,0-0.8,0.1-1.2,0.3
		l-13.2,6.8l-6.2-3.6l19.9-10.2c0.6-0.3,1.1-0.9,1.3-1.5c0.2-0.7,0.2-1.4-0.2-2c-0.5-0.9-1.4-1.4-2.3-1.4c-0.4,0-0.8,0.1-1.2,0.3
		l-22.9,11.7l-12.7-7.3c0.8-2,1.2-4.2,1.2-6.5c0-2.3-0.4-4.5-1.2-6.5l12.7-7.3l22.9,11.7c0.4,0.2,0.8,0.3,1.2,0.3
		c1,0,1.9-0.5,2.3-1.4c0.3-0.6,0.4-1.3,0.2-2c-0.2-0.7-0.7-1.2-1.3-1.5l-19.9-10.2l6.2-3.6l13.2,6.8c0.4,0.2,0.8,0.3,1.2,0.3
		c1,0,1.9-0.5,2.3-1.4c0.7-1.3,0.1-2.9-1.1-3.5l-10.2-5.2l11.1-6.4c0.6-0.4,1-0.9,1.2-1.6c0.2-0.7,0.1-1.4-0.3-2
		c-0.5-0.8-1.3-1.3-2.3-1.3c-0.5,0-0.9,0.1-1.3,0.4l-11.1,6.4l0.6-11.4c0-0.7-0.2-1.4-0.7-1.9c-0.5-0.5-1.1-0.8-1.8-0.9
		c-1.5-0.1-2.7,1-2.8,2.5l-0.7,14.9l-6.2,3.6l1.1-22.3c0-0.7-0.2-1.4-0.7-1.9c-0.5-0.5-1.1-0.8-1.8-0.9c-1.5-0.1-2.7,1-2.8,2.5
		l-1.3,25.7l-12.7,7.3c-2.8-3.5-6.8-5.9-11.3-6.6v-14.6l21.6-14c0.6-0.4,1-1,1.1-1.7c0.1-0.7,0-1.4-0.4-2c-0.5-0.8-1.3-1.2-2.2-1.2
		c-0.5,0-1,0.1-1.4,0.4L75,1374.1v-7.2l12.5-8.1c1.2-0.8,1.6-2.4,0.8-3.6c-0.5-0.8-1.3-1.2-2.2-1.2c-0.5,0-1,0.1-1.4,0.4l-9.6,6.2
		v-12.8c0-1.5-1.2-2.6-2.6-2.6s-2.6,1.2-2.6,2.6v12.8l-9.6-6.2c-0.4-0.3-0.9-0.4-1.4-0.4c-0.9,0-1.7,0.5-2.2,1.2
		c-0.8,1.2-0.4,2.9,0.8,3.6l12.5,8.1v7.2l-18.8-12.1c-0.4-0.3-0.9-0.4-1.4-0.4c-0.9,0-1.7,0.5-2.2,1.2c-0.4,0.6-0.5,1.3-0.4,2
		c0.1,0.7,0.6,1.3,1.1,1.7l21.6,14v14.6c-4.6,0.7-8.6,3.1-11.3,6.6l-12.7-7.3l-1.3-25.7c-0.1-1.4-1.3-2.6-2.8-2.5
		c-0.7,0-1.4,0.3-1.8,0.9c-0.5,0.5-0.7,1.2-0.7,1.9l1.1,22.3l-6.2-3.6l-0.7-14.9c-0.1-1.4-1.2-2.5-2.6-2.5c-0.1,0-0.1,0-0.2,0
		c-0.7,0-1.4,0.3-1.8,0.9c-0.5,0.5-0.7,1.2-0.7,1.9l0.6,11.4l-11.1-6.4c-0.4-0.2-0.9-0.4-1.3-0.4c-0.9,0-1.8,0.5-2.3,1.3
		c-0.4,0.6-0.4,1.3-0.3,2c0.2,0.7,0.6,1.2,1.2,1.6l11.1,6.4l-10.2,5.2c-1.3,0.7-1.8,2.3-1.1,3.5c0.5,0.9,1.4,1.4,2.3,1.4
		c0.4,0,0.8-0.1,1.2-0.3l13.2-6.8l6.2,3.6l-19.9,10.2c-0.6,0.3-1.1,0.9-1.3,1.5c-0.2,0.7-0.2,1.4,0.2,2c0.5,0.9,1.4,1.4,2.3,1.4
		c0.4,0,0.8-0.1,1.2-0.3l22.9-11.7l12.7,7.3c-0.8,2-1.2,4.2-1.2,6.5c0,2.3,0.4,4.5,1.2,6.5l-12.7,7.3l-22.9-11.7
		c-0.4-0.2-0.8-0.3-1.2-0.3c-1,0-1.9,0.5-2.3,1.4c-0.3,0.6-0.4,1.3-0.2,2c0.2,0.7,0.7,1.2,1.3,1.5l19.9,10.2l-6.2,3.6l-13.2-6.8
		c-0.4-0.2-0.8-0.3-1.2-0.3c-1,0-1.9,0.5-2.3,1.4c-0.7,1.3-0.1,2.9,1.1,3.5l10.2,5.2l-11.1,6.4c-0.6,0.4-1,0.9-1.2,1.6
		c-0.2,0.7-0.1,1.4,0.3,2c0.5,0.8,1.3,1.3,2.3,1.3c0.5,0,0.9-0.1,1.3-0.4l11.1-6.4l-0.6,11.4c0,0.7,0.2,1.4,0.7,1.9
		c0.5,0.5,1.1,0.8,1.8,0.9c0,0,0.1,0,0.1,0c1.4,0,2.6-1.1,2.6-2.5l0.7-14.9l6.2-3.6l-1.1,22.3c0,0.7,0.2,1.4,0.7,1.9
		c0.5,0.5,1.1,0.8,1.8,0.9c0,0,0.1,0,0.1,0c1.4,0,2.6-1.1,2.6-2.5l1.3-25.7l12.7-7.3c2.8,3.5,6.8,5.9,11.3,6.6v14.6l-21.6,14
		c-1.2,0.8-1.6,2.4-0.8,3.6c0.5,0.8,1.3,1.2,2.2,1.2c0.5,0,1-0.1,1.4-0.4l18.8-12.1v7.2l-12.5,8.1c-0.6,0.4-1,1-1.1,1.7
		c-0.1,0.7,0,1.4,0.4,2c0.5,0.8,1.3,1.2,2.2,1.2c0.5,0,1-0.1,1.4-0.4l9.6-6.2v12.8c0,1.5,1.2,2.6,2.6,2.6s2.6-1.2,2.6-2.6v-12.8
		l9.6,6.2c0.4,0.3,0.9,0.4,1.4,0.4c0.9,0,1.7-0.5,2.2-1.2c0.4-0.6,0.5-1.3,0.4-2c-0.1-0.7-0.6-1.3-1.1-1.7l-12.5-8.1v-7.2l18.8,12.1
		c0.4,0.3,0.9,0.4,1.4,0.4c0.9,0,1.7-0.5,2.2-1.2c0.8-1.2,0.4-2.9-0.8-3.6l-21.6-14v-14.6c4.6-0.7,8.6-3.1,11.3-6.6L99,1431
		l1.3,25.7c0.1,1.4,1.2,2.5,2.6,2.5c0,0,0.1,0,0.1,0c0.7,0,1.4-0.3,1.8-0.9c0.5-0.5,0.7-1.2,0.7-1.9l-1.1-22.3l6.2,3.6l0.7,14.9
		c0.1,1.4,1.2,2.5,2.6,2.5c0,0,0.1,0,0.1,0c0.7,0,1.4-0.3,1.8-0.9c0.5-0.5,0.7-1.2,0.7-1.9l-0.6-11.4l11.1,6.4
		c0.4,0.2,0.9,0.4,1.3,0.4c0.9,0,1.8-0.5,2.3-1.3c0.4-0.6,0.4-1.3,0.3-2C130.9,1443.7,130.4,1443.1,129.8,1442.8z M84.9,1412.6
		c0,6.9-5.6,12.6-12.6,12.6s-12.6-5.6-12.6-12.6c0-6.9,5.6-12.6,12.6-12.6S84.9,1405.7,84.9,1412.6z"/>
	
		<ellipse transform="matrix(1.816200e-03 -1 1 1.816200e-03 -1340.4094 1482.3815)" class="st0" cx="72.3" cy="1412.6" rx="7.8" ry="7.8"/>
</g>
<g id="snowflake_37_">
	<polygon class="st0" points="965.3,159 965.1,159 967.1,162.4 970.3,160.5 992.8,166.6 993.8,162.8 975.1,157.8 980.7,154.5 
		998.5,159.3 999.5,155.5 985.5,151.8 991.3,148.4 1003.3,151.7 1004.3,147.9 996.1,145.7 1003.3,141.5 1003.5,141.4 1001.5,138 
		994.1,142.3 996.3,134.3 996.3,134.1 992.6,133.1 989.4,145.1 983.6,148.4 987.3,134.6 987.3,134.4 983.6,133.4 978.8,151.2 
		973.2,154.4 978.1,135.9 978.2,135.7 974.4,134.7 968.4,157.2 	"/>
	<polygon class="st0" points="1003.2,184.8 991.3,188 985.5,184.7 999.3,181 999.5,180.9 998.5,177.2 980.7,181.9 975.1,178.7 
		993.6,173.7 993.8,173.7 992.8,169.9 970.3,175.9 967.2,174.1 967,174 965.1,177.4 968.3,179.3 974.3,201.6 974.4,201.8 
		978.1,200.8 973.1,182.1 978.7,185.3 983.5,202.9 983.5,203.1 987.3,202 983.5,188.1 989.3,191.4 992.5,203.2 992.5,203.4 
		996.3,202.4 994.1,194.2 1001.3,198.3 1001.5,198.4 1003.4,195 996,190.8 1004.3,188.6 	"/>
	<polygon class="st0" points="955,183.2 951.1,183.2 951.1,186.9 934.7,203.4 937.4,206.1 951.1,192.5 951.1,199 938.1,211.9 
		940.9,214.7 951.1,204.5 951.1,211.1 942.3,219.9 945.1,222.7 951.1,216.7 951.1,225.2 955,225.2 955,216.7 961,222.7 963.8,219.9 
		955,211.1 955,204.5 965.2,214.7 968,211.9 955,199 955,192.5 968.7,206.1 971.5,203.4 955,186.9 	"/>
	<polygon class="st0" points="941.1,177.3 939.1,174 935.9,175.8 913.6,169.9 913.4,169.8 912.4,173.6 931.1,178.6 925.5,181.8 
		907.9,177.1 907.7,177.1 906.7,180.9 920.7,184.6 914.9,187.9 903.1,184.8 902.9,184.7 901.9,188.5 910.1,190.7 902.7,195 
		904.7,198.3 912.1,194.1 909.9,202.3 913.6,203.3 916.9,191.3 922.6,188 918.9,202 922.7,203 927.4,185.2 933,182 928,200.7 
		931.8,201.7 937.8,179.2 	"/>
	<polygon class="st0" points="903,151.6 914.9,148.4 920.7,151.7 906.7,155.4 907.8,159.2 925.5,154.5 931.1,157.7 912.6,162.7 
		912.4,162.7 913.4,166.5 935.9,160.5 939.2,162.3 941.1,159 937.9,157.1 931.9,134.8 931.9,134.6 928.1,135.6 933.1,154.3 
		927.5,151.1 922.8,133.5 922.7,133.3 918.9,134.3 922.7,148.3 916.9,145 913.7,133 909.9,134 912.1,142.2 904.7,138 902.8,141.3 
		910.2,145.6 902,147.8 	"/>
	<polygon class="st0" points="951.2,153.2 955.1,153.2 955.1,149.4 971.6,133 968.8,130.2 955.1,143.9 955.1,137.4 968.1,124.4 
		965.3,121.7 955.1,131.9 955.1,125.2 963.9,116.5 961.1,113.7 955.1,119.7 955.1,111.2 951.2,111.2 951.2,119.7 945.2,113.7 
		942.4,116.5 951.2,125.2 951.2,131.9 941,121.7 938.2,124.4 951.2,137.4 951.2,143.9 937.5,130.2 934.7,133 951.2,149.4 	"/>
	<path class="st0" d="M964.9,162.5l-7.9,4l-0.4-0.2l0-0.5l7.3-4.8l-1.8-2.7l-5.3,3.5l0.4-6.4l-3.2-0.2l-0.5,8.8l-0.4,0.2l-0.4-0.3
		l-0.5-8.7l-3.2,0.2l0.4,6.3l-5.4-3.5l-1.8,2.7l7.4,4.9l0,0.4l-0.4,0.2l-7.8-3.9l-1.4,2.9l5.7,2.8l-5.6,2.8l-0.2,0.1l1.4,2.9l7.9-4
		l0.4,0.2l0,0.5l-7.3,4.8l1.8,2.7l5.3-3.5l-0.4,6.4l3.2,0.2l0.5-8.8l0.4-0.2l0.4,0.3l0.5,8.5l0,0.2l3.2-0.2l-0.4-6.3l5.4,3.5
		l1.8-2.7l-7.4-4.9l0-0.4l0.4-0.2l7.8,3.9l1.4-2.9l-5.7-2.8l5.8-2.9L964.9,162.5z M953,168.3l0-0.1l0.1-0.1l0.1,0.1l0,0.1l-0.1,0.1
		L953,168.3z"/>
</g>
<g>
	<path class="st0" d="M870.9,1243.5c-3.4,8.2-6.2,16.6-8.3,25.3c9.5-3.7,19-7.5,28.4-11.4C884.3,1252.8,877.6,1248.2,870.9,1243.5z"
		/>
	<path class="st0" d="M837.6,1253.3c6.7,5,13.4,10.1,20.1,15.1c2.4-9.7,5.5-19,9.3-28.2c-9.9,4.4-19.8,8.7-29.9,12.8
		C837.3,1253.2,837.5,1253.2,837.6,1253.3z"/>
	<path class="st0" d="M922.2,1348.9c-3.5,12.9,1.4,25.8,8.5,36.4c0.2,0.3,0.3,0.5,0.3,0.8c13.4-11.5,22.7-26,22.4-44.1
		c-0.1-8-2.4-15.9-5.2-23.5c-0.2,0.1-0.4,0.3-0.6,0.4C936.6,1323.6,925.4,1337.1,922.2,1348.9z"/>
	<path class="st0" d="M829.3,1281.4c8.4-3.1,16.8-6.2,25.1-9.4c-5.7-4.3-11.4-8.6-17.1-12.9C834.5,1266.5,831.8,1274,829.3,1281.4z"
		/>
	<path class="st0" d="M831.9,1294.4c7.2,17,17.7,38.7,14,57.8c-3.3,17.3-19.7,18.9-30,30.5c-7.3,8.2-6.7,25.6-0.5,34.6
		c9.9,14.4,30.1,8.5,43.7,4.1c20.3-6.5,48.4-16.6,68.6-32.5c-0.3-0.2-0.6-0.4-0.9-0.8c-7.9-11.8-13.3-26.4-9.3-40.7
		c3.7-13.6,15.7-27.6,28.6-33.1c0.3-0.1,0.5-0.1,0.7-0.1c-1.1-3.1-2.3-6.2-3.3-9.2c-3.7-10.7-7.4-21.5-11.1-32.2
		c-2.8-8-5.5-16.1-8.3-24.1c-31.4,13.6-63.3,26.3-95.4,38.1C829.7,1289.4,830.8,1291.9,831.9,1294.4z"/>
	<path class="st0" d="M809.9,1244.3c-0.3,0.1-0.6,0.1-0.9,0.1c1.9,4.2,3.9,8.3,5.8,12.5c32.7-12.7,64.7-27,96-42.8
		c0.5-0.2,0.9-0.3,1.3-0.2c-0.9-2.6-1.8-5.2-2.7-7.8c-0.2-0.5-0.3-1-0.5-1.5C877.2,1220.9,844.1,1234.2,809.9,1244.3z"/>
	<path class="st0" d="M894.7,1189.7c-9.3,2-18.6,7.4-27.5,10.9c-22.1,8.6-44.4,16.5-66.6,24.9c2.1,5.1,4.3,10.1,6.6,15.1
		c0.3-0.3,0.6-0.6,1.1-0.7c34.3-10.1,67.3-23.5,99.1-39.9C905.1,1193.7,902.1,1188.1,894.7,1189.7z"/>
	<path class="st0" d="M898.6,1254.3c7.5-3.1,15-6.3,22.5-9.6c-4.7-6-10.1-10.6-16.8-14.2C902.8,1238.6,900.9,1246.5,898.6,1254.3z"
		/>
	<path class="st0" d="M825.1,1278.9c2.8-8.2,5.7-16.4,8.7-24.5c-5.6,2.3-11.3,4.6-17,6.8C819.6,1267.1,822.4,1273,825.1,1278.9z"/>
	<path class="st0" d="M871.6,1238.2c7.4,5.1,14.8,10.3,22.3,15.4c2.6-8.9,4.7-17.9,6.4-27.1c0.3-1.5,2-2.4,3.4-1.8
		c6.1,3,11.4,6.6,16.1,11.2c-2.1-6.1-4.2-12.2-6.3-18.3c-0.2,0.3-0.5,0.7-1,0.9C898.9,1225.4,885.3,1231.9,871.6,1238.2z"/>
</g>
<g>
	<path class="st0" d="M643,416.2c0,0-0.1,0-0.1,0C642.8,416.5,642.8,416.5,643,416.2z"/>
	<path class="st0" d="M741.2,362.5c-10.9,4.4-24.3,2.8-34.2-4c-5.5-3.8-9.1-8.5-11.5-13.9c14.5,5.3,29.9,8.1,40.5,0.5
		c9-6.4,13.5-18.4,11-29.1c-9.4,4-20.9,2.8-29.3-3.1c-4.6-3.2-7.6-7.3-9.6-11.9c10.2,3.3,20.6,4.7,28-0.6
		c6.9-4.9,10.3-14.1,8.4-22.3c-7.2,3.1-16,2.2-22.4-2.3c-10.3-7.2-10.4-20.3-9.5-31.6c0.3-3.9,0-8.3-2.9-10.8
		c-2.8-2.4-7.1-2.2-10.4-0.6c-8.7,4.2-14.7,13.4-23.7,17.1c-9.9,4.2-20,0.3-27.1-7.2c-0.6-0.6-1.2-1.3-1.4-2.1
		c-1.6-7-4.9-4.9-8.4,1.2c-3.1,5.4-3.5,12.3-2.6,18.4c1.4,9.2,9.9,13.1,17.4,16.9c1.3,0.7,2.6,1.3,3.9,1.9c-0.2,0.1-0.3,0.2-0.5,0.2
		c-13,5.4-26.1,0.4-35.4-9.5c-0.8-0.8-1.5-1.7-1.8-2.8c-2.1-9.1-6.4-6.3-11,1.5c-4.1,7.1-4.6,16.1-3.4,24
		c1.8,12,12.9,17.1,22.7,22.1c2.9,1.5,5.8,2.8,8.6,4.2c-0.4,0.2-0.8,0.3-1.1,0.5c-15,5.9-30.5,0-41.5-11.3c-0.9-0.9-1.8-2-2.2-3.2
		c-2.6-10.3-7.6-7.3-12.8,1.5c-4.6,7.9-5.1,18-3.5,27c2.3,13.5,15,21,26.2,27.4c14.7,8.4,23.2,11.5,34.3,16.2
		c-0.1,0.2-0.2,0.4-0.3,0.6c-1,2.6-15.4,30.6-15.7,30.5c7.7,3.9,16.1,6.9,22.8,8.3c0.2-2.2,4.3-18.9,9.8-32.1
		c22.4,9.9,57.8,23.7,76.4,11C739.4,388.1,744.4,374.6,741.2,362.5z"/>
	<path class="st0" d="M706.8,214.4c0.1,0.3,0.2,0.5,0.2,0.8c0,0.2-0.2,0.4-0.3,0.7c-1.4,2.2-2.8,4.4-4.1,6.6
		c-0.2,0.4-0.4,0.9-0.1,1.2c0.2,0.2,0.5,0.2,0.7,0.2c2.2-0.1,4.3-0.4,6.4-0.9c0.7-0.2,1.5-0.3,2.1,0c0.4,0.2,0.8,0.6,1.1,1
		c1.3,1.6,2.6,3.2,4,4.9c0.5,0.6,0.9,1.6,1.7,1.2c0.5-0.2,0.7-1.2,0.8-1.7c0.3-2.1,0.7-4.2,1-6.4c0-0.3,0.1-0.6,0.3-0.8
		c0.2-0.2,0.5-0.3,0.7-0.5c2.5-1,5-2.1,7.5-3.1c0.4-0.2,0.8-0.4,0.8-0.8c0-0.4-0.4-0.7-0.8-0.9c-2.1-1.1-4.2-2.2-6.3-3.3
		c-0.3-0.1-0.6-0.3-0.8-0.6c-0.2-0.3-0.3-0.8-0.3-1.2c-0.2-2.5-0.3-5.1-0.5-7.6c0-0.2,0-0.3-0.1-0.5c-0.1-0.2-0.2-0.5-0.4-0.6
		c-0.4-0.2-0.9,0.2-1.2,0.5c-1.5,1.5-3.1,3.1-4.6,4.6c-0.4,0.4-0.8,0.8-1.3,0.9c-0.5,0.2-1.1,0-1.6-0.1c-2.3-0.5-4.6-1.2-6.8-1.9
		c-0.5-0.1-1.1-0.2-1.3,0.2c-0.2,0.3,0,0.6,0.1,0.9C704.8,209.6,705.8,212,706.8,214.4z"/>
</g>
</svg>
