<?xml version="1.0" encoding="utf-8"?>
<!-- Generator: Adobe Illustrator 23.1.0, SVG Export Plug-In . SVG Version: 6.00 Build 0)  -->
<svg version="1.1" id="Слой_1" xmlns="http://www.w3.org/2000/svg" xmlns:xlink="http://www.w3.org/1999/xlink" x="0px" y="0px"
	 viewBox="0 0 1366 2888.8" style="enable-background:new 0 0 1366 2888.8;" xml:space="preserve">
<style type="text/css">
	.st0{fill:#1C1C1A;}
	.st1{font-family:'SverdlovskRegular';}
	.st2{font-size:58.8357px;}
</style>
<g>
	<g>
		<path class="st0" d="M641.9,2404.9c2.8-0.8,5.5-1.9,8-3.4l0.1,2.1c-3.3,1.8-6.7,3.1-10.4,4c-5.3,1.2-10.7,1.2-16.1,0.1
			c-6.9-1.4-12.9-4.3-18.1-8.9c-5.2-4.6-8.9-10.2-11.2-16.7c-2.2-6.6-2.6-13.3-1.3-20.2c1.4-6.9,4.4-12.9,8.9-18.1
			c4.6-5.2,10.1-8.9,16.7-11.2c6.6-2.3,13.3-2.7,20.2-1.3c9.4,1.9,17,6.5,22.9,13.9l-2.9,2.3c-5.9-7.6-13.4-12.2-22.7-14
			c-9.3-1.7-17.8,0-25.5,5.1c-5.3,3.5-9.3,8.1-11.9,13.9c-2.6,5.8-3.7,11.9-3.2,18.4c0.5,6.5,2.6,12.5,6.4,18.2
			c4.6,6.8,10.6,11.6,18.1,14.5C627.5,2406.4,634.8,2406.9,641.9,2404.9z"/>
		<path class="st0" d="M680.7,2344.9c6.6-2.3,13.3-2.7,20.2-1.3c6.9,1.4,12.9,4.4,18.1,9c5.2,4.6,8.9,10.2,11.2,16.7
			c2.3,6.6,2.7,13.3,1.3,20.2c-1.4,6.9-4.4,12.9-9,18.1c-4.6,5.2-10.2,8.9-16.7,11.2c-6.6,2.3-13.3,2.7-20.2,1.3
			c-6.9-1.4-13-4.4-18.2-9c-5.2-4.6-8.9-10.2-11.2-16.7c-2.2-6.5-2.6-13.3-1.3-20.2c1.4-6.9,4.4-12.9,8.9-18.1
			C668.5,2350.9,674.1,2347.1,680.7,2344.9z M696.3,2418.4c6.3-0.3,12.2-2.1,17.5-5.7c5.3-3.5,9.3-8.2,12-14
			c2.7-5.8,3.8-11.9,3.2-18.4c-0.5-6.5-2.7-12.5-6.4-18.1c-3.7-5.6-8.5-9.9-14.3-12.9c-5.8-3-11.8-4.3-18.2-4.1
			c-6.4,0.3-12.2,2.1-17.5,5.6c-5.3,3.5-9.3,8.2-11.9,14c-2.6,5.8-3.7,11.9-3.2,18.4c0.5,6.5,2.7,12.5,6.4,18.1
			c3.7,5.6,8.5,9.9,14.3,12.9C683.9,2417.3,690,2418.6,696.3,2418.4z"/>
		<path class="st0" d="M749,2429.6l1.1,2.1l-21.8-4.4l14.8-74.1l3.6,0.7l-14.5,72.3L749,2429.6z"/>
		<path class="st0" d="M791.7,2361.7l5.1,79.4l-3.6-0.7l-1.8-29.3l-21.9-4.4l-13,26.3l-1.9-0.4l33.7-68.2L791.7,2361.7z M770.4,2405
			l20.8,4.2l-2.6-41L770.4,2405z"/>
	</g>
	<g>
		<path class="st0" d="M729.3,2462.8c2.3-0.2,4.7-0.1,7.1,0.5c6,1.4,10.7,4.8,14,10.1c3.3,5.3,4.2,11,2.8,17
			c-1.1,4.6-3.3,8.4-6.8,11.5c-3.4,3.1-7.4,5-11.8,5.7l13.2,33l-3.3-0.8l-12.9-32c-1.9,0.1-3.7-0.1-5.6-0.6
			c-1.1-0.3-2.3-0.6-3.4-1.1l-6.4,27l-3.4-0.8L729.3,2462.8z M723.1,2504.4c1,0.5,2.1,0.9,3.3,1.2c5.1,1.2,9.9,0.3,14.5-2.8
			c4.6-3.1,7.5-7.5,8.9-13.1c0.7-2.8,0.8-5.5,0.4-8.2c-0.4-2.7-1.2-5.2-2.4-7.4c-1.2-2.2-2.9-4.1-4.9-5.7c-2.1-1.6-4.3-2.7-6.8-3.3
			c-1.2-0.3-2.4-0.5-3.5-0.5L723.1,2504.4z"/>
		<path class="st0" d="M755.8,2540.8l15.6,3.7l1,2l-20.4-4.8l16.5-69.6l20.4,4.8l-1.8,1.4l-15.6-3.7l-5.7,24l13.6,3.2l-1.6,1.4
			l-12.4-2.9L755.8,2540.8z"/>
		<path class="st0" d="M823.1,2495c3.5,5.7,5.3,11.8,5.5,18.4c0.2,6.5-1.3,12.7-4.4,18.5c-3.1,5.8-7.5,10.4-13.1,13.9
			c-4.8,3-10,4.7-15.4,5.3c-5.5,0.6-10.7,0-15.8-1.8c-1.2-0.4-2.3-0.9-3.3-1.3l16.7-70.5c1.1,0.1,2.3,0.2,3.5,0.4
			c5.4,0.7,10.3,2.5,15,5.5C816.3,2486.4,820.1,2490.2,823.1,2495z M783.5,2548.6c5.8,1.4,11.6,1.1,17.3-0.7
			c5.7-1.9,10.7-5.1,14.8-9.6c4.1-4.6,6.9-9.9,8.4-16.2c1.1-4.6,1.3-9.2,0.6-13.8c-0.7-4.6-2.2-8.8-4.3-12.5c-2.2-3.7-5-7-8.6-9.8
			s-7.6-4.7-11.9-5.7c-1.1-0.3-2.3-0.5-3.5-0.6l-16.1,68C781.2,2547.9,782.3,2548.3,783.5,2548.6z"/>
		<path class="st0" d="M873.6,2527.1c3.6,2.6,6.3,6.1,7.9,10.3c1.6,4.2,1.9,8.7,0.8,13.2c-1.4,6-4.8,10.7-10.1,14
			c-5.3,3.3-11,4.2-17,2.8c-2.4-0.6-4.5-1.5-6.6-2.7l16.4-69c0.5-0.2,1-0.3,1.5-0.3c2-0.3,3.9-0.2,5.8,0.2c4.1,1,7.2,3.2,9.4,6.8
			c2.2,3.6,2.8,7.4,1.8,11.5c-0.7,2.8-2,5.1-3.9,7.2c-2,2-4.3,3.3-7,4c-0.5,0.2-1.1,0.3-1.6,0.4
			C871.8,2525.8,872.7,2526.4,873.6,2527.1z M855.5,2565.6c5.1,1.2,9.9,0.3,14.5-2.8c4.6-3.1,7.5-7.5,8.8-13.1
			c1.3-5.6,0.7-10.8-2-15.6c-2.7-4.8-6.6-7.8-11.7-9l-3.4-0.8l-9.5,40.2C853.2,2564.9,854.3,2565.3,855.5,2565.6z M868.2,2497.1
			l-6,25.5l3.4,0.8c3.1,0.7,6,0.1,8.9-1.9c2.8-2,4.7-4.8,5.5-8.4c0.9-3.6,0.5-6.9-1.1-10c-1.6-3.1-4-5-7-5.7
			C870.5,2497,869.4,2496.9,868.2,2497.1z"/>
		<path class="st0" d="M925.1,2509.3l1.6,0.4l-13.4,56.4c-0.9,4-3.1,7-6.6,9.1c-3.5,2.1-7.2,2.7-11.1,1.8c-2.6-0.6-4.8-1.8-6.7-3.6
			s-3.3-4-4-6.5c-0.8-2.5-0.9-5.1-0.2-7.7l13.3-56.3l3.4,0.8l-13.3,56.3c-0.8,3.5-0.4,6.8,1.3,9.8c1.7,3,4.2,4.9,7.4,5.7
			c3.3,0.8,6.4,0.2,9.2-1.7c2.9-1.9,4.7-4.6,5.6-8.1L925.1,2509.3z"/>
		<path class="st0" d="M933.7,2583l1,2l-20.4-4.8l16.5-69.6l3.4,0.8l-16.1,67.9L933.7,2583z"/>
		<path class="st0" d="M958.3,2588.8l1,2l-20.4-4.8l16.5-69.6l3.4,0.8l-16.1,67.9L958.3,2588.8z"/>
	</g>
	<g>
		<path class="st0" d="M584.3,2541.1l-15.6-3.7l-5.7,24l13.6,3.2l-1.6,1.4l-12.4-2.9l-10,42.2l-3.4-0.8l16.5-69.6l20.4,4.8
			L584.3,2541.1z"/>
		<path class="st0" d="M597.1,2541.1l2.2,75.2l-3.4-0.8l-0.8-27.7l-20.5-4.9l-13.1,24.4l-1.8-0.4l34.2-63.4L597.1,2541.1z
			 M575.5,2581.3l19.5,4.6l-1.1-38.9L575.5,2581.3z"/>
		<path class="st0" d="M646.9,2554.1l1.6,0.4l-16.5,69.6l-1.1-0.3l-0.2-1.3l-11.5-64.5l-14.2,59.7l-1.7-0.4l16.5-69.6l1.1,0.3
			l0.3,1.4l11.5,64.5L646.9,2554.1z"/>
		<path class="st0" d="M654.1,2555.8l27.2,6.4l-1.8,1.4l-11.2-2.7l-16.1,67.9l-3.4-0.8l16.1-67.9l-12.7-3L654.1,2555.8z"/>
		<path class="st0" d="M696.4,2564.7l2.2,75.2l-3.4-0.8l-0.8-27.7l-20.5-4.9l-13.1,24.4l-1.8-0.4l34.2-63.4L696.4,2564.7z
			 M674.7,2604.9l19.5,4.6l-1.1-38.9L674.7,2604.9z"/>
	</g>
	<g>
		<path class="st0" d="M659.6,2702.6c0.7,3.4,0.6,7.2-0.4,11.4c-1,3.9-3.3,7-6.7,9.1c-3.5,2.1-7.2,2.7-11.1,1.8
			c-2.6-0.6-4.8-1.8-6.7-3.5c-1.9-1.8-3.2-3.8-4-6.2c-0.5-1.3-0.7-2.7-0.8-4l3.7-2.6c-0.5,2.6-0.4,5,0.5,7.4
			c1.3,3.9,3.9,6.3,7.6,7.2c3,0.7,5.9,0.1,8.6-1.8c2.7-1.9,4.5-4.7,5.4-8.1c0-0.1,0.1-0.3,0.1-0.6c0.1-0.3,0.2-0.6,0.2-0.9
			c0.1-0.3,0.1-0.6,0.2-1c0.1-0.4,0.2-0.8,0.2-1.3c0-0.5,0.1-1,0.1-1.5c0-0.6,0-1.2,0-1.8c-0.1-0.7-0.1-1.3-0.2-2
			c-0.4-2.4-1.2-4.6-2.2-6.6c-1-2-2.2-3.8-3.5-5.3c-1.3-1.5-2.6-3.1-3.9-4.5s-2.5-3.3-3.7-5.3c-1.2-2.1-2-4.4-2.5-6.8
			c-0.8-3.5-0.7-7.3,0.4-11.4c1-3.9,3.2-7,6.7-9.1c3.5-2.1,7.2-2.7,11.1-1.8c2.6,0.6,4.8,1.8,6.6,3.5c1.9,1.8,3.2,3.8,4.1,6.2
			c0.4,1.3,0.7,2.6,0.8,4l-3.7,2.6c0.5-2.6,0.4-5-0.5-7.4c-1.4-3.9-4-6.4-7.6-7.2c-3-0.7-5.9-0.1-8.6,1.8c-2.7,1.9-4.5,4.7-5.3,8.1
			c0,0.1-0.1,0.3-0.2,0.7s-0.2,0.7-0.3,1c-0.1,0.3-0.1,0.7-0.2,1.3c-0.1,0.6-0.1,1.2-0.1,1.7c0,0.6,0,1.2,0,2c0,0.8,0.1,1.5,0.2,2.3
			c0.4,2,1,3.9,1.7,5.7c0.8,1.8,1.7,3.3,2.6,4.6c1,1.3,2,2.6,3.2,3.9c1.1,1.4,2.2,2.7,3.2,4c1,1.3,2,2.8,2.9,4.6
			C658.5,2698.6,659.2,2700.5,659.6,2702.6z"/>
		<path class="st0" d="M697.7,2669.2c3.3,5.3,4.2,11,2.8,17.1c-1.4,6.1-4.8,10.8-10.1,14c-5.3,3.3-11,4.2-17,2.8
			c-1.1-0.3-2.3-0.6-3.4-1.1l-6.4,27l-3.4-0.8l16.5-69.6c2.4-0.2,4.8,0,7.1,0.5C689.8,2660.5,694.5,2663.9,697.7,2669.2z
			 M688.2,2698.5c4.6-3.1,7.5-7.5,8.8-13.1c1.3-5.6,0.7-10.8-2-15.6c-2.7-4.8-6.6-7.8-11.7-9c-1.2-0.3-2.4-0.5-3.5-0.5l-9.5,39.9
			c1,0.5,2.1,0.9,3.3,1.2C678.8,2702.6,683.7,2701.6,688.2,2698.5z"/>
		<path class="st0" d="M709.5,2666.4c2.3-0.2,4.7-0.1,7.1,0.5c6,1.4,10.7,4.8,14,10.1c3.3,5.3,4.2,11,2.8,17
			c-1.1,4.6-3.3,8.4-6.8,11.5c-3.4,3.1-7.4,5-11.8,5.7l13.2,33l-3.3-0.8l-12.9-32c-1.9,0.1-3.7-0.1-5.6-0.6
			c-1.1-0.3-2.3-0.6-3.4-1.1l-6.4,27l-3.4-0.8L709.5,2666.4z M703.2,2707.9c1,0.5,2.1,0.9,3.3,1.2c5.1,1.2,9.9,0.3,14.5-2.8
			c4.6-3.1,7.5-7.5,8.9-13.1c0.7-2.8,0.8-5.5,0.4-8.2c-0.4-2.7-1.2-5.2-2.4-7.4c-1.2-2.2-2.9-4.1-4.9-5.7c-2.1-1.6-4.3-2.7-6.8-3.3
			c-1.2-0.3-2.4-0.5-3.5-0.5L703.2,2707.9z"/>
		<path class="st0" d="M732.1,2745.2l16.5-69.6l3.4,0.8l-16.5,69.6L732.1,2745.2z"/>
		<path class="st0" d="M757.6,2677.8l27.2,6.4l-1.8,1.4l-11.2-2.7l-16.1,67.9l-3.4-0.8l16.1-67.9l-12.7-3L757.6,2677.8z"/>
		<path class="st0" d="M776.2,2753.9l15.6,3.7l1,2l-20.4-4.8l16.5-69.6l20.4,4.8l-1.8,1.4l-15.6-3.7l-5.7,24l13.6,3.2l-1.6,1.4
			l-12.4-2.9L776.2,2753.9z"/>
	</g>
	<g>
		<path class="st0" d="M809.5,210c-1,2.5,0.1,4.3,1.8,5.3c1.4,1.5,3.5,2,5.6,0.4c11.3-8.5,22.7-21.4,21.2-36.7
			c-1.4-15.3-41.4-48.6-13.8-59.4c5.1-2,4.8-10-1.3-10c-19.2,0.1-38.9,6.6-40.1,28.6C781.4,167.5,822.6,178,809.5,210z M802.7,159.1
			c-13.6-16-9.9-29.6,3.1-35.7c-2.1,4.8-2.4,10.5-0.5,17.5c2,7.3,6.6,13.8,11.1,19.7c9.8,13,12.9,24.8,5.8,35.9
			c-0.1-6.7-1.7-13.5-4.8-19.2C813.5,170,807.9,165.2,802.7,159.1z"/>
		<path class="st0" d="M874.5,207.6c-1,2.5,0.1,4.3,1.8,5.3c1.4,1.5,3.5,2,5.6,0.4c13.4-10.1,26.9-25.5,25.2-43.5
			c-1.9-19.2-51.7-59.1-15.9-73c5.1-2,4.8-10-1.3-10c-22.8,0.1-45.9,7.6-47.5,33.6C840.1,155.9,890.6,168.1,874.5,207.6z
			 M864.5,146.3c-17.9-21-11.7-38.9,6.7-46c-3.6,6-4.3,13.6-1.7,22.9c2.4,8.6,7.9,16.3,13.2,23.3c13.1,17.2,16.4,32.9,5.2,47.5
			c0.4-9-1.5-18.3-5.7-26C877.4,159.4,870.7,153.6,864.5,146.3z"/>
		<path class="st0" d="M1031.2,263.9c-11.6-8.3-24.2-9.3-35.5-3.5c-0.1-15-5-26.5-18.2-29.6c-0.2-0.1-0.4,0-0.7,0
			c-0.2,0-0.4-0.1-0.7-0.2c-82.1-2.7-167.4-6.8-249.4,0.3c-27.6,2.4-24.9,19.2-22.9,44c2.1,26.1,7.3,52.2,18.3,76.1
			c7,15.1,16.3,28,27.2,38.7c-24,2.4-66.9,10.9-66.3,34.7c0.4,18,32.6,24.3,45.5,26.3c5.2,0.8,10.4,1.4,15.6,2
			c14.6,33.3,69.5,27.1,98.7,27.5c25.9,0.4,54.5,1.4,80-3.9c15.6-3.3,23-14.1,32.1-26.2c19.4-2.2,50.2-6.2,57.6-21.5
			c11.2-23.1-49.4-33.1-75.3-35.9c2.5-2.3,4.8-4.8,7.1-7.3c0.5,0.2,1.1,0.3,1.8,0.3c40.2-1.7,96.2-27.9,100.9-73.1
			C1048.9,295.4,1045.8,274.3,1031.2,263.9z M988.9,301.4c3.8-1.5,9.7-3.9,13.8-2.4c5.4,1.9,7.5,7.6,6.5,12.8
			c-1.3,7.1-7.7,14.1-13.3,18.2c-6.2,4.4-15.3,9.4-23.5,11.1c5.3-11.4,11.1-25.4,15.5-39.6C988.3,301.5,988.6,301.5,988.9,301.4z
			 M898.5,468.4c-15.4,1.1-30.9,1.6-46.4,1.6c-22.6,0-79.4,5.4-96-16.4c25.5,1.8,51.5,1.5,76.7,1.9c35.8,0.7,71.7,0.3,107.3-4
			C929,463,916.9,467,898.5,468.4z M927.7,401.7c16.9,0.8,33.5,4.3,49.7,9.3c5.3,1.6,18,4.1,21.4,8.3c7.4,9.3-21.7,15.8-27.8,17.2
			c-43.2,9.8-89.3,9.6-133.3,8.9c-20.8-0.3-41.7-0.9-62.5-1.7c-20.3-0.8-53.3,1.6-71.1-10.7c-23.9-16.6,11.6-25.6,24.7-29
			c10-2.6,20.4-4.6,30.7-5c0.2,0,0.3-0.1,0.5-0.1c21,16.3,46.8,25.8,75.4,28.2c34.9,2.9,66-6.3,91.2-25.7
			C927,401.5,927.3,401.7,927.7,401.7z M928.9,386.9c-44.3,42.1-122.3,40.8-167.9,0.7c-20.1-17.7-32.4-42.1-39.4-67.6
			c-4.1-14.8-6.5-29.9-7.7-45.2c-0.4-5.1-2.3-15.4-1-20.4c4.6-17.3,22-13.7,34.2-14c76-1.9,152-2.2,228,0.2
			c21.1,5.8,0.6,64.6-3.7,76.9C962.4,343.1,948.7,368.1,928.9,386.9z M1019.3,343.7c-17.7,17.8-41.6,28.4-66.3,30.9
			c3-3.9,5.9-8,8.5-12.4c1.5-2.5,3.5-6.1,5.7-10.3c0.1,0,0.2,0.1,0.3,0.1c18.4-0.6,41.2-14.8,49.2-31.3c3.8-7.8,4-17.4-1.4-24.6
			c-5.9-7.9-15.4-8.4-24-6.1c1.5-5.8,2.7-11.6,3.4-17.1c19.4-16.4,39.7,3.7,41.9,23.7C1038.8,316,1032.7,330.2,1019.3,343.7z"/>
		<path class="st0" d="M735.4,267.5c-0.5-6.5-10.7-6.5-10.1,0c2.1,26,10,50.2,23.9,72.3c3.5,5.5,12.3,0.4,8.8-5.1
			C745,314.1,737.4,291.7,735.4,267.5z"/>
		<path class="st0" d="M763.7,351.6c-6.5,0-6.5,10.1,0,10.1C770.2,361.7,770.2,351.6,763.7,351.6z"/>
	</g>
	<g>
		<path class="st0" d="M479.7,825c-23.3-42.9-89.2-68.7-136.1-66.4c-20.7-1.2-45.3,15.6-56.6,32.4c-13.4,20-5.1,44.5,4.3,64.5
			c22.2,47.3,77.1,87.5,131.6,72.6C467,916,503.8,869.2,479.7,825z M343,768c35-1.7,73.3,12.8,101.4,32.9
			c18.4,13.1,35.3,32.6,34.6,56.7c-0.4,15.3-9.1,27.4-19.9,37.3c-26.7,16.5-73.6,1.5-97.9-14.7c-26.5-17.6-64.9-41.2-68.8-75.3
			C299.6,784.8,322.3,766.7,343,768z M322,884.6c-13-14.4-24.4-32.7-29.7-51.8c15.5,25.5,46.4,45.8,69.3,59.1
			c19,11,49.1,21.2,75,19.4C398.1,931.9,350.9,916.6,322,884.6z"/>
		<path class="st0" d="M313.6,786.3C313.6,786.3,313.6,786.4,313.6,786.3c0,1,0.4,2,1.4,2.9c0,0,0,0,0,0
			c11.4,17.5,25.5,30.3,44.5,39.4c31.3,14.9,63,21.6,82.5,53.4c3.2,5.2,10.4,1.5,8.4-4.2c-8.4-23.9-20.3-45.1-44.6-55
			c-30.5-12.5-58-17.1-83.9-39.9c-0.2-0.2-0.4-0.2-0.7-0.4c-0.1,0-0.1-0.1-0.2-0.1c-0.5-0.3-0.9-0.5-1.4-0.6
			c-0.2-0.1-0.4-0.1-0.7-0.1c-0.3,0-0.6-0.1-0.9,0c-2.3,0.2-4.3,1.7-4.5,3.8C313.7,785.8,313.6,786.1,313.6,786.3z M374.4,822.7
			c12.3,3.7,26.6,6.4,37.6,13.4c7.4,4.6,13,11.2,17.6,18.5c-20-15.9-45-24-67.3-36.1C366.3,820,370.3,821.5,374.4,822.7z"/>
		<path class="st0" d="M456.9,839.8c2.1,5.7,10.6,1.4,8.4-4.2c-3.9-10.4-10.7-18.9-19.6-25.4c-4.9-3.6-10.1,4.3-5.2,7.9
			C448.2,823.7,453.5,831,456.9,839.8z"/>
		<path class="st0" d="M461.7,850.2c-0.1,0-0.2,0.1-0.3,0.1c-5.4,2.7-1.3,11.1,4.2,8.4c0.1,0,0.2-0.1,0.3-0.1
			C471.3,856,467.1,847.5,461.7,850.2z"/>
		<path class="st0" d="M611,790.3c-20.2-1.2-48.6,8.3-60.1,25.4c-30.2,36-49.6,104-29.6,148.5c20.6,45.8,80.2,45,116.5,17.2
			c44.9-34.4,46-102.3,21.9-148.7C649.6,813.2,635,791.7,611,790.3z M547.8,983.4c-19.4-13.9-25-39.4-24.2-61.8
			c1.2-34.7,12.6-73.7,35.2-100.6c11.5-17.2,39.5-24.5,60.1-18.1c24.8,23.7,20.4,68.7,18.3,100.5c-1.9,29.2-18.3,75.6-47.7,86.8
			C575.1,992.8,560.3,992.3,547.8,983.4z M616.1,982.2c17.1-19.4,27.1-49.6,30-71.4c3.4-26.2,5.8-63.2-5-91
			c12,15.8,19.9,36.2,23.3,55.1C671.9,917.4,656,964.1,616.1,982.2z"/>
		<path class="st0" d="M580.5,969.6c-16.8-55.2,30.6-101.9,14.7-157.8c0-0.2-0.2-0.3-0.2-0.4c-0.1-0.4-0.3-0.8-0.6-1.1
			c-0.1-0.1-0.2-0.3-0.3-0.4c-0.4-0.4-0.8-0.7-1.3-1c0,0-0.1,0-0.1-0.1c-1.9-1-4.3-0.8-5.7,0.7c-0.8,0.7-1.2,1.7-1.2,3
			c-0.8,30.3-15.4,59-24.6,87.6c-8.5,26.6-3.2,48.6,10.4,72.5C574.1,976.9,582.1,975,580.5,969.6z M567.6,911.5
			c2.2-9.4,6.3-18.4,9-27.7c3.6-12.2,8.1-23.6,11.8-35.2c-3.3,30.7-18.6,59.7-20.6,90.6C565.8,930.4,565.3,921.3,567.6,911.5z"/>
		<path class="st0" d="M611.8,931.1c-1.7,13.2-8.9,24.4-16.7,34.8c-3.6,4.9,4.3,10,7.9,5.2c8.8-11.9,16.3-24.5,18.2-39.4
			C622,925.7,612.6,925.1,611.8,931.1z"/>
		<path class="st0" d="M616.1,912.9c-5.4,2.7-1.3,11.1,4.2,8.4C625.7,918.6,621.5,910.2,616.1,912.9z"/>
		<path class="st0" d="M446.3,1013.6c-5.4,2.7-1.3,11.1,4.2,8.4C455.8,1019.3,451.7,1010.9,446.3,1013.6z"/>
		<path class="st0" d="M428,979.7c-0.1-0.3-0.3-0.5-0.4-0.8c-2.7-5.4-11.1-1.3-8.4,4.2c0.1,0.3,0.3,0.5,0.4,0.8
			C422.3,989.3,430.7,985.2,428,979.7z"/>
		<path class="st0" d="M464.2,943.1c-5.4,2.7-1.3,11.1,4.2,8.4C473.8,948.8,469.7,940.4,464.2,943.1z"/>
		<path class="st0" d="M472.8,990.3c0.1,0.3,0.3,0.5,0.4,0.8c2.7,5.4,11.1,1.3,8.4-4.2c-0.1-0.3-0.3-0.5-0.4-0.8
			C478.5,980.7,470.1,984.9,472.8,990.3z"/>
		<path class="st0" d="M448.3,978.9c-5.4,2.7-1.3,11.1,4.2,8.4C457.9,984.6,453.7,976.2,448.3,978.9z"/>
		<path class="st0" d="M438,938.7c-0.3,0.1-0.5,0.3-0.8,0.4c-5.4,2.7-1.3,11.1,4.2,8.4c0.3-0.1,0.5-0.3,0.8-0.4
			C447.6,944.5,443.5,936,438,938.7z"/>
		<path class="st0" d="M486.2,946.6c-5.4,2.7-1.3,11.1,4.2,8.4C495.8,952.3,491.7,943.9,486.2,946.6z"/>
		<path class="st0" d="M506.5,991.4c-5.4,2.7-1.3,11.1,4.2,8.4C516.1,997.2,511.9,988.7,506.5,991.4z"/>
		<path class="st0" d="M520.1,788.8c5.4-2.7,1.3-11.1-4.2-8.4C510.5,783.1,514.7,791.5,520.1,788.8z"/>
		<path class="st0" d="M485.9,758.6c5.4-2.7,1.3-11.1-4.2-8.4C476.3,752.8,480.5,761.3,485.9,758.6z"/>
		<path class="st0" d="M510.5,734.2c5.4-2.7,1.3-11.1-4.2-8.4C500.9,728.4,505.1,736.8,510.5,734.2z"/>
		<path class="st0" d="M568.6,738.6c5.4-2.7,1.3-11.1-4.2-8.4C559,732.8,563.2,741.3,568.6,738.6z"/>
		<path class="st0" d="M547.4,784c5.4-2.7,1.3-11.1-4.2-8.4C537.8,778.3,542,786.7,547.4,784z"/>
		<path class="st0" d="M538,757.4c0.2-0.7,0.5-1.4,0.7-2.1c1.9-5.7-7-8.8-8.9-3c-0.2,0.7-0.5,1.4-0.7,2.1
			C527.1,760.2,536.1,763.2,538,757.4z"/>
		<path class="st0" d="M542,727.3c5.4-2.7,1.3-11.1-4.2-8.4C532.4,721.5,536.6,730,542,727.3z"/>
		<path class="st0" d="M598,755.5c5.4-2.7,1.3-11.1-4.2-8.4C588.4,749.7,592.5,758.2,598,755.5z"/>
		<path class="st0" d="M578.3,786.2c5.4-2.7,1.3-11.1-4.2-8.4C568.7,780.5,572.8,788.9,578.3,786.2z"/>
	</g>
	<g>
		<path class="st0" d="M1085.4,1591.2c2.7-23.9,5.3-47.9,6.3-71.9c1-23.1,3.6-52.6-8.8-73.4c-15.8-26.6-47.7-28.1-74.4-20.2
			c-1.6-0.7-3.2-1.4-4.8-2c12.7-11.1,34.4-25.7,12.9-39c-10.7-6.6-26-9.9-37.7-14.3c-18.1-6.7-36.3-13.2-54.5-19.9
			c-41.5-15.2-82.6-31.1-124.1-46.5c-7.5-2.8-21-9.1-25.8,1.7c-4.7,10.5,9.3,24.9,15,36.4c-3.2-0.8-6.3-1.4-9.3-1.5
			c-2.3-0.1-4.4,1.2-5.3,3.4c-6,14.9-13.3,30.2-17,45.8c-0.5,2.3-0.2,4.6,1.8,6c1.7,1.2,3.6,2.3,5.6,3.3
			c-30.4,29.2-57.1,61.6-83,94.7c-15,19.2-45.3,53.6-26.6,79.6c15.2,21.1,51.7,31.6,74.7,40.5c29.9,11.5,60.8,20.3,90.7,31.7
			c27.9,10.6,55.3,22.5,83.5,32.3c14.4,5,35,12.2,50.1,6.2c25.1-10.1,23.4-54.5,25.2-75.1c3.7-44.2,3.2-88.5,2.8-132.8
			c3.1,0.8,6.3,1.4,9.3,1.8c0.6,0.2,1.2,0.3,1.9,0.2c0.3,0,0.6,0,0.9,0c17.8-4.5,38.6-8.4,43,12.5c2.1,9.7,2.7,19.8,3.5,29.7
			c2,25.3,2.5,50.7,3,76.1c0.2,8.7-3.6,30.6,1,38.9c5.1,9.2,25.1,7.7,31.6,0.2C1085.2,1625.9,1084.1,1602.4,1085.4,1591.2z
			 M814.1,1320.3c7.9,3,15.7,5.9,23.6,8.9c25.5,9.6,51,19.2,76.5,28.6c22.6,8.3,45.4,16.4,68,24.9c6.6,2.5,23.4,5.4,28,10.6
			c7.6,8.6-10.9,19.9-17.1,26c-32.2-12.7-65.6-22.4-97.7-35.5c-22-9.2-44.4-17.7-66.7-26.2c-7.9-3-17.4-7.8-26.9-11.5
			c-1.3-7.7-8.1-14-8.9-20.7C790.6,1306.1,806.1,1317.3,814.1,1320.3z M971.8,1571.2c-1,25.9,4.5,98.6-29.3,103.8
			c-16.2,2.5-35.1-7.1-49.7-12.6c-21.1-8-42-16.6-63.1-24.7c-45.5-17.6-93.5-29.3-137.2-51.6c-22.7-11.6-38.2-29.9-23-56.7
			c8.2-14.5,19.5-27.4,29.9-40.4c23.6-29.7,47.9-58.6,75.5-84.7c0.3-0.3,0.5-0.6,0.7-1c8.4,2.9,17.4,5.1,24.6,7.7
			c25.1,9,50.2,18,75,27.6c23.3,9,46.9,17.3,70.6,25.1c8.4,2.8,17.4,6.4,26.5,9.5C972.7,1505.9,973.1,1538.6,971.8,1571.2z
			 M917.5,1443.2c-26.8-9.3-53.1-19.9-79.7-29.6c-22.9-8.3-45.9-16.5-68.8-25c0,0,0,0,0,0c1.5-4.2,3-8.5,4.6-12.7
			c2.2-5.8,4.5-17.7,8.4-24.4c1,0.1,2.4,0.3,4.2,1.4c2.9,1.8,7.3,2.6,10.5,3.7c11.3,4.1,22.6,8.4,33.8,12.7
			c20.5,7.8,41.1,15.7,61.4,24.2c28.8,11.8,58.8,20.4,87.9,31.5c3.8,1.5,18,4.4,20.5,8.2c1.7,2.6-0.8,8.9-2.7,14.9
			c-1.6,4.9-3,10.7-5.2,15.5c-0.7,1.5-0.8,2.4-0.8,3.1c-0.6-0.2-1.4-0.3-2.6-0.4C966.8,1465.4,938.2,1450.4,917.5,1443.2z
			 M1055.4,1631.4c-2.1-2.4-0.3-14.1-0.4-17.3c-0.7-36.5-0.6-73.3-4.7-109.6c-1.1-9.5-1.3-23.3-7.2-31.4
			c-8.8-12.2-25.5-10.7-39.6-7.7c3.8-9.6,6.2-20.6,8.9-30.1c23.9-6.5,53.3-4.8,64.2,21.5c6.6,15.8,5.3,34.7,4.9,51.5
			c-0.4,16.9-1.9,33.7-3.4,50.5c-1.8,19.1-1.4,41.5-7,60C1069.6,1624.1,1062.5,1639.4,1055.4,1631.4z"/>
		<path class="st0" d="M876.9,1509.2c-18.6-1.4-37.5-0.3-55.9-3.6c-30.4-5.5-50.2-25-70.3-47.2c-1.8-2-4.2-2.1-6.1-1.2
			c-0.4,0.1-0.7,0.4-1.1,0.6c-0.1,0.1-0.3,0.2-0.4,0.3c-0.2,0.2-0.5,0.3-0.7,0.5c-22.7,25.2-86.2,82.7-39.6,112.5
			c29.8,19.1,69.4,25.9,102.4,37.4c36.2,12.6,74.5,35.3,112.7,40.7c19.6,2.8,30.3-5.4,34.7-24.6c4.9-21.7,9.3-60.5-2.6-80.8
			C935.5,1518.6,903.6,1511.3,876.9,1509.2z"/>
	</g>
	<g>
		<g>
			<g>
				<path class="st0" d="M679.8,1795c2.1,3.6,3,8.3,2.2,12.4c-1.4,7.4-6.5,13.2-11.6,18.5c-45.9,47.7-103.4,83.4-166.5,103.4
					c-5.5,1.8-11,3.3-16.7,2.5c-5.9-0.8-11.2-3.9-16.4-9.4l-4.6-4.7c0,0,0,0,0,0c-4.3-4.5-9.2-9.5-12-15.8c-3.3-7.4-2.9-15.4,1-20.9
					c4.8-6.8,13.6-8.5,20.6-9.9c42.1-8.4,82.6-24.8,121.8-40.7c18.2-7.4,38.9-15.7,53.3-30.8l0.9-0.9c4.8-5.1,10.8-11.4,18.7-10.3
					c3.4,0.5,6.5,2.4,8.6,5.5C679.3,1794.2,679.6,1794.6,679.8,1795z M470.2,1913.7l4.7,4.8c4.3,4.6,8.6,7.1,13.2,7.8
					c4.6,0.6,9.4-0.7,14.3-2.3c62.2-19.7,118.9-55,164.2-102c4.5-4.7,9-9.7,10.1-15.7c0.6-3.1-0.2-6.8-2-9.4
					c-0.9-1.3-2.5-2.9-4.9-3.2c-5.1-0.7-9.6,4-13.9,8.6l-0.9,0.9c-15.2,16-36.5,24.6-55.2,32.2c-39.4,16-80.2,32.5-122.8,41
					c-6.4,1.3-13.6,2.7-17.2,7.7c-2.8,3.8-2.9,9.9-0.5,15.4C461.7,1904.9,466,1909.4,470.2,1913.7L470.2,1913.7z"/>
			</g>
			<g>
				<path class="st0" d="M665.3,1784.3c1.2,2.1,2.2,4.3,2.7,6.8c0.3,1.5-0.7,2.9-2.2,3.2s-2.9-0.7-3.2-2.2
					c-0.9-4.4-3.9-8.1-6.9-11.6c-5.1-5.9-14-7-20.5-6.1c-7,1-13.7,4-20.3,7c-0.8,0.4-1.6,0.7-2.5,1.1
					c-37.6,16.7-79.1,26.1-120.2,27.2l-1.7,0c-8.8,0.2-17.8,0.4-25,4.7c-8.5,5.2-13.7,16.6-13.1,29c0.5,11.8,5.3,23,9.9,33.8
					c0.6,1.4-0.1,3-1.5,3.6c-1.4,0.6-3-0.1-3.6-1.5c-4.6-10.8-9.7-22.9-10.3-35.7c-0.6-14.5,5.6-27.8,15.8-34
					c8.4-5.1,18.2-5.3,27.7-5.5l1.6,0c40.4-1.1,81.2-10.3,118.1-26.7c0.8-0.4,1.6-0.7,2.4-1.1c6.9-3.1,14-6.3,21.8-7.4
					c10.3-1.5,19.8,1.5,25.4,7.9C661.7,1779.1,663.7,1781.6,665.3,1784.3z"/>
			</g>
			<g>
				<path class="st0" d="M627.4,1748c4.4,7.5,5.9,16.6,3.5,25c-0.4,1.5-2,2.3-3.4,1.9c-1.5-0.4-2.3-2-1.9-3.4
					c3.8-12.7-4.2-28.1-16.7-32.3c-5.7-1.9-12.5-2.1-21.2-0.5c-15.9,2.9-31.1,9.8-45.8,16.5c-9.9,4.5-20.1,9.1-30.6,12.6
					c-16.1,5.3-32.8,8-49.8,7.9l-1.7,0c-4.1,0-8-0.1-11.6,1c-3.1,0.9-7.1,3.4-8,7.2c-0.6,2.6,0.3,5.9,2.6,9.7
					c4.7,7.7,12,13.7,20.5,16.9c1.4,0.5,2.2,2.1,1.6,3.6c-0.5,1.4-2.1,2.2-3.6,1.6c-9.6-3.6-17.9-10.4-23.3-19.2
					c-3.2-5.1-4.2-9.7-3.3-13.8c1.4-6.2,7-9.9,11.8-11.3c4.4-1.3,8.9-1.3,13.3-1.2l1.6,0c16.3,0.1,32.5-2.5,48-7.6
					c10.2-3.4,20.3-8,30-12.4c15-6.8,30.5-13.8,47.1-16.9c9.7-1.8,17.4-1.6,24,0.7C617.7,1736.3,623.6,1741.6,627.4,1748z"/>
			</g>
			<g>
				<path class="st0" d="M615,1733.6c0,0,0.1,0.1,0.1,0.1c0.2,0.5,0.5,1,0.8,1.5c0.3,0.6,0.6,1.1,0.9,1.7c0.7,1.4,0.2,3-1.2,3.7
					c-1.4,0.7-3,0.2-3.7-1.2c-0.2-0.5-0.5-1-0.8-1.5c-0.3-0.5-0.6-1-0.8-1.5c-6-9.2-16.2-15.2-25.2-20.6c-5.2-3.1-10.7-6.3-16.5-7.9
					c-12.7-3.3-26,1.6-39,6.3c-2.4,0.9-4.9,1.8-7.4,2.6c-19.5,6.7-39.8,9.8-60.4,9.2c-1.2,0-2.5-0.1-3.7-0.1
					c-5-0.2-9.7-0.4-14.3,0.3c-4.4,0.6-10.6,2.3-14.6,7c-4.7,5.3-5.6,14.2-2.5,22.5c2.9,7.7,8.4,14,14.7,20.8c1,1.1,1,2.9-0.2,3.9
					c-1.1,1-2.9,1-3.9-0.2c-6.5-7-12.6-14-15.8-22.6c-3.9-10.2-2.5-21.2,3.5-28c5.2-5.9,12.7-8.1,18-8.8c5.1-0.7,10.3-0.5,15.3-0.3
					c1.2,0,2.4,0.1,3.7,0.1c19.9,0.6,39.6-2.4,58.5-8.9c2.4-0.8,4.9-1.7,7.3-2.6c13.7-5,27.9-10.2,42.2-6.5
					c6.6,1.7,12.4,5.1,17.9,8.5c9.6,5.7,20.4,12.1,27,22.5C615,1733.6,615,1733.6,615,1733.6z"/>
			</g>
			<g>
				<path class="st0" d="M559.1,1702.3c0.6,1.1,0.5,2.4-0.4,3.3c-1.1,1.1-2.8,1.1-3.9,0l-21.1-21.2c-10.4-10.4-21.1-21.2-31.8-31.6
					c-4.8-4.7-9.7-9-15.3-9.8c-5.2-0.7-11.1,1.5-18.1,6.8c-19.4,14.9-32.1,38.3-34.1,62.6l-0.1,1.4c-0.5,6.4-1.1,13.7-6.4,18.3
					c-0.5,0.4-0.8,1.8-1,2.9l-0.1,0.3c-0.3,1.5-1.8,2.5-3.3,2.1c-1.5-0.3-2.5-1.8-2.1-3.3l0.1-0.3c0.4-1.8,0.9-4.2,2.8-5.9
					c3.6-3.2,4.1-9,4.5-14.6l0.1-1.4c2.1-25.9,15.7-50.7,36.2-66.6c8.2-6.3,15.4-8.9,22.2-7.9c7.3,1,12.9,5.9,18.4,11.3
					c10.8,10.4,21.5,21.2,31.9,31.6l21.2,21.2C558.9,1702,559,1702.2,559.1,1702.3z"/>
			</g>
			<g>
				<path class="st0" d="M551.6,1701.8c0.6,1.1,0.5,2.5-0.4,3.4c-1.1,1.1-2.8,1.1-3.9,0c-9.5-9.7-19.8-19.7-32-26.6
					c-13.1-7.5-26.9-10.1-38.9-7.5c-4.5,1-8.2,2.6-11,4.9c-3.1,2.6-5.1,6-5.4,9.5c-0.3,3.4,1,7.4,3.8,11.1c5.2,7,14,12,24.8,14.1
					c10,1.9,20.4,1.2,30.5,0.6c1.5-0.1,2.8,1.1,2.9,2.6c0.1,1.5-1.1,2.8-2.6,2.9c-10.4,0.7-21.2,1.3-31.9-0.7
					c-12.2-2.3-22.2-8.1-28.2-16.2c-2.5-3.4-5.4-8.7-4.8-14.9c0.4-4.9,3.2-9.7,7.4-13.2c3.4-2.8,7.9-4.8,13.3-6
					c13.3-2.9,28.5-0.1,42.8,8.1c12.8,7.2,23.4,17.6,33.2,27.5C551.3,1701.5,551.4,1701.6,551.6,1701.8z"/>
			</g>
			<g>
				<path class="st0" d="M485.2,1710.3c0.3,0.6,0.5,1.3,0.3,2c-0.3,1.5-1.8,2.4-3.3,2.1c-1.1-0.3-2.2-0.5-3.3-0.7l-0.3-0.1
					c-2.3-0.5-4.2-1.1-5.8-1.9c-6.2-3.2-13.5-4.5-20.5-3.7c-7,0.8-13.7,3.8-19.1,8.3c-1.2,1-2.9,0.9-3.9-0.3c-1-1.2-0.8-2.9,0.3-3.9
					c6.2-5.2,14-8.6,22-9.6c8-0.9,16.4,0.6,23.6,4.3c1.2,0.6,2.6,1.1,4.4,1.4l0.3,0.1c1.2,0.2,2.3,0.5,3.5,0.7
					C484.3,1709.1,484.9,1709.6,485.2,1710.3z"/>
			</g>
			<g>
				<path class="st0" d="M486.4,1711.1c0.3,0.4,0.4,1,0.4,1.5c-0.1,1.5-1.4,2.7-2.9,2.6l-1.2-0.1c-1.5-0.1-2.7-1.4-2.6-2.9
					c0.1-1.5,1.4-2.7,2.9-2.6l1.2,0.1C485.2,1709.8,486,1710.3,486.4,1711.1z"/>
			</g>
			<g>
				<path class="st0" d="M677.9,1932.2c2.2,3.8,1.5,9.4,1,14c-0.2,1.4-0.3,2.7-0.4,3.7l-0.7,19c-0.2,4.4-0.3,9-1.8,13.5
					c-3,8.9-10.6,15.3-16.7,20.4c-6.9,5.7-14,11.7-22.4,15.6c-9.7,4.5-19.7,5.4-28,2.4c-10.1-3.6-17-13.3-16.3-23
					c0.6-8.7,6.6-15.5,12.7-21.7c5.1-5.2,10.2-10.5,15.2-15.5c7.8-7.9,15.9-16.1,25.4-22.4c8-5.3,19.1-11.4,26.4-9.9
					c2.3,0.5,4.2,1.7,5.4,3.6C677.8,1932,677.8,1932.1,677.9,1932.2z M672.3,1968.7l0.7-19c0-1.2,0.2-2.6,0.4-4.2
					c0.4-3.6,1-8.6-0.4-10.7c-0.4-0.6-1-1-1.9-1.2c-4-0.8-12.5,2.7-22.2,9.1c-9.1,6-16.9,14-24.5,21.7c-5,5-10.1,10.2-15.2,15.5
					c-5.6,5.7-10.6,11.4-11.1,18.2c-0.5,7.1,4.9,14.6,12.7,17.4c6.9,2.5,15.4,1.7,23.8-2.2c7.8-3.6,14.6-9.3,21.2-14.8
					c5.6-4.6,12.5-10.4,15-17.9C672,1976.9,672.2,1972.7,672.3,1968.7L672.3,1968.7z"/>
			</g>
			<g>
				<path class="st0" d="M678.3,1820.5c3.3,5.7,5.1,13.2,5.3,22.2c0.1,3.1,0,6.3-0.1,9.4c-0.2,6.4-0.3,12.5,0.8,18.5
					c0.6,3.3,1.6,6.5,2.7,9.9c1,3.1,2,6.3,2.7,9.5c3.4,15.9-1.3,33.2-12.3,45.2c-1,1.1-2.8,1.2-3.9,0.2c-1.1-1-1.2-2.8-0.2-3.9
					c9.8-10.7,13.9-26.2,10.9-40.4c-0.6-3-1.6-5.9-2.5-9c-1.1-3.4-2.2-6.9-2.9-10.5c-1.3-6.6-1.1-13.3-0.9-19.7
					c0.1-3,0.2-6.1,0.1-9.1c-0.2-11.1-3-19.2-8.2-24.2c-1.1-1.1-1.1-2.8-0.1-3.9c1.1-1.1,2.8-1.1,3.9-0.1
					C675.4,1816.3,677,1818.3,678.3,1820.5z"/>
			</g>
			<g>
				<path class="st0" d="M676.9,1932.5c0,0.1,0.1,0.1,0.1,0.2c0.7,1.4,0.1,3-1.2,3.7c-0.1,0.1-0.2,0.1-0.3,0.2c0.5-0.1,1-0.1,1.6,0
					c1.4,0.5,2.2,2,1.8,3.5c-2.7,8.2-8.2,15.1-13,21.2c-5.7,7.1-11.5,14.5-18.6,20.6c-1.7,1.5-3.6,3-5.9,3.9
					c-2.8,1.2-5.7,1.2-8.2,0.2c-4.3-1.8-6.7-7-5.6-12.1c1-4.6,4.2-8.1,6.6-10.3c4.1-3.8,8.9-6.9,13.5-9.8
					c5.8-3.7,11.3-7.2,15.6-12.2c0.7-0.8,1.3-1.6,2-2.5c2.3-2.9,4.6-5.9,8.2-7.7C674.6,1930.8,676.2,1931.2,676.9,1932.5z
					 M633.4,1979.4c0.4,0.7,1,1.3,1.7,1.6c1.1,0.4,2.5,0.4,3.9-0.2c1.6-0.6,3-1.8,4.4-3c6.7-5.8,12.4-13,17.9-19.9
					c4.8-6,9.7-12.3,12.1-19.5c0.1-0.3,0.2-0.5,0.4-0.8c-1.6,1.3-3,3.1-4.5,5c-0.7,0.9-1.4,1.8-2.2,2.7c-4.8,5.5-10.9,9.4-16.8,13.2
					c-4.6,2.9-9,5.7-12.7,9.2c-2.9,2.7-4.4,5-4.9,7.4C632.5,1976.4,632.7,1978.1,633.4,1979.4z"/>
			</g>
			<g>
				<path class="st0" d="M684.1,1922.4c0.7,1.1,0.4,2.6-0.6,3.5c-1.2,1-2.9,0.8-3.9-0.3c-2-2.4-4.1-2.8-8.3-3.3
					c-4.2-0.5-8.5,0.4-12.6,1.4c-25.4,6.2-48.8,20.5-66,40.2c-3.4,4-7.7,9.3-9.9,15.5c-2.2,6-2.1,12.1,0.1,16.8
					c2.5,5.1,7.9,8.5,12.8,7.9c1.5-0.2,2.9,0.9,3,2.5c0.2,1.5-0.9,2.9-2.5,3c-7.3,0.8-14.9-3.8-18.4-11c-2.9-6.1-3-13.8-0.3-21.1
					c2.6-7,7.2-12.9,11-17.2c17.9-20.6,42.4-35.4,68.9-41.9c4.5-1.1,9.4-2.1,14.5-1.5c4.7,0.5,8.6,1.2,11.9,5.2
					C684,1922.1,684.1,1922.2,684.1,1922.4z"/>
			</g>
			<g>
				<path class="st0" d="M629.6,1860c0.6,1,0.5,2.2-0.3,3.2c-0.2,0.3-0.4,0.5-0.6,0.8c-0.3,0.5-0.7,1-1.3,1.6
					c-21.5,22.6-45.9,42.4-72.5,58.8l-1.1,0.7c-3.9,2.4-7.6,4.6-10.7,7.5c-2.6,2.4-5.9,6.2-6.8,11.1c-0.9,5.1,0.8,11,5.2,17.7
					c8.6,13,22,23.1,37,27.6c1.5,0.4,2.3,2,1.8,3.4c-0.4,1.5-2,2.3-3.4,1.8c-16.2-4.9-30.7-15.8-40-29.9c-5.2-7.9-7.2-15.2-6-21.7
					c0.9-5,3.9-9.9,8.5-14.1c3.6-3.3,7.6-5.8,11.6-8.2l1.1-0.7c26.2-16.2,50.2-35.6,71.4-57.9c0.2-0.3,0.5-0.6,0.8-1
					c0.3-0.4,0.5-0.8,0.9-1.2c1-1.2,2.7-1.3,3.9-0.3C629.3,1859.5,629.5,1859.8,629.6,1860z"/>
			</g>
			<g>
				<path class="st0" d="M534.9,1942.6c0.7,1.1,0.4,2.6-0.6,3.5c-7,5.9-17.2,7.8-25.9,4.7c-5.2-1.8-9.6-5.2-13.2-8.3
					c-3.6-3.1-7.3-6.7-8.9-11.4c-0.5-1.4,0.2-3,1.7-3.5c1.4-0.5,3,0.2,3.5,1.7c1.2,3.5,4.3,6.4,7.3,9c3.2,2.8,7.1,5.8,11.5,7.3
					c6.9,2.4,14.9,1,20.5-3.7c1.2-1,2.9-0.8,3.9,0.3C534.7,1942.3,534.8,1942.4,534.9,1942.6z"/>
			</g>
		</g>
		<g>
			<path class="st0" d="M512.1,1685.3c0.6,1,0.5,2.3-0.3,3.2c-1,1.1-2.7,1.3-3.9,0.3c-4.3-3.8-8.7-6.2-12.9-7.1
				c-4.9-1.1-9.8-0.2-13.1,2.5c-1.2,1-2.9,0.8-3.9-0.4c-1-1.2-0.8-2.9,0.4-3.9c4.6-3.7,11.2-5.1,17.8-3.6c5.1,1.1,10.3,4,15.3,8.4
				C511.7,1684.8,511.9,1685.1,512.1,1685.3z"/>
		</g>
		<g>
			<path class="st0" d="M491,1731.8c0.3,0.4,0.4,0.9,0.4,1.5c-0.1,1.5-1.3,2.7-2.8,2.7l-18.2-0.6c-5.6-0.2-11.4-0.4-16.9,0.6
				c-4.1,0.7-9.9,2.5-14,6.8c-1,1.1-2.8,1.2-3.9,0.1c-1.1-1-1.2-2.8-0.1-3.9c4.1-4.3,9.9-7.2,17-8.5c6.1-1.1,12.2-0.9,18.1-0.7
				l18.2,0.6C489.7,1730.5,490.6,1731.1,491,1731.8z"/>
		</g>
		<g>
			<path class="st0" d="M512.1,1726.6c0.1,0.1,0.2,0.3,0.2,0.5c0.5,1.4-0.2,3-1.7,3.5l-10.2,3.7c-1.4,0.5-3-0.2-3.5-1.7
				s0.2-3,1.7-3.5l10.2-3.7C510.1,1725,511.4,1725.5,512.1,1726.6z"/>
		</g>
		<g>
			<path class="st0" d="M611.1,1756.1c0.4,0.7,0.5,1.6,0.2,2.4c-0.6,1.4-2.2,2.1-3.6,1.6c-14.6-5.7-31.7-3.8-44.7,4.8
				c-1.3,0.8-3,0.5-3.8-0.8c-0.8-1.3-0.5-3,0.8-3.8c14.5-9.6,33.5-11.7,49.7-5.3C610.3,1755.2,610.8,1755.6,611.1,1756.1z"/>
		</g>
		<g>
			<path class="st0" d="M521.4,1875.7C521.4,1875.7,521.4,1875.7,521.4,1875.7c0.8,1.4,0.3,3-1,3.8c-9.5,5.4-20.2,8.9-31,10.3
				c-0.5,0.1-0.9,0.1-1.4,0.2c-2.5,0.3-4.9,0.6-7,1.4c-1.9,0.8-4,2.3-4.4,4.5c-0.3,1.5-1.7,2.5-3.2,2.2c-1.5-0.3-2.5-1.7-2.2-3.2
				c0.7-3.7,3.6-6.9,7.7-8.6c2.8-1.1,5.6-1.5,8.4-1.8c0.5-0.1,0.9-0.1,1.4-0.2c10.1-1.3,20.1-4.6,29-9.6
				C519,1873.9,520.7,1874.4,521.4,1875.7z"/>
		</g>
		<g>
			<path class="st0" d="M544.4,1865.3c0.8,1.3,0.3,3-1,3.8l-11.4,6.7c-1.3,0.8-3,0.3-3.8-1c-0.8-1.3-0.3-3,1-3.8l11.4-6.7
				C541.9,1863.5,543.6,1863.9,544.4,1865.3z"/>
		</g>
		<g>
			<path class="st0" d="M561.6,1931.4c0.1,0.2,0.2,0.3,0.2,0.5c0.5,1.4-0.3,3-1.8,3.5c-5.4,1.8-9.6,7.2-10,12.8
				c-0.4,5.7,3,11.6,8.1,14.1c1.4,0.7,1.9,2.3,1.2,3.7c-0.7,1.4-2.3,1.9-3.7,1.2c-7.1-3.5-11.7-11.6-11.1-19.5
				c0.6-7.9,6.2-15.2,13.8-17.7C559.6,1929.8,561,1930.3,561.6,1931.4z"/>
		</g>
		<g>
			<path class="st0" d="M616.7,1983.5c0.7,1.2,0.4,2.7-0.7,3.6c-3,2.3-4.8,6.1-4.6,9.8c0.1,3.9,2.2,7.9,4.1,11.3
				c0.7,1.3,0.2,3-1.1,3.7c-1.3,0.7-3,0.2-3.7-1.1c-2-3.8-4.6-8.5-4.7-13.8c-0.2-5.5,2.4-11,6.8-14.4c1.2-0.9,2.9-0.7,3.9,0.5
				C616.5,1983.3,616.6,1983.4,616.7,1983.5z"/>
		</g>
	</g>
</g>
<g id="Слой_3">
	<text transform="matrix(1 0 0 1 769.023 1174.6615)" class="st1 st2">BELKA LOUNGE</text>
	<text transform="matrix(1 0 0 1 826.1142 1109.6293)" class="st1 st2">BELKA LOUNGE</text>
	<text transform="matrix(1 0 0 1 884.9091 1042.2744)" class="st1 st2">BELKA LOUNGE</text>
</g>
<path id="snowflake_33_" class="st0" d="M664.8,189.6l-33.2,20l-14.5-3.6l32.4-19.6l-5.7-9.4L602,202.3l-14-3.5l38.7-23.3l-4.3-7.2
	l-0.2-8.9l-45.1,0.9l10-10.4l48.9-0.9l-0.2-11l-37.9,0.7l10.4-10.8l38.7-0.7l-0.2-11l-27.7,0.5l17.7-18.3l0.3-0.3l-7.9-7.6
	l-17.9,18.6l-0.5-27.3l0-0.4l-11,0.2l0.7,38.7L589.9,131l-0.7-37.5l0-0.4l-11,0.2l0.9,48.9l-10,10.4l-0.8-44.7l0-0.4l-8.4,0.2
	l-7.8-4.3l-21.8,39.5l-4-13.9l23.6-42.8l-9.6-5.3L521.9,114l-4.1-14.3l18.7-33.9l-9.6-5.3l-13.4,24.3l-7.2-24.9l-10.6,3.1l7.2,24.9
	l-24.3-13.4l-5.3,9.6l33.9,18.7l4.1,14.3l-33.2-18.3l-5.3,9.6l42.8,23.6l4,13.9l-39.5-21.8l-4.1,7.3l-7.6,4.6l23.3,38.7l-14-3.5
	l-25-41.5l-0.2-0.4l-9.4,5.7l19.6,32.4l-14.5-3.6l-20-33.2l-9.4,5.7l14.3,23.7l-24.7-6.1l-0.4-0.1l-2.6,10.7l25.1,6.2l-23.7,14.3
	l5.7,9.4l33.2-20l14.5,3.6l-32.4,19.6l5.7,9.4l41.9-25.2l14,3.5l-38.7,23.3l4.3,7.2l0.2,8.9l45.1-0.9l-10,10.4l-48.9,0.9l0.2,11
	l37.9-0.7l-10.4,10.8l-38.7,0.7l0.2,11l27.7-0.5l-17.7,18.3l-0.3,0.3l7.9,7.6l17.9-18.6l0.5,27.3l0,0.4l11-0.2l-0.7-38.7l10.4-10.8
	l0.7,37.5l0,0.4l11-0.2L498,242l10-10.4l0.8,44.7l0,0.4l8.4-0.2l7.8,4.3l21.8-39.5l4,13.9L527.3,298l9.6,5.3l18.3-33.2l4.1,14.3
	l-18.7,33.9l9.6,5.3l13.4-24.3l7.2,24.9l10.6-3.1l-7.2-24.9l24.3,13.4l5.3-9.6l-33.9-18.7l-4.1-14.3l33.2,18.3l5.3-9.6l-42.8-23.6
	l-4-13.9l39.5,21.8l4.1-7.3l7.6-4.6l-23.3-38.7l14,3.5l25,41.5l0.2,0.4l9.4-5.7l-19.6-32.4l14.5,3.6l20,33.2l9.4-5.7l-14.3-23.7
	l24.7,6.1l0.4,0.1l2.6-10.7l-25.1-6.2l23.7-14.3L664.8,189.6z M532,194l1.7-6.7l6.6-1.9l4.9,4.8l-1.7,6.7l-6.6,1.9L532,194z
	 M549.2,189.2l17-17.7l47.2-0.9l-40.5,24.4L549.2,189.2z M541.4,181.4l-6.8-23.6l22.8-41.3l0.9,47.3L541.4,181.4z M530.7,184.4
	l-23.8-5.9L482.6,138l41.4,22.9L530.7,184.4z M528,195l-17,17.7l-47.2,0.9l40.5-24.4L528,195z M535.8,202.8l6.8,23.6l-22.8,41.3
	l-0.9-47.3L535.8,202.8z M546.4,199.8l23.8,5.9l24.4,40.4l-41.4-22.9L546.4,199.8z"/>
<path id="snowflake_36_" class="st0" d="M1208.4,1333.8h-10.8l5.9-5.9l-2.7-2.7l-8.6,8.6h-9.8l12.7-12.7l-2.7-2.7l-15.4,15.4h-7.3
	l5.1-5.1h0.1v-0.1l8.6-8.6h0.5v-0.5l1-1l-1-1v-1.3h-1.3l-0.4-0.4l-0.4,0.4h-12l-0.1-0.1l-0.1,0.1h-7.3l5.2-5.2h21.7v-3.8h-17.9
	l6.9-6.9h12.2v-3.8h-8.3l7.7-7.7l-2.7-2.7l-7.7,7.7v-8.3h-3.8v12.2l-6.9,6.9v-17.9h-3.8v21.7l-5.2,5.2v-7.2l0,0l0,0v-12.1l0.3-0.3
	l-0.3-0.3v-1.5h-1.5l-0.9-0.9l-0.9,0.9h-0.5v0.5l-8.5,8.5h-0.1v0.1l-5.1,5.1v-7.3l15.4-15.4l-2.7-2.7l-12.7,12.7v-9.8l8.6-8.6
	l-2.7-2.7l-5.9,5.9v-10.8h-3.8v10.8l-5.9-5.9l-2.7,2.7l8.6,8.6v9.8l-12.7-12.7l-2.7,2.7l15.4,15.4v7.3l-5.1-5.1v-0.1h-0.1l-8.6-8.6
	v-0.5h-0.5l-1-1l-1,1h-1.3v1.3l-0.4,0.4l0.4,0.4v12l-0.1,0.1l0.1,0.1v7.3l-5.2-5.2v-21.7h-3.8v17.9l-6.9-6.9v-12.2h-3.8v8.3
	l-7.7-7.7l-2.7,2.7l7.7,7.7h-8.3v3.8h12.2l6.9,6.9h-17.9v3.8h21.7l5.2,5.2h-7.2l0,0l0,0h-12.1l-0.3-0.3l-0.3,0.3h-1.5v1.5l-0.9,0.9
	l0.9,0.9v0.5h0.5l8.5,8.5v0.1h0.1l5.1,5.1h-7.3l-15.4-15.4l-2.7,2.7l12.7,12.7h-9.8l-8.6-8.6l-2.7,2.7l5.9,5.9H1072v3.8h10.8
	l-5.9,5.9l2.7,2.7l8.6-8.6h9.8l-12.7,12.7l2.7,2.7l15.4-15.4h7.3l-5.1,5.1h-0.1v0.1l-8.6,8.6h-0.5v0.5l-1,1l1,1v1.3h1.3l0.4,0.4
	l0.4-0.4h12l0.1,0.1l0.1-0.1h7.3l-5.2,5.2h-21.7v3.8h17.9l-6.9,6.9H1090v3.8h8.3l-7.7,7.7l2.7,2.7l7.7-7.7v8.3h3.8v-12.2l6.9-6.9
	v17.9h3.8v-21.7l5.2-5.2v7.2l0,0l0,0v12.1l-0.3,0.3l0.3,0.3v1.5h1.5l0.9,0.9l0.9-0.9h0.5v-0.5l8.5-8.5h0.1v-0.1l5.1-5.1v7.3
	l-15.4,15.4l2.7,2.7l12.7-12.7v9.8l-8.6,8.6l2.7,2.7l5.9-5.9v10.8h3.8v-10.8l5.9,5.9l2.7-2.7l-8.6-8.6v-9.8l12.7,12.7l2.7-2.7
	l-15.4-15.4v-7.3l5.1,5.1v0.1h0.1l8.5,8.5v0.5h0.5l1,1l1-1h1.3v-1.3l0.4-0.4l-0.4-0.4v-12l0.1-0.1l-0.1-0.1v-7.3l5.2,5.2v21.7h3.8
	v-17.9l6.9,6.9v12.2h3.8v-8.3l7.7,7.7l2.7-2.7l-7.7-7.7h8.3v-3.8h-12.2l-6.9-6.9h17.9v-3.8h-21.7l-5.2-5.2h7.2l0,0l0,0h12.1l0.3,0.3
	l0.3-0.3h1.5v-1.5l0.9-0.9l-0.9-0.9v-0.5h-0.5l-8.5-8.5v-0.1h-0.1l-5.1-5.1h7.3l15.4,15.4l2.7-2.7l-12.7-12.7h9.8l8.6,8.6l2.7-2.7
	l-5.9-5.9h10.8V1333.8z M1147.5,1340.2l-2.7,2.7l2.5,2.5v7.3l-5.1-5.1v-3.6h-3.8v3.6l-5.1,5.1v-7.2l2.5-2.5l-2.7-2.7l-2.5,2.5h-7.3
	l5.1-5.1h3.5v-3.8h-3.6l-5.1-5.1h7.2l2.5,2.5l2.7-2.7l-2.5-2.5v-7.3l5.1,5.1v3.6h3.8v-3.6l5.1-5.1v7.2l-2.5,2.5l2.7,2.7l2.5-2.5h7.3
	l-5.1,5.1h-3.6v3.8h3.6l5.1,5.1h-7.2L1147.5,1340.2z M1157.5,1333.8l5.1-5.1h6.8l-5.1,5.1H1157.5z M1166.4,1324.8l4.8-4.8h6.8
	l-4.8,4.8H1166.4z M1161,1324.8h-7.3l4.8-4.8h7.3L1161,1324.8z M1151,1322.1v-7.2l4.8-4.8v7.2L1151,1322.1z M1151,1309.5v-6.8
	l4.8-4.8v6.8L1151,1309.5z M1147.2,1313.3l-5.1,5.1v-6.8l5.1-5.1V1313.3z M1138.2,1318.5l-5.1-5.1v-6.8l5.1,5.1V1318.5z
	 M1129.3,1309.6l-4.8-4.8v-6.8l4.8,4.8V1309.6z M1129.3,1315v7.3l-4.8-4.8v-7.3L1129.3,1315z M1126.6,1324.9h-7.2l-4.8-4.8h7.2
	L1126.6,1324.9z M1113.9,1324.9h-6.8l-4.8-4.8h6.8L1113.9,1324.9z M1117.8,1328.8l5.1,5.1h-6.8l-5.1-5.1H1117.8z M1122.9,1337.7
	l-5.1,5.1h-6.8l5.1-5.1H1122.9z M1114,1346.7l-4.8,4.8h-6.8l4.8-4.8H1114z M1119.4,1346.7h7.3l-4.8,4.8h-7.3L1119.4,1346.7z
	 M1129.4,1349.4v7.2l-4.8,4.8v-7.2L1129.4,1349.4z M1129.4,1362v6.8l-4.8,4.8v-6.8L1129.4,1362z M1133.2,1358.2l5.1-5.1v6.8
	l-5.1,5.1V1358.2z M1142.2,1353l5.1,5.1v6.8l-5.1-5.1V1353z M1151.1,1362l4.8,4.8v6.8l-4.8-4.8V1362z M1151.1,1356.5v-7.3l4.8,4.8
	v7.3L1151.1,1356.5z M1153.8,1346.6h7.2l4.8,4.8h-7.2L1153.8,1346.6z M1166.4,1346.6h6.8l4.8,4.8h-6.8L1166.4,1346.6z
	 M1162.6,1342.7l-5.1-5.1h6.8l5.1,5.1H1162.6z"/>
<path id="snowflake_45_" class="st0" d="M1015.5,2126.5h-11.9l9.1-9.1l-6.1-6.1l-15.2,15.2h-11.9l17.1-17.1l-6.1-6.1l-23.2,23.2
	h-13.9l28.2-28.2l-6.1-6.1l-34.3,34.3H928l33.2-33.2l-2.8-2.8v-3.6h-46.9l9.2-9.2h48.5v-8.6h-39.8l9.9-9.9H972v-8.6h-24.2l8.4-8.4
	h21.4v-8.6h-12.8l8.4-8.4l-6.1-6.1l-8.4,8.4v-12.8h-8.6v21.4l-8.4,8.4v-24.2h-8.6v32.8l-9.9,9.9V2023h-8.6v48.5l-9.2,9.2v-46.9h-4
	l-2.5-2.5l-33.2,33.2v-13.1l34.3-34.3l-6.1-6.1l-28.2,28.2v-13.9l23.2-23.2l-6.1-6.1l-17.1,17.1v-11.9l15.2-15.2l-6.1-6.1l-9.1,9.1
	V1977h-8.6v11.9l-9.1-9.1l-6.1,6.1l15.2,15.2v11.9l-17.1-17.1l-6.1,6.1l23.2,23.2v13.9l-28.2-28.2l-6.1,6.1l34.3,34.3v13.1
	l-33.2-33.2l-2.8,2.8h-3.6v46.9l-9.2-9.2v-48.5h-8.6v39.8l-9.9-9.9v-32.8h-8.6v24.2l-8.4-8.4v-21.4H764v12.8l-8.4-8.4l-6.1,6.1
	l8.4,8.4h-12.8v8.6h21.4l8.4,8.4h-24.2v8.6h32.8l9.9,9.9h-39.8v8.6h48.5l9.2,9.2h-46.9v4l-2.5,2.5l33.2,33.2H782l-34.3-34.3
	l-6.1,6.1l28.2,28.2h-13.9l-23.2-23.2l-6.1,6.1l17.1,17.1h-11.9l-15.2-15.2l-6.1,6.1l9.1,9.1h-11.9v8.6h11.9l-9.1,9.1l6.1,6.1
	l15.2-15.2h11.9l-17.1,17.1l6.1,6.1l23.2-23.2h13.9l-28.2,28.2l6.1,6.1l34.3-34.3h13.1l-33.2,33.2l2.8,2.8v3.6h46.9l-9.2,9.2h-48.5
	v8.6h39.8l-9.9,9.9h-32.8v8.6h24.2l-8.4,8.4h-21.4v8.6h12.8l-8.4,8.4l6.1,6.1l8.4-8.4v12.8h8.6v-21.4l8.4-8.4v24.2h8.6v-32.8
	l9.9-9.9v39.8h8.6v-48.5l9.2-9.2v46.9h4l2.5,2.5l33.2-33.2v13.1l-34.3,34.3l6.1,6.1l28.2-28.2v13.9l-23.2,23.2l6.1,6.1l17.1-17.1
	v11.9l-15.2,15.2l6.1,6.1l9.1-9.1v11.9h8.6V2273l9.1,9.1l6.1-6.1l-15.2-15.2v-11.9l17.1,17.1l6.1-6.1l-23.2-23.2v-13.9l28.2,28.2
	l6.1-6.1l-34.3-34.3v-13.1l33.2,33.2l2.8-2.8h3.6v-46.9l9.2,9.2v48.5h8.6v-39.8l9.9,9.9v32.8h8.6v-24.2l8.4,8.4v21.4h8.6v-12.8
	l8.4,8.4l6.1-6.1l-8.4-8.4H978v-8.6h-21.4l-8.4-8.4h24.2v-8.6h-32.8l-9.9-9.9h39.8v-8.6H921l-9.2-9.2h46.9v-4l2.5-2.5l-33.2-33.2
	h13.1l34.3,34.3l6.1-6.1l-28.2-28.2h13.9l23.2,23.2l6.1-6.1l-17.1-17.1h11.9l15.2,15.2l6.1-6.1l-9.1-9.1h11.9V2126.5z M882.8,2135.1
	l7.7,7.7h-10.8l-0.7-0.7l-0.7,0.7h-4.7v4.7l-0.7,0.7l0.7,0.7v10.9l-7.6-7.6v-1h-1l-3.3-3.3l-3.3,3.3h-1v1l-7.7,7.7v-10.8l0.7-0.7
	l-0.7-0.7v-4.7H845l-0.7-0.7l-0.7,0.7h-10.9l7.6-7.6h1v-1l3.3-3.3l-3.3-3.3v-1h-1l-7.7-7.7h10.8l0.7,0.7l0.7-0.7h4.7v-4.7l0.7-0.7
	l-0.7-0.7v-10.9l7.6,7.6v1h1l3.3,3.3l3.3-3.3h1v-1l7.7-7.7v10.8l-0.7,0.7l0.7,0.7v4.7h4.7l0.7,0.7l0.7-0.7h10.9l-7.6,7.6h-1v1
	l-3.3,3.3l3.3,3.3v1H882.8z M895,2126.5l7.6-7.6H918v-8.6h-6.8l4.9-4.9l-6.1-6.1l-11,11h-10.9l14.7-14.7h43.9l-31,31H895z
	 M882,2104.1v-10.8l10.9-10.9l-6.1-6.1l-4.8,4.8v-6.9h-8.6v15.5l-7.7,7.7v-20.8l31.1-31.1v43.8L882,2104.1z M857.1,2097.5l-7.6-7.6
	v-15.4h-8.6v6.8l-4.9-4.9l-6.1,6.1l11,11v10.9l-14.7-14.7v-43.9l31,31V2097.5z M834.7,2110.5H824l-10.9-10.9l-6.1,6.1l4.8,4.8h-6.9
	v8.6h15.5l7.7,7.7h-20.8l-31.1-31.1H820L834.7,2110.5z M828.1,2135.4l-7.6,7.6h-15.4v8.6h6.8l-4.9,4.9l6.1,6.1l11-11H835l-14.7,14.7
	h-43.9l31-31H828.1z M841.1,2157.8v10.8l-10.9,10.9l6.1,6.1l4.8-4.8v6.9h8.6v-15.5l7.7-7.7v20.8l-31.1,31.1v-43.8L841.1,2157.8z
	 M866,2164.4l7.6,7.6v15.4h8.6v-6.8l4.9,4.9l6.1-6.1l-11-11v-10.9l14.7,14.7v43.9l-31-31V2164.4z M888.4,2151.4h10.8l10.9,10.9
	l6.1-6.1l-4.8-4.8h6.9v-8.6h-15.5l-7.7-7.7h20.8l31.1,31.1h-43.8L888.4,2151.4z"/>
<g>
	<g>
		<path class="st0" d="M377.8,2581.4c16.9,1.1,33.4-9.6,47.8-17c19.4-10,38.4-20.7,56.7-32.5c37.1-23.9,71-52.4,98.4-87.1
			c4-5.1-3.8-11.3-7.8-6.2c-25.4,32.1-56.5,58.8-90.6,81.4c-16.9,11.2-34.5,21.5-52.5,31c-13.7,7.2-32.2,20.2-49,20.5
			c25.4-81.6,59.8-160.4,102.6-234.7c3.2-5.6-6-9.5-9.2-4c-35.1,60.8-64.5,124.7-88,190.8c-12.2-58.5-11-119,3.5-177.1
			c1.6-6.2-8.4-7.7-9.9-1.5c-8.4,33.6-12.4,68.3-12,102.9c0.2,16.2,1.4,32.3,3.5,48.4c1.1,8.1,2.4,16.2,4,24.2
			c0.8,3.9,1.5,7.8,2.5,11.7c0.8,3.5,2.4,6.7,1.6,10.3c-0.5,2.4-1.6,4.7-2.3,7c-1.9,6-3.8,12.1-5.6,18.1c-2.7,8.8-5.4,17.7-8,26.6
			c-3.6,12.6-7,25.4-10.2,38.1c-1.6,6.5-3.2,13-4.7,19.5c-0.7,3.2-1.4,6.3-2.1,9.5c-0.3,1.2-2.7,8.8-2.1,9.5
			c-47.7-50.6-78.9-115.2-88.4-184.2c-0.9-6.4-10.8-5.4-10,1c4.5,33.2,14,65.6,27.8,96.1c13.9,30.6,32.3,59.1,54.5,84.3
			c2,2.3,4,4.5,6.1,6.8c1.7,1.9,4.6,3.9,5.2,6.3c1.5,5.5-1,14.2-2.6,19.5c-1.3,4.3-3,8.5-4.4,12.8c-2.2,6.4-3.8,13-4.8,19.7
			c-0.3,2.1-0.6,4.3,0,6.4c0.8,2.9,3.3,5.2,6.2,5.9c10.2,2.2,9.1-12.5,10.1-19c1.6-9.8,3.3-19.6,5.2-29.4c3.7-19.5,8-38.9,12.7-58.2
			C366.8,2619.6,372.1,2600.4,377.8,2581.4z"/>
	</g>
	<g>
		<g>
			<path class="st0" d="M220,2481.6c2.8,24.2,20.1,41.9,37,58c2.8,2.6,7.4-1.2,4.6-3.9c-16.1-15.3-33-32-35.7-55.2
				C225.4,2476.6,219.5,2477.8,220,2481.6L220,2481.6z"/>
		</g>
	</g>
	<g>
		<g>
			<path class="st0" d="M250,2453.1c0.8,11.1,0.1,22.1-2.1,33c-0.8,3.7,4.9,5.7,5.7,1.9c2.4-11.9,3.2-23.9,2.3-36
				C255.6,2448.1,249.7,2449.3,250,2453.1L250,2453.1z"/>
		</g>
	</g>
	<g>
		<g>
			<path class="st0" d="M266.7,2464.5c-1.1,14-4.8,27.3-11.2,39.7c-1.7,3.4,3.2,6.8,5,3.4c6.9-13.4,11-27.6,12.3-42.7
				C273,2461,267,2460.6,266.7,2464.5L266.7,2464.5z"/>
		</g>
	</g>
	<g>
		<g>
			<path class="st0" d="M283.3,2479.6c-3.7,19.3-12.4,36.5-25.4,51.1c-2.6,2.9,2.4,6.2,5,3.4c13.8-15.5,22.6-33.7,26.4-54.1
				C290,2476.2,284,2475.8,283.3,2479.6L283.3,2479.6z"/>
		</g>
	</g>
	<g>
		<g>
			<path class="st0" d="M213.2,2529.1c12.7,17.5,30.4,29.6,51.3,35c3.7,1,5.7-4.7,1.9-5.7c-20-5.2-36.6-16.5-48.7-33.2
				C215.5,2522,210.9,2526,213.2,2529.1L213.2,2529.1z"/>
		</g>
	</g>
	<g>
		<g>
			<path class="st0" d="M219.4,2557.7c14.3,11.9,31.1,18.8,49.9,20.8c4.1,0.4,4.7-6.2,0.7-6.6c-17.7-1.8-33.4-8.5-46.8-19.8
				C220.1,2549.5,216.3,2555.1,219.4,2557.7L219.4,2557.7z"/>
		</g>
	</g>
	<g>
		<g>
			<path class="st0" d="M229.9,2584.9c15.2,8.9,32.7,17.8,49.9,9c3.4-1.8,0.9-7.2-2.6-5.4c-15.2,7.8-30.7-0.7-43.9-8.5
				C229.9,2578,226.5,2583,229.9,2584.9L229.9,2584.9z"/>
		</g>
	</g>
	<g>
		<g>
			<path class="st0" d="M274.9,2557.3c14.3-12.5,24.4-28.1,30-46.3c1.1-3.7-4.5-5.6-5.7-1.9c-5.3,17.2-14.7,31.8-28.2,43.6
				C268.1,2555.3,272,2559.9,274.9,2557.3L274.9,2557.3z"/>
		</g>
	</g>
	<g>
		<g>
			<path class="st0" d="M280.1,2582.3c14.5-16.3,25.1-35,32-55.6c1.2-3.7-4.5-5.6-5.7-1.9c-6.7,20.2-17.2,38.3-31.3,54.2
				C272.6,2581.8,277.6,2585.2,280.1,2582.3L280.1,2582.3z"/>
		</g>
	</g>
	<g>
		<g>
			<path class="st0" d="M288.6,2598c15.5-12,26-28.2,30.5-47.3c0.9-3.7-4.8-5.7-5.7-1.9c-4.2,18.1-13.9,33.2-28.7,44.6
				C281.6,2595.8,285.5,2600.4,288.6,2598L288.6,2598z"/>
		</g>
	</g>
	<g>
		<g>
			<path class="st0" d="M320.8,2567.6c-4.1,18.7-13.2,35-27.1,48.2c-2.8,2.7,1.1,7.2,3.9,4.6c14.7-13.9,24.5-31.1,28.9-50.8
				C327.3,2565.8,321.7,2563.8,320.8,2567.6L320.8,2567.6z"/>
		</g>
	</g>
	<g>
		<g>
			<path class="st0" d="M323.9,2585.5c-2.8,15.8-9.9,29.8-21,41.3c-2.7,2.8,1.2,7.4,3.9,4.6c12.3-12.8,20-27.9,23.1-45.4
				C330.6,2582.1,324.6,2581.7,323.9,2585.5L323.9,2585.5z"/>
		</g>
	</g>
	<g>
		<g>
			<path class="st0" d="M240.2,2606.7c15.9,12,36.8,13.9,54.7,5.1c3.5-1.7,0.9-7.1-2.6-5.4c-16,7.9-34.5,6-48.7-4.7
				C240.4,2599.4,237.1,2604.4,240.2,2606.7L240.2,2606.7z"/>
		</g>
	</g>
	<g>
		<g>
			<path class="st0" d="M260.1,2629.6c12,8.2,27,9.3,41.1,3.3c3.8-1.6,1.3-7.3-2.5-5.7c-12,5.1-24.8,3.9-34.9-3.1
				C260.6,2621.9,256.9,2627.4,260.1,2629.6L260.1,2629.6z"/>
		</g>
	</g>
	<g>
		<g>
			<path class="st0" d="M268.1,2651.5c16.8,5.2,34.9,1.6,48.4-9.6c3-2.5-0.9-7.1-3.9-4.6c-11.9,9.9-27.8,13.1-42.5,8.5
				C266.3,2644.7,264.4,2650.4,268.1,2651.5L268.1,2651.5z"/>
		</g>
	</g>
	<g>
		<g>
			<path class="st0" d="M338,2610.9c-3.4,11.9-8.6,28.2-23.8,27.7c-3.9-0.1-4.3,5.9-0.4,6c18.3,0.6,25.6-17,29.9-31.8
				C344.8,2609.1,339.1,2607.1,338,2610.9L338,2610.9z"/>
		</g>
	</g>
	<g>
		<g>
			<path class="st0" d="M229.8,2465.2c1.4,17.4,9.1,33.3,21.9,45.1c2.8,2.6,7.4-1.3,4.6-3.9c-12.2-11.2-19.3-25.8-20.6-42.4
				C235.4,2460.2,229.5,2461.4,229.8,2465.2L229.8,2465.2z"/>
		</g>
	</g>
	<g>
		<g>
			<path class="st0" d="M381,2319c-3.2,5.9-4.9,12.1-4.4,18.9c0.4,4.6,1.6,11.8,7.2,12.7c4.8,0.8,8.3-3.8,10.8-7.1
				c5.3-7.2,9.4-15.1,12.5-23.4c1.4-3.6-4.3-5.5-5.7-1.9c-3.1,8.1-7.1,16.2-12.6,23c-1.8,2.2-1.6,3-4.1,1.3
				c-2.4-1.6-2.3-4.4-2.3-7.1c0-4.6,1.3-9,3.5-13C387.8,2319,382.9,2315.6,381,2319L381,2319z"/>
		</g>
	</g>
	<g>
		<g>
			<path class="st0" d="M364.4,2329.2c-2.1,15.1,2.2,30.1,12,41.8c2.5,3,7.1-0.9,4.6-3.9c-8.8-10.6-12.5-23.9-10.6-37.5
				C370.9,2325.7,364.9,2325.3,364.4,2329.2L364.4,2329.2z"/>
		</g>
	</g>
	<g>
		<g>
			<path class="st0" d="M351.8,2350.9c3.2,10.1,7.4,19.7,13,28.7c3.4,5.4,6.9,12,13.9,12.6c15.8,1.4,27.9-22.3,32.7-34.1
				c1.5-3.6-4.2-5.5-5.7-1.9c-2.4,5.7-5.2,11.1-8.8,16.1c-2.2,3-4.6,6.1-7.4,8.6c-4.1,3.7-5.1,4.5-10.8,2.7
				c-11.5-3.6-17.5-23-21-33.8C356.5,2346.1,350.6,2347.2,351.8,2350.9L351.8,2350.9z"/>
		</g>
	</g>
	<g>
		<g>
			<path class="st0" d="M383.1,2366.9c13.2-7.5,23.6-18.2,30.4-31.8c1.7-3.4-3.3-6.8-5-3.4c-6.3,12.7-15.6,22.8-28,29.7
				C377.1,2363.3,379.7,2368.8,383.1,2366.9L383.1,2366.9z"/>
		</g>
	</g>
	<g>
		<g>
			<path class="st0" d="M342.7,2370.3c3.8,17,14.1,31.1,29.2,39.7c3.3,1.9,6.7-3.1,3.4-5c-13.8-7.9-23.2-20.4-26.6-35.9
				C347.7,2365.4,341.8,2366.5,342.7,2370.3L342.7,2370.3z"/>
		</g>
	</g>
	<g>
		<g>
			<path class="st0" d="M407.2,2384.9c-9.1,10.4-20.1,18.4-32.8,23.9c-3.6,1.6-0.9,7,2.6,5.4c13.7-6,25.4-14.7,35.2-26
				C414.7,2385.4,409.7,2382,407.2,2384.9L407.2,2384.9z"/>
		</g>
	</g>
	<g>
		<g>
			<path class="st0" d="M406.3,2405.3c-9.7,10.6-20.9,19.1-33.8,25.6c-3.5,1.7-0.9,7.2,2.6,5.4c13.3-6.7,25-15.4,35.1-26.4
				C412.8,2407.1,408.9,2402.5,406.3,2405.3L406.3,2405.3z"/>
		</g>
	</g>
	<g>
		<g>
			<path class="st0" d="M400.1,2423.9c-7.1,10.8-16.9,18.6-28.9,23.2c-3.6,1.4-1,6.8,2.6,5.4c13-5,23.7-13.7,31.3-25.3
				C407.3,2424.1,402.3,2420.7,400.1,2423.9L400.1,2423.9z"/>
		</g>
	</g>
	<g>
		<g>
			<path class="st0" d="M398.7,2439.5c-7.7,11-17.5,19.7-29.3,26.2c-3.4,1.8-0.8,7.3,2.6,5.4c12.7-6.9,23.3-16.4,31.7-28.2
				C405.9,2439.7,400.9,2436.3,398.7,2439.5L398.7,2439.5z"/>
		</g>
	</g>
	<g>
		<g>
			<path class="st0" d="M336.5,2402.7c6.5,15.7,18.9,27.3,34.9,32.8c3.7,1.3,5.6-4.4,1.9-5.7c-14.6-5.1-25.5-15.5-31.4-29.7
				C340.4,2396.5,335,2399.1,336.5,2402.7L336.5,2402.7z"/>
		</g>
	</g>
	<g>
		<g>
			<path class="st0" d="M336.9,2428c7.1,13.3,19,22.6,33.8,25.9c3.7,0.8,5.7-4.9,1.9-5.7c-13.2-2.9-23.9-10.8-30.3-22.8
				C340.5,2422,335,2424.6,336.9,2428L336.9,2428z"/>
		</g>
	</g>
	<g>
		<g>
			<path class="st0" d="M334.9,2453.7c10.1,11.1,23.9,17.3,38.9,17.1c3.8,0,4.3-6,0.4-6c-13.5,0.2-25.7-5-34.8-15
				C336.9,2446.9,332.3,2450.8,334.9,2453.7L334.9,2453.7z"/>
		</g>
	</g>
	<g>
		<g>
			<path class="st0" d="M335.7,2472.7c12.9,8.7,27.3,17.2,43.3,12.6c3.7-1.1,2.6-7-1.1-5.9c-14.6,4.2-27.2-3.9-38.8-11.7
				C335.9,2465.6,332.5,2470.5,335.7,2472.7L335.7,2472.7z"/>
		</g>
	</g>
	<g>
		<g>
			<path class="st0" d="M396.7,2464.6c-5.4,8.8-13,15-22.7,18.5c-3.6,1.3-1,6.7,2.6,5.4c10.6-3.8,19.2-10.9,25.1-20.5
				C403.7,2464.6,398.7,2461.3,396.7,2464.6L396.7,2464.6z"/>
		</g>
	</g>
	<g>
		<g>
			<path class="st0" d="M332.1,2491.6c11.6,13.9,30.6,18.5,47.4,11.8c3.6-1.5,1-6.9-2.6-5.4c-14.3,5.8-30.4,1.5-40.2-10.3
				C334.2,2484.8,329.6,2488.7,332.1,2491.6L332.1,2491.6z"/>
		</g>
	</g>
	<g>
		<g>
			<path class="st0" d="M594.4,2406.6c-8.6,10.9-15.5,22.8-20.8,35.7c-1.5,3.6,4.2,5.5,5.7,1.9c5.1-12.4,11.7-23.7,20-34.2
				C601.7,2407,596.8,2403.6,594.4,2406.6L594.4,2406.6z"/>
		</g>
	</g>
	<g>
		<g>
			<path class="st0" d="M575.5,2448.5c13.4-1.5,25.7-6.7,36.3-14.9c3.1-2.4-0.9-6.9-3.9-4.6c-9.8,7.6-21.2,12.2-33.5,13.6
				C570.5,2443,571.7,2448.9,575.5,2448.5L575.5,2448.5z"/>
		</g>
	</g>
	<g>
		<g>
			<path class="st0" d="M562.2,2465.6c17.8,2.8,34.3-5.1,49.8-13.1c3.4-1.8,0.8-7.2-2.6-5.4c-14.5,7.6-29.9,15.2-46.8,12.5
				C558.8,2459,558.4,2465,562.2,2465.6L562.2,2465.6z"/>
		</g>
	</g>
	<g>
		<g>
			<path class="st0" d="M549.3,2478c14.9,6.9,31.7,6.6,46.4-0.4c3.5-1.7,0.9-7.1-2.6-5.4c-13.5,6.4-28.4,6.4-41.9,0.2
				C547.8,2470.7,545.9,2476.4,549.3,2478L549.3,2478z"/>
		</g>
	</g>
	<g>
		<g>
			<path class="st0" d="M571.9,2405.3c-10.2,15.3-13.2,33.7-8.1,51.4c1.1,3.7,7,2.6,5.9-1.1c-4.6-16.2-2.2-32.8,7.2-46.8
				C579,2405.5,574,2402.1,571.9,2405.3L571.9,2405.3z"/>
		</g>
	</g>
	<g>
		<g>
			<path class="st0" d="M554.7,2410.5c-6.2,10.8-10,22.5-10.6,34.9c-0.3,7.2-1.4,23.2,5.9,27.3c1.2,0.7,2.5,0.6,3.6-0.2
				c0.2-0.2,0.5-0.4,0.7-0.5c3.1-2.3-0.8-6.8-3.9-4.6c-0.2,0.2-0.5,0.4-0.7,0.5c1.2-0.1,2.4-0.1,3.6-0.2c-5.3-3-3.4-21.6-2.9-26.5
				c1.1-9.8,4.3-18.9,9.2-27.4C561.7,2410.5,556.7,2407.1,554.7,2410.5L554.7,2410.5z"/>
		</g>
	</g>
	<g>
		<g>
			<path class="st0" d="M532.7,2424.4c-9.3,19.8-17.9,43.1-3.1,62.5c2.3,3.1,6.9-0.8,4.6-3.9c-13.3-17.5-4-39.1,4.2-56.7
				C540.1,2422.8,534.4,2420.9,532.7,2424.4L532.7,2424.4z"/>
		</g>
	</g>
	<g>
		<g>
			<path class="st0" d="M511.7,2430.3c-9.1,21.5-12.1,51.5,3.1,70.9c2.4,3.1,7-0.9,4.6-3.9c-13.9-17.8-10.2-45.8-2-65.1
				C518.9,2428.7,513.3,2426.7,511.7,2430.3L511.7,2430.3z"/>
		</g>
	</g>
	<g>
		<g>
			<path class="st0" d="M532.5,2491.1c17.9,14.7,40.8,11.5,61.9,7.4c3.8-0.7,2.7-6.6-1.1-5.9c-19.6,3.8-40.7,7.3-57.4-6.5
				C532.8,2483.7,529.5,2488.6,532.5,2491.1L532.5,2491.1z"/>
		</g>
	</g>
	<g>
		<g>
			<path class="st0" d="M513.6,2502.5c8.3,9.5,16.9,17.8,29.6,20.7c11.6,2.7,23.7,1.1,35.4-0.4c3.8-0.5,2.7-6.4-1.1-5.9
				c-9.5,1.3-19.4,2.6-28.9,1.2c-13.2-2-21.8-9.7-30.3-19.5C515.6,2495.7,511,2499.6,513.6,2502.5L513.6,2502.5z"/>
		</g>
	</g>
	<g>
		<g>
			<path class="st0" d="M493.2,2521.4c16.8,14,40.3,26.4,62.7,20.3c3.7-1,2.6-6.9-1.1-5.9c-20.9,5.7-42.5-6.3-58.2-19.4
				C493.6,2513.9,490.3,2518.9,493.2,2521.4L493.2,2521.4z"/>
		</g>
	</g>
	<g>
		<g>
			<path class="st0" d="M489.5,2450.6c-12.6,23-14,49.8-3.6,73.8c1.5,3.6,7,0.9,5.4-2.6c-9.5-22-8.4-46.8,3.1-67.9
				C496.3,2450.6,491.3,2447.2,489.5,2450.6L489.5,2450.6z"/>
		</g>
	</g>
	<g>
		<g>
			<path class="st0" d="M466.4,2466.5c-8.3,22.5-7.8,46.5,1.3,68.6c1.5,3.6,6.9,1,5.4-2.6c-8.5-20.7-8.8-43.1-1-64.1
				C473.4,2464.8,467.7,2462.9,466.4,2466.5L466.4,2466.5z"/>
		</g>
	</g>
	<g>
		<g>
			<path class="st0" d="M447.3,2481.7c-3.9,11.9-6.1,24.2-5.8,36.8c0.2,8.8,0,23.1,5.8,30.1c0.6,0.8,1.8,1.3,2.9,1
				c0.3-0.1,0.6-0.2,1-0.2c3.7-1,2.6-6.9-1.1-5.9c0.3-0.1-2.6-26.9-2.5-29.3c0.3-10.4,2.2-20.6,5.5-30.5
				C454.2,2479.9,448.5,2478,447.3,2481.7L447.3,2481.7z"/>
		</g>
	</g>
	<g>
		<g>
			<path class="st0" d="M428.9,2498.5c-9.8,17.3-10,38.1,0,55.4c1.9,3.3,7.4,0.8,5.4-2.6c-8.9-15.4-9.2-33.9-0.4-49.4
				C435.8,2498.5,430.8,2495.1,428.9,2498.5L428.9,2498.5z"/>
		</g>
	</g>
	<g>
		<g>
			<path class="st0" d="M407.7,2522.2c-12.8,14.8-2,33.4,7.4,46.6c2.2,3.2,6.8-0.8,4.6-3.9c-7.9-11.1-17.8-26.7-7-39.4
				C415.2,2522.7,410.2,2519.3,407.7,2522.2L407.7,2522.2z"/>
		</g>
	</g>
	<g>
		<g>
			<path class="st0" d="M413.3,2570.2c8.7,7.9,18.5,14.3,29.6,18.4c7,2.6,18.1,7.3,24.9,2.3c3.1-2.3-0.8-6.8-3.9-4.6
				c-4.6,3.4-19.3-3.3-23.8-5.3c-8.3-3.7-15.6-8.7-22.3-14.8C415.1,2563.7,410.5,2567.6,413.3,2570.2L413.3,2570.2z"/>
		</g>
	</g>
	<g>
		<g>
			<path class="st0" d="M433.5,2558.9c14.7,10.2,35.6,24.2,54.4,22.1c3.8-0.4,2.7-6.3-1.1-5.9c-16.8,1.9-36.8-12.1-49.9-21.2
				C433.7,2551.7,430.4,2556.7,433.5,2558.9L433.5,2558.9z"/>
		</g>
	</g>
	<g>
		<g>
			<path class="st0" d="M451,2550.7c9.6,7.8,20.4,13.9,32.3,17.5c7.5,2.3,18.6,6.4,25.2,0.7c2.9-2.5-1-7.1-3.9-4.6
				c-5.6,4.9-21.3-2.1-27.5-4.8c-8.3-3.5-15.8-8.3-22.7-13.9C451.4,2543.3,448.1,2548.3,451,2550.7L451,2550.7z"/>
		</g>
	</g>
	<g>
		<g>
			<path class="st0" d="M470,2537.1c14.8,11.7,32.1,18.3,50.8,19.7c3.9,0.3,4.3-5.7,0.4-6c-17.8-1.4-33.8-7.7-47.9-18.7
				C470.3,2529.7,467,2534.7,470,2537.1L470,2537.1z"/>
		</g>
	</g>
	<g>
		<g>
			<path class="st0" d="M477.9,2336.3c16.1-4.5,28.5-15.1,35.6-30.2c1.6-3.5-4.1-5.4-5.7-1.9c-6.1,13-17.2,22.3-31,26.2
				C473.1,2331.5,474.2,2337.4,477.9,2336.3L477.9,2336.3z"/>
		</g>
	</g>
	<g>
		<g>
			<path class="st0" d="M487.4,2328.3c3.5-13.1,8.7-25.5,15.7-37.1c2-3.3-3-6.7-5-3.4c-7.3,12.1-12.8,24.9-16.5,38.6
				C480.7,2330.1,486.4,2332.1,487.4,2328.3L487.4,2328.3z"/>
		</g>
	</g>
	<g>
		<g>
			<path class="st0" d="M475.8,2348.6c0.1-16.6,3.3-32.6,9.6-47.9c1.5-3.6-4.2-5.5-5.7-1.9c-6.5,15.8-9.8,32.4-9.9,49.5
				C469.7,2352.1,475.7,2352.5,475.8,2348.6L475.8,2348.6z"/>
		</g>
	</g>
	<g>
		<g>
			<path class="st0" d="M467.2,2358.5c-2.8-16.7-0.9-33.1,5.7-48.7c1.5-3.6-4.2-5.5-5.7-1.9c-7,16.5-8.9,34.1-5.9,51.7
				C462,2363.5,467.9,2362.4,467.2,2358.5L467.2,2358.5z"/>
		</g>
	</g>
	<g>
		<g>
			<path class="st0" d="M456.2,2372.1c-4.9-5.3-4.4-13.6-4.2-20.3c0.2-7.1,1.3-14,3-20.8c1-3.7-4.7-5.7-5.7-1.9
				c-2.3,8.9-3.6,18-3.4,27.2c0.2,7.1,0.7,14.3,5.7,19.8C454.2,2378.8,458.8,2374.9,456.2,2372.1L456.2,2372.1z"/>
		</g>
	</g>
	<g>
		<g>
			<path class="st0" d="M446.4,2389.4c-5-5.2-4.7-15.1-5.3-21.9c-0.6-8.2-0.8-16.4-0.6-24.6c0.1-3.9-5.9-4.3-6-0.4
				c-0.2,9.6,0,19.2,0.9,28.8c0.7,7.6,0.8,16.2,6.4,22C444.5,2396.1,449.1,2392.2,446.4,2389.4L446.4,2389.4z"/>
		</g>
	</g>
	<g>
		<g>
			<path class="st0" d="M437.7,2413.4c-6.5-13.5-8.5-28.1-5.9-42.8c0.7-3.8-5.3-4.2-6-0.4c-2.7,15.7-0.4,31.5,6.5,45.8
				C433.9,2419.5,439.4,2416.9,437.7,2413.4L437.7,2413.4z"/>
		</g>
	</g>
	<g>
		<g>
			<path class="st0" d="M435.4,2423.8c18.1-2.2,34.7-9.6,48.5-21.4c2.9-2.5-1-7.1-3.9-4.6c-13.1,11.2-28.6,18-45.7,20.1
				C430.4,2418.4,431.6,2424.3,435.4,2423.8L435.4,2423.8z"/>
		</g>
	</g>
	<g>
		<g>
			<path class="st0" d="M448.3,2396.5c16.2,0.1,30.8-6.7,41.3-19.1c2.5-2.9-2.5-6.3-5-3.4c-9,10.6-22,16.5-36,16.5
				C444.8,2390.5,444.4,2396.5,448.3,2396.5L448.3,2396.5z"/>
		</g>
	</g>
	<g>
		<g>
			<path class="st0" d="M459.9,2374.1c14-2.7,26.9-8,38.9-15.8c3.2-2.1-0.7-6.7-3.9-4.6c-11,7.2-23.2,12-36.1,14.5
				C454.9,2368.9,456.1,2374.8,459.9,2374.1L459.9,2374.1z"/>
		</g>
	</g>
	<g>
		<g>
			<path class="st0" d="M473.6,2352.8c12.6-1.8,24.7-5.7,36.1-11.4c3.5-1.8,0.9-7.2-2.6-5.4c-10.9,5.6-22.5,9.2-34.6,11
				C468.6,2347.4,469.8,2353.3,473.6,2352.8L473.6,2352.8z"/>
		</g>
	</g>
	<g>
		<g>
			<path class="st0" d="M430.6,2437c17.9,0.1,34.6-6,48.1-17.7c2.9-2.5-1-7.1-3.9-4.6c-12.3,10.7-27.5,16.4-43.8,16.3
				C427.1,2430.9,426.7,2436.9,430.6,2437L430.6,2437z"/>
		</g>
	</g>
	<g>
		<g>
			<path class="st0" d="M418.3,2450.8c15.3,7.9,34.6,3.4,44.3-11c2.2-3.2-2.8-6.6-5-3.4c-7.8,11.5-23.6,15.8-36,9.4
				C418.3,2444.1,414.9,2449,418.3,2450.8L418.3,2450.8z"/>
		</g>
	</g>
	<g>
		<g>
			<path class="st0" d="M429.3,2425.7c-5.4-4.5-8.1-11.4-7.5-18.3c0.3-3.9-5.7-4.3-6-0.4c-0.7,9.2,3.1,17.8,10.2,23.7
				C428.9,2433.2,432.3,2428.2,429.3,2425.7L429.3,2425.7z"/>
		</g>
	</g>
	<g>
		<g>
			<path class="st0" d="M413,2429.2c0.8,7.6,4.7,14.1,10.5,18.9c3,2.4,6.4-2.6,3.4-5c-4.7-3.8-7.4-9.1-8-15
				C418.5,2424.2,412.6,2425.3,413,2429.2L413,2429.2z"/>
		</g>
	</g>
</g>
<g>
	<path class="st0" d="M537.2,1333.7c-0.6,1.1-1.1,2.1-1.6,3.2c-1.6,3.4-19.5,41-20,40.8c10,6,12.4,8.3,21.3,10.9
		c-0.9-0.5,11.3-23.6,21.8-43.3c-3.5-1.8-7-3.7-10.8-5.8C544.3,1337.5,540.8,1335.6,537.2,1333.7z"/>
	<path class="st0" d="M642.2,1367c0.4-2.1,0-4.3-0.4-6.4c-3.1-15.2-6.1-29.8-9-43.7c-26.4-10.5-39.8-15.8-59.9-26.8
		c-19.9-10.9-39.4-19.9-58.4-32.1c-13.4,6.3-27.4,13-42.1,20.3c-5.4,2.7-6.2,8.6-2.4,11.7c21.7,17.5,44.8,28.6,68.5,41.2
		c3.6,1.9,7.1,3.8,10.7,5.8c3.8,2.1,7.3,4,10.8,5.8c20.9,10.7,38.1,16.4,74.1,29.8C637.4,1373.9,641.4,1371.1,642.2,1367z"/>
	<path class="st0" d="M635.3,1311.9c4.5,1.8,9.5,3.8,14.9,5.9c2.8,1.1,6.1-0.5,6.7-3.4c0.3-1.5-0.2-3.1-0.7-4.6
		c-5.8-19.1-11.3-37.3-16.5-54.5c-16.7-6.4-26.4-10.4-40.2-18c-13.4-7.4-26.5-13.6-39.2-21.4c-17.2,6.5-35.2,13.3-54.9,20
		c-4.3,1.5-4.2,6-0.7,8.6c4.1,3,8.3,5.8,12.5,8.5c19,12.1,38.4,21.2,58.4,32.1C595.4,1296.1,608.9,1301.4,635.3,1311.9z"/>
	<path class="st0" d="M601.2,1233.7c13.8,7.6,23.5,11.6,40.2,18c5,1.9,10.6,4.1,17.2,6.7c2.2,0.9,4.9-0.7,5.4-3.1
		c0.3-1.3,0-2.6-0.3-3.9c-4.1-18.1-8-35.3-11.7-51.6c-1.7-7.6-3.4-14.9-5-22.1c-0.8-3.4-1.5-6.8-2.3-10.1c-0.3-1.3-1.2-9.2-2.2-9.7
		c-0.5-2.2-3.1-3.5-5.2-2.6c-28.9,11.5-56.2,25.6-89.4,39.6c-3.4,1.5-3.5,5.3-0.8,7.4c4.9,3.7,9.8,7,14.8,10.1
		C574.7,1220.1,587.9,1226.3,601.2,1233.7z"/>
	<path class="st0" d="M658.8,1120.7c0,0.2,0,0.4,0,0.6c0,3.4-0.1,6.9-0.1,10.3c0,0.6,0,1.2,0.3,1.6c0.2,0.4,0.6,0.6,1,0.8
		c2.7,1.7,5.4,3.4,8.1,5.1c0.5,0.3,1,0.7,1,1.3c-0.1,0.5-0.7,0.8-1.2,1c-3.5,1.1-6.9,2.3-10.4,3.4c-0.4,0.1-0.8,0.3-1,0.5
		c-0.2,0.3-0.3,0.7-0.4,1c-0.7,2.8-1.4,5.6-2.1,8.5c-0.2,0.6-0.5,1.9-1.2,2.2c-1.1,0.4-1.6-1-2.2-1.8c-1.6-2.3-3.2-4.6-4.8-7
		c-0.4-0.5-0.8-1.1-1.3-1.4c-0.9-0.5-1.9-0.3-2.9-0.2c-2.9,0.4-5.8,0.6-8.7,0.5c-0.4,0-0.7,0-1-0.3c-0.4-0.4,0-1.1,0.3-1.6
		c2.1-2.8,4.2-5.6,6.2-8.4c0.2-0.3,0.4-0.5,0.5-0.8c0.1-0.4-0.1-0.8-0.2-1.1c-1.2-3.3-2.3-6.6-3.5-9.9c-0.1-0.4-0.3-0.9,0-1.3
		c0.4-0.6,1.2-0.4,1.8-0.1c3,1.2,6,2.2,9,3.2c0.7,0.2,1.4,0.5,2.2,0.3c0.7-0.1,1.3-0.6,1.8-1.1c2.2-1.9,4.5-3.8,6.7-5.7
		c0.5-0.4,1.1-0.8,1.7-0.5C658.6,1120.1,658.7,1120.4,658.8,1120.7z"/>
</g>
<g>
	<path class="st0" d="M758.5,682.5c6.5,0.7,13.1,1.5,19.5,2.5c10.3,1.7,20.4,3.9,30.7,5.1c7.4,11.6,15.5,22.9,3.6,34
		c-11,10.3-20.5,4.1-28.4-3.1c-2.4-2.2-4.3-5.2-6.5-8.6C771.2,702.6,764.9,692.5,758.5,682.5z"/>
	<path class="st0" d="M719.4,623.1c6.7,0.8,13.4,1.5,20.1,2.4c9.7,1.2,20.5,1.1,30.4,2.8c8.4,13.1,16.7,26.4,24.6,39
		c-4.4-0.9-8.7-1.7-13.1-2.4c-12.3-1.8-24.7-2.7-37-4.5c-2.4-3.8-4.9-7.5-7.4-11.2C731.2,640.5,725.2,631.7,719.4,623.1z"/>
	<path class="st0" d="M688.2,581c3.5-3.5,7.6-6.4,12.5-8.4c9.1-3.7,18.6-3.8,27.9-3.1c8.9,11.1,18,23.8,27.1,37.2
		c-2.9-0.2-5.8-0.5-8.6-0.8c-13.9-1.6-27.7-3.2-41.6-4.7c-3.5-5.7-7.3-11.2-11.9-16.1C691.7,583.7,690,582.3,688.2,581z"/>
	<path class="st0" d="M651.5,564.9c2.5-7.6,7.3-14,13-19.8c18.5-6.5,31.4-6.4,45.8,5.1c-5.8,0.8-11.5,2.3-17.3,4.9
		c-13.1,6-22.1,15.3-29,26.1c-6,3.6-11,7.7-14.8,12.7C646.3,585.3,648.7,573.4,651.5,564.9z"/>
	<path class="st0" d="M606.6,618.1c2.6-23.7,11-46.1,32.5-60.8c-1.5,3.3-2.8,6.7-3.7,10.4c-3.7,15.2-4.7,34.1,6.3,44
		c0.2,4.3,4.5,8.4,3.5,13.4c-2.1,10.1-13.1,18.7-23.3,16.3C611.8,639,605.6,627.6,606.6,618.1z"/>
</g>
</svg>
