<?xml version="1.0" encoding="utf-8"?>
<!-- Generator: Adobe Illustrator 23.1.0, SVG Export Plug-In . SVG Version: 6.00 Build 0)  -->
<svg version="1.1" id="Слой_1" xmlns="http://www.w3.org/2000/svg" xmlns:xlink="http://www.w3.org/1999/xlink" x="0px" y="0px"
	 viewBox="0 0 500 375" style="enable-background:new 0 0 500 375;" xml:space="preserve">
<style type="text/css">
	.st0{fill:#FCFCFC;}
	.st1{fill:#16613C;}
	.st2{opacity:0.28;}
	.st3{fill:#3E8C66;}
	.st4{fill:#F2AE72;}
	.st5{opacity:0.14;}
	.st6{fill:#BD3B3B;}
	.st7{fill:#D44242;}
	.st8{fill:#FFFDF7;}
	.st9{fill:#FFF7E0;}
	.st10{opacity:0.2;fill:#BD3B3B;}
	.st11{fill:#F2E0AE;}
	.st12{fill:#FFECB8;}
	.st13{opacity:0.4;fill:#F2AE72;}
	.st14{fill:#FFFFFF;}
	.st15{fill:none;stroke:#FFFFFF;stroke-linecap:round;stroke-miterlimit:10;}
	.st16{fill:#FF4A55;}
	.st17{fill:#3C459F;}
	.st18{fill:#243050;}
	.st19{opacity:0.8;}
	.st20{fill:#535C75;}
	.st21{fill:#1E7F77;}
	.st22{fill:none;stroke:#F9B234;stroke-width:4;stroke-linecap:round;stroke-linejoin:round;}
	.st23{fill:none;stroke:#F9B234;stroke-width:4;stroke-linecap:round;stroke-linejoin:round;stroke-dasharray:0,5.7907;}
	.st24{fill:none;stroke:#F9B234;stroke-width:4;stroke-linecap:round;stroke-linejoin:round;stroke-dasharray:0,6.0038;}
	.st25{fill:none;stroke:#F9B234;stroke-width:4;stroke-linecap:round;stroke-linejoin:round;stroke-dasharray:0,5.8408;}
	.st26{fill:#FDE1B2;}
	.st27{fill:#135F58;}
	.st28{fill:#82E1D8;}
</style>
<rect width="500" height="375"/>
<path class="st0" d="M297.3,253.2h-1.4l0.8-0.8c0.3-0.3,0.3-0.8,0-1.1c-0.3-0.3-0.8-0.3-1.1,0l-1.9,1.9h-4.4l1-1
	c0.3-0.3,0.3-0.8,0-1.1c-0.3-0.3-0.8-0.3-1.1,0l-2,2h-3.5l4.4-4.4c0.3-0.3,0.3-0.8,0-1.1c-0.3-0.3-0.8-0.3-1.1,0l-5.5,5.5h-1.2
	l-1.3-2.2l5.1-5.1h2.9c0.4,0,0.8-0.3,0.8-0.8c0-0.4-0.3-0.8-0.8-0.8h-1.4l3.1-3.1h2.7c0.4,0,0.8-0.3,0.8-0.8c0-0.4-0.3-0.8-0.8-0.8
	h-1.1l1-1c0.3-0.3,0.3-0.8,0-1.1c-0.3-0.3-0.8-0.3-1.1,0l-1,1v-1.1c0-0.4-0.3-0.8-0.8-0.8s-0.8,0.3-0.8,0.8v2.7l-3.1,3.1v-1.4
	c0-0.4-0.3-0.8-0.8-0.8c-0.4,0-0.8,0.3-0.8,0.8v2.9l-4.8,4.8l-0.4-0.6h-2.1v-1.5l5.5-5.5c0.3-0.3,0.3-0.8,0-1.1
	c-0.3-0.3-0.8-0.3-1.1,0l-4.4,4.4v-3.5l2-2c0.3-0.3,0.3-0.8,0-1.1c-0.3-0.3-0.8-0.3-1.1,0l-1,1v-4.4l1.9-1.9c0.3-0.3,0.3-0.8,0-1.1
	c-0.3-0.3-0.8-0.3-1.1,0l-0.8,0.8v-1.4c0-0.4-0.3-0.8-0.8-0.8s-0.8,0.3-0.8,0.8v1.4l-0.8-0.8c-0.3-0.3-0.8-0.3-1.1,0
	c-0.3,0.3-0.3,0.8,0,1.1l1.9,1.9v4.4l-1-1c-0.3-0.3-0.8-0.3-1.1,0c-0.3,0.3-0.3,0.8,0,1.1l2,2v3.5l-4.4-4.4c-0.3-0.3-0.8-0.3-1.1,0
	c-0.3,0.3-0.3,0.8,0,1.1l5.5,5.5v1.5h-2.1l-0.4,0.6l-4.8-4.8v-2.9c0-0.4-0.3-0.8-0.8-0.8c-0.4,0-0.8,0.3-0.8,0.8v1.4l-3.1-3.1v-2.7
	c0-0.4-0.3-0.8-0.8-0.8c-0.4,0-0.8,0.3-0.8,0.8v1.1l-1-1c-0.3-0.3-0.8-0.3-1.1,0c-0.3,0.3-0.3,0.8,0,1.1l1,1h-1.1
	c-0.4,0-0.8,0.3-0.8,0.8c0,0.4,0.3,0.8,0.8,0.8h2.7l3.1,3.1H263c-0.4,0-0.8,0.3-0.8,0.8c0,0.4,0.3,0.8,0.8,0.8h2.9l5.1,5.1l-1.3,2.2
	h-1.2l-5.5-5.5c-0.3-0.3-0.8-0.3-1.1,0c-0.3,0.3-0.3,0.8,0,1.1l4.4,4.4h-3.5l-2-2c-0.3-0.3-0.8-0.3-1.1,0c-0.3,0.3-0.3,0.8,0,1.1
	l1,1h-4.4l-1.9-1.9c-0.3-0.3-0.8-0.3-1.1,0c-0.3,0.3-0.3,0.8,0,1.1l0.8,0.8h-1.4c-0.4,0-0.8,0.3-0.8,0.8c0,0.4,0.3,0.8,0.8,0.8h1.4
	l-0.8,0.8c-0.3,0.3-0.3,0.8,0,1.1c0.1,0.1,0.3,0.2,0.5,0.2c0.2,0,0.4-0.1,0.5-0.2l1.9-1.9h4.4l-1,1c-0.3,0.3-0.3,0.8,0,1.1
	c0.1,0.1,0.3,0.2,0.5,0.2c0.2,0,0.4-0.1,0.5-0.2l2-2h3.5l-4.4,4.4c-0.3,0.3-0.3,0.8,0,1.1c0.1,0.1,0.3,0.2,0.5,0.2
	c0.2,0,0.4-0.1,0.5-0.2l5.5-5.5h1.2l1.3,2.2l-5.1,5.1H263c-0.4,0-0.8,0.3-0.8,0.8s0.3,0.8,0.8,0.8h1.4l-3.1,3.1h-2.7
	c-0.4,0-0.8,0.3-0.8,0.8c0,0.4,0.3,0.8,0.8,0.8h1.1l-1,1c-0.3,0.3-0.3,0.8,0,1.1c0.1,0.1,0.3,0.2,0.5,0.2c0.2,0,0.4-0.1,0.5-0.2l1-1
	v1.1c0,0.4,0.3,0.8,0.8,0.8c0.4,0,0.8-0.3,0.8-0.8v-2.7l3.1-3.1v1.4c0,0.4,0.3,0.8,0.8,0.8c0.4,0,0.8-0.3,0.8-0.8v-2.9l4.8-4.8
	l0.4,0.6h2.1v1.5l-5.5,5.5c-0.3,0.3-0.3,0.8,0,1.1c0.3,0.3,0.8,0.3,1.1,0l4.4-4.4v3.5l-2,2c-0.3,0.3-0.3,0.8,0,1.1
	c0.3,0.3,0.8,0.3,1.1,0l1-1v4.4l-1.9,1.9c-0.3,0.3-0.3,0.8,0,1.1c0.3,0.3,0.8,0.3,1.1,0l0.8-0.8v1.4c0,0.4,0.3,0.8,0.8,0.8
	s0.8-0.3,0.8-0.8v-1.4l0.8,0.8c0.1,0.1,0.3,0.2,0.5,0.2c0.2,0,0.4-0.1,0.5-0.2c0.3-0.3,0.3-0.8,0-1.1l-1.9-1.9v-4.4l1,1
	c0.1,0.1,0.3,0.2,0.5,0.2s0.4-0.1,0.5-0.2c0.3-0.3,0.3-0.8,0-1.1l-2-2v-3.5l4.4,4.4c0.1,0.1,0.3,0.2,0.5,0.2c0.2,0,0.4-0.1,0.5-0.2
	c0.3-0.3,0.3-0.8,0-1.1l-5.5-5.5v-1.5h2.1l0.4-0.6l4.8,4.8v2.9c0,0.4,0.3,0.8,0.8,0.8c0.4,0,0.8-0.3,0.8-0.8v-1.4l3.1,3.1v2.7
	c0,0.4,0.3,0.8,0.8,0.8s0.8-0.3,0.8-0.8v-1.1l1,1c0.1,0.1,0.3,0.2,0.5,0.2c0.2,0,0.4-0.1,0.5-0.2c0.3-0.3,0.3-0.8,0-1.1l-1-1h1.1
	c0.4,0,0.8-0.3,0.8-0.8c0-0.4-0.3-0.8-0.8-0.8h-2.7l-3.1-3.1h1.4c0.4,0,0.8-0.3,0.8-0.8s-0.3-0.8-0.8-0.8h-2.9l-5.1-5.1l1.3-2.2h1.2
	l5.5,5.5c0.1,0.1,0.3,0.2,0.5,0.2c0.2,0,0.4-0.1,0.5-0.2c0.3-0.3,0.3-0.8,0-1.1l-4.4-4.4h3.5l2,2c0.1,0.1,0.3,0.2,0.5,0.2
	c0.2,0,0.4-0.1,0.5-0.2c0.3-0.3,0.3-0.8,0-1.1l-1-1h4.4l1.9,1.9c0.1,0.1,0.3,0.2,0.5,0.2c0.2,0,0.4-0.1,0.5-0.2
	c0.3-0.3,0.3-0.8,0-1.1l-0.8-0.8h1.4c0.4,0,0.8-0.3,0.8-0.8C298.1,253.5,297.7,253.2,297.3,253.2z M277,257.4h-4l-2-3.4l2-3.4h4
	l2,3.4L277,257.4z"/>
<g>
	<g>
		<rect x="91.4" y="161" class="st1" width="19.2" height="34.1"/>
		<g class="st2">
			<path class="st3" d="M106.8,166.9c0.1,2.1,1.7,3.7,3.8,4.1v-8.5C108.4,163,106.8,164.8,106.8,166.9z"/>
			<path class="st3" d="M94,162.9c0,2.9,2.5,5.2,5.6,5.2c3.1,0,5.6-2.3,5.6-5.2c0-0.7-0.1-1.3-0.4-1.9H94.4
				C94.1,161.6,94,162.3,94,162.9z"/>
			<path class="st3" d="M109.9,184.9c0.2,0,0.5,0,0.7-0.1v-5.4c-0.2,0-0.5-0.1-0.7-0.1c-1.7,0-3,1.2-3,2.8
				C106.9,183.7,108.3,184.9,109.9,184.9z"/>
			<path class="st3" d="M107.3,174.5c0-1.9-1.6-3.5-3.5-3.5c-1.9,0-3.5,1.6-3.5,3.5c0,1.9,1.6,3.5,3.5,3.5
				C105.8,178,107.3,176.4,107.3,174.5z"/>
			<ellipse class="st3" cx="103" cy="188.8" rx="4.2" ry="3.9"/>
			<path class="st3" d="M110.6,190.8c-0.1,0-0.2,0-0.4,0c-1,0-1.8,0.8-1.7,1.8c0.1,0.9,0.9,1.7,1.9,1.6c0.1,0,0.1,0,0.2,0V190.8z"/>
			<ellipse class="st3" cx="95.5" cy="174.5" rx="1.8" ry="1.7"/>
			<path class="st3" d="M97.6,183.2c0-2.9-2.5-5.2-5.6-5.2c-0.2,0-0.4,0-0.6,0v10.3c0.2,0,0.4,0,0.6,0
				C95.1,188.4,97.6,186.1,97.6,183.2z"/>
			<path class="st3" d="M94.9,194c0-1.5-1.3-2.7-2.9-2.7c-0.2,0-0.4,0-0.5,0v3.8h3.2C94.8,194.8,94.9,194.4,94.9,194z"/>
			<path class="st3" d="M91.4,171.2c1-0.5,1.7-1.4,1.7-2.5s-0.7-2.1-1.7-2.5V171.2z"/>
		</g>
		<g>
			<path class="st4" d="M111.8,153.6c-0.4-1.5-2.4-2.6-5.6-1.1c-3.2,1.5-5.3,6.7-5.3,6.7h3.8C109.9,158.6,112.3,155.5,111.8,153.6z
				 M103.3,159.1h-1.5c0,0,1.3-3.4,3.3-4.4c2-1,3.3-0.2,3.5,0.8C109,156.7,106.6,158.7,103.3,159.1z"/>
			<path class="st4" d="M90.6,153.6c0.4-1.5,2.4-2.6,5.6-1.1c3.2,1.5,5.3,6.7,5.3,6.7h-3.8C92.6,158.6,90.1,155.5,90.6,153.6z
				 M99.1,159.1h1.5c0,0-1.3-3.4-3.3-4.4c-2-1-3.3-0.2-3.5,0.8C93.4,156.7,95.8,158.7,99.1,159.1z"/>
		</g>
		<path class="st4" d="M103,158.2c0,1.2-0.9,2.2-2,2.2c-1.1,0-2-1-2-2.2s0.9-2.2,2-2.2C102.1,156,103,157,103,158.2z"/>
		<rect x="89.3" y="158.2" class="st1" width="23.4" height="6.4"/>
		<rect x="99.7" y="158.2" class="st4" width="2.6" height="37"/>
		<rect x="91.4" y="164.6" class="st5" width="19.2" height="1.7"/>
	</g>
	<g>
		<g>
			<path class="st6" d="M86.3,165.3c-0.4-1.2-2.4-2.2-5.8-0.9c-3.3,1.2-5.4,5.5-5.4,5.5H79C84.3,169.4,86.8,166.8,86.3,165.3z
				 M77.6,169.8H76c0,0,1.3-2.8,3.4-3.6c2.1-0.8,3.4-0.2,3.7,0.6C83.4,167.8,80.9,169.5,77.6,169.8z"/>
			<path class="st6" d="M64.5,165.3c0.4-1.2,2.4-2.2,5.8-0.9c3.3,1.2,5.4,5.5,5.4,5.5h-3.9C66.5,169.4,64,166.8,64.5,165.3z
				 M73.2,169.8h1.6c0,0-1.3-2.8-3.4-3.6c-2.1-0.8-3.4-0.2-3.7,0.6C67.3,167.8,69.9,169.5,73.2,169.8z"/>
		</g>
		<path class="st7" d="M77.2,169.1c0,1-0.9,1.8-2.1,1.8c-1.1,0-2.1-0.8-2.1-1.8c0-1,0.9-1.8,2.1-1.8
			C76.3,167.3,77.2,168.1,77.2,169.1z"/>
		<g>
			<g>
				<rect x="65.3" y="171.4" class="st8" width="19.8" height="23.7"/>
				<g>
					<polygon class="st4" points="85.1,193.5 85.1,192 75.8,195.2 80.1,195.2 					"/>
					<polygon class="st4" points="65.3,187.6 65.3,189.1 85.1,182.4 85.1,181 					"/>
					<polygon class="st4" points="65.3,191.3 65.3,192.8 85.1,186.1 85.1,184.6 					"/>
					<polygon class="st4" points="65.3,172.9 65.3,174.4 74,171.4 69.7,171.4 					"/>
					<polygon class="st4" points="65.3,195 65.3,195.2 69.2,195.2 85.1,189.8 85.1,188.3 					"/>
					<polygon class="st4" points="65.3,176.6 65.3,178 84.9,171.4 80.6,171.4 					"/>
					<polygon class="st4" points="65.3,180.3 65.3,181.7 85.1,175 85.1,173.6 					"/>
					<polygon class="st4" points="65.3,184 65.3,185.4 85.1,178.7 85.1,177.3 					"/>
				</g>
			</g>
			<rect x="63.1" y="169.1" class="st8" width="24.1" height="5.3"/>
			<rect x="73.9" y="169.1" class="st6" width="2.6" height="26.1"/>
			<rect x="65.3" y="174.4" class="st5" width="19.8" height="1.4"/>
		</g>
	</g>
	<g>
		<g>
			<path class="st9" d="M133,161.3c-0.5-1.6-2.8-2.8-6.7-1.2c-3.8,1.5-6.3,7.1-6.3,7.1h4.5C130.6,166.5,133.6,163.2,133,161.3z
				 M122.9,167.1h-1.8c0,0,1.5-3.6,4-4.7s3.9-0.2,4.2,0.8C129.7,164.5,126.8,166.7,122.9,167.1z"/>
			<path class="st9" d="M107.8,161.3c0.5-1.6,2.8-2.8,6.7-1.2c3.8,1.5,6.3,7.1,6.3,7.1h-4.5C110.1,166.5,107.2,163.2,107.8,161.3z
				 M117.9,167.1h1.8c0,0-1.5-3.6-4-4.7c-2.4-1-3.9-0.2-4.2,0.8C111.1,164.5,114,166.7,117.9,167.1z"/>
		</g>
		<path class="st8" d="M122.5,166.1c0,1.3-1.1,2.3-2.4,2.3c-1.3,0-2.4-1-2.4-2.3c0-1.3,1.1-2.3,2.4-2.3
			C121.4,163.8,122.5,164.8,122.5,166.1z"/>
		<rect x="108.7" y="169.1" class="st4" width="22.8" height="26.1"/>
		<rect x="110" y="169.1" class="st10" width="1.9" height="26.1"/>
		<rect x="113.6" y="169.1" class="st10" width="1.9" height="26.1"/>
		<rect x="117.2" y="169.1" class="st10" width="1.9" height="26.1"/>
		<rect x="120.8" y="169.1" class="st10" width="1.9" height="26.1"/>
		<rect x="124.3" y="169.1" class="st10" width="1.9" height="26.1"/>
		<rect x="127.9" y="169.1" class="st10" width="1.9" height="26.1"/>
		<rect x="106.3" y="166.1" class="st4" width="27.8" height="6.8"/>
		<rect x="118.6" y="166.1" class="st9" width="3" height="29.1"/>
		<rect x="108.7" y="172.9" class="st5" width="22.8" height="1.8"/>
	</g>
	<g>
		<g>
			<g>
				<path class="st11" d="M105.1,174.7c-0.3-1.1-1.9-2-4.6-0.9c-2.7,1.1-4.3,5-4.3,5h3.1C103.5,178.4,105.5,176.1,105.1,174.7z
					 M98.1,178.8h-1.2c0,0,1.1-2.6,2.7-3.3c1.7-0.7,2.7-0.2,2.9,0.6C102.8,177,100.8,178.5,98.1,178.8z"/>
				<path class="st11" d="M87.7,174.7c0.3-1.1,1.9-2,4.6-0.9c2.7,1.1,4.3,5,4.3,5h-3.1C89.3,178.4,87.3,176.1,87.7,174.7z
					 M94.6,178.8h1.2c0,0-1.1-2.6-2.7-3.3c-1.7-0.7-2.7-0.2-2.9,0.6C90,177,92,178.5,94.6,178.8z"/>
			</g>
			<path class="st12" d="M98,178.1c0,0.9-0.7,1.7-1.7,1.7c-0.9,0-1.7-0.7-1.7-1.7c0-0.9,0.7-1.7,1.7-1.7
				C97.3,176.5,98,177.2,98,178.1z"/>
			<rect x="81" y="180.3" class="st6" width="30.8" height="14.9"/>
		</g>
		<g>
			<polygon class="st13" points="98.6,190.5 97.9,188.4 97.2,190.5 95,190.1 96.5,191.7 95,193.4 97.2,192.9 97.9,195 98.6,192.9 
				100.7,193.4 99.2,191.7 100.7,190.1 			"/>
			<polygon class="st13" points="102.2,185.8 101.8,184.5 101.3,185.8 99.9,185.5 100.9,186.6 99.9,187.6 101.3,187.3 101.8,188.7 
				102.2,187.3 103.6,187.6 102.6,186.6 103.6,185.5 			"/>
			<polygon class="st13" points="91.6,186.6 92.4,189.2 93.3,186.6 95.9,187.2 94.1,185.2 95.9,183.2 93.3,183.8 92.4,181.3 
				91.6,183.8 89,183.2 90.8,185.2 89,187.2 			"/>
			<polygon class="st13" points="81.7,185.5 82.4,183.4 84.6,183.9 83.1,182.2 84.6,180.6 82.4,181.1 82.1,180.3 81.3,180.3 
				81,181.1 81,181 81,183.4 81,183.4 			"/>
			<polygon class="st13" points="111.8,182.9 110.2,183.2 109.5,181.1 108.8,183.2 106.6,182.7 108.1,184.4 106.6,186 108.8,185.6 
				109.5,187.7 110.2,185.6 111.8,185.9 111.8,185.4 110.8,184.4 111.8,183.3 			"/>
			<polygon class="st13" points="111.8,190.3 111.4,191.6 110,191.3 111,192.3 110,193.4 111.4,193.1 111.8,194.3 			"/>
			<polygon class="st13" points="89.8,194.5 92.1,195 90.5,193.2 92.1,191.5 89.8,192 89.1,189.7 88.4,192 86.1,191.5 87.6,193.2 
				86.1,195 88.4,194.5 88.6,195.2 89.6,195.2 			"/>
			<polygon class="st13" points="106.4,194.6 109,195.1 107.2,193.1 109,191.2 106.4,191.7 105.6,189.2 104.7,191.7 102.1,191.2 
				103.9,193.1 102.1,195.1 104.7,194.6 104.9,195.2 106.2,195.2 			"/>
			<polygon class="st13" points="85.1,186.5 84.7,185.1 84.2,186.5 82.9,186.1 83.8,187.2 82.9,188.3 84.2,188 84.7,189.3 85.1,188 
				86.5,188.3 85.5,187.2 86.5,186.1 			"/>
			<polygon class="st13" points="81.3,195.2 81.8,193.5 83.6,193.9 82.4,192.6 83.6,191.2 81.8,191.6 81.2,189.8 81,190.6 81,194.5 
				81.2,195.2 			"/>
		</g>
		<rect x="81" y="182.9" class="st5" width="30.8" height="1.3"/>
		<rect x="79.3" y="178.1" class="st6" width="34.2" height="4.8"/>
		<rect x="95.3" y="178.1" class="st11" width="2.1" height="17.1"/>
	</g>
</g>
<g id="LOGO">
	<g>
		<path class="st14" d="M57,248.9c3.9,1.7,7.1,4.3,9.5,7.9c2.4,3.6,3.6,7.7,3.6,12.2c0,6-2.1,11.1-6.2,15.3c-4.2,4.3-9.2,6.4-15,6.4
			c-2.3,0-4.5-0.4-6.6-1.1v-68.2c0.4-0.3,0.8-0.5,1.3-0.6c1.8-0.7,3.5-1.1,5.4-1.1c4,0,7.3,1.4,10.1,4.3c2.8,2.9,4.1,6.3,4.1,10.4
			c0,2.7-0.7,5.2-2,7.6c-1.4,2.3-3.2,4.1-5.6,5.3c-0.5,0.3-0.9,0.5-1.4,0.7C55.1,248.1,56,248.5,57,248.9z M45.5,222v25.2h3.3
			c3,0,5.6-1.3,7.7-3.8c2.1-2.5,3.2-5.6,3.2-9.1c0-3.6-1.1-6.6-3.2-9.1c-2.1-2.5-4.7-3.8-7.7-3.8C47.7,221.4,46.5,221.6,45.5,222z
			 M48.8,289c4.9,0,9.2-2,12.7-5.9c3.5-3.9,5.3-8.6,5.3-14.2c0-5.5-1.8-10.3-5.3-14.2c-3.5-3.9-7.7-5.9-12.7-5.9h-3.3v39.7
			C46.5,288.9,47.7,289,48.8,289z"/>
		<path class="st14" d="M78.6,287.9h15.1l1.4,1.7H75.2v-68.8H95l-1.4,1.7H78.6v23.7h13.2l-1.2,1.7h-12V287.9z"/>
		<path class="st14" d="M118.6,287.9l1.4,1.7h-19.8v-68.8h3.3v67.1H118.6z"/>
		<path class="st14" d="M129.3,247.9l23.6,41.7h-3.8l-20.7-36.5v36.5h-3.3v-68.8h3.3v25.5l19.5-25.5h2L129.3,247.9z"/>
		<path class="st14" d="M178.1,219.7l18.3,69.9h-3.3l-6.7-25.8h-19.9l-6.7,25.8H158l17.5-66.9L178.1,219.7z M167,262.1h18.9
			l-9.5-36.2L167,262.1z"/>
		<path class="st14" d="M245.4,287.9l1.4,1.7H227v-68.8h3.3v67.1H245.4z"/>
		<path class="st14" d="M257.6,224.5c5.4-3.2,11.2-4.8,17.5-4.8c6.3,0,12.1,1.6,17.4,4.8c5.3,3.2,9.6,7.5,12.7,12.9
			c3.1,5.4,4.7,11.4,4.7,17.8c0,6.4-1.6,12.3-4.7,17.8c-3.1,5.4-7.3,9.8-12.7,12.9c-5.3,3.2-11.1,4.8-17.4,4.8
			c-6.3,0-12.1-1.6-17.5-4.8c-5.4-3.2-9.6-7.5-12.7-12.9c-3.1-5.4-4.6-11.4-4.6-17.8c0-6.4,1.5-12.3,4.6-17.8
			C248,232,252.2,227.6,257.6,224.5z M284.1,287.3c5.5-1.4,10.3-4.1,14.3-8.2c4-4.1,6.7-8.9,8-14.6c1.3-5.6,1.2-11.3-0.4-17
			c-1.6-5.7-4.5-10.7-8.8-15c-4.3-4.3-9.2-7.3-14.7-9c-5.6-1.6-11.1-1.8-16.6-0.4c-5.5,1.4-10.3,4.1-14.3,8.2c-4,4.1-6.7,8.9-8,14.6
			c-1.3,5.6-1.2,11.3,0.4,17c1.6,5.7,4.5,10.7,8.7,15c4.2,4.3,9.1,7.3,14.7,9C273.1,288.5,278.6,288.6,284.1,287.3z"/>
		<path class="st14" d="M341.1,220.8h1.6v55.8c0,3.9-1.4,7.3-4.1,10c-2.7,2.8-6,4.1-9.7,4.1c-2.5,0-4.8-0.6-6.9-1.9s-3.9-3-5.1-5.2
			c-1.3-2.2-1.9-4.6-1.9-7.2v-55.7h3.3v55.7c0,3.5,1.1,6.4,3.4,8.9c2.2,2.5,4.9,3.7,8,3.7c3.2,0,5.9-1.2,8.1-3.6
			c2.2-2.4,3.3-5.4,3.4-8.8V220.8z"/>
		<path class="st14" d="M374,220.8h1.6v68.8h-1.1l-0.5-1.2l-24.6-57.9v59.1h-1.7v-68.8h1.1l0.6,1.2l24.6,57.9V220.8z"/>
		<path class="st14" d="M423.5,269.1l-1.5-1.7h15.9v14.9l-1.2,1c-2.3,1.8-4.7,3.3-7.2,4.4c-4.4,2-9.1,3-14,3c-6.2,0-12-1.6-17.4-4.8
			c-5.4-3.2-9.6-7.5-12.7-12.9c-3.1-5.4-4.6-11.4-4.6-17.8c0-4.8,0.9-9.4,2.7-13.7c1.8-4.4,4.3-8.1,7.4-11.3
			c3.1-3.2,6.8-5.7,11.1-7.6c4.3-1.9,8.8-2.8,13.5-2.8c8.5,0,16,2.8,22.4,8.4l-2.1,2.6c-6.4-5.7-13.9-8.5-22.3-8.4
			c-8.4,0.1-15.5,3.1-21.4,9c-4,4.1-6.7,9-8,14.6c-1.3,5.6-1.2,11.3,0.4,17c1.6,5.7,4.5,10.7,8.7,15.1c5.2,5.2,11.3,8.5,18.3,9.7
			c7,1.2,13.5,0.3,19.4-2.8c1.2-0.5,2.4-1.2,3.7-2.1v-13.6H423.5z"/>
		<path class="st14" d="M446.4,287.9h15.1l1.4,1.7h-19.8v-68.8h19.8l-1.4,1.7h-15.1v23.7h13.2l-1.2,1.7h-12V287.9z"/>
	</g>
	<path id="BelkaLogoVector" class="st14" d="M270.6,195.7c0,0,59-15,24-109.2c-0.1-0.1-0.3-0.1-0.3,0l-5.1,15.6
		c-0.1,0.3-0.5,0.3-0.6,0c-6.4-34,16.5-52.1,16.5-52.1c-55.6-7.2-62.5,33.4-63,37.3c0,0.2,0,0.4,0,0.6c0.8,22.3,26.9,39.5,26.9,39.5
		c24.6,21.8,10,45.1,10,45.1c5.4-23.3-11.5-35.3-11.5-35.3l-33.1-18.8c-9.2-9-12.3-18.8-12.3-18.8c-8.5,0-9.2,9.8-9.2,9.8
		c-18.5,3.8-16.9,21.8-16.9,21.8c5.4,7.5,25.5,1.3,25.5,1.3c2,6.1-18.3,12.2-22.3,14.2c-6.5,3.3-4.1,6.1-4.1,6.1
		c1.5,7.5,22.3,0,22.3,0c26.4-4.1,26.2,14.4,26.2,14.4c-6.9-22.5-44.5-1.1-15.4,20.3c-6.9,0.8-6.2,8.3-6.2,8.3
		c-21.5,0-39.2,3.8-39.2,3.8H319C305.9,195.7,270.6,195.7,270.6,195.7z"/>
	<line class="st15" x1="220.9" y1="195.8" x2="177.9" y2="123.3"/>
</g>
<g id="RUS">
	<path class="st14" d="M189.1,148.2L152.2,168c-1.8,1-4.1,0.4-5.1-1.3l-12.5-21.2c-1-1.7-0.3-3.8,1.5-4.8l36.9-19.8
		c1.8-1,4.1-0.4,5.1,1.3l12.5,21.2C191.6,145.1,191,147.3,189.1,148.2z"/>
	<path class="st16" d="M188.8,147.9L152,167.6c-1.6,0.9-3.6,0.3-4.5-1.2l-3.1-5.4c-0.9-1.5-0.3-3.4,1.3-4.2l36.8-19.7
		c1.6-0.9,3.6-0.3,4.5,1.2l3.1,5.4C191,145.1,190.4,147,188.8,147.9z"/>
	<polygon class="st17" points="187.1,138.5 144.5,161.3 138.6,151.3 181.2,128.4 	"/>
</g>
<g id="Елка">
	<g>
		<g>
			<path class="st18" d="M368.6,171.3c0,0-4.2,22.9-4.2,24.6c0,4.3,18,3.4,18,0c0-1.5-4.4-24.6-4.4-24.6"/>
		</g>
		<g class="st19">
			<g>
				<path class="st20" d="M373.6,180c0.4,1.3,0.7,2.6,0.8,3.8c0.2,1.3,0.3,2.6,0.3,3.8c0,1.3,0,2.6-0.2,3.8
					c-0.1,1.3-0.3,2.6-0.7,3.8c-0.4-1.3-0.7-2.6-0.8-3.8c-0.2-1.3-0.3-2.6-0.3-3.8c0-1.3,0-2.6,0.2-3.8
					C373,182.6,373.2,181.3,373.6,180z"/>
			</g>
			<g>
				<path class="st20" d="M370.3,180c0.3,1.2,0.4,2.4,0.4,3.6c0,1.2,0,2.4-0.1,3.6c-0.1,1.2-0.3,2.4-0.6,3.5
					c-0.3,1.2-0.7,2.3-1.4,3.4c-0.1-1.2-0.2-2.4-0.2-3.6c0-1.2,0.1-2.3,0.2-3.5c0.1-1.2,0.3-2.3,0.5-3.5
					C369.4,182.3,369.7,181.1,370.3,180z"/>
			</g>
			<g>
				<path class="st20" d="M376.9,180.6c0.5,1.1,0.9,2.3,1.1,3.4c0.3,1.2,0.5,2.3,0.6,3.5c0.1,1.2,0.2,2.3,0.1,3.5
					c0,1.2-0.1,2.4-0.4,3.6c-0.5-1.1-0.9-2.3-1.1-3.4c-0.3-1.2-0.5-2.3-0.6-3.5c-0.1-1.2-0.2-2.4-0.1-3.6
					C376.6,183,376.6,181.9,376.9,180.6z"/>
			</g>
		</g>
	</g>
	<g>
		<path class="st21" d="M373.4,177.6c18.5,0.4,39.2-1.1,53.2-5c-2.8-3.3-6.6-8.6-8.9-13.1c1.8-0.5,4.1-1.9,6-2.3
			c-4.5-7-8.4-11.4-13.5-19.8c3.2-0.5,6-0.9,8.7-2.3c-6-7.9-9.8-12.3-14.4-19.8c2.3-0.9,4.7-0.9,8.1-2c-5.2-9.3-11.3-17.8-17.8-27.6
			c2.8-0.5,5.5-0.9,8.3-2.3c-4.6-6.6-10.5-13.8-17-22c2.3,0,4.6-0.5,6.9-0.9c-7-7.6-13.6-18.7-19.5-25.8h0.1
			c-6,7-12.6,18.1-19.5,25.8c2.3,0.5,4.6,0.9,6.9,0.9c-6.6,8.2-12.4,15.5-17,22c2.8,1.4,5.5,1.9,8.3,2.3
			c-6.5,9.8-12.6,18.3-17.8,27.6c3.4,1.1,5.8,1.1,8.1,2c-4.6,7.5-8.4,11.9-14.4,19.8c2.8,1.4,5.5,1.9,8.7,2.3
			c-5.1,8.4-9,12.8-13.5,19.8c1.8,0.5,4.1,1.9,6,2.3c-2.3,4.5-6.1,9.8-8.9,13.1c14,3.9,34.7,5.4,53.2,5"/>
	</g>
	<polygon class="st18" points="378.8,36.6 387.7,33.4 378.8,30.3 383.5,23.3 376.6,28.1 373.4,19.2 370.3,28.1 363.3,23.3 
		368.1,30.3 359.1,33.4 368.1,36.6 363.3,43.6 370.3,38.8 373.4,47.7 376.6,38.8 383.5,43.6 	"/>
	<g>
		<g>
			<g>
				<g>
					<line class="st22" x1="354.9" y1="67.4" x2="354.9" y2="67.4"/>
					<path class="st23" d="M359.7,70.7c9.1,5.4,22.2,9.2,36.3,7.2"/>
					<line class="st22" x1="398.8" y1="77.3" x2="398.8" y2="77.3"/>
				</g>
			</g>
			<g>
				<g>
					<line class="st22" x1="403.8" y1="99.1" x2="403.8" y2="99.1"/>
					<path class="st24" d="M399.2,103c-13.6,10.3-39.3,21.7-58.7,19"/>
					<line class="st22" x1="337.6" y1="121.5" x2="337.6" y2="121.5"/>
				</g>
			</g>
			<g>
				<g>
					<line class="st22" x1="332.3" y1="143" x2="332.3" y2="143"/>
					<path class="st25" d="M336.7,146.9c17.1,13,53.2,23.1,80.8,17.5"/>
					<line class="st22" x1="420.4" y1="163.7" x2="420.4" y2="163.7"/>
				</g>
			</g>
		</g>
		<g>
			<g>
				<g>
					<g>
						<path class="st26" d="M363.3,90.3c0,3.3,0,6.6,0,9.9c0,1.6,2.5,1.6,2.5,0c0-3.3,0-6.6,0-9.9C365.8,88.7,363.3,88.7,363.3,90.3
							L363.3,90.3z"/>
					</g>
				</g>
				<g>
					<g>
						<path class="st26" d="M359.1,96.3c3.4,0.6,6.8,0.4,10.3,0.4c1.6,0,1.6-2.5,0-2.5c-3.2,0-6.4,0.3-9.6-0.3
							c-0.7-0.1-1.3,0.2-1.5,0.9C358.1,95.3,358.5,96.1,359.1,96.3L359.1,96.3z"/>
					</g>
				</g>
				<g>
					<g>
						<path class="st26" d="M360,92.6c2.2,2.7,5,4.8,7.3,7.3c0.4,0.5,1.3,0.5,1.8,0c0.5-0.5,0.5-1.2,0-1.8c-2.3-2.6-5.1-4.7-7.3-7.3
							c-0.4-0.5-1.3-0.5-1.8,0C359.5,91.3,359.5,92,360,92.6L360,92.6z"/>
					</g>
				</g>
				<g>
					<g>
						<path class="st26" d="M361.8,99.6c2.4-2.3,4.8-4.6,7.1-7c0.5-0.5,0.5-1.3,0-1.8c-0.5-0.4-1.3-0.5-1.8,0
							c-2.3,2.4-4.7,4.7-7.1,7c-0.5,0.5-0.5,1.3,0,1.8C360.5,100.1,361.3,100.1,361.8,99.6L361.8,99.6z"/>
					</g>
				</g>
			</g>
			<g>
				<g>
					<g>
						<path class="st26" d="M386.1,134.8c0,3.3,0,6.6,0,9.9c0,1.6,2.5,1.6,2.5,0c0-3.3,0-6.6,0-9.9
							C388.6,133.2,386.1,133.2,386.1,134.8L386.1,134.8z"/>
					</g>
				</g>
				<g>
					<g>
						<path class="st26" d="M381.9,140.8c3.4,0.6,6.8,0.4,10.3,0.4c1.6,0,1.6-2.5,0-2.5c-3.2,0-6.4,0.3-9.6-0.3
							c-0.7-0.1-1.3,0.2-1.5,0.9C380.9,139.8,381.3,140.7,381.9,140.8L381.9,140.8z"/>
					</g>
				</g>
				<g>
					<g>
						<path class="st26" d="M382.8,137.1c2.2,2.7,5,4.8,7.3,7.3c0.4,0.5,1.3,0.5,1.8,0c0.5-0.5,0.5-1.2,0-1.8
							c-2.3-2.6-5.1-4.7-7.3-7.3c-0.4-0.5-1.3-0.5-1.8,0C382.3,135.9,382.3,136.5,382.8,137.1L382.8,137.1z"/>
					</g>
				</g>
				<g>
					<g>
						<path class="st26" d="M384.6,144.1c2.4-2.3,4.8-4.6,7.1-7c0.5-0.5,0.5-1.3,0-1.8c-0.5-0.4-1.3-0.5-1.8,0
							c-2.3,2.4-4.7,4.7-7.1,7c-0.5,0.5-0.5,1.3,0,1.8C383.3,144.6,384.1,144.6,384.6,144.1L384.6,144.1z"/>
					</g>
				</g>
			</g>
			<g>
				<g>
					<g>
						<path class="st26" d="M343.8,161.1c0,3.3,0,6.6,0,9.9c0,1.6,2.5,1.6,2.5,0c0-3.3,0-6.6,0-9.9
							C346.3,159.4,343.8,159.4,343.8,161.1L343.8,161.1z"/>
					</g>
				</g>
				<g>
					<g>
						<path class="st26" d="M339.7,167c3.4,0.6,6.8,0.4,10.3,0.4c1.6,0,1.6-2.5,0-2.5c-3.2,0-6.4,0.3-9.6-0.3
							c-0.7-0.1-1.3,0.2-1.5,0.9C338.7,166.1,339,166.9,339.7,167L339.7,167z"/>
					</g>
				</g>
				<g>
					<g>
						<path class="st26" d="M340.6,163.3c2.2,2.7,5,4.8,7.3,7.3c0.4,0.5,1.3,0.5,1.8,0c0.5-0.5,0.5-1.2,0-1.8
							c-2.3-2.6-5.1-4.7-7.3-7.3c-0.4-0.5-1.3-0.5-1.8,0C340.1,162.1,340.1,162.8,340.6,163.3L340.6,163.3z"/>
					</g>
				</g>
				<g>
					<g>
						<path class="st26" d="M342.3,170.3c2.4-2.3,4.8-4.6,7.1-7c0.5-0.5,0.5-1.3,0-1.8c-0.5-0.4-1.3-0.5-1.8,0
							c-2.3,2.4-4.7,4.7-7.1,7c-0.5,0.5-0.5,1.3,0,1.8C341.1,170.8,341.8,170.8,342.3,170.3L342.3,170.3z"/>
					</g>
				</g>
			</g>
		</g>
		<g>
			<g>
				<path class="st14" d="M368.2,55.5c-4.1,0.1-4.1,6.7,0.3,6.6C373.2,62.1,372.6,55.4,368.2,55.5"/>
			</g>
			<g>
				<path class="st14" d="M388.2,85c-4.1,0.1-4.1,6.7,0.3,6.6C393.2,91.5,392.6,84.8,388.2,85"/>
			</g>
			<g>
				<path class="st14" d="M345.7,136.3c-4.1,0.1-4.1,6.7,0.3,6.6C350.6,142.8,350.1,136.1,345.7,136.3"/>
			</g>
			<g>
				<path class="st14" d="M402.3,152.8c-4.1,0.1-4.1,6.7,0.3,6.6C407.2,159.4,406.7,152.7,402.3,152.8"/>
			</g>
		</g>
		<g>
			<g>
				<path class="st27" d="M380.5,52.5c0.5,0.5,0.8,1,1,1.6c0.2,0.5,0.3,1,0.3,1.6c0,0.5-0.1,1-0.3,1.6c-0.2,0.5-0.5,1-1,1.6
					c-0.5-0.5-0.8-1-1-1.6c-0.2-0.5-0.3-1-0.3-1.6c0-0.5,0.1-1,0.3-1.6C379.7,53.5,380,53,380.5,52.5z"/>
			</g>
			<g>
				<path class="st27" d="M358.3,77.8c0.6,0.4,0.9,0.9,1.1,1.4c0.2,0.5,0.3,1,0.4,1.5c0,0.5-0.1,1-0.3,1.6c-0.2,0.5-0.6,1-1.2,1.4
					c-0.4-0.6-0.6-1.1-0.8-1.5c-0.2-0.5-0.2-0.9-0.2-1.4c0-0.5,0-0.9,0.2-1.4C357.6,78.8,357.9,78.3,358.3,77.8z"/>
			</g>
			<g>
				<path class="st27" d="M390.5,97.5c0.6,0.4,0.9,0.9,1.1,1.3c0.2,0.5,0.3,1,0.3,1.5c0,0.5-0.1,1-0.3,1.5c-0.2,0.5-0.5,0.9-1.1,1.3
					c-0.5-0.5-0.7-1-0.9-1.4c-0.2-0.5-0.2-0.9-0.2-1.3c0-0.4,0.1-0.9,0.2-1.3C389.8,98.4,390,98,390.5,97.5z"/>
			</g>
			<g>
				<path class="st27" d="M349.4,105.7c0.5,0.6,0.8,1.2,0.9,1.8c0.2,0.6,0.2,1.2,0.2,1.8c0,0.6-0.2,1.1-0.4,1.7
					c-0.2,0.6-0.6,1.1-1.1,1.6c-0.5-0.6-0.7-1.2-0.8-1.8c-0.1-0.6-0.2-1.1-0.1-1.7c0-0.6,0.2-1.1,0.4-1.7
					C348.6,106.8,348.9,106.3,349.4,105.7z"/>
			</g>
			<g>
				<path class="st27" d="M398.9,117.1c0.6,0.5,1,1.1,1.2,1.7c0.2,0.6,0.3,1.3,0.3,1.9c0,0.6-0.1,1.2-0.3,1.8
					c-0.2,0.6-0.5,1.2-1,1.8c-0.5-0.6-0.8-1.2-1-1.8c-0.2-0.6-0.2-1.2-0.2-1.8c0-0.6,0.1-1.2,0.2-1.8
					C398.3,118.4,398.5,117.8,398.9,117.1z"/>
			</g>
			<g>
				<path class="st27" d="M366.7,132.2c0.6,0.5,0.9,1,1.1,1.5c0.2,0.5,0.3,1,0.3,1.6c0,0.5-0.1,1.1-0.2,1.6c-0.2,0.5-0.5,1-1,1.6
					c-0.5-0.5-0.8-1-1-1.5c-0.2-0.5-0.3-1-0.3-1.5c0-0.5,0.1-1,0.2-1.5C366,133.3,366.2,132.8,366.7,132.2z"/>
			</g>
			<g>
				<path class="st27" d="M384.8,150.8c0.6,0.5,0.9,1.1,1.1,1.6c0.2,0.6,0.3,1.1,0.3,1.7c0,0.6-0.1,1.1-0.2,1.7
					c-0.2,0.6-0.5,1.1-1,1.7c-0.5-0.6-0.8-1.1-1-1.7c-0.2-0.5-0.3-1.1-0.3-1.6c0-0.5,0.1-1.1,0.2-1.6
					C384.1,152,384.4,151.4,384.8,150.8z"/>
			</g>
			<g>
				<path class="st27" d="M338.2,127.6c0.6,0.5,0.9,1,1,1.5c0.2,0.5,0.2,1.1,0.2,1.6c-0.1,0.5-0.2,1-0.4,1.5
					c-0.3,0.5-0.6,0.9-1.2,1.4c-0.5-0.6-0.7-1.1-0.8-1.6c-0.1-0.5-0.1-1-0.1-1.5c0-0.5,0.2-0.9,0.4-1.4
					C337.5,128.7,337.8,128.2,338.2,127.6z"/>
			</g>
			<g>
				<path class="st27" d="M359.4,167.2c0.5,0.4,0.8,0.9,1,1.3c0.2,0.4,0.3,0.9,0.3,1.3c0,0.4-0.1,0.9-0.3,1.3
					c-0.2,0.4-0.5,0.9-1,1.3c-0.5-0.4-0.8-0.9-1-1.3c-0.2-0.4-0.3-0.9-0.3-1.3c0-0.4,0.1-0.9,0.3-1.3
					C358.6,168.1,358.8,167.6,359.4,167.2z"/>
			</g>
			<g>
				<path class="st27" d="M412.8,150.4c0.6,0.4,0.9,0.8,1.1,1.3c0.2,0.5,0.3,0.9,0.3,1.4c0,0.5-0.1,0.9-0.2,1.4
					c-0.2,0.5-0.5,0.9-1,1.4c-0.5-0.4-0.8-0.9-1-1.3c-0.2-0.4-0.3-0.9-0.3-1.3c0-0.4,0.1-0.9,0.2-1.3
					C412.1,151.4,412.3,150.9,412.8,150.4z"/>
			</g>
			<g>
				<path class="st27" d="M372.8,66.8c0.5,0.4,0.8,0.8,1,1.1c0.2,0.4,0.3,0.8,0.3,1.1c0,0.4-0.1,0.8-0.3,1.1c-0.2,0.4-0.5,0.8-1,1.1
					c-0.5-0.4-0.8-0.8-1-1.1c-0.2-0.4-0.3-0.8-0.3-1.1c0-0.4,0.1-0.8,0.3-1.1C372,67.5,372.3,67.2,372.8,66.8z"/>
			</g>
			<g>
				<path class="st27" d="M387.9,67.8c0.6,0.4,0.9,0.8,1.1,1.3c0.2,0.5,0.3,0.9,0.3,1.4c0,0.5-0.1,0.9-0.2,1.4
					c-0.2,0.5-0.5,0.9-1,1.4c-0.5-0.4-0.8-0.9-1-1.3c-0.2-0.4-0.3-0.9-0.3-1.3c0-0.4,0.1-0.9,0.2-1.3
					C387.2,68.8,387.5,68.3,387.9,67.8z"/>
			</g>
			<g>
				<path class="st27" d="M368.3,46.9c0.5,0.4,0.8,0.9,1,1.3c0.2,0.4,0.2,0.9,0.2,1.3c0,0.5-0.1,0.9-0.4,1.3
					c-0.2,0.4-0.6,0.9-1.2,1.2c-0.3-0.6-0.6-1-0.7-1.4c-0.1-0.4-0.2-0.8-0.2-1.2c0-0.4,0.1-0.8,0.3-1.3
					C367.5,47.8,367.7,47.3,368.3,46.9z"/>
			</g>
			<g>
				<path class="st27" d="M375.9,85.8c0.6,0.4,0.9,0.9,1.1,1.4c0.2,0.5,0.3,0.9,0.3,1.4c0,0.5-0.1,0.9-0.2,1.3
					c-0.2,0.5-0.4,0.9-0.8,1.5c-0.6-0.3-1-0.8-1.2-1.3c-0.2-0.5-0.3-1-0.3-1.5c0-0.5,0.1-0.9,0.2-1.4
					C375.2,86.8,375.5,86.3,375.9,85.8z"/>
			</g>
			<g>
				<path class="st27" d="M363.5,108.6c0.5,0.6,0.8,1.1,1,1.7c0.2,0.6,0.3,1.1,0.3,1.7c0,0.6-0.1,1.1-0.3,1.7
					c-0.2,0.6-0.5,1.1-1,1.7c-0.5-0.6-0.8-1.1-1-1.7c-0.2-0.6-0.3-1.1-0.3-1.7c0-0.6,0.1-1.1,0.3-1.7
					C362.7,109.7,363,109.2,363.5,108.6z"/>
			</g>
			<g>
				<path class="st27" d="M387.7,118.3c0.6,0.5,0.9,1,1.1,1.6c0.2,0.5,0.3,1.1,0.3,1.6c0,0.5-0.1,1.1-0.2,1.6
					c-0.2,0.5-0.5,1.1-1,1.6c-0.5-0.5-0.8-1.1-1-1.6c-0.2-0.5-0.3-1.1-0.3-1.6c0-0.5,0.1-1.1,0.2-1.6
					C387,119.4,387.3,118.9,387.7,118.3z"/>
			</g>
			<g>
				<path class="st27" d="M403.7,136.1c0.5,0.5,0.8,0.9,1,1.4c0.2,0.5,0.3,0.9,0.3,1.4c0,0.5-0.1,0.9-0.3,1.4
					c-0.2,0.5-0.5,0.9-1,1.4c-0.5-0.5-0.8-0.9-1-1.4c-0.2-0.5-0.3-0.9-0.3-1.4c0-0.5,0.1-0.9,0.3-1.4
					C402.9,137.1,403.1,136.6,403.7,136.1z"/>
			</g>
			<g>
				<path class="st27" d="M370.7,146.5c0.5,0.4,0.8,0.9,1,1.3c0.2,0.4,0.3,0.9,0.3,1.3c0,0.4-0.1,0.9-0.3,1.3
					c-0.2,0.4-0.5,0.9-1,1.3c-0.5-0.4-0.8-0.9-1-1.3c-0.2-0.4-0.3-0.9-0.3-1.3c0-0.4,0.1-0.9,0.3-1.3
					C369.9,147.3,370.2,146.9,370.7,146.5z"/>
			</g>
			<g>
				<path class="st27" d="M354,127.4c0.5,0.5,0.8,1,0.9,1.6c0.2,0.5,0.2,1,0.2,1.6c0,0.5-0.1,1-0.3,1.6c-0.2,0.5-0.5,1-1,1.6
					c-0.5-0.5-0.8-1-0.9-1.6c-0.2-0.5-0.2-1-0.2-1.6c0-0.5,0.1-1,0.3-1.6C353.2,128.5,353.4,128,354,127.4z"/>
			</g>
			<g>
				<path class="st27" d="M382.8,168.6c0.5,0.5,0.8,0.9,0.9,1.4c0.2,0.5,0.2,0.9,0.2,1.4c0,0.5-0.1,0.9-0.3,1.4
					c-0.2,0.5-0.5,0.9-1,1.4c-0.5-0.5-0.8-0.9-0.9-1.4c-0.2-0.5-0.2-0.9-0.2-1.4c0-0.5,0.1-0.9,0.3-1.4
					C381.9,169.6,382.2,169.1,382.8,168.6z"/>
			</g>
			<g>
				<path class="st27" d="M402,170.1c0.6,0.3,0.9,0.7,1.1,1.1c0.2,0.4,0.3,0.8,0.3,1.2c0,0.4-0.1,0.8-0.2,1.2
					c-0.2,0.4-0.5,0.8-1,1.2c-0.5-0.4-0.8-0.8-1-1.2c-0.2-0.4-0.3-0.8-0.3-1.2c0-0.4,0.1-0.8,0.2-1.2
					C401.3,170.9,401.6,170.6,402,170.1z"/>
			</g>
			<g>
				<path class="st27" d="M334.7,152.7c0.5,0.7,0.7,1.3,0.8,2c0.1,0.6,0.2,1.3,0.1,1.9c0,0.6-0.2,1.2-0.4,1.8
					c-0.2,0.6-0.6,1.2-1.1,1.8c-0.5-0.7-0.7-1.3-0.8-2c-0.1-0.6-0.2-1.3-0.1-1.9c0.1-0.6,0.2-1.2,0.4-1.8
					C333.8,153.9,334.2,153.3,334.7,152.7z"/>
			</g>
		</g>
		<g>
			<g>
				<path class="st28" d="M351.3,96.2c-3.1,0.1-3.1,5,0.2,5C355,101.2,354.6,96.1,351.3,96.2"/>
			</g>
			<g>
				<path class="st28" d="M374.8,127.4c-3.1,0.1-3.1,5,0.2,5C378.5,132.4,378.1,127.3,374.8,127.4"/>
			</g>
			<g>
				<path class="st28" d="M380.8,67.4c-3.1,0.1-3.1,5,0.2,5C384.5,72.3,384.1,67.3,380.8,67.4"/>
			</g>
			<g>
				<path class="st28" d="M405.7,127.2c-3.1,0.1-3.1,5,0.2,5C409.4,132.2,409,127.1,405.7,127.2"/>
			</g>
			<g>
				<path class="st28" d="M372.4,168.5c-3.1,0.1-3.1,5,0.2,5C376.1,173.4,375.7,168.4,372.4,168.5"/>
			</g>
			<g>
				<path class="st28" d="M376.7,103.2c-3.1,0.1-3.1,5,0.2,5C380.4,108.2,380,103.1,376.7,103.2"/>
			</g>
			<g>
				<path class="st28" d="M359.4,145.4c-3.1,0.1-3.1,5,0.2,5C363.1,150.3,362.7,145.3,359.4,145.4"/>
			</g>
		</g>
		<g>
			<g>
				<g>
					<path class="st14" d="M367.6,84.5c2.4,0,2.4-3.8,0-3.8C365.2,80.7,365.2,84.5,367.6,84.5L367.6,84.5z"/>
				</g>
			</g>
			<g>
				<g>
					<path class="st14" d="M393.4,129.6c2.4,0,2.4-3.7,0-3.7C391,125.8,391,129.6,393.4,129.6L393.4,129.6z"/>
				</g>
			</g>
			<g>
				<g>
					<path class="st14" d="M331.9,169.7c2.4,0,2.4-3.8,0-3.8C329.5,166,329.5,169.7,331.9,169.7L331.9,169.7z"/>
				</g>
			</g>
			<g>
				<g>
					<path class="st14" d="M358.7,138.5c2.4,0,2.4-3.8,0-3.8C356.3,134.8,356.3,138.5,358.7,138.5L358.7,138.5z"/>
				</g>
			</g>
			<g>
				<g>
					<path class="st14" d="M341.8,109.7c2.4,0,2.4-3.8,0-3.8C339.4,106,339.4,109.7,341.8,109.7L341.8,109.7z"/>
				</g>
			</g>
			<g>
				<g>
					<path class="st14" d="M378,50.2c2.4,0,2.4-3.8,0-3.8C375.6,46.5,375.6,50.2,378,50.2L378,50.2z"/>
				</g>
			</g>
			<g>
				<g>
					<path class="st14" d="M382.5,99.5c1.9,0,1.9-3,0-3C380.6,96.5,380.6,99.5,382.5,99.5L382.5,99.5z"/>
				</g>
			</g>
			<g>
				<g>
					<path class="st14" d="M378,152c1.9,0,1.9-3,0-3C376.1,149,376.1,152,378,152L378,152z"/>
				</g>
			</g>
			<g>
				<g>
					<path class="st14" d="M413.2,173.3c1.9,0,1.9-3,0-3C411.3,170.3,411.3,173.3,413.2,173.3L413.2,173.3z"/>
				</g>
			</g>
			<g>
				<g>
					<path class="st14" d="M355.2,114.3c1.9,0,1.9-3,0-3C353.3,111.3,353.3,114.3,355.2,114.3L355.2,114.3z"/>
				</g>
			</g>
			<g>
				<g>
					<path class="st14" d="M352.2,80.6c1.9,0,1.9-3,0-3C350.3,77.6,350.3,80.6,352.2,80.6L352.2,80.6z"/>
				</g>
			</g>
			<g>
				<g>
					<path class="st14" d="M402.3,110.9c1.9,0,1.9-3,0-3C400.4,107.9,400.4,110.9,402.3,110.9L402.3,110.9z"/>
				</g>
			</g>
			<g>
				<g>
					<path class="st14" d="M397.9,149.5c1.9,0,1.9-3,0-3C395.9,146.5,395.9,149.5,397.9,149.5L397.9,149.5z"/>
				</g>
			</g>
			<g>
				<g>
					<path class="st14" d="M377,64.2c1.9,0,1.9-3,0-3C375.1,61.2,375.1,64.2,377,64.2L377,64.2z"/>
				</g>
			</g>
			<g>
				<g>
					<path class="st14" d="M365.1,168.9c1.9,0,1.9-3,0-3C363.2,165.9,363.2,168.9,365.1,168.9L365.1,168.9z"/>
				</g>
			</g>
		</g>
	</g>
</g>
<g id="Снег">
	<path class="st8" d="M306.7,199.5h66.6c0,0-5.9-11.7-15.9-7.8c0,0-8.2-5.1-21.2-5.1c-13,0-14.7,5.7-14.7,5.7S306,192.9,306.7,199.5
		z"/>
	<path class="st8" d="M364,199.5H441c0,0-6.8-15.1-18.3-10.1c0,0-9.5-6.6-24.5-6.6c-15,0-17,7.3-17,7.3S363.3,191,364,199.5z"/>
	<path class="st8" d="M122.4,199.5h76.9c0,0-6.8-15.1-18.3-10.1c0,0-9.5-6.6-24.5-6.6c-15,0-17,7.3-17,7.3S121.7,191,122.4,199.5z"
		/>
	<path class="st8" d="M61.7,199.5h76.9c0,0-6.8-15.1-18.3-10.1c0,0-9.5-6.6-24.5-6.6c-15,0-17,7.3-17,7.3S61,191,61.7,199.5z"/>
</g>
</svg>
